<svg width="420" height="280" viewBox="0 0 420 280" fill="none" xmlns="http://www.w3.org/2000/svg">
<path d="M-36 304H456V-24H-36V304Z" fill="white"/>
<path d="M367.517 274.48H318.461V270.649H318.46V257.698H296.812C296.187 256.212 295.562 254.725 294.939 253.237C291.99 246.215 289.041 239.191 286.091 232.166C284.026 227.253 281.857 221.895 277.406 218.641C274.768 216.714 271.597 215.868 268.395 215.868C265.89 215.868 263.364 216.386 261.06 217.308C257.381 218.781 254.203 221.165 251.379 223.922H239.518H198.728H175.622V240.811H152.616V257.698H135.967C135.582 244.247 134.812 230.972 133.012 218.158C132.792 216.518 132.543 214.884 132.279 213.259L128.303 213.324C128.472 212.418 128.618 211.502 128.772 210.579L114.548 213.259C114.489 215.083 114.372 217.008 114.196 219.014C113.032 232.66 109.415 250.29 105.682 268.109H114.958C118.237 258.028 121.21 247.353 123.809 235.947C124.626 242.951 125.272 250.239 125.818 257.698H119.787V270.649H119.785V274.48H69.4616C55.2499 252.071 50.6597 223.292 59.6219 198.197C71.7109 164.346 107.117 140.925 142.765 140.925C148.042 140.925 153.328 141.438 158.542 142.508C167.163 144.276 175.455 147.336 183.598 150.934L183.991 155.859C184.942 167.732 194.855 176.884 206.768 176.884H231.348C234.359 176.884 237.24 176.3 239.882 175.235C245.68 176.651 251.597 177.486 257.689 177.486C257.893 177.486 258.101 177.484 258.305 177.482C278.427 177.297 297.83 167.741 317.759 167.741C319.577 167.741 321.4 167.821 323.227 167.993C346.384 170.192 366.428 188.255 373.905 210.284C381.009 231.212 377.66 254.795 367.517 274.48ZM56.4787 209.794C56.4377 210.008 56.3957 210.223 56.3565 210.44C64.9821 213.262 74.0385 214.758 83.114 214.758C87.2625 214.758 91.4147 214.446 95.532 213.805C112.455 211.169 128.262 202.986 140.664 191.227L142.309 196.852L146.299 195.908C146.365 195.893 146.432 195.878 146.489 195.857C147.647 195.534 148.657 194.809 149.323 193.807L149.814 193.074C149.887 192.949 149.968 192.833 150.04 192.708C155.085 184.618 158.071 177.759 157.133 177.366C156.984 177.304 156.859 177.282 156.756 177.282C156.521 177.282 156.403 177.392 156.403 177.392C156.403 177.392 156.433 176.697 156.242 176.506C156.17 176.436 156.088 176.408 156.005 176.408C155.652 176.408 155.245 176.91 155.245 176.91C155.245 176.91 155.429 175.993 154.755 175.993C154.082 175.993 151.952 179.222 151.952 179.222C151.952 179.222 151.888 178.87 151.782 178.438C155.454 173.272 158.551 167.705 160.959 161.835C161.415 160.723 161.843 159.603 162.248 158.476C162.907 158.991 163.611 159.472 164.37 159.924L164.824 155.951C164.226 155.872 163.696 155.751 163.224 155.588C164.393 151.905 165.305 148.157 165.999 144.367C165.781 144.303 165.564 144.239 165.346 144.179C164.659 147.939 163.767 151.667 162.609 155.337C160.226 154.202 159.35 151.705 157.266 147.626L155.46 150.201C157.407 153.44 159.257 155.988 161.705 158.038C159.229 165.007 155.778 171.595 151.54 177.635C151.391 177.23 151.209 176.905 151.011 176.905C150.998 176.905 150.985 176.907 150.97 176.91C150.686 176.971 150.548 178.068 150.483 179.109C147.045 183.793 143.129 188.129 138.824 192.037C128.156 201.725 115.074 208.814 101.014 212.076C95.1386 213.439 89.1293 214.097 83.1192 214.097C74.2255 214.097 65.329 212.655 56.8538 209.921C56.728 209.882 56.6043 209.835 56.4787 209.794ZM103.976 190.373C104.085 190.483 104.195 190.592 104.312 190.694L109.576 195.403L113.376 188.952C111.897 188.059 110.433 186.896 108.939 185.387L104.364 174.163C104.364 174.163 105.674 170.284 104.971 170.137C104.945 170.132 104.919 170.129 104.893 170.129C104.2 170.129 103.324 171.996 103.324 171.996C103.324 171.996 102.467 168.124 101.831 168.087C101.782 168.085 101.736 168.083 101.692 168.083C101.156 168.083 100.974 168.261 100.974 168.856C100.974 168.856 100.719 168.69 100.46 168.69C100.221 168.69 99.9801 168.831 99.9343 169.376C99.9343 169.376 99.6693 169.263 99.3709 169.263C99.0306 169.263 98.6472 169.41 98.5654 170.042C98.4555 170.921 100.645 180.913 101.801 186.046C101.838 186.243 101.882 186.442 101.926 186.625C102.241 188.046 102.958 189.341 103.976 190.373ZM296.105 257.698H285.63V240.811H262.624V223.922H252.287C253.758 222.546 255.323 221.282 256.996 220.185C260.359 217.979 264.454 216.506 268.505 216.506C270.765 216.506 273.01 216.964 275.111 218.01C280.466 220.677 283.008 226.52 285.205 231.74C287.951 238.259 290.683 244.783 293.422 251.305C294.316 253.436 295.211 255.568 296.105 257.698ZM141.015 190.893C144.434 187.614 147.588 184.065 150.432 180.283C150.422 180.706 150.422 180.994 150.422 180.994L145.479 190.328C143.967 190.528 142.475 190.715 141.015 190.893Z" fill="#F0F6FF"/>
<path d="M95.5349 213.805C124.344 209.318 149.926 188.752 160.962 161.835C163.281 156.175 164.913 150.324 166.002 144.367C165.783 144.303 165.567 144.239 165.349 144.179C164.617 148.182 163.653 152.148 162.385 156.046C157.89 169.869 149.57 182.284 138.827 192.037C128.159 201.725 115.077 208.814 101.017 212.076C86.4465 215.456 71.059 214.504 56.8566 209.921C56.7308 209.882 56.6072 209.835 56.4816 209.794C56.4406 210.008 56.3986 210.223 56.3594 210.44C68.928 214.553 82.4103 215.848 95.5349 213.805Z" fill="white"/>
<path d="M142.338 233.255C163.843 236.132 185.936 237.668 207.185 232.227C216.825 229.759 226.137 225.836 234.3 220.101C242.495 214.344 249.279 206.82 254.658 198.402C258.96 191.671 262.317 184.509 265.013 177.092C264.776 177.116 264.538 177.143 264.302 177.164C262.46 182.179 260.31 187.086 257.752 191.837C252.792 201.042 246.373 209.529 238.299 216.227C230.339 222.83 220.934 227.481 211.062 230.466C190.21 236.771 168.127 235.835 146.765 233.173C123.394 230.261 100.004 225.329 76.3362 226.384C69.263 226.698 62.1077 227.541 55.1152 229.072C55.1252 229.3 55.1303 229.529 55.1418 229.757C60.8436 228.493 66.6554 227.689 72.4399 227.268C95.9017 225.562 119.188 230.161 142.338 233.255Z" fill="white"/>
<path d="M352.802 248.704C344.537 246.892 336.382 244.365 328.84 240.483C321.813 236.865 315.19 232.045 310.5 225.605C305.678 218.986 303.376 210.961 304.094 202.791C305.414 187.782 315.199 175.787 327.845 168.653C327.521 168.592 327.197 168.538 326.872 168.484C316.256 174.617 307.796 184.013 304.56 196.364C302.497 204.241 302.971 212.601 306.428 220.016C309.742 227.127 315.443 232.822 321.893 237.159C328.701 241.734 336.397 244.942 344.254 247.213C353.686 249.941 363.428 251.6 373.223 252.227C374.009 252.278 374.795 252.309 375.582 252.345C375.629 252.129 375.678 251.912 375.724 251.696C368.018 251.343 360.34 250.357 352.802 248.704Z" fill="white"/>
<path d="M180.834 161.108C182.325 157.955 183.995 154.893 185.825 151.933C185.623 151.841 185.423 151.749 185.221 151.657C183.909 153.784 182.679 155.962 181.539 158.191C178.706 163.737 176.416 169.568 174.748 175.572C172.926 182.13 171.386 189.338 173.071 196.088C174.373 201.3 177.786 206.166 182.973 208.04C188.842 210.161 195.219 207.96 200.414 205.08C206.079 201.943 211.264 197.753 216.171 193.553C221.109 189.328 225.767 184.775 230.108 179.939C231.856 177.991 233.552 175.993 235.194 173.956C234.962 173.887 234.73 173.818 234.497 173.746C226.561 183.557 217.39 192.364 207.196 199.837C201.971 203.67 196.083 207.547 189.461 208.16C182.881 208.77 177.377 204.985 174.771 199.06C171.883 192.49 173.059 185.005 174.717 178.281C176.173 172.372 178.232 166.609 180.834 161.108Z" fill="white"/>
<path d="M357.55 231.561C364.349 231.924 371.175 230.234 377.407 227.269C377.39 227.071 377.376 226.872 377.358 226.676C372.195 229.121 366.609 230.628 360.795 230.908C354.275 231.223 347.615 229.516 342.757 224.981C338.376 220.891 336.18 214.945 337.858 209.065C338.601 206.456 340.074 204.011 342.194 202.294C344.95 200.063 348.502 199.496 351.946 199.391C355.047 199.297 358.163 199.519 361.251 199.124C363.503 198.835 365.704 198.218 367.788 197.326C367.673 197.139 367.56 196.949 367.442 196.762C366.762 197.051 366.068 197.313 365.363 197.539C358.999 199.575 352.189 197.602 345.878 199.617C340.948 201.192 337.666 205.605 336.833 210.628C335.962 215.884 337.935 221.014 341.614 224.781C345.807 229.077 351.623 231.246 357.55 231.561Z" fill="white"/>
<path d="M294.942 253.237C291.993 246.215 289.044 239.191 286.094 232.166C284.029 227.253 281.86 221.895 277.409 218.641C272.708 215.207 266.314 215.207 261.063 217.308C255.483 219.542 251.054 223.873 247.27 228.417C239.736 237.469 234.331 248.222 231.33 259.599C230.044 264.476 229.204 269.462 228.82 274.48H229.494C230.629 259.784 235.7 245.393 244.29 233.349C247.803 228.424 251.897 223.53 256.999 220.185C262.24 216.747 269.251 215.091 275.114 218.01C280.469 220.677 283.011 226.52 285.208 231.74C287.954 238.259 290.686 244.783 293.425 251.305C296.667 259.03 299.911 266.754 303.155 274.48H303.86C300.888 267.399 297.915 260.319 294.942 253.237Z" fill="white"/>
<path d="M261.667 164.072C258.399 164.072 255.199 163.778 252.271 163.237C253.277 160.954 253.921 158.473 254.13 155.859L256.247 129.407C259.351 130.222 262.213 130.442 265.026 130.442C265.697 130.442 266.364 130.431 267.031 130.409C269.665 130.331 272.296 130.136 275.081 130.136C276.765 130.136 278.505 130.208 280.337 130.419C287.228 131.213 291.059 134.567 291.531 141.773C292.602 158.083 276.427 164.072 261.667 164.072Z" fill="#F0F6FF"/>
<path d="M323.733 68.2926C319.603 66.8625 316.779 64.3812 313.598 60.747L314.944 57.8786C318.285 62.3033 319.38 64.6977 323.556 64.3517L323.733 68.2926Z" fill="#FFB900"/>
<path d="M371.16 131.843C368.087 127.846 366.714 123.743 365.576 118.354L368.197 116.617C369.097 122.829 368.933 125.727 372.909 128.133L371.16 131.843Z" fill="#007BFF"/>
<path d="M268.238 79.0854C263.889 80.1678 260.271 79.5462 255.836 78.0866L255.828 74.7164C260.745 76.7992 262.76 78.3359 266.391 75.6233L268.238 79.0854Z" fill="#14CCA1"/>
<path d="M156.428 65.3767C154.371 68.2992 152.062 69.8621 148.954 71.3807L147.621 69.4619C151.249 68.0433 153.005 67.8515 154.007 64.3779L156.428 65.3767Z" fill="#FF5C33"/>
<path d="M84.8902 150.46C80.0051 150.706 76.347 149.354 72.0469 146.983L72.9331 143.532C77.5774 146.635 79.2994 148.608 83.8575 146.55L84.8902 150.46Z" fill="#007BFF"/>
<path d="M93.796 66.7182C90.0689 64.0089 88.1166 60.6863 86.25 56.1238L88.7877 53.7475C90.5074 59.1332 90.6957 61.8212 95.1732 62.8101L93.796 66.7182Z" fill="#14CCA1"/>
<path d="M116.099 96.6057C111.876 99.5544 107.891 100.412 102.79 100.732L101.734 97.2027C107.535 97.3339 110.125 98.1047 113.088 93.7455L116.099 96.6057Z" fill="#007BFF"/>
<path d="M176.579 15.2894C172.342 17.7806 168.462 18.2824 163.542 18.1775L162.74 14.7007C168.305 15.296 170.748 16.2472 173.858 12.2981L176.579 15.2894Z" fill="#FFB900"/>
<path d="M236.614 23.8799C233.084 22.1382 230.8 19.6175 228.299 16.0341L229.737 13.6529C232.312 17.9529 233.073 20.1964 236.796 20.3736L236.614 23.8799Z" fill="#14CCA1"/>
<path d="M291.574 37.659C295.438 35.3843 297.581 32.4126 299.72 28.2733L297.356 25.8756C295.311 30.7939 294.956 33.295 290.457 33.9083L291.574 37.659Z" fill="#FF5C33"/>
<path d="M164.369 159.924C163.61 159.472 162.906 158.991 162.247 158.476C162.59 157.518 162.914 156.556 163.223 155.588C163.695 155.751 164.225 155.872 164.823 155.951L164.369 159.924ZM161.704 158.038C159.256 155.988 157.406 153.44 155.459 150.201L157.265 147.626C159.349 151.705 160.225 154.202 162.608 155.337C162.534 155.573 162.458 155.81 162.381 156.046C162.165 156.713 161.939 157.377 161.704 158.038Z" fill="#FD7555"/>
<path d="M162.248 158.476C162.063 158.334 161.882 158.188 161.705 158.038C161.94 157.378 162.166 156.713 162.382 156.046C162.459 155.81 162.535 155.574 162.609 155.337C162.804 155.429 163.007 155.513 163.224 155.588C162.915 156.556 162.591 157.519 162.248 158.476Z" fill="#FF7755"/>
<path d="M293.209 125.014C291.659 129.844 289.267 133.042 285.824 136.589L283.369 134.787C287.523 131.103 289.724 129.962 289.701 124.958L293.209 125.014Z" fill="#FF5C33"/>
<path d="M134.885 45.0982C134.885 46.0034 134.151 46.7382 133.245 46.7382C132.34 46.7382 131.605 46.0034 131.605 45.0982C131.605 44.1929 132.34 43.4582 133.245 43.4582C134.151 43.4582 134.885 44.1929 134.885 45.0982Z" fill="#FF5C33"/>
<path d="M265.212 45.0982C265.212 46.0034 264.477 46.7382 263.572 46.7382C262.665 46.7382 261.932 46.0034 261.932 45.0982C261.932 44.1929 262.665 43.4582 263.572 43.4582C264.477 43.4582 265.212 44.1929 265.212 45.0982Z" fill="#FFB900"/>
<path d="M308.075 95.064C308.075 95.9693 307.34 96.704 306.435 96.704C305.53 96.704 304.795 95.9693 304.795 95.064C304.795 94.1571 305.53 93.424 306.435 93.424C307.34 93.424 308.075 94.1571 308.075 95.064Z" fill="#FF5C33"/>
<path d="M137.512 111.682C137.512 112.587 136.778 113.322 135.872 113.322C134.967 113.322 134.232 112.587 134.232 111.682C134.232 110.777 134.967 110.042 135.872 110.042C136.778 110.042 137.512 110.777 137.512 111.682Z" fill="#14CCA1"/>
<path d="M64.3842 97.3058L61.1042 100.586L57.8242 97.3058L61.1042 94.0258L64.3842 97.3058Z" fill="#FFB900"/>
<path d="M349.21 91.9317L345.93 95.2117L342.65 91.9317L345.93 88.6517L349.21 91.9317Z" fill="#14CCA1"/>
<path d="M232.879 208.783L205.248 208.818L205.24 202.364C205.239 200.086 207.084 198.236 209.362 198.233L228.74 198.21C231.019 198.207 232.868 200.052 232.871 202.331L232.879 208.783Z" fill="#F69F32"/>
<path d="M227.999 201.908H210.123V170.256H227.999V201.908Z" fill="#F69F32"/>
<path d="M210.123 183.936V170.256H227.999L227.981 176.9L210.123 183.936Z" fill="#E8950C"/>
<path d="M249.802 145.847L248.662 142.078C269.593 135.743 278.469 122.65 275.794 102.049C275.765 102.019 275.543 101.89 275.271 101.965L272.39 102.744C271.237 103.056 270.461 103.918 270.461 104.892V109.355C270.461 112.064 268.175 114.231 265.257 114.286C262.241 114.344 257.08 114.442 256.393 114.442V110.506C256.864 110.506 260.149 110.449 265.182 110.35C265.91 110.337 266.525 109.881 266.525 109.355V104.892C266.525 102.118 268.468 99.7281 271.361 98.9442L274.243 98.1652C275.511 97.8224 276.854 98.0356 277.931 98.7556C278.909 99.4083 279.551 100.423 279.697 101.542C281.103 112.371 279.527 121.511 275.01 128.705C270.123 136.495 261.641 142.263 249.802 145.847Z" fill="#FFB900"/>
<path d="M188.288 145.847C176.448 142.263 167.966 136.495 163.079 128.705C158.563 121.511 156.986 112.371 158.392 101.542C158.538 100.423 159.181 99.4067 160.158 98.7556C161.236 98.0356 162.579 97.8224 163.847 98.1652L166.728 98.9442C169.621 99.7265 171.564 102.118 171.564 104.892V109.355C171.564 109.881 172.179 110.337 172.908 110.35C177.939 110.449 181.226 110.506 181.696 110.506V114.442C181.009 114.442 175.848 114.344 172.832 114.286C169.915 114.231 167.628 112.064 167.628 109.355V104.892C167.628 103.918 166.853 103.056 165.7 102.744L162.818 101.965C162.544 101.89 162.323 102.019 162.285 102.082C159.62 122.65 168.496 135.743 189.427 142.078L188.288 145.847Z" fill="#F69F32"/>
<path d="M258.41 102.447L254.132 155.859C253.621 162.261 250.498 167.877 245.86 171.688C241.905 174.942 236.84 176.884 231.35 176.884H206.769C194.856 176.884 184.944 167.732 183.993 155.859L181.776 128.143L179.716 102.447C179.394 98.4261 182.569 94.9821 186.61 94.9821H251.515C255.549 94.9821 258.731 98.4261 258.41 102.447Z" fill="#F69F32"/>
<path d="M245.86 171.688C241.904 174.942 236.84 176.884 231.349 176.884H206.769C194.856 176.884 184.944 167.732 183.993 155.859L181.775 128.143C197.342 147.816 222.165 164.695 245.86 171.688Z" fill="#E8950C"/>
<path d="M232.381 177.212H206.77V176.556H232.381V177.212Z" fill="#001F40"/>
<path d="M214.124 198.561H209.363V197.905H214.124V198.561Z" fill="#001F40"/>
<path d="M228.882 198.561H224.121V197.905H228.882V198.561Z" fill="#001F40"/>
<path d="M239.312 224.407L198.812 224.457L198.799 213.757C198.794 209.767 202.025 206.528 206.015 206.523L232.065 206.492C236.055 206.487 239.294 209.718 239.299 213.708L239.312 224.407Z" fill="#F69F32"/>
<path d="M232.861 206.912H205.268V206.256H232.861V206.912Z" fill="#E8950C"/>
<mask id="mask0_998_7193" style="mask-type:luminance" maskUnits="userSpaceOnUse" x="236" y="110" width="8" height="16">
<path d="M240.118 125.076C238.125 125.076 236.51 121.918 236.51 118.024C236.51 114.129 238.125 110.972 240.118 110.972C242.11 110.972 243.726 114.129 243.726 118.024C243.726 121.918 242.11 125.076 240.118 125.076Z" fill="white"/>
</mask>
<g mask="url(#mask0_998_7193)">
<path d="M236.51 125.076H243.726V110.972H236.51V125.076Z" fill="#FFE399"/>
</g>
<path d="M119.787 274.587H318.46V257.698H119.787V274.587Z" fill="white"/>
<path d="M152.619 257.698H285.633V240.811H152.619V257.698Z" fill="white"/>
<path d="M175.625 240.811H262.627V223.922H175.625V240.811Z" fill="white"/>
<path d="M170.186 274.585H268.061V257.7H170.186V274.585Z" fill="#FF5C33"/>
<path d="M184.279 257.699H253.973V240.807H184.279V257.699Z" fill="#FF5C33"/>
<path d="M198.73 240.807H239.521V223.922H198.73V240.807Z" fill="#FF5C33"/>
<path d="M175.625 240.801H198.729V236.865H175.625V240.801Z" fill="#E5EBF2"/>
<path d="M239.52 240.801H262.624V236.865H239.52V240.801Z" fill="#E5EBF2"/>
<path d="M198.73 240.801H239.521V236.865H198.73V240.801Z" fill="#C8482C"/>
<path d="M152.619 257.673H184.278V253.737H152.619V257.673Z" fill="#E5EBF2"/>
<path d="M253.971 257.673H285.629V253.737H253.971V257.673Z" fill="#E5EBF2"/>
<path d="M184.279 257.673H253.973V253.737H184.279V257.673Z" fill="#C8482C"/>
<path d="M119.787 274.585H119.789V274.478H119.787V274.585Z" fill="#E5EBF2"/>
<path d="M119.787 274.48H119.789V270.649H119.787V274.48Z" fill="#D8E3F2"/>
<path d="M170.186 274.585H119.787V270.649H170.186V274.585Z" fill="#E5EBF2"/>
<path d="M318.463 274.585H318.465V274.478H318.463V274.585Z" fill="#E5EBF2"/>
<path d="M318.463 274.48H318.465V270.649H318.463V274.48Z" fill="#D8E3F2"/>
<path d="M318.463 274.585H268.064V270.649H318.463V274.48V274.585Z" fill="#E5EBF2"/>
<path d="M170.186 274.585H268.061V270.649H170.186V274.585Z" fill="#C8482C"/>
<path d="M120.117 274.587H119.461V257.37L152.292 257.345L152.29 240.483L175.298 240.473L175.296 223.594H198.57V224.25H175.952L175.954 241.129L152.946 241.139L152.948 258.001L120.117 258.026V274.587Z" fill="#95BEFF"/>
<path d="M318.789 274.587H318.133V258.026L285.302 258.001L285.303 241.139L262.296 241.129L262.297 224.25H239.305V223.594H262.953L262.952 240.473L285.959 240.483L285.958 257.345L318.789 257.37V274.587Z" fill="#95BEFF"/>
<path d="M214.964 109.673L212.518 117.776L222.066 120.786L218.877 115.453L219.814 110.769L214.964 109.673Z" fill="#001F40"/>
<path d="M217.095 116.696L216.805 116.107L218.735 115.157L219.025 115.746L217.095 116.696Z" fill="white"/>
<path d="M213.275 84.3483L219.99 84.9928C221.371 85.1257 222.724 85.5783 223.82 86.4278C225.954 88.081 226.795 90.6558 226.334 93.2798C226.214 93.9604 226.07 94.5901 225.965 95.1248L220.469 114.618L212.135 110.172L215.854 95.6528L207.39 95.3921L202.775 85.7128L204.442 77.9966L213.275 84.3483Z" fill="#0079C2"/>
<path d="M212.115 118.4L210.037 127.282L220.513 129.866L216.72 124.348L217.406 119.247L212.115 118.4Z" fill="#001F40"/>
<path d="M214.869 125.784L214.543 125.217L216.554 124.064L216.88 124.632L214.869 125.784Z" fill="white"/>
<path d="M203.157 95.5215L210.35 121.765L218.429 120.85L213.704 93.0369C213.248 90.613 213.145 89.1238 209.433 87.2756L205.46 85.0714L204.44 77.9965L198.414 81.9193L197.438 91.1378C197.202 93.3698 198.867 95.3395 201.066 95.4329L203.157 95.5215Z" fill="#0079C2"/>
<path d="M213.631 84.2121L201.647 85.5733C200.311 85.7258 199.1 84.768 198.943 83.4298L196.854 65.685L206.843 63.2496L217.442 64.8322L215.497 82.3408C215.387 83.3232 214.613 84.1006 213.631 84.2121Z" fill="white"/>
<path d="M188.703 44.4782C188.703 44.4782 189.635 39.9026 188.912 40.0699C188.19 40.2388 187.447 41.9936 187.447 41.9936C187.447 41.9936 185.863 38.1888 185.256 38.2265C184.648 38.2659 184.831 39.2302 184.831 39.2302C184.831 39.2302 183.698 38.6906 183.403 39.8091C183.403 39.8091 182.27 39.2696 182.279 41.3442C182.283 42.0986 182.888 44.7209 183.657 47.75L189.085 45.6869L188.703 44.4782Z" fill="#FFBA9A"/>
<path d="M192.883 56.1959L189.085 45.6868L183.656 47.7499C184.607 51.494 185.808 55.8613 186.433 58.1081C186.708 59.0971 187.205 60.004 187.889 60.7699L198.787 73.7439L203.489 67.074L192.883 56.1959Z" fill="#003E80"/>
<path d="M186.723 44.083C186.186 43.4467 186.231 42.835 186.859 42.2659L186.969 42.3872C186.411 42.894 186.372 43.4139 186.849 43.978L186.723 44.083Z" fill="#974245"/>
<path d="M185.379 41.4736L184.604 39.235L184.758 39.1809L185.535 41.4195L185.379 41.4736Z" fill="#974245"/>
<path d="M184.219 41.8033L183.533 39.7599L183.687 39.7091L184.375 41.7525L184.219 41.8033Z" fill="#974245"/>
<path d="M183.485 42.379L182.627 40.0256L182.781 39.9682L183.639 42.3233L183.485 42.379Z" fill="#974245"/>
<path d="M230.841 38.0297C230.718 35.9584 229.319 36.3782 229.319 36.3782C229.045 35.4762 228.16 36.0797 228.16 36.0797C228.16 36.0797 228.206 35.4762 227.597 35.4762C226.987 35.4762 225.724 39.0038 225.724 39.0038C225.724 39.0038 224.871 37.2982 224.14 37.1769C223.409 37.0555 224.627 41.5622 224.627 41.5622L224.276 42.9792L229.791 44.921C230.406 41.6754 230.887 38.8169 230.841 38.0297Z" fill="#FFBA9A"/>
<path d="M224.277 42.9792L221.092 53.736L211.908 65.9802L217.156 71.448L226.468 57.7704C227.103 56.9635 227.542 56.0271 227.754 55.0218C228.218 52.8242 229.092 48.6208 229.792 44.921L224.277 42.9792Z" fill="#003E80"/>
<path d="M226.632 41.062L226.497 40.9702C226.911 40.3584 226.815 39.8451 226.207 39.4023L226.304 39.2695C226.988 39.7681 227.099 40.3716 226.632 41.062Z" fill="#974245"/>
<path d="M227.69 38.3234L227.529 38.2856L228.064 35.9782L228.225 36.0142L227.69 38.3234Z" fill="#974245"/>
<path d="M228.881 38.5284L228.721 38.494L229.185 36.3882L229.346 36.4243L228.881 38.5284Z" fill="#974245"/>
<path d="M229.675 39.0221L229.516 38.9827L230.117 36.5506L230.277 36.59L229.675 39.0221Z" fill="#974245"/>
<path d="M206.697 66.1917C205.551 66.1917 204.619 65.2618 204.619 64.1138V60.4255H208.775V64.1138C208.775 65.2618 207.845 66.1917 206.697 66.1917Z" fill="#FFBA9A"/>
<path d="M208.727 60.9568C208.074 63.2774 205.417 63.3742 204.596 60.9568H208.727Z" fill="#001F40"/>
<path d="M209.763 58.3C209.763 60.2745 208.39 61.8752 206.696 61.8752C205.004 61.8752 203.631 60.2745 203.631 58.3C203.631 56.3254 205.004 54.7248 206.696 54.7248C208.39 54.7248 209.763 56.3254 209.763 58.3Z" fill="#FFBA9A"/>
<path d="M203.891 58.3608C204.072 55.8959 205.704 55.317 205.704 55.317L207.823 55.2792C208.693 55.9319 209.433 57.1619 209.472 58.451L210.197 58.4149C210.648 56.0057 210.251 53.6491 208.856 53.1062L209.545 52.7618C203.793 51.4892 202.37 53.795 203.058 57.8344L203.891 58.3608Z" fill="#001F40"/>
<path d="M204.275 58.1294C204.505 58.6116 204.349 59.1659 203.928 59.366C203.506 59.5661 202.978 59.3381 202.749 58.856C202.519 58.3754 202.675 57.8211 203.098 57.621C203.519 57.4193 204.047 57.6473 204.275 58.1294Z" fill="#FFBA9A"/>
<path d="M203.66 58.7347C203.562 58.4576 203.378 58.2739 203.1 58.1755L203.149 58.0377C203.472 58.1525 203.683 58.3641 203.797 58.6872L203.66 58.7347Z" fill="#001F40"/>
<path d="M209.223 58.1294C208.993 58.6116 209.151 59.1659 209.572 59.366C209.994 59.5661 210.522 59.3381 210.75 58.856C210.979 58.3754 210.823 57.8211 210.402 57.621C209.98 57.4193 209.452 57.6473 209.223 58.1294Z" fill="#FFBA9A"/>
<path d="M209.833 58.7347L209.697 58.6872C209.81 58.3641 210.022 58.1525 210.345 58.0377L210.393 58.1755C210.115 58.2739 209.932 58.4576 209.833 58.7347Z" fill="#001F40"/>
<path d="M204.574 63.7956C206.711 70.9804 205.989 81.9553 203.554 90.1734L194.904 91.5132L196.854 65.6849L204.574 63.7956Z" fill="#003E80"/>
<path d="M208.756 63.5497C209.412 71.8694 210.958 83.8971 214.019 89.6617L219.252 86.9869L217.443 64.8321L208.756 63.5497Z" fill="#003E80"/>
<path d="M218.269 120.876C218.223 120.597 213.708 92.9418 212.983 90.6015C212.276 88.3252 207.712 86.4605 207.666 86.4408L207.789 86.1374C207.983 86.2145 212.543 88.0808 213.294 90.5048C214.029 92.8664 218.406 119.682 218.593 120.823L218.269 120.876Z" fill="#001F40"/>
<path d="M205.684 105.112L202.404 93.6322L202.719 93.542L205.999 105.022L205.684 105.112Z" fill="#001F40"/>
<path d="M218.249 96.0463L215.838 95.8167L215.869 95.4903L218.278 95.7199L218.249 96.0463Z" fill="#001F40"/>
<path d="M107.228 266.957L106.008 274.706H116.441L112.353 270.618L112.658 266.774L107.228 266.957Z" fill="#001F40"/>
<path d="M110.446 272.12L110.113 271.556L112.188 270.336L112.52 270.9L110.446 272.12Z" fill="white"/>
<path d="M128.774 210.579C128.62 211.502 128.474 212.418 128.305 213.325C128.02 215.038 127.72 216.736 127.413 218.413C126.315 224.445 125.114 230.28 123.811 235.932V235.947C121.212 247.353 118.239 258.028 114.96 268.109H105.684C109.417 250.29 113.034 232.66 114.198 219.014C114.374 217.008 114.491 215.083 114.55 213.259L128.774 210.579Z" fill="#0079C2"/>
<path d="M128.402 266.592L127.949 274.557L139.076 274.706L134.658 270.618L134.988 266.774L128.402 266.592Z" fill="#001F40"/>
<path d="M132.571 272.127L132.256 271.549L134.498 270.329L134.813 270.906L132.571 272.127Z" fill="white"/>
<path d="M136.197 267.904H126.503C125.822 256.886 124.995 246.116 123.809 235.947V235.932C123.113 229.959 122.3 224.181 121.319 218.691C121.005 216.919 120.668 215.178 120.316 213.464L128.303 213.324L132.279 213.259C132.543 214.884 132.792 216.518 133.012 218.158C135.267 234.205 135.903 250.971 136.197 267.904Z" fill="#0079C2"/>
<mask id="mask1_998_7193" style="mask-type:luminance" maskUnits="userSpaceOnUse" x="114" y="210" width="15" height="10">
<path d="M114.199 219.014C114.375 217.008 114.492 215.083 114.551 213.259L128.776 210.579C128.622 211.502 128.476 212.418 128.307 213.325L120.32 213.464C120.671 215.178 121.008 216.919 121.323 218.691L114.199 219.014Z" fill="white"/>
</mask>
<g mask="url(#mask1_998_7193)">
<path d="M114.199 219.014H128.776V210.579H114.199V219.014Z" fill="#249679"/>
</g>
<path d="M121.319 218.69C121.005 216.919 120.668 215.178 120.316 213.464L128.303 213.324L132.279 213.259C132.543 214.884 132.792 216.517 133.012 218.157L127.411 218.413L121.319 218.69Z" fill="#249679"/>
<path d="M123.193 240.145L122.871 240.081L126.166 223.73L126.487 223.796L123.193 240.145Z" fill="#001F40"/>
<path d="M126.205 191.183C121.295 191.714 117.283 191.304 113.378 188.951L109.578 195.401L114.003 199.358L113.114 213.316C113.061 214.138 113.506 214.91 114.242 215.279C114.526 215.422 114.84 215.496 115.158 215.496H131.917C132.829 215.496 133.644 214.927 133.961 214.071C134.036 213.862 134.08 213.644 134.092 213.423L134.809 198.627L142.312 196.852L140.581 190.942C134.864 191.609 129.706 191.968 126.205 191.183Z" fill="white"/>
<path d="M113.377 188.952L109.577 195.403L104.314 190.694C104.196 190.592 104.087 190.483 103.977 190.373C102.959 189.341 102.242 188.046 101.927 186.625C101.883 186.442 101.839 186.243 101.802 186.046C100.646 180.913 98.4566 170.921 98.5665 170.042C98.7202 168.856 99.9354 169.376 99.9354 169.376C100.031 168.241 100.975 168.856 100.975 168.856C100.975 168.211 101.187 168.057 101.832 168.087C102.469 168.124 103.325 171.997 103.325 171.997C103.325 171.997 104.27 169.983 104.972 170.137C105.675 170.284 104.365 174.163 104.365 174.163L108.94 185.387C110.434 186.896 111.898 188.059 113.377 188.952Z" fill="#FFBA9A"/>
<path d="M103.977 190.373C102.959 189.341 102.242 188.045 101.927 186.625C101.883 186.441 101.839 186.243 101.803 186.046C101.912 186.031 102.022 186.023 102.132 186.023C103.553 186.023 104.695 187.173 104.695 188.587C104.695 189.282 104.424 189.912 103.977 190.373Z" fill="#FFA785"/>
<path d="M102.504 174.248C101.931 173.643 101.942 173.031 102.535 172.426L102.652 172.541C102.125 173.079 102.115 173.6 102.623 174.135L102.504 174.248Z" fill="#974245"/>
<path d="M101.233 170.486L100.896 168.872L101.057 168.839L101.394 170.453L101.233 170.486Z" fill="#974245"/>
<path d="M100.258 170.739L99.8574 169.4L100.014 169.353L100.415 170.691L100.258 170.739Z" fill="#974245"/>
<path d="M99.4936 171.101L99.1582 169.851L99.3163 169.809L99.6517 171.058L99.4936 171.101Z" fill="#974245"/>
<path d="M150.042 192.708C149.97 192.833 149.889 192.949 149.816 193.074L149.325 193.807C148.659 194.809 147.649 195.534 146.491 195.857C146.434 195.878 146.367 195.893 146.301 195.908L142.311 196.852L140.584 190.943C142.18 190.753 143.82 190.548 145.481 190.328L150.424 180.993C150.424 180.993 150.424 177.026 150.972 176.91C151.521 176.785 151.954 179.222 151.954 179.222C151.954 179.222 154.084 175.993 154.757 175.993C155.431 175.993 155.247 176.91 155.247 176.91C155.247 176.91 155.87 176.141 156.244 176.506C156.435 176.697 156.405 177.392 156.405 177.392C156.405 177.392 156.651 177.162 157.135 177.366C158.073 177.759 155.087 184.618 150.042 192.708Z" fill="#FFBA9A"/>
<path d="M146.492 195.857C146.391 195.586 146.34 195.299 146.34 194.999C146.34 193.579 147.488 192.437 148.902 192.437C149.312 192.437 149.7 192.532 150.043 192.708C149.971 192.833 149.89 192.949 149.817 193.074L149.326 193.807C148.66 194.809 147.65 195.534 146.492 195.857Z" fill="#FFA785"/>
<path d="M152.381 181.495L152.299 181.353C152.937 180.982 153.076 180.479 152.722 179.814L152.866 179.737C153.265 180.485 153.101 181.076 152.381 181.495Z" fill="#974245"/>
<path d="M154.601 178.217L154.457 178.138L155.236 176.685L155.38 176.764L154.601 178.217Z" fill="#974245"/>
<path d="M155.71 178.655L155.564 178.579L156.298 177.172L156.443 177.248L155.71 178.655Z" fill="#974245"/>
<path d="M156.428 178.814L156.289 178.727L156.965 177.623L157.104 177.708L156.428 178.814Z" fill="#974245"/>
<path d="M116.245 201.243L109.467 195.557L109.678 195.306L116.456 200.992L116.245 201.243Z" fill="#001F40"/>
<path d="M134.719 204.46L134.393 204.444L134.885 194.986L135.211 195.002L134.719 204.46Z" fill="#001F40"/>
<path d="M126.213 197.311C125.143 197.311 124.053 196.831 123.232 195.983L123.468 195.755C124.32 196.634 125.476 197.083 126.569 196.964C127.495 196.859 128.281 196.342 128.786 195.511L129.067 195.681C128.509 196.601 127.635 197.174 126.606 197.288C126.476 197.303 126.345 197.311 126.213 197.311Z" fill="#001F40"/>
<path d="M126.285 194.661C124.978 194.807 123.799 193.866 123.652 192.559L123.021 186.934L127.758 186.402L128.389 192.027C128.535 193.336 127.593 194.515 126.285 194.661Z" fill="#FFBA9A"/>
<path d="M124.6 189.048C125.69 190.299 126.926 191.183 128.362 191.562L128.022 188.524L124.6 189.048Z" fill="#001F40"/>
<path d="M130.287 182.961C130.287 182.961 131.197 188.934 129.112 189.699C127.165 190.412 124.604 189.047 124.604 189.047L122.885 184.032L125.116 181.999L130.287 182.961Z" fill="#FFBA9A"/>
<path d="M123.781 185.877C123.901 184.734 124.35 183.747 125.513 183.098C128.905 184.473 131.029 183.422 132.553 181.225C132.553 181.225 130.611 181.641 129.441 180.887C128.272 180.131 125.26 177.938 123.356 181.116C120.693 182.351 121.258 184.498 122.334 185.877H123.781Z" fill="#001F40"/>
<path d="M124.329 185.717C124.721 186.396 124.563 187.222 123.975 187.562C123.387 187.903 122.591 187.629 122.198 186.952C121.805 186.273 121.964 185.446 122.552 185.105C123.14 184.766 123.936 185.039 124.329 185.717Z" fill="#FFBA9A"/>
<path d="M123.465 186.938C123.426 186.412 123.203 186.051 122.783 185.838L122.932 185.546C123.455 185.812 123.745 186.271 123.793 186.914L123.465 186.938Z" fill="#001F40"/>
<path d="M121.164 135.954C127.443 135.954 132.534 141.045 132.534 147.324C132.534 151.726 130.028 155.536 126.37 157.425L127.505 163.288L123.454 158.465C122.714 158.615 121.948 158.696 121.164 158.696C114.884 158.696 109.793 153.605 109.793 147.324C109.793 141.045 114.884 135.954 121.164 135.954Z" fill="white"/>
<path d="M123.577 158.104L126.94 162.107L126 157.246L126.218 157.135C129.91 155.228 132.204 151.469 132.204 147.324C132.204 141.237 127.251 136.282 121.162 136.282C115.073 136.282 110.119 141.237 110.119 147.324C110.119 153.414 115.073 158.368 121.162 158.368C121.91 158.368 122.659 158.293 123.386 158.143L123.577 158.104ZM128.065 164.467L123.325 158.824C122.615 158.957 121.888 159.024 121.162 159.024C114.711 159.024 109.463 153.776 109.463 147.324C109.463 140.874 114.711 135.626 121.162 135.626C127.612 135.626 132.86 140.874 132.86 147.324C132.86 151.633 130.521 155.547 126.736 157.602L128.065 164.467Z" fill="#95BEFF"/>
<path d="M117.451 147.593C117.451 148.472 116.739 149.184 115.861 149.184C114.983 149.184 114.271 148.472 114.271 147.593C114.271 146.716 114.983 146.004 115.861 146.004C116.739 146.004 117.451 146.716 117.451 147.593Z" fill="#95BEFF"/>
<path d="M122.749 147.593C122.749 148.472 122.038 149.184 121.16 149.184C120.282 149.184 119.57 148.472 119.57 147.593C119.57 146.716 120.282 146.004 121.16 146.004C122.038 146.004 122.749 146.716 122.749 147.593Z" fill="#95BEFF"/>
<path d="M128.048 147.593C128.048 148.472 127.337 149.184 126.459 149.184C125.581 149.184 124.869 148.472 124.869 147.593C124.869 146.716 125.581 146.004 126.459 146.004C127.337 146.004 128.048 146.716 128.048 147.593Z" fill="#95BEFF"/>
<path d="M296.182 180.644L289.343 194.423L284.514 197.848L287.279 201.426C288.542 200.875 289.753 200.339 290.682 199.926C291.831 199.414 292.861 198.668 293.709 197.736L298.785 192.154L296.182 180.644Z" fill="#93CCFF"/>
<path d="M282.684 199.143C282.684 199.143 278.169 199.027 278.312 200.368C278.448 201.639 281.354 202.41 281.354 202.41C281.354 202.41 279.749 204.152 280.309 204.181C280.77 204.206 284.186 202.771 287.276 201.426L284.511 197.848L282.684 199.143Z" fill="#FFBA9A"/>
<path d="M310.145 248.465L310.035 257.526H299.316L304.289 253.106L304.842 248.022L310.145 248.465Z" fill="#001F40"/>
<path d="M305.729 254.933L304.062 253.342L304.517 252.868L306.181 254.459L305.729 254.933Z" fill="white"/>
<path d="M314.279 212.686L322.679 209.287L326.822 219.171L320.823 216.294L315.923 217.749L314.279 212.686Z" fill="#001F40"/>
<path d="M321.133 216.413L320.521 216.178L321.345 214.026L321.956 214.261L321.133 216.413Z" fill="white"/>
<path d="M293.762 201.746L302.17 249.604L311.462 249.278L305.757 195.811L293.762 201.746Z" fill="#0079C2"/>
<path d="M299.51 199.325L300.34 224.362C300.387 225.821 301.245 227.133 302.563 227.761C303.721 228.314 305.076 228.263 306.189 227.627L317.363 221.231L316.848 211.307L310.493 213.667L310.463 198.235L299.51 199.325Z" fill="#0079C2"/>
<path d="M322.34 183.53L313.386 178.286C312.441 177.731 311.393 177.38 310.306 177.253L304.533 176.572L299.738 178.073C296.924 178.953 294.949 181.484 294.775 184.428L293.762 201.746L310.463 198.235L311.795 186.253L321.43 190.776C323.27 191.691 325.506 191.065 326.596 189.323C328.802 185.805 332.39 179.931 334.688 175.396L329.209 173.451L322.34 183.53Z" fill="#93CCFF"/>
<path d="M335.726 168.917C335.726 168.917 335.998 168.19 335.636 167.964C335.273 167.736 334.865 168.144 334.865 168.144C334.865 168.144 335.273 167.145 334.683 166.965C334.093 166.783 331.823 170.096 331.823 170.096C331.823 170.096 331.551 168.008 330.962 168.054C330.371 168.1 330.007 172.275 330.007 172.275L329.207 173.451L334.686 175.396C336.033 172.741 336.936 170.545 336.861 169.551C336.779 168.457 335.726 168.917 335.726 168.917Z" fill="#FFBA9A"/>
<path d="M332.081 172.221L331.98 172.09C332.566 171.641 332.64 171.126 332.205 170.511L332.338 170.415C332.828 171.108 332.741 171.714 332.081 172.221Z" fill="#974245"/>
<path d="M334.16 169.254L334.025 169.159L334.973 167.809L335.108 167.905L334.16 169.254Z" fill="#974245"/>
<path d="M334.956 169.869L334.83 169.764L335.727 168.694L335.852 168.798L334.956 169.869Z" fill="#974245"/>
<path d="M335.513 170.506L335.385 170.404L336.187 169.389L336.315 169.489L335.513 170.506Z" fill="#974245"/>
<path d="M309.006 169.809C308.863 171.936 307.038 173.953 304.711 173.795C302.385 173.64 299.793 171.188 299.935 169.062C300.078 166.935 302.481 165.835 304.811 165.91C308.078 166.017 309.149 167.683 309.006 169.809Z" fill="#E8950C"/>
<path d="M304.32 179.524C303.105 179.442 302.187 178.391 302.269 177.176L302.605 172.175L307.007 172.472L306.671 177.472C306.589 178.688 305.536 179.606 304.32 179.524Z" fill="#FFBA9A"/>
<path d="M305.631 175.143C304.636 176.195 303.555 176.992 302.268 177.175L302.448 174.792L305.631 175.143Z" fill="#001F40"/>
<path d="M300.879 169.261C300.879 169.261 300.02 174.935 301.958 175.544C303.895 176.152 306.298 174.927 306.298 174.927L306.768 170.637L306.229 167.847L300.879 169.261Z" fill="#FFBA9A"/>
<path d="M306.697 172.36C306.154 171.752 305.614 170.743 305.488 169.709C304.096 170.314 302.402 170.379 300.465 170.007L301.039 168.226L305.278 167.421L307.466 168.046L306.697 172.36Z" fill="#E8950C"/>
<path d="M307.978 173.007C307.579 173.513 306.901 173.645 306.463 173.3C306.023 172.954 305.992 172.264 306.392 171.757C306.792 171.25 307.471 171.119 307.909 171.463C308.347 171.81 308.378 172.5 307.978 173.007Z" fill="#FFBA9A"/>
<path d="M306.914 172.898L306.588 172.875C306.647 172.032 307.172 171.839 307.601 171.826L307.613 172.154C307.165 172.167 306.95 172.397 306.914 172.898Z" fill="#001F40"/>
<path d="M311.431 166.284C311.329 167.795 310.022 168.936 308.514 168.834C307.003 168.733 305.862 167.426 305.963 165.915C306.065 164.406 307.37 163.263 308.881 163.365C310.391 163.467 311.533 164.774 311.431 166.284Z" fill="#E8950C"/>
<path d="M293.942 201.674L293.615 201.653L294.845 182.875L295.172 182.896L293.942 201.674Z" fill="#001F40"/>
<path d="M316.169 188.444L309.035 184.836L309.184 184.544L316.318 188.152L316.169 188.444Z" fill="#001F40"/>
<path d="M303.936 181.851C303.805 181.851 303.675 181.841 303.547 181.818C302.624 181.656 301.925 180.936 301.627 179.84L301.943 179.754C302.206 180.721 302.811 181.358 303.603 181.495C304.549 181.661 305.604 181.1 306.352 180.031L306.621 180.219C305.898 181.253 304.897 181.851 303.936 181.851Z" fill="#001F40"/>
<path d="M304.134 228.268C303.626 228.268 303.193 228.183 302.837 228.063C301.31 227.547 300.592 226.259 300.426 225.651C299.772 223.253 299.449 204.224 299.436 203.416L299.764 203.411C299.767 203.607 300.1 223.207 300.743 225.564C300.916 226.203 301.646 227.315 302.942 227.752C304.557 228.299 306.619 227.661 308.903 225.915L309.103 226.175C306.991 227.789 305.344 228.268 304.134 228.268Z" fill="#001F40"/>
<path d="M305.562 215.594L305.449 215.284L316.793 211.153L316.906 211.461L305.562 215.594Z" fill="#001F40"/>
<path d="M315.126 125.786C308.846 125.786 303.756 130.877 303.756 137.156C303.756 141.558 306.26 145.368 309.919 147.257L308.784 153.12L312.837 148.297C313.576 148.448 314.342 148.528 315.126 148.528C321.406 148.528 326.496 143.437 326.496 137.156C326.496 130.877 321.406 125.786 315.126 125.786Z" fill="white"/>
<path d="M315.126 126.114C309.036 126.114 304.082 131.067 304.082 137.156C304.082 141.3 306.376 145.059 310.069 146.967L310.288 147.078L309.346 151.939L312.71 147.936L312.902 147.975C313.628 148.124 314.376 148.2 315.126 148.2C321.215 148.2 326.168 143.245 326.168 137.156C326.168 131.067 321.215 126.114 315.126 126.114ZM308.221 154.299L309.55 147.434C305.766 145.379 303.426 141.464 303.426 137.156C303.426 130.706 308.674 125.458 315.126 125.458C321.576 125.458 326.824 130.706 326.824 137.156C326.824 143.608 321.576 148.856 315.126 148.856C314.399 148.856 313.672 148.789 312.962 148.656L308.221 154.299Z" fill="#95BEFF"/>
<path d="M311.413 137.107C311.413 137.986 310.701 138.698 309.824 138.698C308.946 138.698 308.234 137.986 308.234 137.107C308.234 136.23 308.946 135.518 309.824 135.518C310.701 135.518 311.413 136.23 311.413 137.107Z" fill="#95BEFF"/>
<path d="M316.712 137.107C316.712 137.986 316 138.698 315.122 138.698C314.245 138.698 313.533 137.986 313.533 137.107C313.533 136.23 314.245 135.518 315.122 135.518C316 135.518 316.712 136.23 316.712 137.107Z" fill="#95BEFF"/>
<path d="M322.014 137.107C322.014 137.986 321.302 138.698 320.425 138.698C319.546 138.698 318.834 137.986 318.834 137.107C318.834 136.23 319.546 135.518 320.425 135.518C321.302 135.518 322.014 136.23 322.014 137.107Z" fill="#95BEFF"/>
<path d="M390.4 274.808H38.7842V274.152H390.4V274.808Z" fill="#001F40"/>
</svg>
