<svg width="238" height="186" viewBox="0 0 238 186" fill="none" xmlns="http://www.w3.org/2000/svg">
<g clip-path="url(#clip0_998_12920)">
<rect width="238" height="186" fill="white"/>
<path d="M105.353 14.0988C104.39 15.7974 103.506 17.5415 102.708 19.3241C102.652 19.4468 102.53 19.5241 102.396 19.5281C99.989 19.5841 97.825 20.0815 95.5517 20.7575C95.2263 20.8548 95.1997 21.3228 95.5183 21.4455C96.937 21.9921 98.4157 22.3868 99.9183 22.6228C100.206 22.6681 100.32 23.0001 100.121 23.2148C99.077 24.3441 98.229 25.6534 97.6223 27.0681C97.5077 27.3361 97.7597 27.6361 98.0437 27.5681C99.7477 27.1654 101.38 26.4588 102.837 25.4881C103.141 25.2855 103.449 25.0668 103.806 24.9868C104.436 24.8455 105.066 25.1628 105.648 25.4455C107.162 26.1815 108.402 26.8228 109.961 27.2188C110.234 27.2881 110.481 27.0148 110.396 26.7468C110.097 25.8188 109.834 25.1375 109.222 24.0201C108.976 23.5695 109.188 23.0055 109.668 22.8241C111.182 22.2508 112.53 21.6241 114.004 20.8948C114.304 20.7455 114.264 20.2935 113.938 20.2121C111.844 19.6921 109.086 19.9988 107.922 19.8055C107.705 19.7681 106.818 16.4161 106.018 14.1548C105.913 13.8615 105.506 13.8268 105.353 14.0988Z" fill="#F8F280"/>
<path d="M100.454 17.2227C99.1504 16.204 97.9317 15.076 96.8184 13.852L100.454 17.2227Z" fill="#F8F280" stroke="#F8F280" stroke-width="1.88976" stroke-miterlimit="10" stroke-linecap="round"/>
<path d="M110.438 16.6479C111.832 15.4319 113.227 14.216 114.62 13L110.438 16.6479Z" fill="#F8F280" stroke="#F8F280" stroke-width="1.88976" stroke-miterlimit="10" stroke-linecap="round"/>
<path d="M93.9573 24.6241C92.6373 25.0081 91.3187 25.3921 90 25.7761L93.9573 24.6241Z" fill="#F8F280" stroke="#F8F280" stroke-width="1.88976" stroke-miterlimit="10" stroke-linecap="round"/>
<path d="M104.086 29.0361C104.285 30.3641 104.485 31.6922 104.683 33.0215L104.086 29.0361Z" fill="#F8F280" stroke="#F8F280" stroke-width="1.88976" stroke-miterlimit="10" stroke-linecap="round"/>
<path d="M112.451 24.5613C113.829 25.6053 115.293 26.5346 116.823 27.3359L112.451 24.5613Z" fill="#F8F280" stroke="#F8F280" stroke-width="1.88976" stroke-miterlimit="10" stroke-linecap="round"/>
<path d="M236.395 34.752C235.976 31.1057 234.93 27.7643 233.926 25.2833C231.816 20.069 227.338 15.8665 221.994 14.0876C216.651 12.3073 210.538 12.9824 205.712 15.8862C202.376 17.893 199.158 18.6031 195.37 19.5052C193.59 19.9277 191.714 20.2509 189.946 19.7787C188.18 19.3062 186.562 17.832 186.482 16.0067C186.085 20.7223 185.422 25.4377 184.598 30.0979C184.464 30.8597 184.282 31.6886 183.674 32.1664C189.828 35.3041 197.021 36.1374 203.367 33.3987C206.744 31.9418 209.654 29.6094 212.788 27.6864C215.923 25.7648 220.62 25.0292 224.257 25.5697C231.882 26.702 236.686 33.7948 236.395 34.752Z" fill="#8DC548"/>
<path d="M187.258 11.978C185.96 26.1825 178.224 75.2311 173.478 89.9802C173.409 90.1941 173.368 90.4856 173.565 90.5929C173.764 90.7013 173.86 90.2144 173.662 90.3233L187.258 11.978Z" stroke="#1E2939" stroke-width="2.83464" stroke-miterlimit="10" stroke-linecap="round"/>
<path d="M70 40.268C70 40.8726 69.766 41.4542 69.3277 42H3.3861C3.13373 41.4542 3 40.8726 3 40.268C3 37.0476 6.84376 34.4381 11.5861 34.4381C13.0902 34.4381 14.5015 34.7026 15.7306 35.1645C16.3768 30.592 22.8165 27 30.6636 27C38.8453 27 45.4927 30.8985 45.6525 35.7439C48.2187 34.9293 51.498 34.4381 55.0669 34.4381C63.3151 34.4381 70 37.0476 70 40.268Z" fill="#93CCFF"/>
<path d="M185 50.268C185 50.8726 184.766 51.4542 184.328 52H118.386C118.134 51.4542 118 50.8726 118 50.268C118 47.0476 121.844 44.4381 126.586 44.4381C128.09 44.4381 129.502 44.7026 130.731 45.1645C131.377 40.592 137.816 37 145.664 37C153.845 37 160.493 40.8985 160.653 45.7439C163.219 44.9293 166.498 44.4381 170.067 44.4381C178.315 44.4381 185 47.0476 185 50.268Z" fill="#F4F4F4"/>
<path d="M30.0455 155.055C36.1428 149.658 42.3642 144.361 49.1828 139.913C68.0655 127.596 91.2815 122.261 113.715 124.497C123.05 125.428 132.23 127.617 141.148 130.525C172.008 140.586 199.932 159.486 220.741 184.397C197.333 184.328 176.23 185.516 154.222 185.884C101.111 186.773 78.0002 185.44 20.9068 185.205C18.4842 185.196 7.84418 187.981 6.24151 185.484C4.89884 183.392 9.54285 177.588 10.6349 175.917C15.8655 167.926 22.9402 161.347 30.0455 155.055Z" fill="#F69F32"/>
<mask id="mask0_998_12920" style="mask-type:luminance" maskUnits="userSpaceOnUse" x="12" y="108" width="215" height="63">
<path d="M36.0455 139.055C42.1428 133.658 48.3642 128.361 55.1828 123.913C74.0655 111.596 97.2815 106.261 119.715 108.497C129.05 109.428 138.23 111.617 147.148 114.525C178.008 124.586 205.932 143.486 226.741 168.397C203.333 168.328 182.23 169.516 160.222 169.884C107.111 170.773 84.0002 169.44 26.9068 169.205C24.4842 169.196 13.8442 171.981 12.2415 169.484C10.8988 167.392 15.5429 161.588 16.6349 159.917C21.8655 151.926 28.9402 145.347 36.0455 139.055Z" fill="white"/>
</mask>
<g mask="url(#mask0_998_12920)">
<path d="M48.1036 104.476C52.4129 112.876 62.4063 115.843 71.325 115.534C85.4276 115.046 98.681 104.35 112.697 108.526C117.876 110.071 122.604 112.977 128.013 113.778C132.672 114.469 137.109 113.407 141.533 111.998C156.813 107.137 175.126 99.2145 188.696 112.377C188.994 112.668 190.032 112.246 189.708 111.932C182.961 105.386 173.769 103.555 164.633 104.708C158.564 105.473 152.73 107.453 146.976 109.443C137.948 112.564 130.298 114.432 121.028 110.856C112.021 107.383 105.178 105.502 95.6596 108.574C81.6623 113.093 58.3023 121.928 49.1996 104.183C48.9916 103.778 47.9223 104.121 48.1036 104.476Z" fill="white"/>
<path d="M34.2238 117.365C25.0438 127.352 19.6438 148.481 28.5411 160.238C31.7478 164.477 37.3424 167.768 42.8078 167.198C48.6504 166.59 49.7998 162.708 51.6531 157.765C52.5704 155.32 53.6251 152.536 55.3638 150.536C59.1798 146.148 63.0464 147.269 67.4091 149.537C69.7358 150.746 72.3371 151.513 74.9758 151.51C76.9891 151.507 78.9571 151.064 80.7144 150.052C84.1091 148.098 84.2837 144.353 90.1997 148.553C91.6517 149.584 92.8504 152.088 93.7584 153.533C98.0358 160.34 101.168 166.044 108.805 169.5C113.188 171.484 118.906 173.824 123.149 170.568C123.737 170.117 122.864 169.683 122.412 170.029C118.121 173.322 109.749 169.296 105.893 166.869C102.43 164.689 99.9038 161.665 97.7864 158.214C95.6398 154.716 92.4331 146.42 88.0811 145.065C85.0918 144.136 83.6331 146.892 81.5251 148.385C73.6064 153.995 69.9357 148.555 63.5838 145.904C62.2811 145.361 61.3491 144.892 59.8931 145.173C56.9251 145.746 55.0958 148.953 53.6638 151.293C51.6971 154.509 51.0331 158.244 49.2518 161.457C45.8504 167.595 38.5758 167.193 33.4278 163.485C19.6211 153.538 25.3211 128.412 35.1491 117.72C35.6198 117.209 34.5784 116.98 34.2238 117.365Z" fill="white"/>
<path d="M140.217 168.445C158.923 170.997 155.543 141.128 168.217 133.861C175.222 129.845 182.405 138.658 189.482 134.136C192.085 132.473 194.043 129.644 195.423 126.944C197.611 122.662 198.729 106.766 207.831 110.246C208.131 110.361 209.129 109.908 208.711 109.748C204.825 108.262 201.193 109.904 198.941 113.392C196.671 116.902 196.726 121.489 195.161 125.3C192.538 131.688 188.691 135.474 180.031 134.057C177.751 133.684 175.657 132.205 173.378 131.817C168.59 131.001 165.233 135.228 162.447 138.778C155.985 147.017 155.023 169.821 140.899 167.893C140.586 167.85 139.621 168.364 140.217 168.445Z" fill="white"/>
</g>
<path d="M76.4292 145.003C76.7233 145.492 77.0332 145.993 77.4975 146.327C78.2784 146.887 79.3276 146.861 80.2832 146.748C87.199 145.926 93.3947 141.799 100.314 141.007C99.6039 139.365 98.8929 137.723 98.1829 136.08C98.0702 135.817 97.9463 135.544 97.7164 135.373C97.438 135.167 97.0639 135.159 96.7168 135.166C92.0458 135.247 87.2024 136.716 82.8931 138.644C82.4221 138.854 81.8947 138.573 81.8034 138.064C81.2726 135.106 79.3546 130.479 78.0361 128.379C75.8815 128.112 75.2741 130.433 73.1251 130.744C70.9536 131.06 69.226 131.037 70.3169 133.444C72.1143 137.412 74.1866 141.269 76.4292 145.003Z" fill="#FFBA9A"/>
<path d="M98.809 139.412C99.0209 139.978 99.2383 140.555 99.617 141.025C100.1 141.623 99.8446 142.762 100.386 143.31C101.714 144.656 103.391 148.053 104.6 147.144C105.928 146.145 104.997 143.822 104.759 142.178C104.521 140.533 103.793 138.893 102.459 137.903C102.264 137.758 102.033 137.581 102.051 137.339C102.074 137.049 101.747 136.079 103.578 135.985C103.863 135.971 103.849 135.161 103.766 134.41C103.749 134.261 103.727 134.099 103.614 133.999C103.477 133.876 103.266 133.903 103.083 133.935C101.958 134.145 98.5385 134.177 97.7892 135.044C96.9699 135.994 98.4259 138.424 98.809 139.412Z" fill="black"/>
<path d="M180.894 148.142C180.693 144.085 181.421 140.04 181.528 135.98C181.635 131.918 181.029 127.621 178.533 124.416C178.345 124.175 178.14 123.935 177.869 123.792C177.549 123.622 177.173 123.607 176.811 123.595C172.057 123.437 167.303 123.279 162.55 123.122C160.202 123.044 157.848 122.966 155.504 123.131C153.564 123.266 152.786 124.135 150.848 123.98C150.026 123.914 149.237 124.287 148.495 124.65C145.691 126.022 142.885 127.396 140.08 128.77C137.661 129.953 135.219 131.167 132.958 132.62C133.171 131.005 133.296 129.385 133.245 127.757C133.096 122.994 131.491 118.367 129.254 114.16C127.016 109.953 124.152 106.117 121.301 102.298C120.973 101.859 120.463 101.366 119.962 101.59C115.925 103.399 112.143 101.937 107.779 102.672C107.469 102.724 107.104 102.824 107.006 103.124C107.091 103.208 107.145 103.153 107.229 103.239C105.965 103.778 105.103 104.949 104.304 106.068C102.119 109.128 99.9316 112.194 98.0486 115.449C96.3571 118.372 94.918 121.434 93.4824 124.491C92.6721 126.216 91.8562 127.954 91.3807 129.8C90.8319 131.929 90.7485 134.148 90.6741 136.347C90.4904 141.743 90.3518 147.242 91.8427 152.43C92.6653 155.289 93.9714 158.007 94.5631 160.921C94.5281 160.747 101.669 159.412 102.323 159.348C102.592 159.322 103.089 155.224 102.954 153.347C102.553 147.739 102.458 142.114 102.362 136.495C102.35 135.744 102.344 134.961 102.684 134.291C102.938 133.787 103.366 133.396 103.78 133.01C108.81 128.323 113.024 122.761 116.175 116.65C117.889 122.93 120.165 128.923 123.335 134.608C119.128 142.246 118.589 151.301 118.255 160.014C121.131 159.998 124.01 160.375 126.786 161.131C126.79 161.217 127.048 160.218 127.429 158.656C129.476 164.185 131.521 169.713 133.566 175.242L133.02 175.849C134.585 175.49 136.15 175.13 137.716 174.77C138.154 174.669 138.631 174.544 138.895 174.18C139.086 173.919 139.129 173.58 139.161 173.257C139.762 167.35 139.017 161.311 136.998 155.727C136.695 154.889 136.359 154.043 136.328 153.151C136.285 151.92 136.338 149.638 137.151 148.71C138.64 147.011 140.848 145.065 142.974 144.296C149.697 141.867 152.872 140.622 159.595 138.193C159.778 137.963 165.605 142.872 166.732 144.86C169.422 149.606 173.127 153.601 174.818 158.788C175.22 160.022 175.887 161.472 177.181 161.59C177.687 161.636 178.181 161.452 178.658 161.274C184.92 158.936 191.359 157.071 197.903 155.701C199.402 155.387 201.002 155.106 202.432 155.655C202.793 153.166 203.637 150.746 204.904 148.574C197.293 145.588 188.608 145.432 180.894 148.142Z" fill="#064677"/>
<path d="M141.074 83.226C140.958 82.4225 141.366 81.6077 141.975 81.0713C142.583 80.5349 143.368 80.2397 144.155 80.0447C145.134 79.8024 146.147 79.6988 147.153 79.7348C147.587 79.7517 148.052 79.8081 148.373 80.0999C148.6 80.3073 148.72 80.6025 148.817 80.8944C149.004 81.4511 149.132 82.0619 148.95 82.6197C148.769 83.1786 148.183 83.6407 147.613 83.4998C147.6 84.203 147.587 84.9062 147.573 85.6093C147.573 85.7446 145.063 86.414 144.799 86.4962C143.864 86.7858 143.474 87.1836 143.22 86.2212C143.137 85.9068 143.601 85.473 143.502 85.1969C143.243 84.4836 143.257 84.9974 142.729 84.6864C141.995 84.2548 141.238 84.3653 141.074 83.226Z" fill="#FFBA9A"/>
<path d="M94.8837 38.8474C94.9322 38.0203 94.9716 37.1492 94.602 36.4077C94.3518 35.9062 93.9157 35.4645 93.8819 34.9044C93.8346 34.1009 94.6324 33.5093 95.3908 33.2411C96.689 32.7825 98.1506 32.8016 99.4364 33.2952C100.239 33.6028 101.033 34.1775 101.203 35.0193C101.339 35.6819 101.037 36.3874 100.525 36.828C100.012 37.2698 99.3192 37.4625 98.6442 37.458C98.2836 38.8632 98.1641 40.3304 98.2948 41.7751C98.305 41.8833 94.8972 41.6557 94.5637 41.7413C94.9401 40.8871 94.8296 39.776 94.8837 38.8474Z" fill="#FFBA9A"/>
<path d="M114.788 38.3213C114.646 38.1568 114.53 37.9697 114.374 37.8198C113.704 37.1741 112.5 37.3657 111.863 36.6861C111.397 36.188 111.426 35.3688 111.765 34.7761C112.105 34.1833 112.687 33.7731 113.271 33.4204C113.829 33.0834 114.406 32.7792 114.998 32.5098C116.005 32.0534 117.247 31.7187 118.161 32.3408C118.399 32.5031 118.603 32.7352 118.674 33.0147C118.88 33.8294 117.944 34.4819 117.774 35.3057C117.653 35.8872 117.935 36.4788 118.282 36.9611C118.629 37.4445 119.054 37.8841 119.283 38.4329C119.325 38.5332 119.36 38.647 119.322 38.7495C119.285 38.8532 119.184 38.9174 119.088 38.9738C118.13 39.5327 116.827 40.2697 115.72 40.3069C115.653 39.4155 115.368 38.9918 114.788 38.3213Z" fill="#FFBA9A"/>
<path d="M58.6266 137.465C58.683 138.039 58.7416 138.689 58.3607 139.12C58.0711 139.448 57.6079 139.551 57.1752 139.612C53.3787 140.153 49.4683 138.982 45.7 139.689C42.9695 140.203 40.0688 141.664 37.5851 140.417C37.9187 142.19 37.8432 144.037 37.3643 145.776C40.4351 145.964 43.507 146.152 46.5778 146.34C52.0038 146.673 57.4716 147.003 62.8582 146.273C63.4836 146.188 64.1237 146.084 64.6691 145.767C65.9583 145.017 66.338 143.361 66.5747 141.888C67.1629 138.218 67.6351 134.528 67.989 130.828C66.4643 130.627 64.9317 130.487 63.3957 130.409C62.4401 130.361 60.3869 129.933 59.5687 130.487C58.0249 131.532 58.4734 135.886 58.6266 137.465Z" fill="#FFBA9A"/>
<path d="M36.9372 140.035C34.6304 139.757 32.282 139.835 30 140.268C30.0023 140.893 30.0056 141.52 30.009 142.145C30.6592 141.931 31.3388 141.804 32.0228 141.769C32.3507 141.752 32.708 141.765 32.9626 141.971C33.4709 142.379 33.2466 143.181 33.0089 143.787C31.8797 146.671 30.0485 151.95 31.5044 153.03C32.4138 153.705 33.7549 151.751 34.3859 150.81C35.523 149.113 36.8437 147.075 38.3594 145.705C38.6287 145.461 38.6253 142.305 38.5994 141.781C38.5431 140.61 38.2703 140.195 36.9372 140.035Z" fill="black"/>
<path d="M82.2958 133.047C73.7065 133.41 65.1037 133.451 56.5122 133.168C55.64 129.787 54.7622 122.395 54.7948 118.753C54.8602 111.431 55.0315 107.774 56.99 100.718C58.7176 99.4083 60.7178 99.7746 62.8758 99.9864C67.6201 100.454 72.3644 100.921 77.1086 101.388C77.3678 101.413 77.6405 101.445 77.849 101.599C78.0924 101.778 78.1983 102.084 78.2907 102.371C78.879 104.201 79.4684 106.032 80.0566 107.862C80.5558 109.415 81.0573 110.974 81.357 112.578C81.6816 114.316 81.7661 116.089 81.8506 117.855C82.0873 122.828 82.058 128.076 82.2958 133.047Z" fill="#1E2939"/>
<path d="M59.567 74.8632C58.9855 75.5934 58.2305 76.3496 58.3049 77.2804C58.3669 78.0546 59.0025 78.6574 59.6617 79.0688C61.1661 80.0086 62.9883 80.3546 64.7609 80.2903C66.5335 80.225 68.2701 79.7708 69.9525 79.204C70.1114 79.151 70.3041 79.0474 70.2872 78.8806C70.2748 78.7656 70.1667 78.689 70.0686 78.627C67.2547 76.8352 65.525 73.4647 65.7086 70.1347C64.6415 69.9194 63.5743 69.7042 62.5071 69.489C60.3931 69.063 60.8449 69.4022 60.9306 71.0892C60.9993 72.4471 60.3998 73.8185 59.567 74.8632Z" fill="#FFBA9A"/>
<path d="M68.6711 64.8294C68.5821 66.4307 68.235 68.032 67.7053 69.5454C67.4326 70.3219 66.9616 71.0532 66.4331 71.6832C65.4121 72.8991 63.6609 73.2586 62.0844 73.0828C61.5141 73.0197 60.9282 72.8878 60.4774 72.5317C59.7697 71.9716 58.7915 69.9184 58.6428 69.0282C58.3047 67.0054 58.1515 65.6317 58.2202 63.5819C58.2788 61.8374 59.3584 60.3127 60.7974 59.3256C61.9818 58.5119 63.5437 58.5717 64.9715 58.743C65.4662 58.8015 65.9733 58.8748 66.4117 59.1137C67.9611 59.9577 68.7612 63.2066 68.6711 64.8294Z" fill="#FFBA9A"/>
<path d="M58.0291 57.59C55.897 59.5215 55.0484 62.545 54.3486 65.3363C57.0949 65.742 58.3322 66.2232 60.2412 66.3054C60.5782 64.854 60.6796 62.6509 61.3738 61.3313C63.356 61.24 65.3438 61.2682 67.3227 61.4181C67.8117 63.2448 68.2456 65.2811 68.214 67.1709C69.5708 66.4384 70.5287 65.0501 70.833 63.5389C71.1361 62.0266 70.8093 60.4174 70.0272 59.0876C69.0705 57.4604 67.432 56.2479 65.5962 55.8084C63.7605 55.3689 60.3821 55.459 58.0291 57.59Z" fill="#1E2939"/>
<path d="M68.9682 77.3966C72.7186 84.8297 72.8978 93.4899 72.9981 101.814C67.7906 101.189 62.457 100.57 57.3488 101.759C57.1764 101.799 56.5442 93.4009 56.534 92.638C56.4946 89.4849 56.7019 86.3273 57.1549 83.2069C57.3758 81.6867 57.5392 80.0178 58.0193 78.555C58.5737 76.8658 59.1439 77.5611 60.6461 77.9725C63.3766 78.7196 66.3707 78.5337 68.9682 77.3966Z" fill="white"/>
<path d="M52.5306 76.8353C51.0724 77.9521 50.181 79.6762 49.71 81.4511C49.2389 83.226 49.1476 85.0752 49.0068 86.9064C48.369 95.2602 46.7011 103.758 48.5977 111.918C51.6032 111.147 54.6086 110.375 57.6129 109.604C57.1058 107.984 58.8615 92.506 59.3202 90.3536C59.7462 88.3489 59.887 86.2957 60.0268 84.2515C60.1417 82.5791 60.2555 80.9068 60.3705 79.2345C60.4336 78.3127 60.6511 75.3557 59.8645 74.7573C59.2165 74.2648 57.6569 74.6626 56.3452 75.3715C55.1304 76.0262 53.6384 75.9879 52.5306 76.8353Z" fill="#064677"/>
<path d="M72.6843 74.8036C74.8435 75.8369 81.588 93.4493 81.5959 103.469C81.597 103.797 81.5835 104.153 81.3761 104.408C81.135 104.706 80.7146 104.77 80.3337 104.813C76.4831 105.242 76.6285 107.43 72.7779 107.86C72.0747 100.987 69.1481 92.2672 68.4382 85.3953C68.1215 82.3392 67.3992 79.4058 66.474 76.4838C65.924 74.7461 65.9274 74.6221 67.7541 74.4756C69.4095 74.3427 71.1844 74.0869 72.6843 74.8036Z" fill="#064677"/>
<path d="M48.3752 69.1362C48.3256 68.1322 48.0348 64.019 52.0635 64.2139C54.5134 64.3334 53.7584 67.4313 53.1048 68.042C52.45 68.6539 51.7897 68.6055 51.2578 68.0578C51.171 67.9688 51.029 68.1784 50.9693 68.2888C50.9017 68.4139 50.9231 68.5672 50.9468 68.708C51.0933 69.5746 51.2409 70.4412 51.3874 71.3078C50.7698 71.1996 49.0592 71.4937 48.6039 71.0914C48.0822 70.6294 48.4056 69.7752 48.3752 69.1362Z" fill="#FFBA9A"/>
<path d="M184.21 44.8132C184.259 43.8092 184.551 39.696 180.522 39.8921C178.072 40.0104 178.827 43.1094 179.481 43.7202C180.135 44.3321 180.796 44.2836 181.328 43.7359C181.414 43.6458 181.555 43.8565 181.615 43.9669C181.684 44.092 181.662 44.2453 181.638 44.3861C181.491 45.2527 181.345 46.1193 181.198 46.9848C181.814 46.8777 183.526 47.1719 183.98 46.7696C184.503 46.3075 184.179 45.4533 184.21 44.8132Z" fill="#FFBA9A"/>
<path d="M73.3943 66.7394C70.6165 66.6808 71.3174 61.8813 74.6553 62.8302C75.0407 62.9406 75.7112 63.1367 76.0628 63.3294C76.3389 63.4815 76.5553 63.7283 76.7029 64.0066C77.0579 64.676 77.006 65.5415 76.5756 66.1635C76.2161 66.683 75.7371 66.7563 75.7822 67.3851C75.798 67.6127 76.4753 69.0518 76.3919 69.2636C76.3164 69.4586 75.3901 68.7216 75.1985 68.8061C74.4232 69.1487 74.1437 70.0119 73.3875 70.155C73.3571 69.9725 73.1858 67.5981 73.3943 66.7394Z" fill="#FFBA9A"/>
<path d="M100.881 156.946C102.423 159.168 103.391 161.785 103.665 164.476C99.0018 166.968 94.0997 169.017 89.049 170.583C88.7346 170.68 88.3537 170.764 88.1058 170.547C87.7418 170.23 88.0156 169.631 88.3402 169.273C89.3995 168.104 90.8284 167.323 91.9034 166.168C93.8485 164.08 94.386 161.087 95.6199 158.514C97.5109 158.713 98.9882 157.119 100.881 156.946Z" fill="#1E2939"/>
<path d="M118.04 162.714C117.913 162.989 117.782 163.301 117.887 163.585C117.988 163.864 118.276 164.018 118.539 164.153C122.162 166.006 126.257 171.624 128.699 172.845C129.624 173.307 128.621 170.038 128.287 169.06C127.955 168.081 127.318 167.238 126.87 166.306C125.916 164.325 125.868 161.929 126.74 159.909C126.829 159.703 121.58 158.412 121.031 158.429C119.839 158.464 119.987 158.499 119.448 159.685C118.987 160.698 118.51 161.705 118.04 162.714Z" fill="#1E2939"/>
<path d="M113.104 70.8931C113.294 70.7263 113.482 70.5438 113.722 70.4694C114.188 70.324 114.664 70.6272 115.054 70.9202C118.593 73.5864 121.774 76.8353 123.819 80.7648C125.866 84.6943 126.702 89.3585 125.553 93.6363C125.056 95.4878 124.205 97.23 123.715 99.0837C123.224 100.937 123.131 103.014 124.09 104.674C122.047 105.998 120.003 107.322 117.958 108.647C116.946 109.302 115.898 109.973 114.712 110.185C112.92 110.506 111.136 109.744 109.436 109.095C107.114 108.21 104.723 107.511 102.292 107.002C102.971 105.304 103.341 103.127 102.041 101.84C101.662 101.466 101.179 101.216 100.785 100.859C99.9719 100.12 99.618 99.015 99.3137 97.9602C98.8326 96.2879 98.3908 94.6043 97.9896 92.9105C97.4442 90.6038 96.9709 88.2463 97.1253 85.8809C97.362 82.2658 99.0354 78.9223 100.676 75.6926C101.29 74.4823 101.917 73.2529 102.758 72.1812C103.959 70.6486 104.353 70.4108 105.934 71.3506C108.133 72.6579 111.126 72.6207 113.104 70.8931Z" fill="white"/>
<path d="M93.4414 43.4408C93.4662 43.5783 93.1867 43.4949 93.2352 43.363C93.2836 43.2323 93.4572 43.212 93.5969 43.2132C95.6197 43.2357 97.6425 43.3506 99.6551 43.5602C98.1744 47.3342 97.7101 51.2333 97.0689 55.3217C96.9168 56.2908 96.2316 62.0493 97.8037 65.6013C99.3757 69.1533 103.72 69.7968 104.941 71.0476C103.602 75.8167 102.054 81.5357 101.172 86.4096C100.709 88.9676 100.31 91.6147 100.894 94.148C101.7 97.6594 103.331 100.863 103.594 104.457C103.998 109.985 104.677 109.554 103.815 108.424C102.684 106.944 98.1586 111.311 96.5201 112.193C96.3037 112.309 96.0367 112.425 95.8271 112.297C95.7223 112.233 95.6603 112.12 95.6028 112.011C94.1491 109.21 93.8899 105.935 94.0601 102.785C94.2314 99.6338 94.8027 96.5111 94.8985 93.3569C95.0743 87.4779 93.5496 81.5582 90.5543 76.4973C89.5851 74.8588 87.4745 70.3906 88.6949 61.6572C89.2493 57.6859 91.8908 43.8735 93.4414 43.4408Z" fill="#0079C2"/>
<path d="M114.579 41.364C116.685 46.0248 118.186 50.9584 119.034 56.0024C119.516 58.8692 119.727 62.0392 118.124 64.4655C116.611 66.7587 113.607 68.1887 113.189 70.9046C113.163 71.0781 117.963 80.2883 120.365 84.5164C120.916 85.4867 121.468 86.4592 122.089 87.3866C122.699 88.296 123.377 89.1649 123.876 90.1385C124.488 91.3319 124.246 92.2842 124.567 93.5857C124.905 94.9527 123.209 100.348 123.253 101.756C123.35 104.884 122.884 106.332 122.689 109.456C123.92 110.464 124.662 108.705 128.734 109.19C129.013 109.223 129.321 109.231 129.541 109.057C129.704 108.927 129.784 108.722 129.855 108.526C132.837 100.379 134.193 91.6384 133.819 82.9703C133.727 80.8608 133.533 78.7388 132.95 76.7081C132.068 73.6328 130.332 70.8775 129.143 67.907C129.016 67.5903 128.894 67.2624 128.885 66.9209C128.852 65.7185 129.169 63.8163 128.981 59.4969C128.641 51.6616 125.073 45.8231 120.951 39.1507C120.819 38.9366 120.675 38.7112 120.448 38.6019C120.093 38.4306 119.677 38.5963 119.32 38.7619C117.785 39.4707 116.25 40.1807 114.714 40.8895C114.575 40.9549 114.416 41.0439 114.394 41.1971C114.374 41.3493 114.539 41.5127 114.579 41.364Z" fill="#0079C2"/>
<path d="M100.801 41.3515C100.012 42.723 99.783 44.251 99.3999 45.7859C97.0345 44.6984 94.2747 44.3604 91.7178 44.2094C92.7309 42.7861 92.3274 40.4849 93.2019 40.3396C93.7653 40.246 100.538 41.809 100.801 41.3515Z" fill="#F4F4F4"/>
<path d="M120.249 36.02C121.077 37.0579 121.406 38.418 122.033 39.5877C118.792 41.277 117.893 42.1165 114.332 42.9684C112.457 40.5727 112.172 40.0576 112.736 39.6824C114.941 38.2118 117.986 37.4004 120.249 36.02Z" fill="#F4F4F4"/>
<path d="M140.936 176.372C136.313 179.04 131.917 182.099 127.81 185.507C127.502 185.763 127.06 186.028 126.739 185.79C126.483 185.599 126.5 185.213 126.574 184.902C127.195 182.233 129.742 180.519 131.223 178.213C132.267 176.586 132.766 174.677 133.248 172.806C133.359 172.381 136.905 172.029 137.479 172.266C138.891 172.847 140.187 175.125 140.936 176.372Z" fill="#1E2939"/>
<path d="M206.127 155.956C205.666 157.219 205.46 158.567 204.946 159.81C204.431 161.052 203.511 162.236 202.208 162.57C202.13 162.59 202.048 162.606 201.972 162.579C201.799 162.514 201.789 162.274 201.811 162.089C201.988 160.579 202.165 159.069 202.343 157.56C202.439 156.738 202.53 155.873 202.21 155.11C201.89 154.346 201.101 153.855 200.283 153.997C201.193 151.739 202.1 149.022 204.924 149.129C206.53 149.19 208.186 149.346 207.982 151.215C207.8 152.891 206.696 154.4 206.127 155.956Z" fill="#1E2939"/>
<path d="M155.792 81.1897C154.806 81.1897 152.904 82.88 153.608 84.4295C154.312 85.979 156.003 86.4016 158.538 86.4016C161.074 86.4016 164.595 84.0779 164.032 82.6693C163.468 81.2607 160.088 80.4155 159.102 80.4155C158.116 80.4155 155.792 81.1897 155.792 81.1897Z" fill="#1E2939"/>
<path d="M185.421 46.534C185.357 46.2692 185.282 45.992 185.086 45.8038C184.834 45.5604 184.454 45.5266 184.105 45.5052C183.021 45.4409 181.937 45.3755 180.853 45.3102C179.982 50.8624 178.244 56.2761 175.725 61.2998C173.758 65.2181 171.329 68.8827 168.905 72.5373C167.557 74.5702 165.614 76.6471 165.064 79.0237C164.855 79.9343 164.11 80.6498 163.261 81.0409C162.413 81.4308 161.464 81.539 160.532 81.5998C159.081 81.6934 157.624 81.6832 156.176 81.566C155.359 81.5018 154.514 81.406 153.737 81.6641C153.193 81.8444 152.721 82.1858 152.265 82.5295C151.111 83.3984 150.003 84.3269 148.926 85.2882C148.886 85.0245 148.845 84.7574 148.796 84.4768C147.848 84.4126 143.619 85.7029 142.215 85.4707C142.187 85.4662 142.155 85.4584 142.129 85.4448C140.459 88.2271 141.134 92.1769 140.343 95.3289C139.85 97.2987 139.24 99.2573 139.08 101.281C138.805 104.751 139.924 108.31 142.134 110.997C142.464 111.399 142.873 111.809 143.392 111.837C143.557 111.846 143.715 111.804 143.868 111.747C143.874 112.158 143.886 112.58 143.913 113.025C144.104 116.173 144.691 120.631 146.679 123.081C147.269 123.809 148.055 124.537 148.991 124.485C158.696 123.954 169.376 123.321 178.941 125.045C178.705 121.402 177.851 117.424 178.408 113.816C178.674 112.089 179.118 110.396 179.512 108.694C180.096 106.172 180.569 103.625 180.93 101.061C181.155 99.4567 181.337 97.8216 181.09 96.2191C180.88 94.8556 180.366 93.5585 179.856 92.2761C178.898 89.8657 178.437 89.2695 177.909 86.7306C176.547 80.1957 180.647 72.3604 182.989 66.1094C185.329 59.8596 186.964 53.0272 185.421 46.534Z" fill="#93CCFF"/>
<path d="M162.225 81.4827C162.468 81.8726 162.122 82.933 161.85 83.3026C160.652 84.9231 159.636 85.2961 158.469 85.2747C154.525 85.2049 154.415 83.1482 154.451 82.951C154.596 82.1464 154.773 81.3475 154.982 80.5575C155.922 80.5868 156.834 80.3671 157.708 80.0346C158.331 79.798 159.239 78.2654 159.877 78.3251C160.254 78.3612 161.526 80.3625 162.225 81.4827Z" fill="#FFBA9A"/>
<path d="M150.95 75.7749C150.911 74.5882 151.189 73.4027 151.545 72.2702C152.138 70.3883 153.351 68.7644 154.681 67.3051C155.02 66.9332 155.615 66.5579 155.964 66.9208C156.483 66.8487 156.603 66.4779 157.121 66.4047C158.265 66.2447 159.484 66.0948 160.526 66.5906C161.914 67.2498 162.576 68.8625 162.802 70.3815C163.091 72.3311 162.861 74.3347 162.319 76.229C162.071 77.0933 161.743 77.9644 161.132 78.6225C160.641 79.1511 159.998 79.5094 159.36 79.8441C158.064 80.5236 156.681 81.1592 155.218 81.1626C153.754 81.166 151.097 80.2036 150.95 75.7749Z" fill="#FFBA9A"/>
<path d="M154.149 71.282C152.79 71.7835 151.811 72.9803 150.382 72.747C149.845 72.6591 149.286 72.4596 148.969 72.0167C148.669 71.5987 148.643 71.0454 148.697 70.5337C148.815 69.4283 149.483 68.1909 150.593 68.1301C150.136 67.1575 150.071 66.0633 150.708 65.1967C151.344 64.3302 152.472 63.8523 153.539 63.9988C154.286 64.1003 155.065 64.4778 155.756 64.1735C156.09 64.0259 156.338 63.7408 156.619 63.5086C157.116 63.1007 157.771 62.8483 158.407 62.9519C159.041 63.0556 159.622 63.5706 159.685 64.2107C159.704 64.4079 159.679 64.6209 159.782 64.7911C160.075 65.2767 160.786 64.8339 161.312 64.6198C162.128 64.2873 163.122 64.7358 163.58 65.4875C164.04 66.2391 164.037 67.2038 163.771 68.0433C164.453 67.8484 165.129 68.5357 165.2 69.2412C165.272 69.9455 164.934 70.6205 164.606 71.2493C164.278 71.877 164.91 72.3267 164.62 72.9724C164.01 74.3348 160.995 74.6582 160.124 74.1894C159.254 73.7217 158.553 72.9904 157.714 72.4698C156.874 71.948 155.934 70.625 154.149 71.282Z" fill="black"/>
<path d="M167.907 89.5478C168.668 89.3168 170.617 88.8176 171.299 88.7771C171.811 88.7466 172.205 89.2165 172.136 89.7237C171.993 90.7773 172.062 91.7769 172.029 92.915C172.004 93.785 172.034 94.6831 171.711 95.49C171.002 97.266 168.676 98.0086 166.874 97.3697C165.241 96.7916 162.413 91.8952 163.211 90.9092C163.548 90.4933 166.293 90.0369 167.907 89.5478Z" fill="white"/>
<path d="M51.9965 70.1696C52.5881 74.4541 53.1797 78.7374 53.7713 83.0219C54.0204 84.8295 54.2683 86.69 53.83 88.4603C53.5189 89.7168 54.1218 92.3504 53.4322 93.4446C52.0934 95.5722 50.0356 98.4435 47.5779 97.9117C45.0536 97.3651 45.6757 95.3727 44.8395 92.9285C44.5105 91.9661 44.2366 89.1838 44.0417 88.1854C43.2968 84.3742 44.7415 79.9545 45.9957 76.2785C46.5028 74.791 46.8725 72.1293 47.9994 70.9821C48.4546 70.52 51.957 69.8822 51.9965 70.1696Z" fill="#064677"/>
<path d="M75.8449 90.5835C75.6714 90.6906 75.8674 91.023 76.0455 90.9238C77.7539 91.9583 79.6978 92.6007 81.6868 92.7889C82.3415 92.8508 83.1236 92.8035 83.4763 92.2479C83.6374 91.9944 83.6701 91.6822 83.6949 91.3825C84.3722 83.0761 81.5189 74.5409 75.9846 68.3114C74.9445 68.7599 73.9044 69.2084 72.8643 69.6581C74.0329 72.2635 74.727 75.3433 75.1361 78.1696C75.2251 78.786 75.295 79.4148 75.1868 80.0267C75.082 80.6251 74.8115 81.1795 74.6256 81.7576C74.0092 83.6677 74.3236 85.7367 74.6436 87.7178C74.8859 89.2132 74.6572 89.6448 75.8449 90.5835Z" fill="#064677"/>
<path d="M106.209 70.4841C105.551 70.4367 104.987 70.6249 104.659 71.3292C104.33 72.0336 103.767 74.24 107.241 74.3809C110.716 74.5218 114.238 74.4282 113.956 72.6906C113.674 70.954 113.298 70.4367 111.843 70.3905C110.387 70.3432 106.209 70.4841 106.209 70.4841Z" fill="black"/>
<path d="M105.742 68.9775C107.73 68.8682 109.708 68.5651 111.638 68.0737C111.453 69.8407 112.836 71.4758 112.619 72.1047C112.261 73.1346 109.08 73.8829 107.548 73.3724C104.289 72.2861 106.006 71.2437 105.742 68.9775Z" fill="#FFBA9A"/>
<path d="M104.297 67.1992C104.56 67.7908 104.895 68.3577 105.354 68.8141C106.922 70.3714 109.69 70.2092 111.408 68.8197C113.127 67.4302 113.892 65.1223 113.911 62.9125C113.917 62.2352 113.858 61.5433 113.592 60.9201C113.266 60.1594 112.657 59.5554 112.003 59.0483C110.242 57.6803 106.486 56.2176 104.603 58.2065C102.723 60.1921 103.309 64.9747 104.297 67.1992Z" fill="#FFBA9A"/>
<path d="M102.82 58.7655C102.62 57.6938 102.896 56.5793 103.269 55.5707C104.018 53.5468 105.173 51.7258 106.617 50.2935C106.829 51.63 107.184 52.936 107.671 54.1711C108.74 53.0668 109.81 51.9624 110.879 50.8569C111.465 52.2903 112.051 53.7226 112.637 55.156C112.74 55.4051 112.847 55.662 113.031 55.8378C113.361 56.1511 113.862 56.1128 114.237 55.8761C114.613 55.6406 114.89 55.2462 115.158 54.8608C115.48 56.0699 115.806 57.2983 115.823 58.5627C115.841 59.827 115.51 61.1557 114.701 62.0054C114.609 62.1023 114.171 62.5215 114.049 62.5485C113.835 62.597 111.9 60.4063 110.885 59.7606C109.4 58.8174 106.254 58.8433 104.705 59.6377C103.438 60.288 103.402 61.9107 102.82 58.7655Z" fill="#DFBF0F"/>
<path d="M156.145 85.6273C155.324 86.0961 155.018 87.5284 155.44 88.4446C155.863 89.3596 157.976 89.5005 158.398 88.3736C158.821 87.2467 159.174 86.8951 158.539 86.4015C157.906 85.9091 156.638 85.3456 156.145 85.6273Z" fill="#F69F32"/>
<path d="M151.918 106.122C151.073 107.602 151.637 112.602 152.2 112.602C152.763 112.602 158.116 109.292 158.821 108.447C159.525 107.602 161.074 102.742 160.441 96.9663C159.807 91.1909 157.694 87.4586 157.694 87.4586L156.497 87.5995C156.497 87.5995 154.333 101.896 151.918 106.122Z" fill="#F69F32"/>
<path d="M52.7168 76.7485C53.0718 80.9541 53.4752 83.7961 53.2453 88.0175C52.8768 94.7676 51.6248 95.0606 48.0683 97.737C47.5477 98.1292 48.0278 98.181 48.4087 98.0232C49.6877 97.4902 51.9156 96.1886 52.9636 93.7579C54.8297 89.4261 54.1097 82.0449 53.642 76.5005C53.6228 76.2718 52.7168 76.7485 52.7168 76.7485Z" fill="white"/>
<path d="M80.571 92.4542C77.6129 90.5531 77.5081 87.2592 76.6077 82.7178C75.7952 78.6204 76.415 81.3261 74.9365 76.6077C74.8238 76.2482 73.893 76.548 74.0102 76.8556C75.8865 81.7847 74.994 81.1581 76.3722 86.3317C77.3086 89.8465 77.8946 91.8907 79.8396 92.923C80.1259 93.0751 80.9711 92.6649 80.571 92.4542Z" fill="white"/>
<path d="M57.6644 101.498C57.6092 103.019 57.6576 104.525 57.8988 106.03C57.9991 106.653 58.4397 107.532 58.1715 108.109C57.9134 108.666 57.084 108.133 54.7468 109.97C54.4167 110.229 55.1458 110.626 55.6743 110.309C56.2941 109.937 57.9067 109.165 59.046 108.823C59.2184 108.771 59.4877 108.612 59.4257 108.389C58.7857 106.082 58.5141 103.822 58.602 101.423C58.6189 100.949 57.6802 101.089 57.6644 101.498Z" fill="white"/>
<path d="M70.7054 101.2C71.1291 102.861 71.3375 105.099 72.1737 106.615C72.2098 106.68 72.3675 106.711 72.4273 106.71C73.8663 106.677 76.4898 105.067 79.0974 105.56C79.4175 105.62 79.6259 105.092 79.0929 104.991C76.5157 104.504 74.5673 106.084 73.81 105.887C72.105 105.443 71.9878 102.351 71.6317 100.952C71.5427 100.605 70.6152 100.847 70.7054 101.2Z" fill="white"/>
<path d="M57.8789 104.367C58.1505 104.477 58.3127 104.053 58.1753 104.238C62.4586 103.537 66.7251 103.471 71.0287 104.042C71.4457 104.097 71.9877 103.511 71.3656 103.429C66.9764 102.846 62.6468 102.912 58.2756 103.627C58.0986 103.657 57.4743 103.98 57.8642 104.183C57.9938 104.245 58.1178 104.317 58.2361 104.4C58.3736 104.216 58.51 104.03 58.6474 103.845C58.5742 103.827 58.4998 103.809 58.4265 103.792C58.0772 103.65 57.3481 104.15 57.8789 104.367Z" fill="white"/>
<path d="M58.5652 82.5161C60.0279 82.1307 61.2833 81.5334 62.497 80.624C63.678 79.7383 63.7456 78.8965 65.2602 79.9558C66.2541 80.6499 67.4328 81.0151 68.598 81.281C68.8076 81.3295 69.61 80.9903 69.3621 80.9339C67.9388 80.6082 66.7386 80.0685 65.552 79.2391C65.2072 78.9979 64.8218 78.7038 64.3699 78.803C64.0611 78.8706 63.6611 78.9066 63.3918 79.1072C61.6744 80.384 60.7988 81.645 58.4954 82.2524C57.9567 82.3944 58.0277 82.6581 58.5652 82.5161Z" fill="#1E2939"/>
<path d="M100.913 75.3828C101.96 76.7677 103.62 79.5196 105.695 78.9629C108.067 78.3274 109.824 75.6904 111.472 74.0248C111.612 73.884 111.347 73.8919 111.262 73.902C108.035 74.2987 104.808 74.6953 101.581 75.0909C101.366 75.1179 100.568 75.5011 101.171 75.4267C103.636 75.1247 106.1 74.8216 108.565 74.5196C109.11 74.452 109.657 74.3843 110.203 74.3179C111.434 74.1668 110.166 74.5951 109.651 75.1146C108.687 76.0893 107.735 77.0776 106.748 78.0276C104.849 79.8566 102.73 76.3147 101.84 75.1349C101.681 74.9264 100.865 75.3185 100.913 75.3828Z" fill="#93CCFF"/>
<path d="M109.654 78.7996C109.563 79.2909 109.607 79.7394 109.804 80.2003C109.959 80.5598 110.773 80.34 110.73 79.9524C110.681 79.5106 110.632 79.0689 110.583 78.6272C110.542 78.2643 109.613 78.4807 109.657 78.8762C109.706 79.3168 109.755 79.7586 109.804 80.2003C110.113 80.118 110.421 80.0347 110.73 79.9524C110.552 79.5377 110.502 79.15 110.585 78.7038C110.661 78.2958 109.722 78.439 109.654 78.7996Z" fill="#1E2939"/>
<path d="M110.804 87.3143C110.923 87.7549 111.041 88.1944 111.159 88.6351C111.468 88.5517 111.777 88.4694 112.086 88.3871C111.967 87.9465 111.849 87.507 111.731 87.0664C111.629 86.6923 110.704 86.9402 110.804 87.3143C110.923 87.7549 111.041 88.1944 111.159 88.6351C111.261 89.0092 112.186 88.7613 112.086 88.3871C111.967 87.9465 111.849 87.507 111.731 87.0664C111.629 86.6923 110.704 86.9402 110.804 87.3143Z" fill="#1E2939"/>
<path d="M111.892 93.998C111.892 94.4364 111.892 94.8748 111.892 95.3131C111.892 95.7932 112.829 95.6478 112.829 95.2388C112.829 94.8015 112.829 94.3632 112.829 93.9248C112.829 93.4447 111.892 93.5901 111.892 93.998C111.892 94.4364 111.892 94.8748 111.892 95.3131C111.892 95.7932 112.829 95.6478 112.829 95.2388C112.829 94.8015 112.829 94.3632 112.829 93.9248C112.829 93.4447 111.892 93.5901 111.892 93.998Z" fill="#1E2939"/>
<path d="M111.911 100.17C112.189 100.584 112.31 101.032 112.275 101.53C112.584 101.471 112.893 101.41 113.201 101.35C113.068 100.854 112.935 100.358 112.802 99.8625C112.712 99.5255 111.787 99.7735 111.877 100.11C112.01 100.606 112.143 101.102 112.275 101.599C112.361 101.917 113.182 101.708 113.201 101.419C113.243 100.819 113.104 100.301 112.769 99.8028C112.588 99.5345 111.691 99.8444 111.911 100.17Z" fill="#1E2939"/>
<path d="M112.427 105.934C112.708 106.513 112.989 107.093 113.271 107.671C113.418 107.976 114.319 107.676 114.196 107.423C113.915 106.844 113.633 106.266 113.353 105.686C113.204 105.381 112.304 105.681 112.427 105.934C112.708 106.513 112.989 107.093 113.271 107.671C113.579 107.589 113.887 107.505 114.196 107.423C113.915 106.844 113.633 106.266 113.353 105.686C113.204 105.381 112.304 105.681 112.427 105.934Z" fill="#1E2939"/>
<path d="M161.512 103.798C161.332 104.515 161.458 105.187 161.865 105.802C162.018 106.034 162.809 105.799 162.758 105.499C162.651 104.87 162.544 104.242 162.437 103.613C162.385 103.31 161.456 103.53 161.512 103.861C161.618 104.489 161.725 105.118 161.832 105.747C162.131 105.647 162.428 105.545 162.726 105.445C162.368 104.905 162.278 104.301 162.436 103.676C162.519 103.349 161.588 103.493 161.512 103.798Z" fill="#1E2939"/>
<path d="M161.576 109.948C161.439 110.796 161.418 111.636 161.497 112.49C161.533 112.88 162.416 112.685 162.428 112.328C162.456 111.509 162.484 110.691 162.512 109.873C162.528 109.399 161.59 109.545 161.576 109.948C161.548 110.767 161.52 111.586 161.492 112.404C161.801 112.35 162.112 112.295 162.422 112.241C162.349 111.446 162.384 110.66 162.512 109.873C162.586 109.417 161.641 109.546 161.576 109.948Z" fill="#1E2939"/>
<path d="M161.382 121.374C161.283 122.012 161.422 122.565 161.498 123.196C161.548 123.617 162.45 123.372 162.423 122.947C162.387 122.369 162.35 121.791 162.312 121.212C162.286 120.805 161.359 121.023 161.387 121.459C161.424 122.039 161.46 122.617 161.498 123.196C161.806 123.113 162.114 123.03 162.423 122.947C162.354 122.375 162.229 121.878 162.318 121.298C162.389 120.841 161.443 120.97 161.382 121.374Z" fill="#1E2939"/>
<path d="M161.471 116.716C161.443 117.325 161.512 117.912 161.688 118.495C161.829 118.96 162.672 118.708 162.615 118.247C162.545 117.685 162.475 117.124 162.405 116.563C162.348 116.104 161.42 116.339 161.479 116.811C161.549 117.372 161.619 117.933 161.688 118.495C161.997 118.412 162.306 118.33 162.615 118.247C162.455 117.723 162.387 117.207 162.413 116.659C162.437 116.149 161.492 116.264 161.471 116.716Z" fill="#1E2939"/>
<path d="M109.073 75.3016C109.074 75.6926 109.156 76.0927 109.371 76.4206C109.801 77.0731 110.651 77.2917 111.43 77.3672C111.924 77.4146 112.449 77.4202 112.887 77.1847C113.225 77.0021 113.478 76.69 113.667 76.3541C114.15 75.4954 113.943 73.4208 113.064 72.9723C110.481 71.6583 109.069 73.9538 109.073 75.3016Z" fill="black"/>
<path d="M128.936 71.3857C127.677 70.6453 126.022 70.8695 124.764 71.6133C123.506 72.3559 122.575 73.5414 121.754 74.7494C121.022 75.8245 120.308 76.983 119.181 77.6298C118.054 78.2767 116.364 78.164 115.733 77.0281C115.416 76.4567 115.409 75.7231 114.976 75.234C114.27 74.4362 112.956 74.772 111.959 74.3956C111.423 74.9692 110.949 75.5563 110.622 76.2685C111.466 76.1006 112.221 76.7565 112.194 77.6163C112.166 78.4761 111.668 79.2379 111.266 79.9986C110.863 80.7592 110.543 81.672 110.883 82.4631C111.04 82.8294 111.323 83.1246 111.606 83.4052C112.776 84.5648 114.095 85.6421 115.666 86.1379C118.146 86.9211 120.959 86.0883 122.933 84.3946C124.908 82.6997 126.118 80.2521 126.749 77.7279C127.326 75.4211 125.131 72.8315 128.936 71.3857Z" fill="black"/>
<mask id="mask1_998_12920" style="mask-type:luminance" maskUnits="userSpaceOnUse" x="88" y="44" width="17" height="70">
<path d="M93.4356 44.9054C93.4604 45.0429 93.1809 44.9595 93.2293 44.8276C93.2778 44.6969 93.4513 44.6766 93.5911 44.6777C95.6138 44.7003 97.6366 44.8152 99.6493 45.0248C98.1685 48.7988 97.7043 52.6979 97.0631 56.7863C96.9109 57.7554 96.2258 63.5139 97.7978 67.0659C99.3698 70.6179 103.714 71.2614 104.936 72.5122C103.596 77.2813 102.048 83.0003 101.166 87.8742C100.703 90.4322 100.304 93.0793 100.888 95.6126C101.695 99.124 103.325 102.328 103.588 105.922C103.992 111.45 104.671 111.018 103.809 109.888C102.678 108.409 98.1528 112.775 96.5142 113.658C96.2979 113.774 96.0308 113.89 95.8212 113.761C95.7164 113.697 95.6544 113.584 95.5969 113.475C94.1432 110.675 93.8841 107.4 94.0542 104.249C94.2255 101.098 94.7968 97.9757 94.8926 94.8215C95.0684 88.9425 93.5437 83.0228 90.5484 77.9619C89.5793 76.3234 87.4686 71.8552 88.689 63.1217C89.2435 59.1505 91.8849 45.3381 93.4356 44.9054Z" fill="white"/>
</mask>
<g mask="url(#mask1_998_12920)">
<path d="M93.6297 62.8941C95.4373 62.9719 97.1569 62.1898 98.2376 60.7316C98.4889 60.3924 97.5593 60.4555 97.3744 60.7057C96.5619 61.8022 95.3562 62.4163 93.987 62.3577C93.6264 62.3419 93.0054 62.8671 93.6297 62.8941Z" fill="white"/>
<path d="M94.8406 64.8572C96.0261 64.3703 97.2127 63.8835 98.3982 63.3967C98.9842 63.1566 98.4669 62.6529 97.988 62.849C96.8014 63.3358 95.6159 63.8215 94.4292 64.3083C93.8444 64.5495 94.3616 65.0532 94.8406 64.8572Z" fill="white"/>
</g>
<mask id="mask2_998_12920" style="mask-type:luminance" maskUnits="userSpaceOnUse" x="112" y="36" width="22" height="72">
<path d="M114.216 39.0601C116.322 43.721 117.823 48.6546 118.671 53.6986C119.153 56.5654 119.364 59.7354 117.761 62.1616C116.248 64.4549 113.243 65.8849 112.825 68.6007C112.799 68.7743 117.6 77.9845 120.001 82.2126C120.552 83.1829 121.105 84.1554 121.726 85.0828C122.335 85.9922 123.014 86.861 123.513 87.8347C124.125 89.0281 123.882 89.9803 124.204 91.2819C124.542 92.6488 122.846 98.0444 122.89 99.4519C122.987 102.58 122.521 104.028 122.326 107.152C123.557 108.161 124.298 106.402 128.371 106.886C128.649 106.919 128.958 106.927 129.178 106.753C129.341 106.624 129.421 106.418 129.492 106.222C132.474 98.0749 133.83 89.3346 133.455 80.6665C133.364 78.5569 133.169 76.435 132.587 74.4043C131.704 71.329 129.969 68.5737 128.78 65.6032C128.653 65.2865 128.531 64.9586 128.522 64.6171C128.489 63.4147 128.806 61.5125 128.618 57.1931C128.277 49.3577 124.71 43.5193 120.587 36.8469C120.456 36.6328 120.311 36.4074 120.085 36.2981C119.73 36.1268 119.314 36.2924 118.957 36.4581C117.422 37.1669 115.887 37.8769 114.351 38.5857C114.211 38.651 114.052 38.7401 114.031 38.8933C114.011 39.0454 114.175 39.2089 114.216 39.0601Z" fill="white"/>
</mask>
<g mask="url(#mask2_998_12920)">
<path d="M120.992 54.8266C119.987 55.0801 118.957 54.7826 118.197 54.0885C117.913 53.8293 117.039 54.2011 117.345 54.4806C118.394 55.4385 119.776 55.7484 121.147 55.4024C121.714 55.2593 121.56 54.6823 120.992 54.8266Z" fill="white"/>
</g>
<mask id="mask3_998_12920" style="mask-type:luminance" maskUnits="userSpaceOnUse" x="87" y="156" width="17" height="15">
<path d="M100.884 156.946C102.426 159.168 103.394 161.785 103.668 164.476C99.0047 166.969 94.1027 169.017 89.0519 170.584C88.7375 170.681 88.3566 170.764 88.1087 170.548C87.7447 170.23 88.0186 169.631 88.3431 169.273C89.4024 168.104 90.8313 167.323 91.9064 166.168C93.8514 164.08 94.3889 161.087 95.6229 158.514C97.5138 158.713 98.9912 157.119 100.884 156.946Z" fill="white"/>
</mask>
<g mask="url(#mask3_998_12920)">
<path d="M90.3078 163.37C95.6448 162.267 100.795 160.656 105.802 158.5C106.4 158.243 105.841 158.07 105.466 158.232C100.621 160.318 95.6313 161.902 90.4644 162.969C90.0779 163.049 89.6643 163.503 90.3078 163.37Z" fill="white"/>
</g>
<mask id="mask4_998_12920" style="mask-type:luminance" maskUnits="userSpaceOnUse" x="117" y="158" width="13" height="15">
<path d="M118.038 162.714C117.911 162.989 117.78 163.301 117.885 163.585C117.986 163.864 118.274 164.018 118.537 164.153C122.16 166.006 126.255 171.624 128.697 172.845C129.622 173.307 128.619 170.038 128.285 169.06C127.953 168.081 127.316 167.238 126.869 166.306C125.914 164.325 125.866 161.929 126.738 159.909C126.827 159.703 121.578 158.412 121.029 158.429C119.837 158.464 119.985 158.498 119.446 159.685C118.985 160.698 118.508 161.704 118.038 162.714Z" fill="white"/>
</mask>
<g mask="url(#mask4_998_12920)">
<path d="M116.214 160.21C119.797 160.617 123.371 161.089 126.936 161.626C127.206 161.666 128.019 161.231 127.512 161.155C123.947 160.618 120.372 160.146 116.79 159.74C116.521 159.71 115.709 160.154 116.214 160.21Z" fill="white"/>
</g>
<mask id="mask5_998_12920" style="mask-type:luminance" maskUnits="userSpaceOnUse" x="91" y="101" width="115" height="75">
<path d="M181.33 147.608C181.13 143.551 181.858 139.506 181.965 135.446C182.072 131.384 181.466 127.087 178.97 123.882C178.781 123.641 178.576 123.401 178.306 123.258C177.986 123.088 177.609 123.073 177.248 123.061C172.493 122.903 167.74 122.745 162.987 122.588C160.638 122.51 158.284 122.432 155.94 122.597C154.001 122.732 153.222 123.601 151.285 123.446C150.462 123.38 149.673 123.753 148.932 124.116C146.127 125.488 143.321 126.862 140.516 128.236C138.098 129.419 135.656 130.633 133.394 132.086C133.607 130.471 133.732 128.851 133.682 127.223C133.533 122.46 131.927 117.833 129.69 113.627C127.452 109.419 124.589 105.583 121.738 101.764C121.41 101.325 120.899 100.832 120.399 101.056C116.361 102.865 112.579 101.403 108.216 102.138C107.906 102.19 107.541 102.29 107.443 102.59C107.527 102.674 107.581 102.619 107.666 102.705C106.402 103.244 105.54 104.415 104.741 105.534C102.555 108.594 100.368 111.66 98.4851 114.915C96.7936 117.838 95.3546 120.9 93.9189 123.957C93.1086 125.682 92.2928 127.42 91.8172 129.266C91.2684 131.396 91.185 133.614 91.1107 135.813C90.927 141.209 90.7883 146.708 92.2792 151.896C93.1019 154.755 94.408 157.473 94.9996 160.387C94.9647 160.213 102.106 158.878 102.759 158.814C103.029 158.788 103.526 154.69 103.391 152.813C102.989 147.205 102.895 141.58 102.799 135.961C102.786 135.21 102.781 134.427 103.12 133.758C103.375 133.253 103.803 132.862 104.217 132.476C109.247 127.789 113.461 122.227 116.611 116.116C118.325 122.396 120.602 128.389 123.772 134.074C119.565 141.712 119.025 150.767 118.692 159.48C121.567 159.464 124.447 159.841 127.222 160.597C127.227 160.683 127.485 159.684 127.866 158.122C129.912 163.651 131.957 169.179 134.003 174.708L133.456 175.315C135.022 174.956 136.587 174.596 138.152 174.236C138.59 174.136 139.067 174.01 139.332 173.646C139.522 173.385 139.565 173.046 139.598 172.724C140.199 166.816 139.454 160.777 137.434 155.193C137.131 154.355 136.795 153.509 136.765 152.617C136.722 151.386 136.775 149.104 137.587 148.176C139.076 146.477 141.285 144.531 143.41 143.762C150.133 141.333 153.309 140.088 160.032 137.659C160.215 137.429 166.042 142.338 167.169 144.326C169.859 149.072 173.564 153.067 175.254 158.254C175.656 159.488 176.324 160.938 177.617 161.056C178.123 161.102 178.618 160.918 179.095 160.74C185.357 158.402 191.796 156.537 198.34 155.168C199.839 154.853 201.439 154.573 202.869 155.121C203.229 152.632 204.074 150.213 205.34 148.04C197.729 145.054 189.044 144.898 181.33 147.608Z" fill="white"/>
</mask>
<g mask="url(#mask5_998_12920)">
<path d="M89.6799 126.96C89.9718 128.584 90.4 130.433 91.8571 131.42C92.9885 132.188 94.4129 132.247 95.5759 131.535C96.1089 131.208 95.3088 131.043 94.9955 131.235C93.7683 131.987 92.3202 130.982 91.6531 129.948C91.0333 128.987 90.8046 127.82 90.6051 126.712C90.5454 126.378 89.6157 126.604 89.6799 126.96Z" fill="white"/>
<path d="M136.085 129.671C131.862 133.37 126.996 137.412 125.599 143.089C123.925 149.901 127.02 159.07 129.394 165.381C129.504 165.674 130.268 165.224 130.169 164.958C127.989 159.163 125.444 150.898 126.225 144.622C127.018 138.257 133.056 133.123 137.986 129.39C138.398 129.079 136.111 129.403 135.905 129.583L136.085 129.671Z" fill="white"/>
<path d="M134.564 147.028C137.009 147.604 139.473 147.902 141.987 147.92C142.201 147.921 143.041 147.52 142.581 147.517C140.123 147.5 137.712 147.215 135.319 146.651C135.092 146.597 134.279 146.961 134.564 147.028Z" fill="white"/>
<path d="M134.233 149.545C135.969 150.128 137.735 150.547 139.549 150.798C139.816 150.836 140.631 150.4 140.125 150.33C138.369 150.085 136.656 149.685 134.976 149.121C134.717 149.034 133.879 149.426 134.233 149.545Z" fill="white"/>
<path d="M182.648 145.299C181.144 147.295 177.254 149.832 179.807 152.612C180.11 152.941 180.983 152.553 180.651 152.19C178.388 149.727 182.09 147.387 183.432 145.606C183.79 145.131 182.923 144.935 182.648 145.299Z" fill="white"/>
<path d="M131.555 174.252C135.722 174.356 142.839 173.687 147.286 171.295C147.843 170.995 147.338 170.56 146.891 170.801C141.753 173.565 135.721 172.699 130.228 174.247C129.912 174.336 129.621 174.838 130.139 174.85C130.5 174.859 130.862 174.868 131.222 174.877C131.639 174.888 132.18 174.267 131.555 174.252Z" fill="white"/>
<path d="M205.335 146.407C203.396 149.616 201.992 153.07 200.608 156.546C200.491 156.84 201.411 156.734 201.533 156.428C202.898 153 204.284 149.593 206.196 146.425C206.418 146.059 205.492 146.147 205.335 146.407Z" fill="white"/>
</g>
<mask id="mask6_998_12920" style="mask-type:luminance" maskUnits="userSpaceOnUse" x="139" y="44" width="48" height="81">
<path d="M186.254 45.9014C186.191 45.6366 186.116 45.3593 185.92 45.1712C185.668 44.9277 185.288 44.8939 184.939 44.8725C183.855 44.8083 182.771 44.7429 181.687 44.6776C180.816 50.2298 179.078 55.6435 176.559 60.6672C174.592 64.5854 172.163 68.2501 169.739 71.9047C168.391 73.9376 166.448 76.0145 165.898 78.3911C165.689 79.3016 164.944 80.0172 164.095 80.4083C163.247 80.7982 162.298 80.9063 161.366 80.9672C159.915 81.0607 158.458 81.0506 157.01 80.9334C156.193 80.8692 155.348 80.7734 154.57 81.0314C154.027 81.2117 153.555 81.5532 153.099 81.8969C151.945 82.7657 150.837 83.6943 149.76 84.6555C149.72 84.3918 149.679 84.1248 149.63 83.8442C148.682 83.7799 144.453 85.0703 143.049 84.8381C143.021 84.8336 142.989 84.8257 142.963 84.8122C141.293 87.5945 141.968 91.5443 141.177 94.6963C140.684 96.6661 140.074 98.6246 139.914 100.649C139.639 104.118 140.758 107.677 142.968 110.365C143.298 110.766 143.707 111.176 144.226 111.204C144.391 111.213 144.549 111.172 144.702 111.114C144.708 111.525 144.72 111.947 144.747 112.392C144.938 115.541 145.525 119.999 147.513 122.448C148.103 123.176 148.889 123.904 149.825 123.853C159.53 123.322 170.21 122.688 179.775 124.413C179.539 120.769 178.685 116.791 179.242 113.183C179.508 111.457 179.952 109.763 180.346 108.061C180.93 105.539 181.403 102.993 181.764 100.429C181.989 98.8241 182.171 97.1889 181.924 95.5865C181.714 94.2229 181.2 92.9259 180.69 91.6435C179.732 89.233 179.271 88.6369 178.743 86.098C177.381 79.5631 181.481 71.7277 183.823 65.4768C186.163 59.227 187.798 52.3946 186.254 45.9014Z" fill="white"/>
</mask>
<g mask="url(#mask6_998_12920)">
<path d="M176.189 47.5804C180.95 48.1315 185.673 48.8899 190.366 49.8636C190.606 49.9131 191.421 49.5311 191.117 49.468C186.368 48.4831 181.592 47.7089 176.776 47.1511C176.538 47.1241 175.704 47.5241 176.189 47.5804Z" fill="white"/>
<path d="M148.979 83.2164C149.391 88.718 151.732 113.401 140.367 111.583C140.09 111.539 139.282 111.982 139.795 112.064C152.719 114.131 150.442 90.1334 149.904 82.9685C149.884 82.6913 148.953 82.8795 148.979 83.2164Z" fill="white"/>
<path d="M139.624 88.5343C143.087 87.9596 146.045 87.4941 149.442 86.6095C150.014 86.4608 150.315 85.5717 149.742 85.7215C146.428 86.5836 143.085 87.2992 139.707 87.8604C139.206 87.9438 138.997 88.6379 139.624 88.5343Z" fill="white"/>
<path d="M175.27 59.4839C173.899 60.799 173.698 62.4995 174.231 64.2361C174.44 64.9156 174.454 67.0702 175.431 67.0296C175.927 67.0105 175.733 65.5579 175.625 65.2954C175.411 64.7725 175.222 64.2372 175.07 63.694C174.66 62.2335 174.885 60.8001 176.03 59.7025C176.434 59.3137 175.532 59.2326 175.27 59.4839Z" fill="white"/>
</g>
<line x1="54.5186" y1="167.011" x2="54.4999" y2="173.011" stroke="black"/>
<circle cx="3.5" cy="3.5" r="3.5" transform="matrix(0.999995 0.0031028 0.0031028 -0.999995 51.0156 168)" fill="#F14625"/>
<path d="M74.7332 157L69.2411 157.1C65.7589 157.598 59.9546 160.591 67.5 164.083C68.0106 164.32 73.5719 163.984 74.7332 163.984C78.2149 164.982 82.2775 169.471 74.7332 171.966C74.4996 172.043 58.4822 171.966 55 171.966" stroke="black" stroke-dasharray="2 2"/>
</g>
<defs>
<clipPath id="clip0_998_12920">
<rect width="238" height="186" fill="white"/>
</clipPath>
</defs>
</svg>
