<svg width="238" height="186" viewBox="0 0 238 186" fill="none" xmlns="http://www.w3.org/2000/svg">
<g clip-path="url(#clip0_998_12763)">
<rect width="238" height="186" fill="white"/>
<g clip-path="url(#clip1_998_12763)">
<path d="M201.981 60.2076C202.273 58.0893 199.283 56.3469 197.036 56.1657C195.965 56.0793 194.852 56.2433 193.837 55.8892C191.638 55.1231 190.759 52.2824 188.614 51.3774C187.01 50.7007 185.163 51.3032 183.608 52.0856C182.052 52.8685 180.515 53.8532 178.778 53.9644C177.267 54.0613 175.625 53.5008 174.303 54.2391C173.318 54.7892 172.802 55.9245 171.894 56.5941C171.005 57.2494 169.846 57.3882 168.744 57.4482C167.641 57.5082 166.5 57.5192 165.496 57.9786C164.492 58.4384 163.662 59.4998 163.87 60.5835L201.981 60.2076Z" fill="#E7E8E5"/>
<path d="M109.775 40.7621C110.067 38.6438 107.077 36.9015 104.83 36.7202C103.759 36.6338 102.646 36.7974 101.631 36.4441C99.4318 35.6776 98.5536 32.8369 96.4079 31.9319C94.8034 31.2556 92.9568 31.8573 91.4014 32.6401C89.8464 33.423 88.3095 34.4077 86.5719 34.5189C85.0606 34.6158 83.4192 34.0553 82.0971 34.7932C81.1119 35.3437 80.5958 36.479 79.6874 37.1486C78.7987 37.8039 77.6398 37.9428 76.5375 38.0027C75.4353 38.0627 74.294 38.0737 73.2899 38.5331C72.2863 38.9929 71.4559 40.0539 71.664 41.138L109.775 40.7621Z" fill="#E7E8E5"/>
<path d="M68.7027 107.104C68.9943 104.985 66.0043 103.243 63.7579 103.061C62.6862 102.975 61.5735 103.139 60.5585 102.785C58.3596 102.019 57.4809 99.1782 55.3353 98.2732C53.7312 97.5969 51.8842 98.199 50.3289 98.9818C48.7739 99.7643 47.2369 100.749 45.4994 100.861C43.9881 100.957 42.347 100.397 41.0248 101.135C40.0392 101.685 39.5233 102.82 38.6149 103.49C37.7264 104.145 36.5675 104.284 35.4653 104.344C34.3629 104.404 33.2214 104.415 32.2177 104.875C31.2138 105.334 30.3835 106.396 30.5918 107.48L68.7027 107.104Z" fill="#E7E8E5"/>
<path d="M145.053 78.4699C145.231 77.1756 143.404 76.1104 142.031 76.0001C141.377 75.9472 140.697 76.0475 140.076 75.831C138.732 75.3628 138.196 73.6271 136.885 73.0742C135.904 72.6605 134.776 73.0284 133.825 73.5067C132.875 73.985 131.936 74.587 130.874 74.655C129.951 74.7137 128.948 74.3714 128.14 74.8228C127.538 75.1585 127.223 75.8524 126.667 76.2619C126.124 76.6621 125.416 76.7468 124.743 76.7833C124.069 76.8203 123.372 76.827 122.758 77.1077C122.145 77.3887 121.638 78.0369 121.765 78.6994L145.053 78.4699Z" fill="#E7E8E5"/>
<path d="M147.945 163.323L179.667 194.791L185.861 194.774L188.064 163.323H147.945Z" fill="#FDCA37"/>
<path d="M173.739 166.303L141.775 194.791L164.102 194.757L182.919 178.931L173.739 166.303Z" fill="#FDCA37"/>
<path d="M170.733 84.8965L210.134 121.414L210.829 83.5355L170.733 84.8965Z" fill="#FF5C33"/>
<path d="M197.28 86.4723L90.7139 194.774H111.713L206.882 98.7826L197.28 86.4723Z" fill="#FF5C33"/>
<path d="M58.999 126.577L97.1377 164.41L99.1173 126.577H58.999Z" fill="#8DC548"/>
<path d="M85.4769 129.052L17 194.774H39.0645L94.6562 141.681L85.4769 129.052Z" fill="#8DC548"/>
<path d="M92.25 113.588L146.698 167.6V113.588H92.25Z" fill="#0079C2"/>
<path d="M128.176 114.806C126.944 115.792 48.5635 194.774 48.5635 194.774H82.3308L143.951 132.797L128.176 114.806Z" fill="#0079C2"/>
<path d="M58.8946 21.7899C58.8946 24.7636 56.4838 27.1739 53.5098 27.1739C50.5358 27.1739 48.125 24.7636 48.125 21.7899C48.125 18.8162 50.5358 16.4054 53.5098 16.4054C56.4838 16.4054 58.8946 18.8162 58.8946 21.7899Z" fill="#FDCA37"/>
<path d="M52.743 33.8291C52.7119 33.8291 52.6865 32.8348 52.6865 31.6085C52.6865 30.3817 52.7119 29.3874 52.743 29.3874C52.7743 29.3874 52.7998 30.3817 52.7998 31.6085C52.7998 32.8348 52.7743 33.8291 52.743 33.8291Z" fill="#F69F32"/>
<path d="M49.6399 28.1355C49.6671 28.151 49.1606 29.0786 48.5088 30.2076C47.857 31.3362 47.3064 32.2382 47.2794 32.2227C47.2523 32.2072 47.7586 31.2796 48.4108 30.1506C49.0625 29.0224 49.6127 28.12 49.6399 28.1355Z" fill="#F69F32"/>
<path d="M46.4553 26.1527C46.4748 26.177 45.9118 26.657 45.1979 27.2246C44.4836 27.7923 43.8891 28.2324 43.8696 28.2076C43.8501 28.1833 44.4131 27.7033 45.1274 27.1357C45.8412 26.5685 46.436 26.1284 46.4553 26.1527Z" fill="#F69F32"/>
<path d="M58.1149 31.6412C58.0986 31.6441 58.0503 31.4339 57.9729 31.095C57.8954 30.756 57.7856 30.2886 57.6483 29.7768C57.5102 29.2649 57.3709 28.8059 57.2678 28.4736C57.1649 28.1418 57.1011 27.9358 57.1166 27.9299C57.1305 27.9249 57.2208 28.1208 57.3437 28.4476C57.4666 28.7745 57.6189 29.2326 57.7576 29.7474C57.8959 30.2622 57.9937 30.735 58.0514 31.0794C58.1091 31.4235 58.1294 31.6391 58.1149 31.6412Z" fill="#F69F32"/>
<path d="M63.5769 27.7659C63.5564 27.7898 62.8435 27.2004 61.9855 26.4502C61.1266 25.7001 60.4477 25.0724 60.4682 25.0493C60.4888 25.0254 61.2012 25.6145 62.0597 26.365C62.9182 27.1152 63.5975 27.7428 63.5769 27.7659Z" fill="#F69F32"/>
<path d="M65.6683 22.4406C65.6645 22.4569 65.4174 22.4137 65.0188 22.3474C64.6197 22.2807 64.0684 22.1955 63.4558 22.1251C62.8432 22.055 62.2864 22.0135 61.8832 21.9879C61.4796 21.9619 61.2291 21.9484 61.2295 21.9317C61.2295 21.917 61.4804 21.9023 61.8861 21.9077C62.2919 21.9128 62.8529 21.9421 63.4688 22.0126C64.0844 22.0831 64.6374 22.1817 65.0339 22.2685C65.4304 22.3554 65.6712 22.4263 65.6683 22.4406Z" fill="#F69F32"/>
<path d="M65.6758 17.2038C65.6829 17.2345 64.5173 17.5445 63.0723 17.8965C61.6264 18.2485 60.449 18.509 60.4414 18.4788C60.4339 18.4482 61.5995 18.1382 63.0454 17.7862C64.4905 17.4342 65.6682 17.1732 65.6758 17.2038Z" fill="#F69F32"/>
<path d="M59.5907 11.1024C59.6167 11.1196 59.0591 12.0094 58.3451 13.0893C57.6309 14.1697 57.031 15.031 57.0048 15.0138C56.9789 14.9966 57.5363 14.1072 58.2504 13.0268C58.9647 11.9469 59.5647 11.0852 59.5907 11.1024Z" fill="#F69F32"/>
<path d="M53.5521 9.82781C53.5683 9.82865 53.5665 10.1114 53.5598 10.5671C53.5534 11.0231 53.5442 11.6524 53.5452 12.3476C53.5459 13.0432 53.5564 13.6729 53.5641 14.129C53.5715 14.5846 53.5737 14.867 53.5577 14.8678C53.5428 14.8686 53.512 14.5875 53.4839 14.1319C53.4556 13.6759 53.4326 13.0453 53.4317 12.348C53.431 11.6507 53.4528 11.0202 53.4798 10.5641C53.5069 10.1081 53.537 9.82698 53.5521 9.82781Z" fill="#F69F32"/>
<path d="M48.9789 15.5227C48.9522 15.5391 48.3849 14.6593 47.7121 13.5584C47.0391 12.4571 46.5153 11.5513 46.542 11.5354C46.5687 11.519 47.1358 12.398 47.8088 13.4997C48.4816 14.6006 49.0058 15.5064 48.9789 15.5227Z" fill="#F69F32"/>
<path d="M46.2473 17.844C46.244 17.8587 46.0247 17.8268 45.6746 17.7534C45.3245 17.6796 44.844 17.5621 44.3203 17.4081C43.7965 17.2533 43.3292 17.0914 42.9952 16.963C42.661 16.835 42.4597 16.7427 42.4649 16.7289C42.4705 16.7134 42.6818 16.7792 43.0217 16.8875C43.3615 16.9962 43.8307 17.1455 44.3523 17.2995C44.874 17.453 45.3491 17.5822 45.6935 17.6754C46.0377 17.7685 46.2507 17.8285 46.2473 17.844Z" fill="#F69F32"/>
<path d="M45.0541 21.9807C45.057 22.0118 44.2877 22.1116 43.3356 22.2027C42.3837 22.2946 41.6094 22.3432 41.6065 22.3122C41.6035 22.2811 42.3727 22.1813 43.3248 22.0902C44.2769 21.9988 45.051 21.9497 45.0541 21.9807Z" fill="#F69F32"/>
<path d="M205.465 140.311C205.685 138.716 203.434 137.405 201.742 137.268C200.936 137.203 200.098 137.326 199.334 137.06C197.678 136.483 197.017 134.344 195.401 133.663C194.193 133.153 192.803 133.607 191.632 134.196C190.46 134.785 189.304 135.527 187.995 135.611C186.858 135.684 185.622 135.262 184.626 135.817C183.885 136.232 183.496 137.086 182.812 137.59C182.143 138.084 181.27 138.188 180.441 138.233C179.61 138.279 178.751 138.287 177.995 138.633C177.24 138.979 176.614 139.778 176.771 140.594L205.465 140.311Z" fill="white"/>
<path d="M205.465 140.311C205.468 140.314 205.421 140.317 205.327 140.321C205.222 140.324 205.083 140.328 204.906 140.333C204.521 140.34 203.973 140.351 203.272 140.364C201.83 140.387 199.76 140.418 197.194 140.457C192.013 140.52 184.832 140.606 176.772 140.703L176.682 140.704L176.665 140.615C176.571 140.139 176.741 139.635 177.04 139.254C177.338 138.867 177.768 138.577 178.233 138.421C179.308 138.055 180.417 138.21 181.435 138.02C181.944 137.931 182.437 137.758 182.825 137.443C183.218 137.129 183.51 136.701 183.863 136.317C184.04 136.126 184.231 135.94 184.457 135.796C184.682 135.653 184.932 135.551 185.188 135.494C185.704 135.384 186.216 135.421 186.707 135.458C187.199 135.496 187.681 135.545 188.148 135.493C188.616 135.445 189.068 135.311 189.499 135.139C190.364 134.793 191.144 134.305 191.964 133.93C192.781 133.562 193.651 133.298 194.517 133.362C194.945 133.398 195.364 133.517 195.726 133.725C196.088 133.931 196.394 134.203 196.666 134.486C197.21 135.054 197.638 135.67 198.137 136.166C198.625 136.67 199.216 137.025 199.841 137.113C200.464 137.212 201.073 137.159 201.643 137.2C202.792 137.292 203.707 137.749 204.353 138.214C205.003 138.695 205.348 139.258 205.443 139.672C205.537 140.087 205.454 140.323 205.465 140.311C205.446 140.302 205.503 140.088 205.4 139.683C205.294 139.284 204.948 138.744 204.304 138.283C203.662 137.837 202.753 137.4 201.635 137.322C201.076 137.286 200.468 137.347 199.819 137.251C199.164 137.166 198.529 136.788 198.028 136.276C197.513 135.77 197.08 135.154 196.545 134.603C196.278 134.329 195.982 134.07 195.64 133.878C195.299 133.684 194.908 133.575 194.502 133.543C193.686 133.486 192.843 133.74 192.044 134.105C191.242 134.474 190.459 134.968 189.574 135.326C189.133 135.504 188.662 135.645 188.17 135.697C187.676 135.753 187.18 135.702 186.691 135.666C186.203 135.629 185.707 135.598 185.235 135.701C184.758 135.8 184.352 136.083 184.021 136.462C183.681 136.83 183.385 137.269 182.96 137.611C182.535 137.957 182.002 138.141 181.474 138.234C180.411 138.427 179.311 138.28 178.306 138.627C177.87 138.773 177.485 139.036 177.213 139.387C176.942 139.733 176.799 140.171 176.878 140.573L176.771 140.485C184.802 140.424 191.958 140.369 197.12 140.329C199.696 140.317 201.774 140.308 203.221 140.302C203.933 140.301 204.489 140.301 204.88 140.301C205.061 140.303 205.205 140.304 205.313 140.305C205.412 140.307 205.463 140.309 205.465 140.311Z" fill="#17282F"/>
<path d="M115.319 175.427C115.611 173.308 112.621 171.566 110.374 171.385C109.303 171.298 108.19 171.462 107.175 171.109C104.976 170.342 104.098 167.501 101.952 166.596C100.347 165.92 98.5007 166.522 96.9457 167.305C95.3903 168.087 93.8534 169.072 92.1159 169.183C90.6045 169.28 88.9635 168.72 87.641 169.458C86.6558 170.008 86.1397 171.144 85.2317 171.813C84.3431 172.468 83.1842 172.607 82.0815 172.667C80.9792 172.727 79.838 172.738 78.8339 173.198C77.8302 173.657 76.9999 174.719 77.208 175.803L115.319 175.427Z" fill="white"/>
<path d="M115.319 175.427C115.319 175.427 115.258 175.433 115.133 175.436C114.998 175.44 114.812 175.444 114.572 175.45C114.066 175.458 113.335 175.471 112.397 175.487C110.488 175.514 107.735 175.552 104.32 175.6C97.4488 175.678 87.912 175.788 77.2088 175.912L77.1186 175.912L77.101 175.823C76.9789 175.203 77.2004 174.544 77.5927 174.044C77.9842 173.537 78.5477 173.156 79.1615 172.949C80.5781 172.467 82.0496 172.671 83.4086 172.419C84.0875 172.3 84.7492 172.068 85.2703 171.644C85.7969 171.224 86.1863 170.653 86.6524 170.145C86.8861 169.892 87.1383 169.648 87.4345 169.459C87.7303 169.272 88.058 169.137 88.395 169.063C89.0718 168.917 89.7502 168.966 90.4018 169.015C91.0543 169.065 91.6975 169.131 92.3219 169.061C92.9471 168.996 93.5513 168.817 94.1248 168.587C95.2766 168.126 96.3142 167.476 97.4001 166.981C98.4814 166.491 99.6327 166.143 100.774 166.227C101.339 166.273 101.891 166.43 102.368 166.705C102.846 166.976 103.251 167.335 103.612 167.708C104.333 168.461 104.901 169.278 105.567 169.939C106.218 170.609 107.009 171.086 107.845 171.201C108.677 171.333 109.485 171.26 110.24 171.315C110.999 171.362 111.685 171.562 112.285 171.8C112.887 172.043 113.404 172.338 113.834 172.653C114.262 172.971 114.592 173.317 114.834 173.648C115.081 173.978 115.207 174.311 115.282 174.58C115.34 174.853 115.36 175.068 115.339 175.215C115.327 175.359 115.319 175.427 115.319 175.427C115.319 175.427 115.316 175.347 115.318 175.207C115.329 175.069 115.304 174.857 115.239 174.59C115.1 174.058 114.64 173.337 113.783 172.721C113.356 172.417 112.842 172.13 112.247 171.897C111.653 171.667 110.976 171.477 110.232 171.436C109.488 171.388 108.68 171.467 107.823 171.339C106.957 171.226 106.122 170.727 105.458 170.048C104.777 169.378 104.202 168.561 103.491 167.826C103.135 167.46 102.741 167.115 102.282 166.857C101.826 166.597 101.302 166.45 100.76 166.408C99.6671 166.33 98.5439 166.67 97.4798 167.156C96.4116 167.646 95.3723 168.301 94.1999 168.774C93.6155 169.01 92.9932 169.196 92.3433 169.265C91.6917 169.339 91.0358 169.271 90.3855 169.223C89.7368 169.175 89.076 169.132 88.4407 169.27C88.1252 169.34 87.8235 169.465 87.5499 169.638C87.2763 169.813 87.0372 170.044 86.8106 170.29C86.357 170.782 85.9647 171.363 85.4058 171.813C84.8474 172.267 84.1458 172.51 83.4472 172.632C82.0433 172.889 80.581 172.692 79.2333 173.156C78.6501 173.352 78.1315 173.706 77.7656 174.177C77.401 174.643 77.2071 175.236 77.3145 175.782L77.2067 175.694C87.8818 175.606 97.3934 175.528 104.247 175.471C107.672 175.451 110.432 175.435 112.346 175.424C113.295 175.422 114.033 175.419 114.545 175.418C114.79 175.419 114.98 175.42 115.119 175.42C115.249 175.422 115.319 175.427 115.319 175.427Z" fill="#17282F"/>
<path d="M76.5163 75.3716C76.7609 73.5936 74.2514 72.131 72.3658 71.9791C71.4666 71.9066 70.5326 72.0442 69.6808 71.7471C67.8347 71.104 67.0974 68.7193 65.2966 67.9599C63.9501 67.3923 62.3998 67.8974 61.0944 68.5544C59.7891 69.2114 58.4992 70.0379 57.0408 70.1315C55.7722 70.2124 54.3946 69.7421 53.2848 70.3618C52.4579 70.8233 52.0246 71.7765 51.2623 72.3387C50.5165 72.8887 49.5438 73.0049 48.6186 73.0553C47.6932 73.1056 46.7353 73.1149 45.8927 73.5008C45.0503 73.8864 44.3532 74.7775 44.5281 75.6871L76.5163 75.3716Z" fill="white"/>
<path d="M76.5163 75.3716C76.5184 75.3745 76.466 75.3775 76.3611 75.3812C76.2457 75.3842 76.0904 75.3884 75.8916 75.3938C75.4644 75.4018 74.8522 75.4131 74.0676 75.4278C72.4627 75.4513 70.1541 75.4853 67.2909 75.5272C61.5186 75.5952 53.5135 75.69 44.5293 75.7962L44.4389 75.797L44.421 75.7076C44.3175 75.1815 44.5056 74.6231 44.8374 74.2002C45.1678 73.7719 45.6446 73.4496 46.1622 73.2755C47.3565 72.8694 48.5924 73.0414 49.7296 72.8296C50.2979 72.7301 50.8499 72.5367 51.2846 72.1835C51.7236 71.8327 52.0505 71.3544 52.4427 70.9273C52.6396 70.7142 52.8521 70.5078 53.1026 70.3488C53.3527 70.1902 53.6298 70.0765 53.9141 70.014C54.4859 69.8911 55.0566 69.9322 55.6039 69.9733C56.1516 70.0157 56.6904 70.0706 57.2124 70.0119C57.7349 69.9582 58.2405 69.8088 58.7213 69.6158C59.6863 69.2299 60.5569 68.6849 61.4704 68.2687C62.3788 67.8575 63.3476 67.5643 64.3093 67.6352C64.7859 67.6746 65.2513 67.8068 65.6532 68.0384C66.056 68.2674 66.3963 68.5695 66.6997 68.8842C67.306 69.5168 67.7826 70.2028 68.3398 70.7566C68.8853 71.3184 69.5457 71.7169 70.2452 71.8143C70.9409 71.9246 71.6197 71.8646 72.2537 71.9103C73.5335 72.0123 74.5531 72.5204 75.2739 73.0381C75.9969 73.5726 76.3821 74.1989 76.4886 74.6596C76.5377 74.8899 76.5532 75.0703 76.5348 75.1945C76.5243 75.3162 76.5163 75.3716 76.5163 75.3716C76.5163 75.3716 76.5138 75.304 76.5138 75.187C76.5226 75.072 76.5008 74.8946 76.4463 74.6709C76.3279 74.2245 75.9419 73.6221 75.2236 73.1069C74.5082 72.608 73.4945 72.1193 72.2462 72.0324C71.6231 71.9922 70.9446 72.0593 70.2229 71.9515C69.4945 71.8571 68.7892 71.4371 68.2312 70.8661C67.658 70.3026 67.1755 69.6171 66.5788 69.0016C66.2805 68.695 65.9503 68.4063 65.5676 68.1911C65.1858 67.9738 64.7486 67.8517 64.2955 67.816C63.382 67.7514 62.4413 68.0358 61.5497 68.4436C60.6543 68.8544 59.782 69.4048 58.7961 69.8026C58.3049 70.0014 57.7813 70.1583 57.2339 70.2162C56.6846 70.2783 56.1332 70.2217 55.5874 70.1814C55.0432 70.1407 54.4898 70.105 53.9602 70.2204C53.4267 70.3308 52.9708 70.6492 52.6007 71.0717C52.2211 71.4837 51.8915 71.9724 51.4196 72.3521C50.9479 72.736 50.3561 72.9403 49.7678 73.0435C48.5864 73.2592 47.3595 73.0943 46.2339 73.482C45.7468 73.646 45.315 73.9409 45.01 74.334C44.7064 74.7221 44.5458 75.2138 44.6349 75.6665L44.5269 75.5784C53.4831 75.5075 61.4632 75.4446 67.217 75.3988C70.0904 75.3846 72.4073 75.3724 74.0173 75.3644C74.812 75.3636 75.4317 75.3628 75.8643 75.3619C76.0686 75.3636 76.2289 75.3644 76.3472 75.3653C76.4567 75.367 76.5138 75.3691 76.5163 75.3716Z" fill="#17282F"/>
<path d="M190.903 29.0572C191.095 27.6593 189.123 26.5098 187.64 26.3902C186.933 26.3335 186.199 26.4414 185.529 26.2081C184.079 25.7025 183.499 23.828 182.083 23.231C181.025 22.7846 179.806 23.1819 178.78 23.6984C177.754 24.2148 176.74 24.8643 175.594 24.9377C174.596 25.0019 173.514 24.6319 172.641 25.119C171.991 25.4819 171.65 26.2312 171.051 26.673C170.465 27.1051 169.701 27.197 168.973 27.2364C168.245 27.2758 167.493 27.2834 166.83 27.5863C166.168 27.8896 165.62 28.5899 165.758 29.3052L190.903 29.0572Z" fill="white"/>
<path d="M190.903 29.0572C190.905 29.0597 190.864 29.0627 190.782 29.0665C190.689 29.0694 190.568 29.0732 190.415 29.0778C190.075 29.0849 189.595 29.095 188.984 29.108C187.717 29.1281 185.905 29.1571 183.659 29.1932C179.115 29.2494 172.822 29.327 165.759 29.4138L165.669 29.4151L165.651 29.3257C165.567 28.9041 165.719 28.4581 165.983 28.1221C166.245 27.7814 166.625 27.525 167.034 27.3874C167.981 27.0661 168.953 27.202 169.843 27.0359C170.287 26.9583 170.717 26.8072 171.055 26.5333C171.396 26.2605 171.653 25.8855 171.963 25.5482C172.262 25.2037 172.673 24.9146 173.131 24.8232C173.585 24.7259 174.036 24.759 174.466 24.7913C174.897 24.8249 175.319 24.8677 175.726 24.8223C176.135 24.7804 176.53 24.6638 176.907 24.5127C177.663 24.2107 178.347 23.7827 179.067 23.4551C179.783 23.1312 180.548 22.9 181.309 22.9566C181.686 22.9877 182.055 23.093 182.373 23.2763C182.692 23.458 182.961 23.6967 183.2 23.9451C183.677 24.4439 184.051 24.9835 184.487 25.4177C184.915 25.8582 185.429 26.1695 185.976 26.2459C186.52 26.3331 187.054 26.2866 187.553 26.3235C188.562 26.4049 189.364 26.8064 189.932 27.2154C190.5 27.6379 190.803 28.1326 190.886 28.4963C190.968 28.8609 190.893 29.0686 190.903 29.0572C190.886 29.048 190.934 28.8613 190.844 28.5076C190.749 28.1582 190.446 27.687 189.882 27.2842C189.32 26.8941 188.523 26.5119 187.546 26.4451C187.057 26.4145 186.524 26.4678 185.953 26.3835C185.378 26.3096 184.818 25.9769 184.379 25.5272C183.926 25.0833 183.546 24.5442 183.078 24.0621C182.844 23.8222 182.586 23.5969 182.288 23.429C181.99 23.2595 181.649 23.1652 181.295 23.137C180.582 23.0871 179.846 23.3099 179.147 23.6296C178.445 23.9522 177.759 24.3856 176.982 24.6994C176.595 24.8563 176.18 24.9805 175.748 25.0263C175.313 25.0758 174.878 25.0313 174.45 24.9994C174.022 24.9675 173.589 24.9402 173.177 25.03C172.762 25.116 172.41 25.3619 172.121 25.6925C171.823 26.0147 171.564 26.3998 171.19 26.7015C170.815 27.0061 170.345 27.1684 169.881 27.2498C168.947 27.4198 167.984 27.291 167.106 27.5939C166.727 27.7218 166.392 27.9505 166.155 28.2559C165.919 28.5571 165.796 28.9368 165.864 29.2846L165.757 29.1965C172.791 29.1445 179.06 29.0984 183.585 29.0648C185.841 29.0564 187.662 29.0497 188.933 29.0446C189.555 29.0455 190.042 29.0459 190.388 29.0463C190.546 29.048 190.671 29.0493 190.769 29.0505C190.855 29.0522 190.9 29.0543 190.903 29.0572Z" fill="#17282F"/>
<path d="M117.749 102.8L117.448 109.7C117.448 109.7 124.36 112.323 124.428 113.604L111.028 113.5L111.057 102.73L117.749 102.8Z" fill="#33535F"/>
<path d="M113.309 109.087C113.049 109.156 112.868 109.446 112.926 109.708C112.984 109.971 113.277 110.158 113.538 110.093C113.799 110.03 114.028 109.688 113.941 109.434C113.854 109.179 113.497 108.978 113.259 109.103" fill="#DADBD8"/>
<path d="M124.431 113.588H124.428C124.41 113.407 124.259 113.199 124.012 112.977C124.177 113.073 124.47 113.291 124.431 113.588Z" fill="white"/>
<path d="M124.428 113.604C124.428 113.599 124.428 113.593 124.428 113.588H124.431C124.43 113.593 124.43 113.599 124.428 113.604Z" fill="#F9ACB4"/>
<path d="M124.428 113.604L122.42 113.588L111.028 113.5L111.074 112.414L123.905 112.92C123.905 112.92 123.949 112.94 124.011 112.977C124.259 113.199 124.41 113.407 124.427 113.588C124.428 113.593 124.428 113.599 124.428 113.604Z" fill="#A6B7B9"/>
<path d="M117.665 109.633C117.663 109.699 117.335 109.726 117.012 109.934C116.683 110.133 116.515 110.415 116.455 110.389C116.395 110.376 116.495 109.985 116.891 109.74C117.285 109.492 117.68 109.573 117.665 109.633Z" fill="#17282F"/>
<path d="M119.066 110.225C119.08 110.289 118.796 110.398 118.572 110.673C118.339 110.941 118.281 111.24 118.216 111.237C118.154 111.247 118.112 110.863 118.397 110.526C118.68 110.187 119.065 110.163 119.066 110.225Z" fill="#17282F"/>
<path d="M119.852 111.914C119.793 111.927 119.704 111.6 119.874 111.243C120.043 110.884 120.353 110.745 120.38 110.8C120.417 110.854 120.216 111.045 120.08 111.34C119.938 111.632 119.917 111.908 119.852 111.914Z" fill="#17282F"/>
<path d="M117.56 108.053C117.532 108.112 117.233 108.02 116.862 108.042C116.492 108.057 116.203 108.179 116.169 108.122C116.132 108.075 116.415 107.835 116.851 107.814C117.287 107.791 117.593 108.002 117.56 108.053Z" fill="#17282F"/>
<path d="M138.571 102.8L138.269 109.7C138.269 109.7 145.182 112.323 145.25 113.604L131.85 113.5L131.879 102.73L138.571 102.8Z" fill="#33535F"/>
<path d="M134.129 109.087C133.869 109.156 133.688 109.446 133.746 109.708C133.804 109.971 134.098 110.158 134.358 110.093C134.62 110.03 134.848 109.688 134.761 109.434C134.674 109.179 134.317 108.978 134.079 109.103" fill="#DADBD8"/>
<path d="M145.252 113.588H145.248C145.231 113.407 145.08 113.2 144.833 112.977C144.998 113.075 145.29 113.292 145.252 113.588Z" fill="white"/>
<path d="M145.25 113.604C145.25 113.599 145.249 113.593 145.249 113.588H145.252C145.251 113.593 145.251 113.599 145.25 113.604Z" fill="#F9ACB4"/>
<path d="M145.25 113.604L143.241 113.588L131.85 113.5L131.895 112.414L144.726 112.92C144.726 112.92 144.771 112.94 144.834 112.977C145.081 113.2 145.231 113.407 145.249 113.588C145.25 113.593 145.25 113.599 145.25 113.604Z" fill="#A6B7B9"/>
<path d="M138.486 109.633C138.484 109.699 138.156 109.726 137.833 109.934C137.504 110.133 137.336 110.415 137.276 110.389C137.216 110.376 137.316 109.985 137.712 109.74C138.106 109.492 138.502 109.573 138.486 109.633Z" fill="#17282F"/>
<path d="M139.887 110.225C139.902 110.289 139.618 110.398 139.393 110.673C139.161 110.941 139.102 111.24 139.037 111.237C138.975 111.247 138.933 110.863 139.219 110.526C139.501 110.187 139.886 110.163 139.887 110.225Z" fill="#17282F"/>
<path d="M140.672 111.914C140.613 111.927 140.524 111.6 140.695 111.243C140.863 110.884 141.173 110.745 141.2 110.8C141.237 110.854 141.037 111.045 140.901 111.34C140.758 111.632 140.737 111.908 140.672 111.914Z" fill="#17282F"/>
<path d="M138.381 108.053C138.353 108.112 138.053 108.02 137.683 108.042C137.313 108.057 137.024 108.179 136.991 108.122C136.953 108.075 137.236 107.835 137.672 107.814C138.108 107.791 138.413 108.002 138.381 108.053Z" fill="#17282F"/>
<path d="M111.092 12.2008C110.621 10.9103 110.154 9.61054 109.911 8.25877C109.669 6.90658 109.659 5.4885 110.091 4.18456C110.156 3.98695 110.727 2.65617 110.935 2.66918C111.083 2.67841 110.747 3.91269 110.827 4.03856C111.585 5.23929 111.832 6.70729 111.769 8.12619C111.706 9.54509 111.458 10.8285 111.092 12.2008Z" fill="#17282F"/>
<path d="M111.534 19.5151L111.032 7.05C110.796 3.61351 112.335 0.529861 115.777 0.388893L116.151 0.395592C119.33 0.450972 121.932 2.93679 122.133 6.10854C122.322 9.10241 122.495 12.4277 122.447 14.0333C122.348 17.3372 119.034 17.7937 119.034 17.7937C119.026 17.7941 119.175 20.1884 119.2 21.1584C119.2 21.1584 118.85 21.4127 115.772 21.5222C112.692 21.6312 111.534 19.5151 111.534 19.5151Z" fill="#F9A78D"/>
<path d="M119.033 17.7937C119.033 17.7937 116.948 17.8797 114.752 16.4465C114.752 16.4465 115.759 18.8686 119.062 18.6282L119.033 17.7937Z" fill="#F57F62"/>
<path d="M120.998 9.10953C121.003 9.35874 120.795 9.5681 120.534 9.57775C120.275 9.58698 120.06 9.39314 120.056 9.14352C120.051 8.89431 120.258 8.68454 120.519 8.67489C120.779 8.66566 120.994 8.86032 120.998 9.10953Z" fill="#17282F"/>
<path d="M121.299 7.93024C121.239 7.99065 120.886 7.72005 120.378 7.7125C119.871 7.69739 119.494 7.95247 119.439 7.88912C119.413 7.86143 119.475 7.7515 119.639 7.63613C119.801 7.52117 120.076 7.41126 120.392 7.41798C120.708 7.42553 120.972 7.54676 121.123 7.66843C121.277 7.79094 121.328 7.90339 121.299 7.93024Z" fill="#17282F"/>
<path d="M116.656 9.1872C116.597 9.24761 116.243 8.97701 115.736 8.96945C115.228 8.95477 114.851 9.20942 114.797 9.14649C114.771 9.11838 114.831 9.00846 114.996 8.89308C115.158 8.77813 115.433 8.66822 115.749 8.67493C116.065 8.68249 116.329 8.80372 116.48 8.92539C116.634 9.0479 116.685 9.15993 116.656 9.1872Z" fill="#17282F"/>
<path d="M118.203 11.9318C118.201 11.9029 118.517 11.8538 119.03 11.7976C119.16 11.7862 119.283 11.7623 119.306 11.6742C119.338 11.5811 119.287 11.4405 119.227 11.2887C119.11 10.9727 118.988 10.6413 118.86 10.2944C118.352 8.87881 117.987 7.71625 118.044 7.69611C118.101 7.67639 118.559 8.80747 119.067 10.2226C119.19 10.5712 119.306 10.9039 119.418 11.2224C119.464 11.3705 119.546 11.5391 119.476 11.7325C119.439 11.8286 119.343 11.8974 119.26 11.9184C119.176 11.9423 119.103 11.9423 119.038 11.9452C118.523 11.9637 118.204 11.9608 118.203 11.9318Z" fill="#17282F"/>
<path d="M116.68 7.83457C116.618 7.96798 116.118 7.8568 115.518 7.87484C114.918 7.88113 114.424 8.01121 114.356 7.88115C114.326 7.81864 114.421 7.69695 114.627 7.58116C114.831 7.46579 115.148 7.36678 115.508 7.35965C115.868 7.35252 116.189 7.43852 116.397 7.54593C116.607 7.65333 116.707 7.77122 116.68 7.83457Z" fill="#17282F"/>
<path d="M121.499 6.02968C121.422 6.16478 120.999 6.13415 120.519 6.23233C120.037 6.31624 119.653 6.50001 119.534 6.40225C119.481 6.35359 119.52 6.22729 119.674 6.08213C119.825 5.9378 120.098 5.78761 120.428 5.72467C120.758 5.66258 121.065 5.70286 121.257 5.78216C121.451 5.86103 121.532 5.96549 121.499 6.02968Z" fill="#17282F"/>
<path d="M111.258 9.47792C111.202 9.45233 108.999 8.76638 109.032 11.0273C109.064 13.2878 111.328 12.7886 111.331 12.7235C111.333 12.6589 111.258 9.47792 111.258 9.47792Z" fill="#F9A78D"/>
<path d="M110.59 11.8861C110.58 11.8794 110.551 11.9146 110.485 11.9461C110.42 11.9767 110.309 11.9986 110.191 11.9566C109.951 11.8723 109.744 11.4959 109.727 11.0886C109.718 10.883 109.759 10.6867 109.829 10.5235C109.896 10.3569 110.001 10.2398 110.121 10.2163C110.24 10.1874 110.326 10.2579 110.355 10.3212C110.386 10.3842 110.373 10.4295 110.385 10.4332C110.391 10.4387 110.433 10.3942 110.413 10.3015C110.403 10.2566 110.376 10.2038 110.322 10.161C110.267 10.1177 110.187 10.0964 110.103 10.1064C109.929 10.1211 109.775 10.2835 109.697 10.463C109.61 10.6434 109.56 10.8641 109.57 11.0953C109.591 11.5505 109.83 11.973 110.158 12.0628C110.318 12.1022 110.45 12.0523 110.518 11.9977C110.587 11.9411 110.598 11.8903 110.59 11.8861Z" fill="#F57F62"/>
<path d="M120.586 2.45227C120.947 2.24207 119.821 1.08331 118.913 0.696489C117.54 0.111645 115.456 -0.219813 114.212 0.164909C112.713 0.627666 111.477 1.40719 110.752 2.79798C110.027 4.18793 109.779 5.79393 109.86 7.36009C109.885 7.83795 109.946 8.33512 110.211 8.73369C110.538 9.22582 111.151 9.52662 111.141 10.2164C111.137 10.4685 111.215 10.7211 111.392 10.9011C111.816 11.3315 112.312 10.9061 112.535 10.4865C113.011 9.58955 113.042 8.53148 113.062 7.51576C113.076 6.79457 113.088 6.05741 112.869 5.36978C112.75 4.99554 112.563 4.64356 112.465 4.26346C112.367 3.88335 112.368 3.44912 112.599 3.13153C112.636 3.07992 112.699 3.01446 112.778 2.94146C113.405 2.36543 114.298 2.17663 115.106 2.44178C116.39 2.86216 118.579 3.48392 119.137 3.03879C119.939 2.39856 120.126 1.98868 120.126 1.98868L120.586 2.45227Z" fill="#17282F"/>
<path d="M118.532 13.3054C118.541 13.3419 118.416 13.4153 118.189 13.4439C117.965 13.4732 117.639 13.4392 117.322 13.289C117.005 13.1376 116.773 12.9064 116.655 12.7134C116.533 12.5196 116.512 12.377 116.546 12.361C116.621 12.3216 116.895 12.7667 117.45 13.021C117.996 13.2903 118.515 13.2219 118.532 13.3054Z" fill="#17282F"/>
<path d="M150.003 7.80477C150.003 7.80477 149.916 7.27657 149.655 7.27657C149.394 7.27657 149.002 7.41921 148.828 7.80477C148.654 8.19034 150.003 7.80477 150.003 7.80477Z" fill="#F9A78D"/>
<path d="M143.348 16.2146L143.609 12.0476L144.436 7.75738C144.436 7.75738 145.089 7.05926 145.437 7.22162C145.785 7.38357 145.655 7.95707 145.655 7.95707C145.655 7.95707 146.569 6.96989 146.917 7.19729C147.265 7.42426 147.135 7.95707 147.135 7.95707C147.135 7.95707 147.961 6.86123 148.353 7.1633C148.745 7.46495 148.353 7.95707 148.353 7.95707C148.353 7.95707 148.872 12.7642 148.61 14.4814C148.349 16.1986 146.887 16.8363 146.887 16.8363L146.192 19.5399L142.782 17.6842L143.348 16.2146Z" fill="#F9A78D"/>
<path d="M145.436 10.763L126.915 10.5574V9.07558L145.436 8.55619V10.763Z" fill="black"/>
<path d="M164.993 12.2314L138.823 11.1259C138.496 10.2369 138.483 9.27442 138.803 8.23395L164.809 7.08777C166.006 8.3313 166.02 10.9514 164.993 12.2314Z" fill="black"/>
<path d="M164.738 7.32698C164.738 7.32698 163.949 8.06537 163.979 9.67223C164.01 11.2795 164.802 11.955 164.802 11.955C164.802 11.955 165.66 11.0479 165.536 9.43728C165.414 7.86273 164.738 7.32698 164.738 7.32698Z" fill="#DADBD8"/>
<path d="M163.691 12.2314C163.672 12.2478 163.442 12.0321 163.183 11.5962C162.925 11.1662 162.652 10.4865 162.667 9.69696C162.679 8.92374 162.875 8.22814 163.126 7.7851C163.371 7.33703 163.619 7.13188 163.635 7.14866C163.663 7.17215 163.463 7.40919 163.264 7.85349C163.06 8.29443 162.897 8.95604 162.885 9.70157C162.871 10.4387 163.104 11.0882 163.319 11.5232C163.534 11.9625 163.719 12.21 163.691 12.2314Z" fill="#17282F"/>
<path d="M164.857 7.14651C164.885 7.16874 164.694 7.41377 164.485 7.85932C164.276 8.30068 164.069 8.96063 164.086 9.70532C164.099 10.4513 164.331 11.1028 164.555 11.5362C164.762 11.991 165.029 12.1445 165.02 12.1676C165.015 12.1798 164.931 12.1655 164.812 12.0795C164.691 11.9943 164.551 11.8299 164.42 11.6121C164.151 11.1821 163.881 10.4995 163.868 9.70993C163.849 8.92034 164.095 8.22768 164.348 7.78842C164.601 7.34329 164.84 7.13014 164.857 7.14651Z" fill="#17282F"/>
<path d="M165.198 8.48952C165.164 8.40603 165.124 8.32254 165.059 8.25961C164.994 8.1971 164.901 8.15723 164.814 8.17611C164.726 8.19457 164.656 8.26966 164.632 8.35567C164.606 8.44167 164.621 8.53566 164.66 8.61663C164.754 8.80627 164.91 8.98206 164.905 9.17085C164.9 9.35965 164.851 9.54761 164.867 9.73599C164.873 9.80479 164.888 9.87527 164.928 9.93191C164.968 9.98855 165.037 10.0284 165.105 10.0192C165.217 10.0037 165.273 9.87694 165.299 9.76702C165.398 9.34412 165.362 8.89144 165.198 8.48952Z" fill="white"/>
<path d="M138.818 11.2195C138.77 11.2467 138.442 10.5948 138.461 9.71665C138.472 8.83812 138.822 8.19747 138.869 8.22684C138.93 8.25033 138.688 8.89308 138.679 9.72042C138.66 10.5473 138.88 11.1976 138.818 11.2195Z" fill="#17282F"/>
<path d="M126.876 10.9086C126.72 10.9086 126.594 10.7823 126.594 10.6258V9.0588C126.594 8.90273 126.72 8.77602 126.876 8.77602C127.033 8.77602 127.159 8.90273 127.159 9.0588V10.6258C127.159 10.7823 127.033 10.9086 126.876 10.9086Z" fill="black"/>
<path d="M126.877 10.9086C126.875 10.8905 126.952 10.8893 127.029 10.8121C127.065 10.7743 127.098 10.7156 127.098 10.6455C127.093 10.5482 127.087 10.45 127.082 10.351C127.075 10.0972 127.067 9.83833 127.059 9.57024C127.057 9.4192 127.055 9.26607 127.053 9.10958C127.067 8.97113 126.986 8.89142 126.877 8.88555C126.768 8.89142 126.686 8.97071 126.701 9.10958C126.699 9.26607 126.697 9.4192 126.695 9.57024C126.687 9.83833 126.679 10.0972 126.671 10.351C126.667 10.4504 126.661 10.5482 126.656 10.6455C126.656 10.7156 126.689 10.7743 126.725 10.8125C126.803 10.8893 126.879 10.8905 126.877 10.9086C126.881 10.9182 126.798 10.956 126.672 10.8784C126.613 10.8389 126.55 10.7638 126.534 10.656C126.529 10.5549 126.523 10.4538 126.517 10.351C126.509 10.0972 126.502 9.83833 126.493 9.57024C126.492 9.4192 126.49 9.26607 126.487 9.10958C126.479 9.0391 126.498 8.89225 126.573 8.8117C126.645 8.72276 126.759 8.66613 126.877 8.66697C126.995 8.66655 127.109 8.72318 127.181 8.8117C127.256 8.89225 127.275 9.0391 127.267 9.10958C127.265 9.26607 127.262 9.4192 127.261 9.57024C127.252 9.83833 127.244 10.0972 127.237 10.351C127.231 10.4538 127.226 10.5549 127.219 10.656C127.204 10.7638 127.141 10.8389 127.082 10.8784C126.957 10.956 126.873 10.9182 126.877 10.9086Z" fill="#17282F"/>
<path d="M130.093 14.0115C130.093 14.0115 129.699 9.14859 129.815 8.72233C129.95 8.23398 131.275 6.7941 131.744 6.74207C132.213 6.69005 132.265 7.21113 132.265 7.21113C132.265 7.21113 132.925 6.75802 133.568 6.7383C134.253 6.71733 134.341 7.31979 134.341 7.31979C134.341 7.31979 134.723 7.0387 135.378 7.1566C135.654 7.2061 135.971 7.69654 135.971 7.69654C135.971 7.69654 136.658 7.39993 136.985 7.70661C137.397 8.09218 137.392 8.78149 137.392 8.78149C136.754 8.7345 136.176 9.16873 136.176 9.16873C136.176 9.16873 136.018 11.2757 135.757 12.3178C135.496 13.3604 134.466 14.2209 134.119 14.7608L133.846 18.3568L129.419 16.0128L130.093 14.0115Z" fill="#F9A78D"/>
<path d="M131.089 9.08816C131.032 9.09655 131.014 8.4496 131.455 7.82741C131.889 7.19978 132.503 6.99589 132.515 7.05169C132.545 7.10917 132.027 7.38061 131.634 7.95287C131.231 8.51716 131.153 9.09697 131.089 9.08816Z" fill="#F57F62"/>
<path d="M133.254 9.00427C133.203 9.02399 133.076 8.44502 133.437 7.85052C133.614 7.5602 133.877 7.36887 134.087 7.29797C134.297 7.22371 134.436 7.24092 134.439 7.26609C134.455 7.32693 133.93 7.43434 133.623 7.9659C133.306 8.47816 133.321 9.00553 133.254 9.00427Z" fill="#F57F62"/>
<path d="M134.839 8.8423C134.782 8.83223 134.878 8.3699 135.291 7.99651C135.702 7.61976 136.171 7.56899 136.176 7.62605C136.193 7.68814 135.8 7.82323 135.439 8.15845C135.071 8.48653 134.899 8.86411 134.839 8.8423Z" fill="#F57F62"/>
<path d="M146.159 15.2089C146.899 14.3388 146.334 12.0053 146.334 12.0053C146.334 12.0053 147.38 11.6575 147.641 10.6128C147.902 9.56817 147.38 9.39447 147.38 9.39447C147.205 9.48132 145.595 10.5256 144.768 10.961C143.941 11.3961 143.68 15.8278 143.68 15.8278" fill="#F9A78D"/>
<path d="M143.68 15.8278C143.665 15.8269 143.663 15.6201 143.681 15.2467C143.7 14.8733 143.738 14.3338 143.82 13.6701C143.916 13.0084 143.999 12.2113 144.339 11.3646C144.388 11.2606 144.438 11.1545 144.516 11.0546C144.583 10.9543 144.723 10.8591 144.814 10.8176C145.015 10.7072 145.217 10.5893 145.423 10.4664C145.831 10.2155 146.253 9.95623 146.686 9.69024C146.904 9.55683 147.103 9.42636 147.331 9.29714L147.373 9.27322L147.414 9.29126C147.614 9.37937 147.705 9.53921 147.763 9.69948C147.817 9.86142 147.825 10.0246 147.816 10.1794C147.793 10.4874 147.725 10.7823 147.586 11.0466C147.307 11.5736 146.84 11.9134 146.364 12.0917L146.423 11.9839C146.63 12.9694 146.652 13.8123 146.543 14.3896C146.493 14.6791 146.39 14.8913 146.314 15.0273C146.223 15.1556 146.165 15.2148 146.159 15.2089C146.151 15.2022 146.194 15.1313 146.266 15.0008C146.324 14.8611 146.406 14.6551 146.439 14.3724C146.515 13.8127 146.467 12.9828 146.247 12.0271L146.229 11.9495L146.306 11.9193C146.729 11.7523 147.164 11.4234 147.403 10.9531C147.523 10.7219 147.585 10.4446 147.603 10.1685C147.628 9.90381 147.542 9.5883 147.345 9.49768L147.428 9.4918C147.232 9.60424 147.013 9.74522 146.802 9.8757C146.369 10.145 145.946 10.4064 145.531 10.6506C145.324 10.7727 145.119 10.8906 144.914 11.0009C144.797 11.0584 144.745 11.0961 144.678 11.1805C144.616 11.2577 144.568 11.3546 144.522 11.4486C144.192 12.2386 144.085 13.0416 143.974 13.6914C143.872 14.3484 143.811 14.8838 143.765 15.2538C143.721 15.6239 143.695 15.8286 143.68 15.8278Z" fill="#F57F62"/>
<path d="M111.547 54.0931C111.547 54.0931 112.061 75.2092 111.547 77.7839C111.031 80.3591 110.173 91.0029 110.173 98.9C110.173 106.797 110.504 108.597 110.504 108.597H118.171C118.171 108.597 118.701 93.5818 121.068 84.8973C123.266 76.8303 125.797 64.5649 125.797 59.243C125.797 53.9211 125.797 52.0327 125.797 52.0327H112.233L111.547 54.0931Z" fill="#17282F"/>
<path d="M130.089 52.0327C130.089 52.0327 138.132 74.3504 138.647 80.8743C139.162 87.3978 139.188 108.597 139.188 108.597H131.249L130.189 82.9917L124.079 66.4021V52.0327H130.089Z" fill="#17282F"/>
<path d="M125.796 64.0497C125.81 64.0535 125.775 64.27 125.698 64.6576C125.615 65.0864 125.508 65.639 125.379 66.3023C125.106 67.7312 124.741 69.6314 124.339 71.7316C123.929 73.8515 123.543 75.7689 123.236 77.1513C123.082 77.8423 122.948 78.3994 122.849 78.7829C122.746 79.1659 122.682 79.3753 122.667 79.3719C122.653 79.3681 122.688 79.1521 122.766 78.764C122.849 78.3356 122.956 77.7831 123.084 77.1198C123.358 75.6904 123.722 73.7907 124.125 71.6896C124.535 69.5701 124.92 67.6532 125.228 66.2708C125.381 65.5798 125.515 65.0222 125.615 64.6388C125.718 64.2561 125.781 64.0464 125.796 64.0497Z" fill="#33535F"/>
<path d="M133.134 61.8878H134.835C134.835 61.8878 135.225 56.0004 134.242 52.0327C133.258 48.0655 128.243 30.7862 128.243 30.7862L122.687 21.6049L119.709 20.2678L129.495 53.0711L133.134 61.8878Z" fill="#064677"/>
<path d="M134.237 61.8878H133.135L129.426 52.1187L130.089 52.0327L130.74 51.215C131.205 50.6327 130.897 48.3047 130.638 47.6065L125.859 34.0229C126.374 33.7398 126.947 33.3869 126.947 33.3869C126.947 33.3869 132.091 48.6281 132.943 52.6243C133.795 56.62 134.237 61.8878 134.237 61.8878Z" fill="#20353D"/>
<path d="M110.371 19.9124L110.833 16.992L119.038 20.6747V18.8854L122.662 24.9327L130.638 47.6065C130.897 48.3047 131.206 50.6327 130.741 51.215L130.089 52.0327L121.446 53.1504L113.247 23.5578L110.371 19.9124Z" fill="white"/>
<path d="M111.728 64.0497L111.709 62.6741C111.715 63.1263 111.722 63.5866 111.728 64.0497Z" fill="#A7A9A8"/>
<path d="M121.67 64.713C117.635 64.713 111.73 64.0501 111.727 64.0497C111.722 63.5865 111.715 63.1263 111.709 62.674C114.471 62.9585 118.834 63.3482 121.993 63.3482C122.777 63.3482 123.486 63.3243 124.079 63.2689V64.5892C123.441 64.6774 122.606 64.713 121.67 64.713Z" fill="#0F191D"/>
<path d="M124.079 64.5893V63.269C124.948 63.1872 125.566 63.0378 125.796 62.7966C126.812 61.7339 127.656 56.5856 127.858 52.3214L128.33 52.2606C128.229 54.696 127.311 61.1969 127.311 61.1969C127.311 61.1969 127.204 63.4918 124.954 64.3871C124.737 64.4731 124.44 64.5394 124.079 64.5893Z" fill="#0F191D"/>
<path d="M127.858 52.3214C127.912 51.2029 127.92 50.1457 127.876 49.2382L127.977 48.7649C128.134 49.6728 128.294 50.7708 128.335 51.6858C128.341 51.8347 128.339 52.0294 128.33 52.2606L127.858 52.3214Z" fill="#8F9192"/>
<path d="M119.996 23.2973C119.996 23.2973 123.748 36.0665 123.716 36.1618C123.684 36.257 127.876 49.2402 127.876 49.2402L128.701 45.3368L122.87 25.872L120.525 22.999L119.996 23.2973Z" fill="#FF5C33"/>
<path d="M107.933 21.104C104.084 23.4475 103.884 27.0879 105.597 31.2557C105.881 31.9471 106.426 33.1373 106.806 33.9428C108.462 37.462 111.898 43.2055 111.898 44.5493C111.897 47.7098 109.066 62.3825 109.066 62.3825C109.066 62.3825 124.412 64.2457 125.796 62.7966C127.181 61.3475 128.247 52.308 127.802 48.2627C127.311 43.7996 125.011 36.2503 124.079 33.4562C123.519 31.7751 121.667 27.5876 119.459 24.8433C117.807 22.7914 115.84 21.0142 113.637 19.5705L110.371 17.4304L109.697 19.6964C109.697 19.6964 108.798 20.5774 107.933 21.104Z" fill="#064677"/>
<path d="M122.87 22.1221C123.186 22.1049 137.213 26.7057 136.403 26.3667L136.777 25.9761L141.832 18.3567L146.436 21.0867C146.436 21.0867 141.868 29.8153 141.113 31.1826C140.437 32.4077 139.132 33.3898 137.392 33.3869C136.363 33.3852 127.578 31.9168 127.578 31.9168L122.87 22.1221Z" fill="#064677"/>
<path d="M128.513 16.8795L129.599 14.958L134.484 17.7366L133.722 19.8524L128.513 16.8795Z" fill="white"/>
<path d="M125.796 39.0055C125.796 39.0055 125.786 39.0026 125.765 38.9967C125.674 38.6699 125.582 38.3481 125.491 38.0334L125.796 39.0055Z" fill="#CC4341"/>
<path d="M125.766 38.9966C125.421 38.8989 122.277 38.0074 119.454 37.3541C116.462 36.6615 107.023 31.4041 107.023 31.4041L116.257 29.7373L124.451 34.7185L125.492 38.0334C125.582 38.348 125.674 38.6698 125.766 38.9966Z" fill="#20353D"/>
<path d="M107.024 31.4041C106.907 31.3156 121.171 36.3879 124.077 35.4733C126.982 34.5591 127.926 31.6773 128.965 29.9051C130.867 26.6603 134.237 20.2115 134.237 20.2115L128.187 16.7587L122.176 26.8143C122.176 26.8143 111.558 22.4368 110.579 22.1511C109.601 21.8654 106.577 21.4735 105.098 25.0073C103.459 28.9229 107.024 31.4041 107.024 31.4041Z" fill="#064677"/>
<path d="M107.023 31.4041C107.029 31.4066 106.982 31.3853 106.917 31.3341C106.848 31.2846 106.748 31.2078 106.623 31.0983C106.374 30.8801 106.015 30.5386 105.638 30.0196C105.267 29.5032 104.872 28.7946 104.7 27.8804C104.641 27.6551 104.644 27.4126 104.621 27.1651C104.607 26.9167 104.644 26.6603 104.655 26.3956C104.713 26.1376 104.745 25.8636 104.83 25.5964C104.931 25.335 104.993 25.0485 105.133 24.7867C105.362 24.2412 105.708 23.7097 106.149 23.2272C106.595 22.7481 107.181 22.3508 107.86 22.1247C108.536 21.8931 109.297 21.8415 110.055 21.9552C110.434 22.0047 110.815 22.1326 111.175 22.2753C111.539 22.415 111.909 22.5576 112.285 22.7024C115.281 23.8821 118.616 25.2448 122.215 26.7195L122.088 26.7619C123.946 23.6484 125.977 20.2476 128.093 16.7029L128.148 16.611L128.24 16.6643C128.931 17.0582 129.671 17.4799 130.416 17.9049C131.743 18.663 133.053 19.411 134.29 20.1171L134.381 20.1691L134.333 20.2619C133.144 22.5261 131.974 24.7183 130.823 26.8152C130.247 27.8632 129.676 28.8873 129.097 29.8783C128.525 30.8608 128.073 31.8954 127.465 32.8146C126.875 33.7402 126.116 34.549 125.205 35.0735C124.742 35.3202 124.281 35.5455 123.763 35.6331C123.253 35.7011 122.756 35.6684 122.273 35.6243C120.344 35.4104 118.605 34.9568 117.026 34.5499C113.873 33.7041 111.382 32.8826 109.667 32.3158C107.953 31.744 107.023 31.4041 107.023 31.4041C107.022 31.3957 107.085 31.4121 107.2 31.4465C107.324 31.4851 107.495 31.538 107.715 31.6064C108.174 31.754 108.838 31.9667 109.691 32.2399C111.413 32.7832 113.911 33.5828 117.063 34.4081C118.64 34.8054 120.382 35.2493 122.29 35.4523C122.766 35.4943 123.257 35.5228 123.737 35.4565C124.205 35.3781 124.674 35.1519 125.113 34.9145C125.991 34.4043 126.725 33.6206 127.303 32.7089C127.898 31.804 128.344 30.7761 128.922 29.7763C129.497 28.787 130.066 27.7625 130.64 26.7149C131.786 24.6176 132.954 22.4246 134.141 20.1612L134.183 20.3055C132.945 19.5998 131.635 18.8522 130.307 18.0949C129.562 17.6699 128.823 17.2474 128.133 16.8535L128.28 16.8149C126.16 20.3567 124.126 23.7554 122.264 26.8668L122.218 26.9423L122.137 26.9087C118.542 25.4269 115.21 24.0541 112.222 22.863C111.848 22.717 111.479 22.5736 111.116 22.4322C110.752 22.287 110.4 22.1662 110.029 22.1154C109.297 22.0017 108.56 22.0479 107.907 22.2681C107.251 22.4825 106.685 22.861 106.249 23.3229C105.819 23.7881 105.477 24.3042 105.247 24.8387C105.107 25.095 105.046 25.3744 104.945 25.6304C104.858 25.8913 104.826 26.1582 104.766 26.4107C104.753 26.6687 104.715 26.9196 104.726 27.1621C104.746 27.4042 104.741 27.6417 104.796 27.8632C104.955 28.7602 105.334 29.4633 105.693 29.9806C106.057 30.5004 106.406 30.8474 106.646 31.0723C106.766 31.186 106.862 31.2665 106.927 31.3206C106.971 31.3588 106.998 31.3823 107.023 31.4041Z" fill="#17282F"/>
<path d="M113.883 52.8961L115.205 50.2207L124.451 50.3831L123.423 53.1504L113.883 52.8961Z" fill="#064677"/>
<path d="M113.883 52.8961C113.888 52.8928 113.957 52.8911 114.084 52.8911C114.231 52.8919 114.413 52.8928 114.634 52.8945C115.133 52.9003 115.812 52.9087 116.647 52.9192C118.354 52.9419 120.716 52.9767 123.426 53.0442L123.323 53.1135C123.635 52.271 123.964 51.3828 124.302 50.4695C124.318 50.4271 124.333 50.3856 124.348 50.3449L124.449 50.4921C120.727 50.4263 117.402 50.3528 115.203 50.2912L115.268 50.2517C114.851 51.056 114.514 51.7042 114.268 52.1783C114.155 52.3918 114.064 52.5655 113.99 52.7052C113.925 52.8269 113.888 52.8928 113.883 52.8961C113.877 52.8995 113.902 52.8412 113.955 52.7237C114.018 52.5852 114.098 52.4124 114.195 52.2005C114.428 51.7059 114.746 51.0287 115.141 50.1892L115.159 50.1494L115.206 50.1498C117.405 50.1653 120.731 50.2085 124.452 50.2735L124.607 50.2765L124.553 50.4212C124.538 50.4615 124.523 50.5035 124.507 50.5454C124.167 51.4579 123.836 52.3457 123.523 53.1877L123.496 53.259L123.42 53.2569C120.656 53.1785 118.249 53.0858 116.553 53.0182C115.731 52.9842 115.065 52.9565 114.573 52.9364C114.364 52.9263 114.191 52.9179 114.052 52.9112C113.935 52.9041 113.877 52.8995 113.883 52.8961Z" fill="#17282F"/>
<path d="M120.056 25.6346C120.026 25.687 117.682 24.4003 114.822 22.7607C111.962 21.1203 109.667 19.7483 109.698 19.6963C109.727 19.6439 112.07 20.9306 114.931 22.5706C117.791 24.2102 120.086 25.5821 120.056 25.6346Z" fill="#17282F"/>
<path d="M123.253 45.8235C123.249 45.8835 121.021 45.7899 118.278 45.6145C115.534 45.4387 113.312 45.2474 113.316 45.187C113.32 45.1266 115.547 45.2206 118.292 45.3964C121.035 45.5717 123.257 45.763 123.253 45.8235Z" fill="#17282F"/>
<path d="M142.121 18.5602L143.05 16.992L146.744 19.1489L146.025 20.8501L142.121 18.5602Z" fill="white"/>
<path d="M137.365 29.5922C137.327 29.632 136.774 29.0564 136.464 28.1431C136.145 27.2322 136.228 26.4385 136.282 26.4464C136.348 26.4452 136.366 27.2045 136.67 28.0722C136.964 28.9427 137.418 29.5523 137.365 29.5922Z" fill="#17282F"/>
<path d="M128.33 31.0879C128.388 31.0715 128.778 32.2445 129.2 33.7079C129.623 35.1717 129.918 36.3716 129.86 36.3884C129.802 36.4047 129.413 35.2321 128.99 33.7683C128.568 32.305 128.273 31.1051 128.33 31.0879Z" fill="#17282F"/>
<path d="M122.668 29.9945C122.63 30.0348 122.107 29.4159 121.952 28.4606C121.786 27.5066 122.078 26.751 122.126 26.7766C122.192 26.7908 122.009 27.528 122.167 28.4246C122.312 29.3228 122.725 29.9597 122.668 29.9945Z" fill="#17282F"/>
<path d="M124.035 53.992L114.46 53.7218L114.618 52.9381C115.104 52.9582 115.756 52.9851 116.553 53.0182C118.248 53.0858 120.656 53.1785 123.42 53.257L123.496 53.2591L123.522 53.1877C123.802 52.4355 124.096 51.6463 124.398 50.8358L124.035 53.992Z" fill="#20353D"/>
<path d="M123.496 53.259L123.42 53.2569C120.656 53.1785 118.248 53.0858 116.553 53.0182C115.756 52.9851 115.104 52.9582 114.618 52.9381L114.623 52.9116L123.423 53.1504L124.45 50.3831L124.398 50.8357C124.096 51.6463 123.802 52.4355 123.522 53.1877L123.496 53.259Z" fill="#0F191D"/>
<path d="M118.835 22.4418L118.936 22.5505L119.996 23.2973L120.525 22.999L120.179 21.8285L119.062 20.9919L118.835 22.4418Z" fill="#FF5C33"/>
<path d="M120.264 20.9919C120.292 20.9868 120.38 21.3678 120.5 22.0025L120.534 22.1813L120.382 22.0739C120.012 21.8142 119.534 21.4697 119 21.0758L119.166 21.0078C119.115 21.3372 119.062 21.6862 119.007 22.0487C118.973 22.2656 118.939 22.4775 118.906 22.6822L118.883 22.8265L118.753 22.7623C117.949 22.368 117.245 22.0122 116.745 21.7491C116.246 21.4861 115.951 21.3153 115.962 21.2914C115.974 21.2667 116.291 21.3929 116.807 21.6216C117.323 21.8502 118.038 22.1821 118.846 22.5685L118.693 22.6486C118.725 22.4443 118.758 22.2316 118.791 22.0151C118.849 21.6531 118.906 21.304 118.959 20.9751L118.987 20.8022L119.125 20.908C119.654 21.3107 120.118 21.6724 120.472 21.9543L120.353 22.0256C120.271 21.385 120.235 20.9961 120.264 20.9919Z" fill="#17282F"/>
</g>
</g>
<defs>
<clipPath id="clip0_998_12763">
<rect width="238" height="186" fill="white"/>
</clipPath>
<clipPath id="clip1_998_12763">
<rect width="203" height="195" fill="white" transform="translate(17)"/>
</clipPath>
</defs>
</svg>
