<svg width="203" height="186" viewBox="0 0 203 186" fill="none" xmlns="http://www.w3.org/2000/svg">
<g clip-path="url(#clip0_998_12764)">
<path d="M184.981 60.2076C185.273 58.0893 182.283 56.3469 180.036 56.1657C178.965 56.0793 177.852 56.2433 176.837 55.8892C174.638 55.1231 173.759 52.2824 171.614 51.3774C170.01 50.7007 168.163 51.3032 166.608 52.0856C165.052 52.8685 163.515 53.8532 161.778 53.9644C160.267 54.0613 158.625 53.5008 157.303 54.2391C156.318 54.7892 155.802 55.9245 154.894 56.5941C154.005 57.2494 152.846 57.3882 151.744 57.4482C150.641 57.5082 149.5 57.5192 148.496 57.9786C147.492 58.4384 146.662 59.4998 146.87 60.5835L184.981 60.2076Z" fill="#E7E8E5"/>
<path d="M92.7751 40.7621C93.0667 38.6438 90.0767 36.9015 87.8302 36.7202C86.7586 36.6338 85.6459 36.7974 84.6309 36.4441C82.4318 35.6776 81.5536 32.8369 79.4079 31.9319C77.8034 31.2556 75.9568 31.8573 74.4014 32.6401C72.8464 33.423 71.3095 34.4077 69.5719 34.5189C68.0606 34.6158 66.4192 34.0553 65.0971 34.7932C64.1119 35.3437 63.5958 36.479 62.6874 37.1486C61.7987 37.8039 60.6398 37.9428 59.5375 38.0027C58.4353 38.0627 57.294 38.0737 56.2899 38.5331C55.2863 38.9929 54.4559 40.0539 54.664 41.138L92.7751 40.7621Z" fill="#E7E8E5"/>
<path d="M51.7027 107.104C51.9943 104.985 49.0043 103.243 46.7579 103.061C45.6862 102.975 44.5735 103.139 43.5585 102.785C41.3596 102.019 40.4809 99.1782 38.3353 98.2732C36.7312 97.5969 34.8842 98.199 33.3289 98.9818C31.7739 99.7643 30.2369 100.749 28.4994 100.861C26.9881 100.957 25.347 100.397 24.0248 101.135C23.0392 101.685 22.5233 102.82 21.6149 103.49C20.7264 104.145 19.5675 104.284 18.4653 104.344C17.3629 104.404 16.2214 104.415 15.2177 104.875C14.2138 105.334 13.3835 106.396 13.5918 107.48L51.7027 107.104Z" fill="#E7E8E5"/>
<path d="M128.053 78.4699C128.231 77.1756 126.404 76.1104 125.031 76.0001C124.377 75.9472 123.697 76.0475 123.076 75.831C121.732 75.3628 121.196 73.6271 119.885 73.0742C118.904 72.6605 117.776 73.0284 116.825 73.5067C115.875 73.985 114.936 74.587 113.874 74.655C112.951 74.7137 111.948 74.3714 111.14 74.8228C110.538 75.1585 110.223 75.8524 109.667 76.2619C109.124 76.6621 108.416 76.7468 107.743 76.7833C107.069 76.8203 106.372 76.827 105.758 77.1077C105.145 77.3887 104.638 78.0369 104.765 78.6994L128.053 78.4699Z" fill="#E7E8E5"/>
<path d="M130.945 163.323L162.667 194.791L168.861 194.774L171.064 163.323H130.945Z" fill="#0079C2"/>
<path d="M156.739 166.303L124.775 194.791L147.102 194.757L165.919 178.931L156.739 166.303Z" fill="#0079C2"/>
<path d="M153.733 84.8965L193.134 121.414L193.829 83.5355L153.733 84.8965Z" fill="#F69F32"/>
<path d="M180.28 86.4723L73.7139 194.774H94.7133L189.882 98.7826L180.28 86.4723Z" fill="#F69F32"/>
<path d="M41.999 126.577L80.1377 164.41L82.1173 126.577H41.999Z" fill="#3394CE"/>
<path d="M68.4769 129.052L0 194.774H22.0645L77.6562 141.681L68.4769 129.052Z" fill="#3394CE"/>
<path d="M75.25 113.588L129.698 167.6V113.588H75.25Z" fill="#0079C2"/>
<path d="M111.176 114.806C109.944 115.792 31.5635 194.774 31.5635 194.774H65.3308L126.951 132.797L111.176 114.806Z" fill="#0079C2"/>
<path d="M41.8946 21.7899C41.8946 24.7636 39.4838 27.1739 36.5098 27.1739C33.5358 27.1739 31.125 24.7636 31.125 21.7899C31.125 18.8162 33.5358 16.4054 36.5098 16.4054C39.4838 16.4054 41.8946 18.8162 41.8946 21.7899Z" fill="#F69F32"/>
<path d="M35.743 33.8291C35.7119 33.8291 35.6865 32.8348 35.6865 31.6085C35.6865 30.3817 35.7119 29.3874 35.743 29.3874C35.7743 29.3874 35.7998 30.3817 35.7998 31.6085C35.7998 32.8348 35.7743 33.8291 35.743 33.8291Z" fill="#F69F32"/>
<path d="M32.6399 28.1355C32.6671 28.151 32.1606 29.0786 31.5088 30.2076C30.857 31.3362 30.3064 32.2382 30.2794 32.2227C30.2523 32.2072 30.7586 31.2796 31.4108 30.1506C32.0625 29.0224 32.6127 28.12 32.6399 28.1355Z" fill="#F69F32"/>
<path d="M29.4553 26.1527C29.4748 26.177 28.9118 26.657 28.1979 27.2246C27.4836 27.7923 26.8891 28.2324 26.8696 28.2076C26.8501 28.1833 27.4131 27.7033 28.1274 27.1357C28.8412 26.5685 29.436 26.1284 29.4553 26.1527Z" fill="#F69F32"/>
<path d="M41.1149 31.6412C41.0986 31.6441 41.0503 31.4339 40.9729 31.095C40.8954 30.756 40.7856 30.2886 40.6483 29.7768C40.5102 29.2649 40.3709 28.8059 40.2678 28.4736C40.1649 28.1418 40.1011 27.9358 40.1166 27.9299C40.1305 27.9249 40.2208 28.1208 40.3437 28.4476C40.4666 28.7745 40.6189 29.2326 40.7576 29.7474C40.8959 30.2622 40.9937 30.735 41.0514 31.0794C41.1091 31.4235 41.1294 31.6391 41.1149 31.6412Z" fill="#F69F32"/>
<path d="M46.5769 27.7659C46.5564 27.7898 45.8435 27.2004 44.9855 26.4502C44.1266 25.7001 43.4477 25.0724 43.4682 25.0493C43.4888 25.0254 44.2012 25.6145 45.0597 26.365C45.9182 27.1152 46.5975 27.7428 46.5769 27.7659Z" fill="#F69F32"/>
<path d="M48.6683 22.4406C48.6645 22.4569 48.4174 22.4137 48.0188 22.3474C47.6197 22.2807 47.0684 22.1955 46.4558 22.1251C45.8432 22.055 45.2864 22.0135 44.8832 21.9879C44.4796 21.9619 44.2291 21.9484 44.2295 21.9317C44.2295 21.917 44.4804 21.9023 44.8861 21.9077C45.2919 21.9128 45.8529 21.9421 46.4688 22.0126C47.0844 22.0831 47.6374 22.1817 48.0339 22.2685C48.4304 22.3554 48.6712 22.4263 48.6683 22.4406Z" fill="#F69F32"/>
<path d="M48.6758 17.2038C48.6829 17.2345 47.5173 17.5445 46.0723 17.8965C44.6264 18.2485 43.449 18.509 43.4414 18.4788C43.4339 18.4482 44.5995 18.1382 46.0454 17.7862C47.4905 17.4342 48.6682 17.1732 48.6758 17.2038Z" fill="#F69F32"/>
<path d="M42.5907 11.1024C42.6167 11.1196 42.0591 12.0094 41.3451 13.0893C40.6309 14.1697 40.031 15.031 40.0048 15.0138C39.9789 14.9966 40.5363 14.1072 41.2504 13.0268C41.9647 11.9469 42.5647 11.0852 42.5907 11.1024Z" fill="#F69F32"/>
<path d="M36.5521 9.82781C36.5683 9.82865 36.5665 10.1114 36.5598 10.5671C36.5534 11.0231 36.5442 11.6524 36.5452 12.3476C36.5459 13.0432 36.5564 13.6729 36.5641 14.129C36.5715 14.5846 36.5737 14.867 36.5577 14.8678C36.5428 14.8686 36.512 14.5875 36.4839 14.1319C36.4556 13.6759 36.4326 13.0453 36.4317 12.348C36.431 11.6507 36.4528 11.0202 36.4798 10.5641C36.5069 10.1081 36.537 9.82698 36.5521 9.82781Z" fill="#F69F32"/>
<path d="M31.9789 15.5227C31.9522 15.5391 31.3849 14.6593 30.7121 13.5584C30.0391 12.4571 29.5153 11.5513 29.542 11.5354C29.5687 11.519 30.1358 12.398 30.8088 13.4997C31.4816 14.6006 32.0058 15.5064 31.9789 15.5227Z" fill="#F69F32"/>
<path d="M29.2473 17.844C29.244 17.8587 29.0247 17.8268 28.6746 17.7534C28.3245 17.6796 27.844 17.5621 27.3203 17.4081C26.7965 17.2533 26.3292 17.0914 25.9952 16.963C25.661 16.835 25.4597 16.7427 25.4649 16.7289C25.4705 16.7134 25.6818 16.7792 26.0217 16.8875C26.3615 16.9962 26.8307 17.1455 27.3523 17.2995C27.874 17.453 28.3491 17.5822 28.6935 17.6754C29.0377 17.7685 29.2507 17.8285 29.2473 17.844Z" fill="#F69F32"/>
<path d="M28.0541 21.9807C28.057 22.0118 27.2877 22.1116 26.3356 22.2027C25.3837 22.2946 24.6094 22.3432 24.6065 22.3122C24.6035 22.2811 25.3727 22.1813 26.3248 22.0902C27.2769 21.9988 28.051 21.9497 28.0541 21.9807Z" fill="#F69F32"/>
<path d="M188.465 140.311C188.685 138.716 186.434 137.405 184.742 137.268C183.936 137.203 183.098 137.326 182.334 137.06C180.678 136.483 180.017 134.344 178.401 133.663C177.193 133.153 175.803 133.607 174.632 134.196C173.46 134.785 172.304 135.527 170.995 135.611C169.858 135.684 168.622 135.262 167.626 135.817C166.885 136.232 166.496 137.086 165.812 137.59C165.143 138.084 164.27 138.188 163.441 138.233C162.61 138.279 161.751 138.287 160.995 138.633C160.24 138.979 159.614 139.778 159.771 140.594L188.465 140.311Z" fill="white"/>
<path d="M188.465 140.311C188.468 140.314 188.421 140.317 188.327 140.321C188.222 140.324 188.083 140.328 187.906 140.333C187.521 140.34 186.973 140.351 186.272 140.364C184.83 140.387 182.76 140.418 180.194 140.457C175.013 140.52 167.832 140.606 159.772 140.703L159.682 140.704L159.665 140.615C159.571 140.139 159.741 139.635 160.04 139.254C160.338 138.867 160.768 138.577 161.233 138.421C162.308 138.055 163.417 138.21 164.435 138.02C164.944 137.931 165.437 137.758 165.825 137.443C166.218 137.129 166.51 136.701 166.863 136.317C167.04 136.126 167.231 135.94 167.457 135.796C167.682 135.653 167.932 135.551 168.188 135.494C168.704 135.384 169.216 135.421 169.707 135.458C170.199 135.496 170.681 135.545 171.148 135.493C171.616 135.445 172.068 135.311 172.499 135.139C173.364 134.793 174.144 134.305 174.964 133.93C175.781 133.562 176.651 133.298 177.517 133.362C177.945 133.398 178.364 133.517 178.726 133.725C179.088 133.931 179.394 134.203 179.666 134.486C180.21 135.054 180.638 135.67 181.137 136.166C181.625 136.67 182.216 137.025 182.841 137.113C183.464 137.212 184.073 137.159 184.643 137.2C185.792 137.292 186.707 137.749 187.353 138.214C188.003 138.695 188.348 139.258 188.443 139.672C188.537 140.087 188.454 140.323 188.465 140.311C188.446 140.302 188.503 140.088 188.4 139.683C188.294 139.284 187.948 138.744 187.304 138.283C186.662 137.837 185.753 137.4 184.635 137.322C184.076 137.286 183.468 137.347 182.819 137.251C182.164 137.166 181.529 136.788 181.028 136.276C180.513 135.77 180.08 135.154 179.545 134.603C179.278 134.329 178.982 134.07 178.64 133.878C178.299 133.684 177.908 133.575 177.502 133.543C176.686 133.486 175.843 133.74 175.044 134.105C174.242 134.474 173.459 134.968 172.574 135.326C172.133 135.504 171.662 135.645 171.17 135.697C170.676 135.753 170.18 135.702 169.691 135.666C169.203 135.629 168.707 135.598 168.235 135.701C167.758 135.8 167.352 136.083 167.021 136.462C166.681 136.83 166.385 137.269 165.96 137.611C165.535 137.957 165.002 138.141 164.474 138.234C163.411 138.427 162.311 138.28 161.306 138.627C160.87 138.773 160.485 139.036 160.213 139.387C159.942 139.733 159.799 140.171 159.878 140.573L159.771 140.485C167.802 140.424 174.958 140.369 180.12 140.329C182.696 140.317 184.774 140.308 186.221 140.302C186.933 140.301 187.489 140.301 187.88 140.301C188.061 140.303 188.205 140.304 188.313 140.305C188.412 140.307 188.463 140.309 188.465 140.311Z" fill="#17282F"/>
<path d="M98.319 175.427C98.6106 173.308 95.6206 171.566 93.3742 171.385C92.303 171.298 91.1898 171.462 90.1748 171.109C87.9762 170.342 87.0976 167.501 84.9518 166.596C83.3473 165.92 81.5007 166.522 79.9457 167.305C78.3903 168.087 76.8534 169.072 75.1159 169.183C73.6045 169.28 71.9635 168.72 70.641 169.458C69.6558 170.008 69.1397 171.144 68.2317 171.813C67.3431 172.468 66.1842 172.607 65.0815 172.667C63.9792 172.727 62.838 172.738 61.8339 173.198C60.8302 173.657 59.9999 174.719 60.208 175.803L98.319 175.427Z" fill="white"/>
<path d="M98.3186 175.427C98.3186 175.427 98.2581 175.433 98.1327 175.436C97.9976 175.44 97.8117 175.444 97.5717 175.45C97.0661 175.458 96.3352 175.471 95.3966 175.487C93.4879 175.514 90.7354 175.552 87.3204 175.6C80.4488 175.678 70.912 175.788 60.2088 175.912L60.1186 175.912L60.101 175.823C59.9789 175.203 60.2004 174.544 60.5927 174.044C60.9842 173.537 61.5477 173.156 62.1615 172.949C63.5781 172.467 65.0496 172.671 66.4086 172.419C67.0875 172.3 67.7492 172.068 68.2703 171.644C68.7969 171.224 69.1863 170.653 69.6524 170.145C69.8861 169.892 70.1383 169.648 70.4345 169.459C70.7303 169.272 71.058 169.137 71.395 169.063C72.0718 168.917 72.7502 168.966 73.4018 169.015C74.0543 169.065 74.6975 169.131 75.3219 169.061C75.9471 168.996 76.5513 168.817 77.1248 168.587C78.2766 168.126 79.3142 167.476 80.4001 166.981C81.4814 166.491 82.6327 166.143 83.774 166.227C84.3392 166.273 84.8914 166.43 85.368 166.705C85.8463 166.976 86.2508 167.335 86.6117 167.708C87.3329 168.461 87.9015 169.278 88.5669 169.939C89.2177 170.609 90.0086 171.086 90.8449 171.201C91.6765 171.333 92.485 171.26 93.2399 171.315C93.9993 171.362 94.6849 171.562 95.2854 171.8C95.8866 172.043 96.404 172.338 96.8336 172.653C97.2616 172.971 97.5922 173.317 97.8343 173.648C98.0815 173.978 98.2065 174.311 98.2816 174.58C98.3404 174.853 98.3601 175.068 98.3387 175.215C98.3274 175.359 98.3186 175.427 98.3186 175.427C98.3186 175.427 98.3165 175.347 98.3177 175.207C98.329 175.069 98.3039 174.857 98.2393 174.59C98.0995 174.058 97.6397 173.337 96.7833 172.721C96.3557 172.417 95.8422 172.13 95.2472 171.897C94.6526 171.667 93.9758 171.477 93.2323 171.436C92.4884 171.388 91.6803 171.467 90.8226 171.339C89.9575 171.226 89.1221 170.727 88.4583 170.048C87.7769 169.378 87.2025 168.561 86.4908 167.826C86.1346 167.46 85.7406 167.115 85.2824 166.857C84.8259 166.597 84.3019 166.45 83.7602 166.408C82.6671 166.33 81.5439 166.67 80.4798 167.156C79.4116 167.646 78.3723 168.301 77.1999 168.774C76.6155 169.01 75.9932 169.196 75.3433 169.265C74.6917 169.339 74.0358 169.271 73.3855 169.223C72.7368 169.175 72.076 169.132 71.4407 169.27C71.1252 169.34 70.8235 169.465 70.5499 169.638C70.2763 169.813 70.0372 170.044 69.8106 170.29C69.357 170.782 68.9647 171.363 68.4058 171.813C67.8474 172.267 67.1458 172.51 66.4472 172.632C65.0433 172.889 63.581 172.692 62.2333 173.156C61.6501 173.352 61.1315 173.706 60.7656 174.177C60.401 174.643 60.2071 175.236 60.3145 175.782L60.2067 175.694C70.8818 175.606 80.3934 175.528 87.2465 175.471C90.6716 175.451 93.432 175.435 95.3462 175.424C96.2949 175.422 97.0334 175.419 97.5448 175.418C97.7899 175.419 97.9804 175.42 98.1188 175.42C98.2489 175.422 98.3186 175.427 98.3186 175.427Z" fill="#17282F"/>
<path d="M59.5163 75.3716C59.7609 73.5936 57.2514 72.131 55.3658 71.9791C54.4666 71.9066 53.5326 72.0442 52.6808 71.7471C50.8347 71.104 50.0974 68.7193 48.2966 67.9599C46.9501 67.3923 45.3998 67.8974 44.0944 68.5544C42.7891 69.2114 41.4992 70.0379 40.0408 70.1315C38.7722 70.2124 37.3946 69.7421 36.2848 70.3618C35.4579 70.8233 35.0246 71.7765 34.2623 72.3387C33.5165 72.8887 32.5438 73.0049 31.6186 73.0553C30.6932 73.1056 29.7353 73.1149 28.8927 73.5008C28.0503 73.8864 27.3532 74.7775 27.5281 75.6871L59.5163 75.3716Z" fill="white"/>
<path d="M59.5163 75.3716C59.5184 75.3745 59.466 75.3775 59.3611 75.3812C59.2457 75.3842 59.0904 75.3884 58.8916 75.3938C58.4644 75.4018 57.8522 75.4131 57.0676 75.4278C55.4627 75.4513 53.1541 75.4853 50.2909 75.5272C44.5186 75.5952 36.5135 75.69 27.5293 75.7962L27.4389 75.797L27.421 75.7076C27.3175 75.1815 27.5056 74.6231 27.8374 74.2002C28.1678 73.7719 28.6446 73.4496 29.1622 73.2755C30.3565 72.8694 31.5924 73.0414 32.7296 72.8296C33.2979 72.7301 33.8499 72.5367 34.2846 72.1835C34.7236 71.8327 35.0505 71.3544 35.4427 70.9273C35.6396 70.7142 35.8521 70.5078 36.1026 70.3488C36.3527 70.1902 36.6298 70.0765 36.9141 70.014C37.4859 69.8911 38.0566 69.9322 38.6039 69.9733C39.1516 70.0157 39.6904 70.0706 40.2124 70.0119C40.7349 69.9582 41.2405 69.8088 41.7213 69.6158C42.6863 69.2299 43.5569 68.6849 44.4704 68.2687C45.3788 67.8575 46.3476 67.5643 47.3093 67.6352C47.7859 67.6746 48.2513 67.8068 48.6532 68.0384C49.056 68.2674 49.3963 68.5695 49.6997 68.8842C50.306 69.5168 50.7826 70.2028 51.3398 70.7566C51.8853 71.3184 52.5457 71.7169 53.2452 71.8143C53.9409 71.9246 54.6197 71.8646 55.2537 71.9103C56.5335 72.0123 57.5531 72.5204 58.2739 73.0381C58.9969 73.5726 59.3821 74.1989 59.4886 74.6596C59.5377 74.8899 59.5532 75.0703 59.5348 75.1945C59.5243 75.3162 59.5163 75.3716 59.5163 75.3716C59.5163 75.3716 59.5138 75.304 59.5138 75.187C59.5226 75.072 59.5008 74.8946 59.4463 74.6709C59.3279 74.2245 58.9419 73.6221 58.2236 73.1069C57.5082 72.608 56.4945 72.1193 55.2462 72.0324C54.6231 71.9922 53.9446 72.0593 53.2229 71.9515C52.4945 71.8571 51.7892 71.4371 51.2312 70.8661C50.658 70.3026 50.1755 69.6171 49.5788 69.0016C49.2805 68.695 48.9503 68.4063 48.5676 68.1911C48.1858 67.9738 47.7486 67.8517 47.2955 67.816C46.382 67.7514 45.4413 68.0358 44.5497 68.4436C43.6543 68.8544 42.782 69.4048 41.7961 69.8026C41.3049 70.0014 40.7813 70.1583 40.2339 70.2162C39.6846 70.2783 39.1332 70.2217 38.5874 70.1814C38.0432 70.1407 37.4898 70.105 36.9602 70.2204C36.4267 70.3308 35.9708 70.6492 35.6007 71.0717C35.2211 71.4837 34.8915 71.9724 34.4196 72.3521C33.9479 72.736 33.3561 72.9403 32.7678 73.0435C31.5864 73.2592 30.3595 73.0943 29.2339 73.482C28.7468 73.646 28.315 73.9409 28.01 74.334C27.7064 74.7221 27.5458 75.2138 27.6349 75.6665L27.5269 75.5784C36.4831 75.5075 44.4632 75.4446 50.217 75.3988C53.0904 75.3846 55.4073 75.3724 57.0173 75.3644C57.812 75.3636 58.4317 75.3628 58.8643 75.3619C59.0686 75.3636 59.2289 75.3644 59.3472 75.3653C59.4567 75.367 59.5138 75.3691 59.5163 75.3716Z" fill="#17282F"/>
<path d="M173.903 29.0572C174.095 27.6593 172.123 26.5098 170.64 26.3902C169.933 26.3335 169.199 26.4414 168.529 26.2081C167.079 25.7025 166.499 23.828 165.083 23.231C164.025 22.7846 162.806 23.1819 161.78 23.6984C160.754 24.2148 159.74 24.8643 158.594 24.9377C157.596 25.0019 156.514 24.6319 155.641 25.119C154.991 25.4819 154.65 26.2312 154.051 26.673C153.465 27.1051 152.701 27.197 151.973 27.2364C151.245 27.2758 150.493 27.2834 149.83 27.5863C149.168 27.8896 148.62 28.5899 148.758 29.3052L173.903 29.0572Z" fill="white"/>
<path d="M173.903 29.0572C173.905 29.0597 173.864 29.0627 173.782 29.0665C173.689 29.0694 173.568 29.0732 173.415 29.0778C173.075 29.0849 172.595 29.095 171.984 29.108C170.717 29.1281 168.905 29.1571 166.659 29.1932C162.115 29.2494 155.822 29.327 148.759 29.4138L148.669 29.4151L148.651 29.3257C148.567 28.9041 148.719 28.4581 148.983 28.1221C149.245 27.7814 149.625 27.525 150.034 27.3874C150.981 27.0661 151.953 27.202 152.843 27.0359C153.287 26.9583 153.717 26.8072 154.055 26.5333C154.396 26.2605 154.653 25.8855 154.963 25.5482C155.262 25.2037 155.673 24.9146 156.131 24.8232C156.585 24.7259 157.036 24.759 157.466 24.7913C157.897 24.8249 158.319 24.8677 158.726 24.8223C159.135 24.7804 159.53 24.6638 159.907 24.5127C160.663 24.2107 161.347 23.7827 162.067 23.4551C162.783 23.1312 163.548 22.9 164.309 22.9566C164.686 22.9877 165.055 23.093 165.373 23.2763C165.692 23.458 165.961 23.6967 166.2 23.9451C166.677 24.4439 167.051 24.9835 167.487 25.4177C167.915 25.8582 168.429 26.1695 168.976 26.2459C169.52 26.3331 170.054 26.2866 170.553 26.3235C171.562 26.4049 172.364 26.8064 172.932 27.2154C173.5 27.6379 173.803 28.1326 173.886 28.4963C173.968 28.8609 173.893 29.0686 173.903 29.0572C173.886 29.048 173.934 28.8613 173.844 28.5076C173.749 28.1582 173.446 27.687 172.882 27.2842C172.32 26.8941 171.523 26.5119 170.546 26.4451C170.057 26.4145 169.524 26.4678 168.953 26.3835C168.378 26.3096 167.818 25.9769 167.379 25.5272C166.926 25.0833 166.546 24.5442 166.078 24.0621C165.844 23.8222 165.586 23.5969 165.288 23.429C164.99 23.2595 164.649 23.1652 164.295 23.137C163.582 23.0871 162.846 23.3099 162.147 23.6296C161.445 23.9522 160.759 24.3856 159.982 24.6994C159.595 24.8563 159.18 24.9805 158.748 25.0263C158.313 25.0758 157.878 25.0313 157.45 24.9994C157.022 24.9675 156.589 24.9402 156.177 25.03C155.762 25.116 155.41 25.3619 155.121 25.6925C154.823 26.0147 154.564 26.3998 154.19 26.7015C153.815 27.0061 153.345 27.1684 152.881 27.2498C151.947 27.4198 150.984 27.291 150.106 27.5939C149.727 27.7218 149.392 27.9505 149.155 28.2559C148.919 28.5571 148.796 28.9368 148.864 29.2846L148.757 29.1965C155.791 29.1445 162.06 29.0984 166.585 29.0648C168.841 29.0564 170.662 29.0497 171.933 29.0446C172.555 29.0455 173.042 29.0459 173.388 29.0463C173.546 29.048 173.671 29.0493 173.769 29.0505C173.855 29.0522 173.9 29.0543 173.903 29.0572Z" fill="#17282F"/>
<path d="M100.749 102.8L100.448 109.7C100.448 109.7 107.36 112.323 107.428 113.604L94.0283 113.5L94.0573 102.73L100.749 102.8Z" fill="#33535F"/>
<path d="M96.3094 109.087C96.0492 109.156 95.868 109.446 95.9259 109.708C95.9842 109.971 96.2775 110.158 96.5385 110.093C96.7994 110.03 97.0281 109.688 96.9408 109.434C96.854 109.179 96.4973 108.978 96.259 109.103" fill="#DADBD8"/>
<path d="M107.431 113.588H107.428C107.41 113.407 107.259 113.199 107.012 112.977C107.177 113.073 107.47 113.291 107.431 113.588Z" fill="white"/>
<path d="M107.428 113.604C107.428 113.599 107.428 113.593 107.428 113.588H107.431C107.43 113.593 107.43 113.599 107.428 113.604Z" fill="#F9ACB4"/>
<path d="M107.428 113.604L105.42 113.588L94.0283 113.5L94.0736 112.414L106.905 112.92C106.905 112.92 106.949 112.94 107.011 112.977C107.259 113.199 107.41 113.407 107.427 113.588C107.428 113.593 107.428 113.599 107.428 113.604Z" fill="#A6B7B9"/>
<path d="M100.665 109.633C100.663 109.699 100.335 109.726 100.012 109.934C99.6828 110.133 99.5145 110.415 99.4545 110.389C99.3945 110.376 99.4948 109.985 99.8913 109.74C100.285 109.492 100.68 109.573 100.665 109.633Z" fill="#17282F"/>
<path d="M102.066 110.225C102.08 110.289 101.796 110.398 101.572 110.673C101.339 110.941 101.281 111.24 101.216 111.237C101.154 111.247 101.112 110.863 101.397 110.526C101.68 110.187 102.065 110.163 102.066 110.225Z" fill="#17282F"/>
<path d="M102.852 111.914C102.793 111.927 102.704 111.6 102.874 111.243C103.043 110.884 103.353 110.745 103.38 110.8C103.417 110.854 103.216 111.045 103.08 111.34C102.938 111.632 102.917 111.908 102.852 111.914Z" fill="#17282F"/>
<path d="M100.56 108.053C100.532 108.112 100.233 108.02 99.8625 108.042C99.492 108.057 99.2029 108.179 99.1693 108.122C99.132 108.075 99.4148 107.835 99.8511 107.814C100.287 107.791 100.593 108.002 100.56 108.053Z" fill="#17282F"/>
<path d="M121.571 102.8L121.269 109.7C121.269 109.7 128.182 112.323 128.25 113.604L114.85 113.5L114.879 102.73L121.571 102.8Z" fill="#33535F"/>
<path d="M117.129 109.087C116.869 109.156 116.688 109.446 116.746 109.708C116.804 109.971 117.098 110.158 117.358 110.093C117.62 110.03 117.848 109.688 117.761 109.434C117.674 109.179 117.317 108.978 117.079 109.103" fill="#DADBD8"/>
<path d="M128.252 113.588H128.248C128.231 113.407 128.08 113.2 127.833 112.977C127.998 113.075 128.29 113.292 128.252 113.588Z" fill="white"/>
<path d="M128.25 113.604C128.25 113.599 128.249 113.593 128.249 113.588H128.252C128.251 113.593 128.251 113.599 128.25 113.604Z" fill="#F9ACB4"/>
<path d="M128.25 113.604L126.241 113.588L114.85 113.5L114.895 112.414L127.726 112.92C127.726 112.92 127.771 112.94 127.834 112.977C128.081 113.2 128.231 113.407 128.249 113.588C128.25 113.593 128.25 113.599 128.25 113.604Z" fill="#A6B7B9"/>
<path d="M121.486 109.633C121.484 109.699 121.156 109.726 120.833 109.934C120.504 110.133 120.336 110.415 120.276 110.389C120.216 110.376 120.316 109.985 120.712 109.74C121.106 109.492 121.502 109.573 121.486 109.633Z" fill="#17282F"/>
<path d="M122.887 110.225C122.902 110.289 122.618 110.398 122.393 110.673C122.161 110.941 122.102 111.24 122.037 111.237C121.975 111.247 121.933 110.863 122.219 110.526C122.501 110.187 122.886 110.163 122.887 110.225Z" fill="#17282F"/>
<path d="M123.672 111.914C123.613 111.927 123.524 111.6 123.695 111.243C123.863 110.884 124.173 110.745 124.2 110.8C124.237 110.854 124.037 111.045 123.901 111.34C123.758 111.632 123.737 111.908 123.672 111.914Z" fill="#17282F"/>
<path d="M121.381 108.053C121.353 108.112 121.053 108.02 120.683 108.042C120.313 108.057 120.024 108.179 119.991 108.122C119.953 108.075 120.236 107.835 120.672 107.814C121.108 107.791 121.413 108.002 121.381 108.053Z" fill="#17282F"/>
<path d="M94.0921 12.2008C93.6205 10.9103 93.1539 9.61054 92.9114 8.25877C92.6689 6.90658 92.6588 5.4885 93.091 4.18456C93.156 3.98695 93.7271 2.65617 93.9348 2.66918C94.0833 2.67841 93.7468 3.91269 93.8265 4.03856C94.5847 5.23929 94.8323 6.70729 94.7693 8.12619C94.7064 9.54509 94.458 10.8285 94.0921 12.2008Z" fill="#17282F"/>
<path d="M94.5341 19.5151L94.0322 7.05C93.7964 3.61351 95.3355 0.529861 98.7773 0.388893L99.1512 0.395592C102.33 0.450972 104.932 2.93679 105.133 6.10854C105.322 9.10241 105.495 12.4277 105.447 14.0333C105.348 17.3372 102.034 17.7937 102.034 17.7937C102.026 17.7941 102.175 20.1884 102.2 21.1584C102.2 21.1584 101.85 21.4127 98.7719 21.5222C95.6921 21.6312 94.5341 19.5151 94.5341 19.5151Z" fill="#F9A78D"/>
<path d="M102.033 17.7937C102.033 17.7937 99.9476 17.8797 97.752 16.4465C97.752 16.4465 98.7594 18.8686 102.062 18.6282L102.033 17.7937Z" fill="#F57F62"/>
<path d="M103.998 9.10953C104.003 9.35874 103.795 9.5681 103.534 9.57775C103.275 9.58698 103.06 9.39314 103.056 9.14352C103.051 8.89431 103.258 8.68454 103.519 8.67489C103.779 8.66566 103.994 8.86032 103.998 9.10953Z" fill="#17282F"/>
<path d="M104.299 7.93024C104.239 7.99065 103.886 7.72005 103.378 7.7125C102.871 7.69739 102.494 7.95247 102.439 7.88912C102.413 7.86143 102.475 7.7515 102.639 7.63613C102.801 7.52117 103.076 7.41126 103.392 7.41798C103.708 7.42553 103.972 7.54676 104.123 7.66843C104.277 7.79094 104.328 7.90339 104.299 7.93024Z" fill="#17282F"/>
<path d="M99.6562 9.1872C99.5966 9.24761 99.2433 8.97701 98.7356 8.96945C98.2283 8.95477 97.8511 9.20942 97.797 9.14649C97.7705 9.11838 97.8314 9.00846 97.9963 8.89308C98.1582 8.77813 98.4326 8.66822 98.749 8.67493C99.0654 8.68249 99.3293 8.80372 99.4803 8.92539C99.6339 9.0479 99.6851 9.15993 99.6562 9.1872Z" fill="#17282F"/>
<path d="M101.203 11.9318C101.201 11.9029 101.517 11.8538 102.03 11.7976C102.16 11.7862 102.283 11.7623 102.306 11.6742C102.338 11.5811 102.287 11.4405 102.227 11.2887C102.11 10.9727 101.988 10.6413 101.86 10.2944C101.352 8.87881 100.987 7.71625 101.044 7.69611C101.101 7.67639 101.559 8.80747 102.067 10.2226C102.19 10.5712 102.306 10.9039 102.418 11.2224C102.464 11.3705 102.546 11.5391 102.476 11.7325C102.439 11.8286 102.343 11.8974 102.26 11.9184C102.176 11.9423 102.103 11.9423 102.038 11.9452C101.523 11.9637 101.204 11.9608 101.203 11.9318Z" fill="#17282F"/>
<path d="M99.6797 7.83457C99.6176 7.96798 99.1183 7.8568 98.5183 7.87484C97.9179 7.88113 97.4236 8.01121 97.3561 7.88115C97.3259 7.81864 97.4211 7.69695 97.6267 7.58116C97.8306 7.46579 98.1478 7.36678 98.5078 7.35965C98.8678 7.35252 99.1888 7.43852 99.3969 7.54593C99.6071 7.65333 99.707 7.77122 99.6797 7.83457Z" fill="#17282F"/>
<path d="M104.499 6.02968C104.422 6.16478 103.999 6.13415 103.519 6.23233C103.037 6.31624 102.653 6.50001 102.534 6.40225C102.481 6.35359 102.52 6.22729 102.674 6.08213C102.825 5.9378 103.098 5.78761 103.428 5.72467C103.758 5.66258 104.065 5.70286 104.257 5.78216C104.451 5.86103 104.532 5.96549 104.499 6.02968Z" fill="#17282F"/>
<path d="M94.2579 9.47792C94.2021 9.45233 91.9989 8.76638 92.0316 11.0273C92.0643 13.2878 94.3276 12.7886 94.3305 12.7235C94.3335 12.6589 94.2579 9.47792 94.2579 9.47792Z" fill="#F9A78D"/>
<path d="M93.5904 11.8861C93.5803 11.8794 93.551 11.9146 93.4851 11.9461C93.4205 11.9767 93.3093 11.9986 93.1905 11.9566C92.9505 11.8723 92.7441 11.4959 92.7269 11.0886C92.7181 10.883 92.7588 10.6867 92.8293 10.5235C92.896 10.3569 93.0009 10.2398 93.1209 10.2163C93.2405 10.1874 93.3265 10.2579 93.355 10.3212C93.3865 10.3842 93.3726 10.4295 93.3848 10.4332C93.3911 10.4387 93.4326 10.3942 93.4129 10.3015C93.4028 10.2566 93.3756 10.2038 93.3219 10.161C93.2673 10.1177 93.1872 10.0964 93.1033 10.1064C92.9291 10.1211 92.7747 10.2835 92.6971 10.463C92.6098 10.6434 92.5599 10.8641 92.5695 11.0953C92.5905 11.5505 92.8301 11.973 93.1582 12.0628C93.3181 12.1022 93.4498 12.0523 93.5178 11.9977C93.587 11.9411 93.598 11.8903 93.5904 11.8861Z" fill="#F57F62"/>
<path d="M103.586 2.45227C103.947 2.24207 102.821 1.08331 101.913 0.696489C100.54 0.111645 98.456 -0.219813 97.2115 0.164909C95.7132 0.627666 94.4775 1.40719 93.7524 2.79798C93.027 4.18793 92.7794 5.79393 92.8604 7.36009C92.8847 7.83795 92.946 8.33512 93.2108 8.73369C93.538 9.22582 94.1515 9.52662 94.141 10.2164C94.1372 10.4685 94.2148 10.7211 94.3919 10.9011C94.8157 11.3315 95.312 10.9061 95.5348 10.4865C96.0111 9.58955 96.0417 8.53148 96.0618 7.51576C96.0761 6.79457 96.0883 6.05741 95.8688 5.36978C95.7497 4.99554 95.5634 4.64356 95.4648 4.26346C95.3666 3.88335 95.3679 3.44912 95.599 3.13153C95.6364 3.07992 95.6989 3.01446 95.7782 2.94146C96.4051 2.36543 97.2975 2.17663 98.1065 2.44178C99.39 2.86216 101.579 3.48392 102.137 3.03879C102.939 2.39856 103.126 1.98868 103.126 1.98868L103.586 2.45227Z" fill="#17282F"/>
<path d="M101.532 13.3054C101.541 13.3419 101.416 13.4153 101.189 13.4439C100.965 13.4732 100.639 13.4392 100.322 13.289C100.005 13.1376 99.7734 12.9064 99.6546 12.7134C99.5334 12.5196 99.512 12.377 99.5455 12.361C99.6215 12.3216 99.8955 12.7667 100.45 13.021C100.996 13.2903 101.515 13.2219 101.532 13.3054Z" fill="#17282F"/>
<path d="M133.003 7.80477C133.003 7.80477 132.916 7.27657 132.655 7.27657C132.394 7.27657 132.002 7.41921 131.828 7.80477C131.654 8.19034 133.003 7.80477 133.003 7.80477Z" fill="#F9A78D"/>
<path d="M126.348 16.2146L126.609 12.0476L127.436 7.75738C127.436 7.75738 128.089 7.05926 128.437 7.22162C128.785 7.38357 128.655 7.95707 128.655 7.95707C128.655 7.95707 129.569 6.96989 129.917 7.19729C130.265 7.42426 130.135 7.95707 130.135 7.95707C130.135 7.95707 130.961 6.86123 131.353 7.1633C131.745 7.46495 131.353 7.95707 131.353 7.95707C131.353 7.95707 131.872 12.7642 131.61 14.4814C131.349 16.1986 129.887 16.8363 129.887 16.8363L129.192 19.5399L125.782 17.6842L126.348 16.2146Z" fill="#F9A78D"/>
<path d="M128.436 10.763L109.915 10.5574V9.07558L128.436 8.55619V10.763Z" fill="#F69F32"/>
<path d="M147.993 12.2314L121.823 11.1259C121.496 10.2369 121.483 9.27442 121.803 8.23395L147.809 7.08777C149.006 8.3313 149.02 10.9514 147.993 12.2314Z" fill="#F69F32"/>
<path d="M147.738 7.32698C147.738 7.32698 146.949 8.06537 146.979 9.67223C147.01 11.2795 147.802 11.955 147.802 11.955C147.802 11.955 148.66 11.0479 148.536 9.43728C148.414 7.86273 147.738 7.32698 147.738 7.32698Z" fill="#DADBD8"/>
<path d="M146.691 12.2314C146.672 12.2478 146.442 12.0321 146.183 11.5962C145.925 11.1662 145.652 10.4865 145.667 9.69696C145.679 8.92374 145.875 8.22814 146.126 7.7851C146.371 7.33703 146.619 7.13188 146.635 7.14866C146.663 7.17215 146.463 7.40919 146.264 7.85349C146.06 8.29443 145.897 8.95604 145.885 9.70157C145.871 10.4387 146.104 11.0882 146.319 11.5232C146.534 11.9625 146.719 12.21 146.691 12.2314Z" fill="#17282F"/>
<path d="M147.857 7.14651C147.885 7.16874 147.694 7.41377 147.485 7.85932C147.276 8.30068 147.069 8.96063 147.086 9.70532C147.099 10.4513 147.331 11.1028 147.555 11.5362C147.762 11.991 148.029 12.1445 148.02 12.1676C148.015 12.1798 147.931 12.1655 147.812 12.0795C147.691 11.9943 147.551 11.8299 147.42 11.6121C147.151 11.1821 146.881 10.4995 146.868 9.70993C146.849 8.92034 147.095 8.22768 147.348 7.78842C147.601 7.34329 147.84 7.13014 147.857 7.14651Z" fill="#17282F"/>
<path d="M148.198 8.48952C148.164 8.40603 148.124 8.32254 148.059 8.25961C147.994 8.1971 147.901 8.15723 147.814 8.17611C147.726 8.19457 147.656 8.26966 147.632 8.35567C147.606 8.44167 147.621 8.53566 147.66 8.61663C147.754 8.80627 147.91 8.98206 147.905 9.17085C147.9 9.35965 147.851 9.54761 147.867 9.73599C147.873 9.80479 147.888 9.87527 147.928 9.93191C147.968 9.98855 148.037 10.0284 148.105 10.0192C148.217 10.0037 148.273 9.87694 148.299 9.76702C148.398 9.34412 148.362 8.89144 148.198 8.48952Z" fill="white"/>
<path d="M121.818 11.2195C121.77 11.2467 121.442 10.5948 121.461 9.71665C121.472 8.83812 121.822 8.19747 121.869 8.22684C121.93 8.25033 121.688 8.89308 121.679 9.72042C121.66 10.5473 121.88 11.1976 121.818 11.2195Z" fill="#17282F"/>
<path d="M109.876 10.9086C109.72 10.9086 109.594 10.7823 109.594 10.6258V9.0588C109.594 8.90273 109.72 8.77602 109.876 8.77602C110.033 8.77602 110.159 8.90273 110.159 9.0588V10.6258C110.159 10.7823 110.033 10.9086 109.876 10.9086Z" fill="#F69F32"/>
<path d="M109.877 10.9086C109.875 10.8905 109.952 10.8893 110.029 10.8121C110.065 10.7743 110.098 10.7156 110.098 10.6455C110.093 10.5482 110.087 10.45 110.082 10.351C110.075 10.0972 110.067 9.83833 110.059 9.57024C110.057 9.4192 110.055 9.26607 110.053 9.10958C110.067 8.97113 109.986 8.89142 109.877 8.88555C109.768 8.89142 109.686 8.97071 109.701 9.10958C109.699 9.26607 109.697 9.4192 109.695 9.57024C109.687 9.83833 109.679 10.0972 109.671 10.351C109.667 10.4504 109.661 10.5482 109.656 10.6455C109.656 10.7156 109.689 10.7743 109.725 10.8125C109.803 10.8893 109.879 10.8905 109.877 10.9086C109.881 10.9182 109.798 10.956 109.672 10.8784C109.613 10.8389 109.55 10.7638 109.534 10.656C109.529 10.5549 109.523 10.4538 109.517 10.351C109.509 10.0972 109.502 9.83833 109.493 9.57024C109.492 9.4192 109.49 9.26607 109.487 9.10958C109.479 9.0391 109.498 8.89225 109.573 8.8117C109.645 8.72276 109.759 8.66613 109.877 8.66697C109.995 8.66655 110.109 8.72318 110.181 8.8117C110.256 8.89225 110.275 9.0391 110.267 9.10958C110.265 9.26607 110.262 9.4192 110.261 9.57024C110.252 9.83833 110.244 10.0972 110.237 10.351C110.231 10.4538 110.226 10.5549 110.219 10.656C110.204 10.7638 110.141 10.8389 110.082 10.8784C109.957 10.956 109.873 10.9182 109.877 10.9086Z" fill="#17282F"/>
<path d="M113.093 14.0115C113.093 14.0115 112.699 9.14859 112.815 8.72233C112.95 8.23398 114.275 6.7941 114.744 6.74207C115.213 6.69005 115.265 7.21113 115.265 7.21113C115.265 7.21113 115.925 6.75802 116.568 6.7383C117.253 6.71733 117.341 7.31979 117.341 7.31979C117.341 7.31979 117.723 7.0387 118.378 7.1566C118.654 7.2061 118.971 7.69654 118.971 7.69654C118.971 7.69654 119.658 7.39993 119.985 7.70661C120.397 8.09218 120.392 8.78149 120.392 8.78149C119.754 8.7345 119.176 9.16873 119.176 9.16873C119.176 9.16873 119.018 11.2757 118.757 12.3178C118.496 13.3604 117.466 14.2209 117.119 14.7608L116.846 18.3568L112.419 16.0128L113.093 14.0115Z" fill="#F9A78D"/>
<path d="M114.089 9.08816C114.032 9.09655 114.014 8.4496 114.455 7.82741C114.889 7.19978 115.503 6.99589 115.515 7.05169C115.545 7.10917 115.027 7.38061 114.634 7.95287C114.231 8.51716 114.153 9.09697 114.089 9.08816Z" fill="#F57F62"/>
<path d="M116.254 9.00427C116.203 9.02399 116.076 8.44502 116.437 7.85052C116.614 7.5602 116.877 7.36887 117.087 7.29797C117.297 7.22371 117.436 7.24092 117.439 7.26609C117.455 7.32693 116.93 7.43434 116.623 7.9659C116.306 8.47816 116.321 9.00553 116.254 9.00427Z" fill="#F57F62"/>
<path d="M117.839 8.8423C117.782 8.83223 117.878 8.3699 118.291 7.99651C118.702 7.61976 119.171 7.56899 119.176 7.62605C119.193 7.68814 118.8 7.82323 118.439 8.15845C118.071 8.48653 117.899 8.86411 117.839 8.8423Z" fill="#F57F62"/>
<path d="M129.159 15.2089C129.899 14.3388 129.334 12.0053 129.334 12.0053C129.334 12.0053 130.38 11.6575 130.641 10.6128C130.902 9.56817 130.38 9.39447 130.38 9.39447C130.205 9.48132 128.595 10.5256 127.768 10.961C126.941 11.3961 126.68 15.8278 126.68 15.8278" fill="#F9A78D"/>
<path d="M126.68 15.8278C126.665 15.8269 126.663 15.6201 126.681 15.2467C126.7 14.8733 126.738 14.3338 126.82 13.6701C126.916 13.0084 126.999 12.2113 127.339 11.3646C127.388 11.2606 127.438 11.1545 127.516 11.0546C127.583 10.9543 127.723 10.8591 127.814 10.8176C128.015 10.7072 128.217 10.5893 128.423 10.4664C128.831 10.2155 129.253 9.95623 129.686 9.69024C129.904 9.55683 130.103 9.42636 130.331 9.29714L130.373 9.27322L130.414 9.29126C130.614 9.37937 130.705 9.53921 130.763 9.69948C130.817 9.86142 130.825 10.0246 130.816 10.1794C130.793 10.4874 130.725 10.7823 130.586 11.0466C130.307 11.5736 129.84 11.9134 129.364 12.0917L129.423 11.9839C129.63 12.9694 129.652 13.8123 129.543 14.3896C129.493 14.6791 129.39 14.8913 129.314 15.0273C129.223 15.1556 129.165 15.2148 129.159 15.2089C129.151 15.2022 129.194 15.1313 129.266 15.0008C129.324 14.8611 129.406 14.6551 129.439 14.3724C129.515 13.8127 129.467 12.9828 129.247 12.0271L129.229 11.9495L129.306 11.9193C129.729 11.7523 130.164 11.4234 130.403 10.9531C130.523 10.7219 130.585 10.4446 130.603 10.1685C130.628 9.90381 130.542 9.5883 130.345 9.49768L130.428 9.4918C130.232 9.60424 130.013 9.74522 129.802 9.8757C129.369 10.145 128.946 10.4064 128.531 10.6506C128.324 10.7727 128.119 10.8906 127.914 11.0009C127.797 11.0584 127.745 11.0961 127.678 11.1805C127.616 11.2577 127.568 11.3546 127.522 11.4486C127.192 12.2386 127.085 13.0416 126.974 13.6914C126.872 14.3484 126.811 14.8838 126.765 15.2538C126.721 15.6239 126.695 15.8286 126.68 15.8278Z" fill="#F57F62"/>
<path d="M94.5466 54.0931C94.5466 54.0931 95.0614 75.2092 94.5466 77.7839C94.0313 80.3591 93.1729 91.0029 93.1729 98.9C93.1729 106.797 93.5043 108.597 93.5043 108.597H101.171C101.171 108.597 101.701 93.5818 104.068 84.8973C106.266 76.8303 108.797 64.5649 108.797 59.243C108.797 53.9211 108.797 52.0327 108.797 52.0327H95.2334L94.5466 54.0931Z" fill="#17282F"/>
<path d="M113.089 52.0327C113.089 52.0327 121.132 74.3504 121.647 80.8743C122.162 87.3978 122.188 108.597 122.188 108.597H114.249L113.189 82.9917L107.079 66.4021V52.0327H113.089Z" fill="#17282F"/>
<path d="M108.796 64.0497C108.81 64.0535 108.775 64.27 108.698 64.6576C108.615 65.0864 108.508 65.639 108.379 66.3023C108.106 67.7312 107.741 69.6314 107.339 71.7316C106.929 73.8515 106.543 75.7689 106.236 77.1513C106.082 77.8423 105.948 78.3994 105.849 78.7829C105.746 79.1659 105.682 79.3753 105.667 79.3719C105.653 79.3681 105.688 79.1521 105.766 78.764C105.849 78.3356 105.956 77.7831 106.084 77.1198C106.358 75.6904 106.722 73.7907 107.125 71.6896C107.535 69.5701 107.92 67.6532 108.228 66.2708C108.381 65.5798 108.515 65.0222 108.615 64.6388C108.718 64.2561 108.781 64.0464 108.796 64.0497Z" fill="#33535F"/>
<path d="M116.134 61.8878H117.835C117.835 61.8878 118.225 56.0004 117.242 52.0327C116.258 48.0655 111.243 30.7862 111.243 30.7862L105.687 21.6049L102.709 20.2678L112.495 53.0711L116.134 61.8878Z" fill="#064677"/>
<path d="M117.237 61.8878H116.135L112.426 52.1187L113.089 52.0327L113.74 51.215C114.205 50.6327 113.897 48.3047 113.638 47.6065L108.859 34.0229C109.374 33.7398 109.947 33.3869 109.947 33.3869C109.947 33.3869 115.091 48.6281 115.943 52.6243C116.795 56.62 117.237 61.8878 117.237 61.8878Z" fill="#20353D"/>
<path d="M93.3711 19.9124L93.8331 16.992L102.038 20.6747V18.8854L105.662 24.9327L113.638 47.6065C113.897 48.3047 114.206 50.6327 113.741 51.215L113.089 52.0327L104.446 53.1504L96.2474 23.5578L93.3711 19.9124Z" fill="white"/>
<path d="M94.7276 64.0497L94.7092 62.6741C94.7155 63.1263 94.7218 63.5866 94.7276 64.0497Z" fill="#A7A9A8"/>
<path d="M104.67 64.713C100.635 64.713 94.7304 64.0501 94.7274 64.0497C94.7216 63.5865 94.7153 63.1263 94.709 62.674C97.4707 62.9585 101.834 63.3482 104.993 63.3482C105.777 63.3482 106.486 63.3243 107.079 63.2689V64.5892C106.441 64.6774 105.606 64.713 104.67 64.713Z" fill="#0F191D"/>
<path d="M107.079 64.5893V63.269C107.948 63.1872 108.566 63.0378 108.796 62.7966C109.812 61.7339 110.656 56.5856 110.858 52.3214L111.33 52.2606C111.229 54.696 110.311 61.1969 110.311 61.1969C110.311 61.1969 110.204 63.4918 107.954 64.3871C107.737 64.4731 107.44 64.5394 107.079 64.5893Z" fill="#0F191D"/>
<path d="M110.858 52.3214C110.912 51.2029 110.92 50.1457 110.876 49.2382L110.977 48.7649C111.134 49.6728 111.294 50.7708 111.335 51.6858C111.341 51.8347 111.339 52.0294 111.33 52.2606L110.858 52.3214Z" fill="#8F9192"/>
<path d="M102.996 23.2973C102.996 23.2973 106.748 36.0665 106.716 36.1618C106.684 36.257 110.876 49.2402 110.876 49.2402L111.701 45.3368L105.87 25.872L103.525 22.999L102.996 23.2973Z" fill="black"/>
<path d="M90.933 21.104C87.0841 23.4475 86.8844 27.0879 88.5971 31.2557C88.8808 31.9471 89.4262 33.1373 89.8055 33.9428C91.4617 37.462 94.8981 43.2055 94.8976 44.5493C94.8968 47.7098 92.0659 62.3825 92.0659 62.3825C92.0659 62.3825 107.412 64.2457 108.796 62.7966C110.181 61.3475 111.247 52.308 110.802 48.2627C110.311 43.7996 108.011 36.2503 107.079 33.4562C106.519 31.7751 104.667 27.5876 102.459 24.8433C100.807 22.7914 98.8405 21.0142 96.6368 19.5705L93.3708 17.4304L92.6969 19.6964C92.6969 19.6964 91.7982 20.5774 90.933 21.104Z" fill="#064677"/>
<path d="M105.87 22.1221C106.186 22.1049 120.213 26.7057 119.403 26.3667L119.777 25.9761L124.832 18.3567L129.436 21.0867C129.436 21.0867 124.868 29.8153 124.113 31.1826C123.437 32.4077 122.132 33.3898 120.392 33.3869C119.363 33.3852 110.578 31.9168 110.578 31.9168L105.87 22.1221Z" fill="#064677"/>
<path d="M111.513 16.8795L112.599 14.958L117.484 17.7366L116.722 19.8524L111.513 16.8795Z" fill="white"/>
<path d="M108.796 39.0055C108.796 39.0055 108.786 39.0026 108.765 38.9967C108.674 38.6699 108.582 38.3481 108.491 38.0334L108.796 39.0055Z" fill="#CC4341"/>
<path d="M108.766 38.9966C108.421 38.8989 105.277 38.0074 102.454 37.3541C99.4624 36.6615 90.0234 31.4041 90.0234 31.4041L99.2573 29.7373L107.451 34.7185L108.492 38.0334C108.582 38.348 108.674 38.6698 108.766 38.9966Z" fill="#20353D"/>
<path d="M90.0239 31.4041C89.9073 31.3156 104.171 36.3879 107.077 35.4733C109.982 34.5591 110.926 31.6773 111.965 29.9051C113.867 26.6603 117.237 20.2115 117.237 20.2115L111.187 16.7587L105.176 26.8143C105.176 26.8143 94.558 22.4368 93.5795 22.1511C92.6006 21.8654 89.577 21.4735 88.098 25.0073C86.4587 28.9229 90.0239 31.4041 90.0239 31.4041Z" fill="#064677"/>
<path d="M90.0231 31.4041C90.029 31.4066 89.982 31.3853 89.9166 31.3341C89.8482 31.2846 89.7479 31.2078 89.6233 31.0983C89.3745 30.8801 89.0149 30.5386 88.6381 30.0196C88.2667 29.5032 87.8723 28.7946 87.7003 27.8804C87.6411 27.6551 87.6441 27.4126 87.6214 27.1651C87.6072 26.9167 87.6437 26.6603 87.655 26.3956C87.7129 26.1376 87.7452 25.8636 87.8304 25.5964C87.9311 25.335 87.9928 25.0485 88.1329 24.7867C88.3624 24.2412 88.7077 23.7097 89.1491 23.2272C89.5947 22.7481 90.1809 22.3508 90.8598 22.1247C91.5362 21.8931 92.2973 21.8415 93.0546 21.9552C93.4344 22.0047 93.8145 22.1326 94.1745 22.2753C94.5391 22.415 94.9092 22.5576 95.2852 22.7024C98.2806 23.8821 101.616 25.2448 105.215 26.7195L105.088 26.7619C106.946 23.6484 108.977 20.2476 111.093 16.7029L111.148 16.611L111.24 16.6643C111.931 17.0582 112.671 17.4799 113.416 17.9049C114.743 18.663 116.053 19.411 117.29 20.1171L117.381 20.1691L117.333 20.2619C116.144 22.5261 114.974 24.7183 113.823 26.8152C113.247 27.8632 112.676 28.8873 112.097 29.8783C111.525 30.8608 111.073 31.8954 110.465 32.8146C109.875 33.7402 109.116 34.549 108.205 35.0735C107.742 35.3202 107.281 35.5455 106.763 35.6331C106.253 35.7011 105.756 35.6684 105.273 35.6243C103.344 35.4104 101.605 34.9568 100.026 34.5499C96.8733 33.7041 94.3818 32.8826 92.6665 32.3158C90.9534 31.744 90.0231 31.4041 90.0231 31.4041C90.0219 31.3957 90.0848 31.4121 90.2002 31.4465C90.3244 31.4851 90.4952 31.538 90.7146 31.6064C91.1745 31.754 91.8383 31.9667 92.6913 32.2399C94.4133 32.7832 96.9111 33.5828 100.063 34.4081C101.64 34.8054 103.382 35.2493 105.29 35.4523C105.766 35.4943 106.257 35.5228 106.737 35.4565C107.205 35.3781 107.674 35.1519 108.113 34.9145C108.991 34.4043 109.725 33.6206 110.303 32.7089C110.898 31.804 111.344 30.7761 111.922 29.7763C112.497 28.787 113.066 27.7625 113.64 26.7149C114.786 24.6176 115.954 22.4246 117.141 20.1612L117.183 20.3055C115.945 19.5998 114.635 18.8522 113.307 18.0949C112.562 17.6699 111.823 17.2474 111.133 16.8535L111.28 16.8149C109.16 20.3567 107.126 23.7554 105.264 26.8668L105.218 26.9423L105.137 26.9087C101.542 25.4269 98.2101 24.0541 95.2218 22.863C94.8475 22.717 94.4787 22.5736 94.1158 22.4322C93.7516 22.287 93.3995 22.1662 93.0295 22.1154C92.2969 22.0017 91.5597 22.0479 90.9072 22.2681C90.2514 22.4825 89.685 22.861 89.2494 23.3229C88.8185 23.7881 88.4765 24.3042 88.2474 24.8387C88.1073 25.095 88.0456 25.3744 87.9445 25.6304C87.8585 25.8913 87.8258 26.1582 87.7658 26.4107C87.7532 26.6687 87.7146 26.9196 87.7263 27.1621C87.7465 27.4042 87.7406 27.6417 87.7964 27.8632C87.955 28.7602 88.3339 29.4633 88.693 29.9806C89.0568 30.5004 89.4059 30.8474 89.6463 31.0723C89.7663 31.186 89.8624 31.2665 89.927 31.3206C89.9711 31.3588 89.998 31.3823 90.0231 31.4041Z" fill="#17282F"/>
<path d="M96.8828 52.8961L98.2045 50.2207L107.451 50.3831L106.423 53.1504L96.8828 52.8961Z" fill="#064677"/>
<path d="M96.8827 52.8961C96.8881 52.8928 96.957 52.8911 97.0841 52.8911C97.2314 52.8919 97.4126 52.8928 97.6337 52.8945C98.1335 52.9003 98.8115 52.9087 99.6473 52.9192C101.354 52.9419 103.716 52.9767 106.426 53.0442L106.323 53.1135C106.635 52.271 106.964 51.3828 107.302 50.4695C107.318 50.4271 107.333 50.3856 107.348 50.3449L107.449 50.4921C103.727 50.4263 100.402 50.3528 98.2031 50.2912L98.2677 50.2517C97.8507 51.056 97.5142 51.7042 97.2683 52.1783C97.1554 52.3918 97.0635 52.5655 96.9897 52.7052C96.9246 52.8269 96.8881 52.8928 96.8827 52.8961C96.8768 52.8995 96.9016 52.8412 96.9549 52.7237C97.0182 52.5852 97.0975 52.4124 97.1949 52.2005C97.4277 51.7059 97.7458 51.0287 98.141 50.1892L98.1595 50.1494L98.2056 50.1498C100.405 50.1653 103.731 50.2085 107.452 50.2735L107.607 50.2765L107.553 50.4212C107.538 50.4615 107.523 50.5035 107.507 50.5454C107.167 51.4579 106.836 52.3457 106.523 53.1877L106.496 53.259L106.42 53.2569C103.656 53.1785 101.249 53.0858 99.5533 53.0182C98.7314 52.9842 98.0647 52.9565 97.5733 52.9364C97.3635 52.9263 97.1915 52.9179 97.0518 52.9112C96.9351 52.9041 96.8772 52.8995 96.8827 52.8961Z" fill="#17282F"/>
<path d="M103.056 25.6346C103.026 25.687 100.682 24.4003 97.8224 22.7607C94.9616 21.1203 92.6674 19.7483 92.6976 19.6963C92.7274 19.6439 95.0703 20.9306 97.9311 22.5706C100.791 24.2102 103.086 25.5821 103.056 25.6346Z" fill="#17282F"/>
<path d="M106.253 45.8235C106.249 45.8835 104.021 45.7899 101.278 45.6145C98.5335 45.4387 96.3122 45.2474 96.3164 45.187C96.3202 45.1266 98.5474 45.2206 101.292 45.3964C104.035 45.5717 106.257 45.763 106.253 45.8235Z" fill="#17282F"/>
<path d="M125.121 18.5602L126.05 16.992L129.744 19.1489L129.025 20.8501L125.121 18.5602Z" fill="white"/>
<path d="M120.365 29.5922C120.327 29.632 119.774 29.0564 119.464 28.1431C119.145 27.2322 119.228 26.4385 119.282 26.4464C119.348 26.4452 119.366 27.2045 119.67 28.0722C119.964 28.9427 120.418 29.5523 120.365 29.5922Z" fill="#17282F"/>
<path d="M111.33 31.0879C111.388 31.0715 111.778 32.2445 112.2 33.7079C112.623 35.1717 112.918 36.3716 112.86 36.3884C112.802 36.4047 112.413 35.2321 111.99 33.7683C111.568 32.305 111.273 31.1051 111.33 31.0879Z" fill="#17282F"/>
<path d="M105.668 29.9945C105.63 30.0348 105.107 29.4159 104.952 28.4606C104.786 27.5066 105.078 26.751 105.126 26.7766C105.192 26.7908 105.009 27.528 105.167 28.4246C105.312 29.3228 105.725 29.9597 105.668 29.9945Z" fill="#17282F"/>
<path d="M107.035 53.992L97.46 53.7218L97.6181 52.9381C98.1044 52.9582 98.7561 52.9851 99.5529 53.0182C101.248 53.0858 103.656 53.1785 106.42 53.257L106.496 53.2591L106.522 53.1877C106.802 52.4355 107.096 51.6463 107.398 50.8358L107.035 53.992Z" fill="#20353D"/>
<path d="M106.496 53.259L106.42 53.2569C103.656 53.1785 101.248 53.0858 99.5529 53.0182C98.7561 52.9851 98.1045 52.9582 97.6182 52.9381L97.6232 52.9116L106.423 53.1504L107.45 50.3831L107.398 50.8357C107.096 51.6463 106.802 52.4355 106.522 53.1877L106.496 53.259Z" fill="#0F191D"/>
<path d="M101.835 22.4418L101.936 22.5505L102.996 23.2973L103.525 22.999L103.179 21.8285L102.062 20.9919L101.835 22.4418Z" fill="black"/>
<path d="M103.264 20.9919C103.292 20.9868 103.38 21.3678 103.5 22.0025L103.534 22.1813L103.382 22.0739C103.012 21.8142 102.534 21.4697 102 21.0758L102.166 21.0078C102.115 21.3372 102.062 21.6862 102.007 22.0487C101.973 22.2656 101.939 22.4775 101.906 22.6822L101.883 22.8265L101.753 22.7623C100.949 22.368 100.245 22.0122 99.7452 21.7491C99.2463 21.4861 98.9505 21.3153 98.9623 21.2914C98.974 21.2667 99.2912 21.3929 99.8073 21.6216C100.323 21.8502 101.038 22.1821 101.846 22.5685L101.693 22.6486C101.725 22.4443 101.758 22.2316 101.791 22.0151C101.849 21.6531 101.906 21.304 101.959 20.9751L101.987 20.8022L102.125 20.908C102.654 21.3107 103.118 21.6724 103.472 21.9543L103.353 22.0256C103.271 21.385 103.235 20.9961 103.264 20.9919Z" fill="#17282F"/>
</g>
<defs>
<clipPath id="clip0_998_12764">
<rect width="203" height="195" fill="white"/>
</clipPath>
</defs>
</svg>
