<svg width="238" height="186" viewBox="0 0 238 186" fill="none" xmlns="http://www.w3.org/2000/svg">
<g clip-path="url(#clip0_998_8523)">
<rect width="238" height="186" fill="white"/>
<path d="M-30 167.132H267V166.976H-30V167.132Z" fill="#E7E8E5"/>
<path d="M217.566 177.002H237.241V177.158H217.566V177.002Z" fill="#E7E8E5"/>
<path d="M161.58 178.848H166.744V178.693H161.58V178.848Z" fill="#E7E8E5"/>
<path d="M205.572 171.374H216.972V171.218H205.572V171.374Z" fill="#E7E8E5"/>
<path d="M1.16016 172.42H26.817V172.265H1.16016V172.42Z" fill="#E7E8E5"/>
<path d="M32.1074 172.42H35.8693V172.265H32.1074V172.42Z" fill="#E7E8E5"/>
<path d="M48.0938 175.05H103.737V174.895H48.0938V175.05Z" fill="#E7E8E5"/>
<path d="M-3.91206 -36.8444C-5.69983 -36.8444 -7.15423 -35.3195 -7.15423 -33.4451V135.638C-7.15423 137.513 -5.69983 139.038 -3.91206 139.038H110.789C112.576 139.038 114.03 137.513 114.03 135.638V-33.4451C114.03 -35.3195 112.576 -36.8444 110.789 -36.8444H-3.91206ZM110.789 139.194H-3.91206C-5.78174 139.194 -7.30273 137.599 -7.30273 135.638V-33.4451C-7.30273 -35.4048 -5.78174 -37.0002 -3.91206 -37.0002H110.789C112.657 -37.0002 114.179 -35.4048 114.179 -33.4451V135.638C114.179 137.599 112.657 139.194 110.789 139.194Z" fill="#E7E8E5"/>
<path d="M124.568 -36.8444C122.78 -36.8444 121.326 -35.3195 121.326 -33.4451V135.638C121.326 137.513 122.78 139.038 124.568 139.038H239.268C241.056 139.038 242.511 137.513 242.511 135.638V-33.4451C242.511 -35.3195 241.056 -36.8444 239.268 -36.8444H124.568ZM239.268 139.194H124.568C122.698 139.194 121.178 137.599 121.178 135.638V-33.4451C121.178 -35.4048 122.698 -37.0002 124.568 -37.0002H239.268C241.138 -37.0002 242.659 -35.4048 242.659 -33.4451V135.638C242.659 137.599 241.138 139.194 239.268 139.194Z" fill="#E7E8E5"/>
<path d="M231.984 167.132V137.358H229.557V123.172H226.007L226.008 73.8467H220.878V67.4822L209.925 62.1256V55.7082H208.408V73.8467H206.284V123.172H204.159V97.2364H198.394V83.8715H196.786V123.172H192.407V108.215H189.524V104.396H182.848V91.3491H179.192V82.1211H174.698V68.6757H173.094V82.1211H168.6V91.3491H164.945V104.396H158.269V108.215H155.386V123.172H151.967V104.396H145.291V63.982H143.167V59.5268H128.905V63.982H125.871V93.2584H113.733V96.1226H109.181V98.3502H113.733V109.807H100.988V71.6197H98.2569V63.5048H92.3401V34.7055H90.671V63.5048H86.4227V71.6197H61.5174V68.9486H59.9998V87.0871H57.8756V87.4054H56.5997V105.544H54.4762V110.477H49.9861V97.1112H48.3776V128.934H46.5861V115.569H44.9775V136.412H43.9986V121.455H41.1159V117.637H34.4399V104.59H30.7839V95.3608H26.2903V81.9161H24.6865V95.3608H20.1925V104.59H16.5367V117.637H9.86088V121.455H6.97814V136.093H6.46094V136.412H5.0332V167.132H231.984Z" fill="#EDEDEB"/>
<path d="M75.4121 75.207H77.1317V73.4037H75.4121V75.207Z" fill="#FAFAF9"/>
<path d="M75.4121 78.2302H77.1317V76.4268H75.4121V78.2302Z" fill="#FAFAF9"/>
<path d="M75.4121 90.3225H77.1317V88.5198H75.4121V90.3225Z" fill="#FAFAF9"/>
<path d="M75.4121 93.3463H77.1317V91.5429H75.4121V93.3463Z" fill="#FAFAF9"/>
<path d="M75.4121 96.3693H77.1317V94.5659H75.4121V96.3693Z" fill="#FAFAF9"/>
<path d="M75.4121 105.438H77.1317V103.635H75.4121V105.438Z" fill="#FAFAF9"/>
<path d="M75.4121 108.462H77.1317V106.658H75.4121V108.462Z" fill="#FAFAF9"/>
<path d="M78.1445 87.2994H79.8642V85.4961H78.1445V87.2994Z" fill="#FAFAF9"/>
<path d="M78.1445 90.3225H79.8642V88.5198H78.1445V90.3225Z" fill="#FAFAF9"/>
<path d="M78.1445 93.3463H79.8642V91.5429H78.1445V93.3463Z" fill="#FAFAF9"/>
<path d="M78.1445 96.3693H79.8642V94.5659H78.1445V96.3693Z" fill="#FAFAF9"/>
<path d="M78.1445 99.3922H79.8642V97.5888H78.1445V99.3922Z" fill="#FAFAF9"/>
<path d="M78.1445 105.438H79.8642V103.635H78.1445V105.438Z" fill="#FAFAF9"/>
<path d="M78.1445 108.462H79.8642V106.658H78.1445V108.462Z" fill="#FAFAF9"/>
<path d="M80.875 75.207H82.594V73.4037H80.875V75.207Z" fill="#FAFAF9"/>
<path d="M80.875 78.2302H82.594V76.4268H80.875V78.2302Z" fill="#FAFAF9"/>
<path d="M80.875 81.2532H82.5946V79.4498H80.8756L80.875 81.2532Z" fill="#FAFAF9"/>
<path d="M80.875 84.2764H82.5946V82.473H80.875V84.2764Z" fill="#FAFAF9"/>
<path d="M80.875 87.2994H82.5946V85.4961H80.875V87.2994Z" fill="#FAFAF9"/>
<path d="M80.875 90.3225H82.5946V88.5198H80.875V90.3225Z" fill="#FAFAF9"/>
<path d="M80.875 93.3463H82.5946V91.5429H80.875V93.3463Z" fill="#FAFAF9"/>
<path d="M80.875 96.3693H82.5946V94.5659H80.875V96.3693Z" fill="#FAFAF9"/>
<path d="M80.875 99.3922H82.5946V97.5888H80.875V99.3922Z" fill="#FAFAF9"/>
<path d="M80.875 102.415H82.5946V100.612H80.875V102.415Z" fill="#FAFAF9"/>
<path d="M80.875 108.462H82.5946V106.658H80.875V108.462Z" fill="#FAFAF9"/>
<path d="M83.6035 75.207H85.3231V73.4037H83.6035V75.207Z" fill="#FAFAF9"/>
<path d="M83.6035 78.2302H85.3231V76.4268H83.6035V78.2302Z" fill="#FAFAF9"/>
<path d="M83.6035 81.2532H85.3231V79.4498H83.6035V81.2532Z" fill="#FAFAF9"/>
<path d="M83.6035 84.2764H85.3231V82.473H83.6035V84.2764Z" fill="#FAFAF9"/>
<path d="M83.6035 87.2994H85.3231V85.4961H83.6035V87.2994Z" fill="#FAFAF9"/>
<path d="M83.6035 90.3225H85.3231V88.5198H83.6035V90.3225Z" fill="#FAFAF9"/>
<path d="M83.6035 93.3463H85.3231V91.5429H83.6035V93.3463Z" fill="#FAFAF9"/>
<path d="M83.6035 120.554H85.3231V118.75H83.6035V120.554Z" fill="#FAFAF9"/>
<path d="M86.3379 75.207H88.0575V73.4037H86.3379V75.207Z" fill="#FAFAF9"/>
<path d="M86.3379 78.2302H88.0575V76.4268H86.3379V78.2302Z" fill="#FAFAF9"/>
<path d="M86.3379 81.2532H88.0575V79.4498H86.3379V81.2532Z" fill="#FAFAF9"/>
<path d="M86.3379 84.2764H88.0575V82.473H86.3379V84.2764Z" fill="#FAFAF9"/>
<path d="M86.3379 87.2994H88.0575V85.4961H86.3379V87.2994Z" fill="#FAFAF9"/>
<path d="M86.3379 90.3225H88.0575V88.5198H86.3379V90.3225Z" fill="#FAFAF9"/>
<path d="M86.3379 93.3463H88.0575V91.5429H86.3379V93.3463Z" fill="#FAFAF9"/>
<path d="M86.3379 96.3693H88.0575V94.5659H86.3379V96.3693Z" fill="#FAFAF9"/>
<path d="M86.3379 114.508H88.0575V112.704H86.3379V114.508Z" fill="#FAFAF9"/>
<path d="M86.3379 117.531H88.0575V115.728H86.3379V117.531Z" fill="#FAFAF9"/>
<path d="M86.3379 120.554H88.0575V118.75H86.3379V120.554Z" fill="#FAFAF9"/>
<path d="M86.3379 123.577H88.057V121.774H86.3379V123.577Z" fill="#FAFAF9"/>
<path d="M86.3379 135.67H88.057V133.867H86.3379V135.67Z" fill="#FAFAF9"/>
<path d="M89.0684 75.207H90.7874V73.4037H89.0684V75.207Z" fill="#FAFAF9"/>
<path d="M89.0684 78.2302H90.7874V76.4268H89.0684V78.2302Z" fill="#FAFAF9"/>
<path d="M89.0684 81.2532H90.7874V79.4498H89.0684V81.2532Z" fill="#FAFAF9"/>
<path d="M89.0684 84.2764H90.7874V82.473H89.0684V84.2764Z" fill="#FAFAF9"/>
<path d="M89.0684 87.2994H90.7874V85.4961H89.0684V87.2994Z" fill="#FAFAF9"/>
<path d="M89.0684 90.3225H90.7874V88.5198H89.0684V90.3225Z" fill="#FAFAF9"/>
<path d="M89.0684 93.3463H90.7874V91.5429H89.0684V93.3463Z" fill="#FAFAF9"/>
<path d="M89.0684 96.3693H90.7874V94.5659H89.0684V96.3693Z" fill="#FAFAF9"/>
<path d="M89.0684 99.3922H90.7874V97.5888H89.0684V99.3922Z" fill="#FAFAF9"/>
<path d="M89.0684 102.415H90.7874V100.612H89.0684V102.415Z" fill="#FAFAF9"/>
<path d="M89.0684 111.485H90.7874V109.681H89.0684V111.485Z" fill="#FAFAF9"/>
<path d="M89.0684 114.508H90.7874V112.704H89.0684V114.508Z" fill="#FAFAF9"/>
<path d="M89.0684 117.531H90.7874V115.728H89.0684V117.531Z" fill="#FAFAF9"/>
<path d="M89.0664 120.554H90.786V118.751H89.0664V120.554Z" fill="#FAFAF9"/>
<path d="M89.0664 123.577H90.786V121.774H89.0664V123.577Z" fill="#FAFAF9"/>
<path d="M89.0664 135.67H90.786V133.867H89.0664V135.67Z" fill="#FAFAF9"/>
<path d="M91.7988 75.207H93.5185V73.4037H91.7988V75.207Z" fill="#FAFAF9"/>
<path d="M91.7988 78.2302H93.5185V76.4268H91.7988V78.2302Z" fill="#FAFAF9"/>
<path d="M91.7988 81.2532H93.5185V79.4498H91.7988V81.2532Z" fill="#FAFAF9"/>
<path d="M91.7988 84.2764H93.5185V82.473H91.7988V84.2764Z" fill="#FAFAF9"/>
<path d="M91.7988 87.2994H93.5185V85.4961H91.7988V87.2994Z" fill="#FAFAF9"/>
<path d="M91.7988 90.3225H93.5185V88.5198H91.7988V90.3225Z" fill="#FAFAF9"/>
<path d="M91.7988 93.3463H93.5185V91.5429H91.7988V93.3463Z" fill="#FAFAF9"/>
<path d="M91.7988 96.3693H93.5185V94.5659H91.7988V96.3693Z" fill="#FAFAF9"/>
<path d="M91.7988 99.3922H93.5185V97.5888H91.7988V99.3922Z" fill="#FAFAF9"/>
<path d="M91.7988 102.415H93.5185V100.612H91.7988V102.415Z" fill="#FAFAF9"/>
<path d="M91.7988 105.438H93.5185V103.635H91.7988V105.438Z" fill="#FAFAF9"/>
<path d="M91.7988 108.462H93.5185V106.658H91.7988V108.462Z" fill="#FAFAF9"/>
<path d="M91.7988 111.485H93.5185V109.681H91.7988V111.485Z" fill="#FAFAF9"/>
<path d="M91.7988 114.508H93.5185V112.704H91.7988V114.508Z" fill="#FAFAF9"/>
<path d="M91.7988 117.531H93.5185V115.728H91.7988V117.531Z" fill="#FAFAF9"/>
<path d="M91.7988 120.554H93.5186V118.751H91.7988V120.554Z" fill="#FAFAF9"/>
<path d="M91.7988 123.577H93.5186V121.774H91.7988V123.577Z" fill="#FAFAF9"/>
<path d="M91.7988 126.6H93.5186V124.797H91.7988V126.6Z" fill="#FAFAF9"/>
<path d="M94.5293 75.207H96.2489V73.4037H94.5293V75.207Z" fill="#FAFAF9"/>
<path d="M94.5293 78.2302H96.2489V76.4268H94.5293V78.2302Z" fill="#FAFAF9"/>
<path d="M94.5293 81.2532H96.2489V79.4498H94.5293V81.2532Z" fill="#FAFAF9"/>
<path d="M94.5293 84.2764H96.2489V82.473H94.5293V84.2764Z" fill="#FAFAF9"/>
<path d="M94.5293 87.2994H96.2489V85.4961H94.5293V87.2994Z" fill="#FAFAF9"/>
<path d="M94.5293 90.3225H96.2489V88.5198H94.5293V90.3225Z" fill="#FAFAF9"/>
<path d="M94.5293 93.3463H96.2489V91.5429H94.5293V93.3463Z" fill="#FAFAF9"/>
<path d="M94.5293 96.3693H96.2489V94.5659H94.5293V96.3693Z" fill="#FAFAF9"/>
<path d="M94.5293 99.3922H96.2489V97.5888H94.5293V99.3922Z" fill="#FAFAF9"/>
<path d="M94.5293 102.415H96.2489V100.612H94.5293V102.415Z" fill="#FAFAF9"/>
<path d="M94.5293 111.485H96.2489V109.681H94.5293V111.485Z" fill="#FAFAF9"/>
<path d="M94.5293 114.508H96.2489V112.704H94.5293V114.508Z" fill="#FAFAF9"/>
<path d="M94.5293 117.531H96.2489V115.728H94.5293V117.531Z" fill="#FAFAF9"/>
<path d="M94.5293 120.554H96.2491V118.751H94.5293V120.554Z" fill="#FAFAF9"/>
<path d="M97.2617 75.207H98.9808V73.4037H97.2617V75.207Z" fill="#FAFAF9"/>
<path d="M97.2617 78.2302H98.9808V76.4268H97.2617V78.2302Z" fill="#FAFAF9"/>
<path d="M97.2617 81.2532H98.9813V79.4498H97.2623L97.2617 81.2532Z" fill="#FAFAF9"/>
<path d="M97.2617 84.2764H98.9813V82.473H97.2617V84.2764Z" fill="#FAFAF9"/>
<path d="M97.2617 87.2994H98.9813V85.4961H97.2617V87.2994Z" fill="#FAFAF9"/>
<path d="M97.2617 90.3225H98.9813V88.5198H97.2617V90.3225Z" fill="#FAFAF9"/>
<path d="M97.2617 93.3463H98.9813V91.5429H97.2617V93.3463Z" fill="#FAFAF9"/>
<path d="M97.2617 96.3693H98.9813V94.5659H97.2617V96.3693Z" fill="#FAFAF9"/>
<path d="M97.2617 99.3922H98.9813V97.5888H97.2617V99.3922Z" fill="#FAFAF9"/>
<path d="M97.2617 102.415H98.9813V100.612H97.2617V102.415Z" fill="#FAFAF9"/>
<path d="M97.2617 111.485H98.9813V109.681H97.2617V111.485Z" fill="#FAFAF9"/>
<path d="M97.2617 114.508H98.9813V112.704H97.2617V114.508Z" fill="#FAFAF9"/>
<path d="M97.2617 117.531H98.9813V115.728H97.2617V117.531Z" fill="#FAFAF9"/>
<path d="M128.012 67.3575H129.731V65.5542H128.012V67.3575Z" fill="#FAFAF9"/>
<path d="M128.012 70.3807H129.731V68.5774H128.012V70.3807Z" fill="#FAFAF9"/>
<path d="M128.012 73.4038H129.731V71.6005H128.012V73.4038Z" fill="#FAFAF9"/>
<path d="M128.012 76.4268H129.731V74.6234H128.012V76.4268Z" fill="#FAFAF9"/>
<path d="M128.012 79.4497H129.731V77.6469H128.012V79.4497Z" fill="#FAFAF9"/>
<path d="M128.012 82.4729H129.731V80.6701H128.012L128.012 82.4729Z" fill="#FAFAF9"/>
<path d="M128.012 85.4961H129.731V83.6933H128.012V85.4961Z" fill="#FAFAF9"/>
<path d="M128.012 88.5198H129.731V86.7164H128.012V88.5198Z" fill="#FAFAF9"/>
<path d="M128.012 97.589H129.731V95.7857H128.012V97.589Z" fill="#FAFAF9"/>
<path d="M128.012 100.612H129.731V98.8088H128.012V100.612Z" fill="#FAFAF9"/>
<path d="M130.74 67.3575H132.46V65.5542H130.74V67.3575Z" fill="#FAFAF9"/>
<path d="M130.74 70.3807H132.46V68.5774H130.74V70.3807Z" fill="#FAFAF9"/>
<path d="M130.74 73.4038H132.46V71.6005H130.74V73.4038Z" fill="#FAFAF9"/>
<path d="M130.74 76.4268H132.46V74.6234H130.74V76.4268Z" fill="#FAFAF9"/>
<path d="M130.74 79.4497H132.46V77.6469H130.74V79.4497Z" fill="#FAFAF9"/>
<path d="M130.74 82.4729H132.46V80.6701H130.74V82.4729Z" fill="#FAFAF9"/>
<path d="M130.74 85.4961H132.46V83.6933H130.74V85.4961Z" fill="#FAFAF9"/>
<path d="M130.74 88.5198H132.46V86.7164H130.74V88.5198Z" fill="#FAFAF9"/>
<path d="M130.74 100.612H132.46V98.8088H130.74V100.612Z" fill="#FAFAF9"/>
<path d="M133.471 67.3575H135.19V65.5542H133.471V67.3575Z" fill="#FAFAF9"/>
<path d="M133.471 70.3807H135.191V68.5774H133.471V70.3807Z" fill="#FAFAF9"/>
<path d="M133.471 73.4038H135.191V71.6005H133.471V73.4038Z" fill="#FAFAF9"/>
<path d="M133.471 76.4268H135.191V74.6234H133.471V76.4268Z" fill="#FAFAF9"/>
<path d="M133.471 79.4497H135.19V77.6469H133.471V79.4497Z" fill="#FAFAF9"/>
<path d="M133.471 82.4729H135.19V80.6701H133.471V82.4729Z" fill="#FAFAF9"/>
<path d="M133.471 85.4961H135.19V83.6933H133.471V85.4961Z" fill="#FAFAF9"/>
<path d="M133.471 88.5198H135.19V86.7164H133.471V88.5198Z" fill="#FAFAF9"/>
<path d="M136.203 67.3575H137.923V65.5542H136.203V67.3575Z" fill="#FAFAF9"/>
<path d="M136.203 70.3807H137.923V68.5774H136.203V70.3807Z" fill="#FAFAF9"/>
<path d="M136.203 73.4038H137.923V71.6005H136.203V73.4038Z" fill="#FAFAF9"/>
<path d="M136.203 76.4268H137.923V74.6234H136.203V76.4268Z" fill="#FAFAF9"/>
<path d="M136.203 79.4497H137.923V77.6469H136.203V79.4497Z" fill="#FAFAF9"/>
<path d="M136.203 82.4729H137.923V80.6701H136.203V82.4729Z" fill="#FAFAF9"/>
<path d="M136.203 88.5198H137.923V86.7164H136.203V88.5198Z" fill="#FAFAF9"/>
<path d="M136.203 91.5428H137.923V89.7395H136.203V91.5428Z" fill="#FAFAF9"/>
<path d="M136.203 100.612H137.923V98.8088H136.203V100.612Z" fill="#FAFAF9"/>
<path d="M136.203 103.635H137.923V101.832H136.203V103.635Z" fill="#FAFAF9"/>
<path d="M136.203 106.658H137.923V104.855H136.203V106.658Z" fill="#FAFAF9"/>
<path d="M136.203 109.681H137.923V107.878H136.203V109.681Z" fill="#FAFAF9"/>
<path d="M136.203 112.704H137.923V110.901H136.203V112.704Z" fill="#FAFAF9"/>
<path d="M136.203 115.727H137.923V113.924H136.203V115.727Z" fill="#FAFAF9"/>
<path d="M136.203 118.75H137.923V116.947H136.203V118.75Z" fill="#FAFAF9"/>
<path d="M138.934 67.3575H140.653V65.5542H138.934V67.3575Z" fill="#FAFAF9"/>
<path d="M138.934 70.3807H140.653V68.5774H138.934V70.3807Z" fill="#FAFAF9"/>
<path d="M138.934 73.4038H140.653V71.6005H138.934V73.4038Z" fill="#FAFAF9"/>
<path d="M138.934 76.4268H140.653V74.6234H138.934V76.4268Z" fill="#FAFAF9"/>
<path d="M138.934 79.4497H140.653V77.6469H138.934V79.4497Z" fill="#FAFAF9"/>
<path d="M138.934 82.4729H140.653V80.6701H138.934V82.4729Z" fill="#FAFAF9"/>
<path d="M138.934 91.5428H140.653V89.7395H138.934V91.5428Z" fill="#FAFAF9"/>
<path d="M138.934 94.5659H140.653V92.7626H138.934V94.5659Z" fill="#FAFAF9"/>
<path d="M138.934 97.589H140.653V95.7857H138.934V97.589Z" fill="#FAFAF9"/>
<path d="M138.934 100.612H140.653V98.8088H138.934V100.612Z" fill="#FAFAF9"/>
<path d="M138.934 103.635H140.653V101.832H138.934V103.635Z" fill="#FAFAF9"/>
<path d="M138.934 106.658H140.653V104.855H138.934V106.658Z" fill="#FAFAF9"/>
<path d="M138.934 109.681H140.653V107.878H138.934V109.681Z" fill="#FAFAF9"/>
<path d="M138.934 112.704H140.653V110.901H138.934V112.704Z" fill="#FAFAF9"/>
<path d="M138.934 115.727H140.653V113.924H138.934V115.727Z" fill="#FAFAF9"/>
<path d="M138.934 118.75H140.653V116.947H138.934V118.75Z" fill="#FAFAF9"/>
<path d="M138.934 121.774H140.653V119.971H138.934V121.774Z" fill="#FAFAF9"/>
<path d="M138.934 127.82H140.653V126.017H138.934V127.82Z" fill="#FAFAF9"/>
<path d="M141.666 67.3575H143.386V65.5542H141.666V67.3575Z" fill="#FAFAF9"/>
<path d="M141.666 70.3807H143.386V68.5774H141.666V70.3807Z" fill="#FAFAF9"/>
<path d="M141.666 73.4038H143.386V71.6005H141.666V73.4038Z" fill="#FAFAF9"/>
<path d="M141.666 76.4268H143.386V74.6234H141.666V76.4268Z" fill="#FAFAF9"/>
<path d="M141.666 79.4497H143.386V77.6469H141.666V79.4497Z" fill="#FAFAF9"/>
<path d="M141.666 82.4729H143.386V80.6701H141.666V82.4729Z" fill="#FAFAF9"/>
<path d="M141.666 91.5428H143.386V89.7395H141.666V91.5428Z" fill="#FAFAF9"/>
<path d="M141.666 94.5659H143.386V92.7626H141.666V94.5659Z" fill="#FAFAF9"/>
<path d="M141.666 97.589H143.386V95.7857H141.666V97.589Z" fill="#FAFAF9"/>
<path d="M141.666 100.612H143.386V98.8088H141.666V100.612Z" fill="#FAFAF9"/>
<path d="M141.666 109.681H143.386V107.878H141.666V109.681Z" fill="#FAFAF9"/>
<path d="M141.666 112.704H143.386V110.901H141.666V112.704Z" fill="#FAFAF9"/>
<path d="M141.666 115.727H143.386V113.924H141.666V115.727Z" fill="#FAFAF9"/>
<path d="M141.666 118.75H143.386V116.947H141.666V118.75Z" fill="#FAFAF9"/>
<path d="M141.666 121.774H143.386V119.971H141.666V121.774Z" fill="#FAFAF9"/>
<path d="M141.666 127.82H143.386V126.017H141.666V127.82Z" fill="#FAFAF9"/>
<path d="M141.666 130.844H143.386V129.04H141.666V130.844Z" fill="#FAFAF9"/>
<path d="M166.447 95.4673H168.167V93.6639H166.447V95.4673Z" fill="#FAFAF9"/>
<path d="M166.447 98.4902H168.167V96.6869H166.447V98.4902Z" fill="#FAFAF9"/>
<path d="M166.447 101.513H168.167V99.7107H166.447V101.513Z" fill="#FAFAF9"/>
<path d="M166.447 104.537H168.167V102.734H166.447V104.537Z" fill="#FAFAF9"/>
<path d="M166.447 107.56H168.167V105.757H166.447V107.56Z" fill="#FAFAF9"/>
<path d="M166.447 110.583H168.167V108.78H166.447V110.583Z" fill="#FAFAF9"/>
<path d="M166.447 113.606H168.167V111.803H166.447V113.606Z" fill="#FAFAF9"/>
<path d="M166.447 122.676H168.167V120.872H166.447V122.676Z" fill="#FAFAF9"/>
<path d="M166.447 125.699H168.167V123.895H166.447V125.699Z" fill="#FAFAF9"/>
<path d="M166.447 128.722H168.167V126.918H166.447V128.722Z" fill="#FAFAF9"/>
<path d="M169.18 95.4673H170.899V93.6639H169.18V95.4673Z" fill="#FAFAF9"/>
<path d="M169.18 98.4902H170.899V96.6869H169.18V98.4902Z" fill="#FAFAF9"/>
<path d="M169.18 101.513H170.899V99.7107H169.18V101.513Z" fill="#FAFAF9"/>
<path d="M169.18 104.537H170.899V102.734H169.18V104.537Z" fill="#FAFAF9"/>
<path d="M169.18 107.56H170.899V105.757H169.18V107.56Z" fill="#FAFAF9"/>
<path d="M169.18 110.583H170.899V108.78H169.18V110.583Z" fill="#FAFAF9"/>
<path d="M169.18 113.606H170.899V111.803H169.18V113.606Z" fill="#FAFAF9"/>
<path d="M171.908 95.4673H173.628V93.6639H171.908V95.4673Z" fill="#FAFAF9"/>
<path d="M171.908 98.4902H173.628V96.6869H171.908V98.4902Z" fill="#FAFAF9"/>
<path d="M171.908 101.513H173.628V99.7107H171.908V101.513Z" fill="#FAFAF9"/>
<path d="M171.908 104.537H173.628V102.734H171.908V104.537Z" fill="#FAFAF9"/>
<path d="M171.908 107.56H173.628V105.757H171.908V107.56Z" fill="#FAFAF9"/>
<path d="M171.908 110.583H173.628V108.78H171.908V110.583Z" fill="#FAFAF9"/>
<path d="M171.908 113.606H173.628V111.803H171.908V113.606Z" fill="#FAFAF9"/>
<path d="M174.639 95.4673H176.358V93.6639H174.639V95.4673Z" fill="#FAFAF9"/>
<path d="M174.639 98.4902H176.358V96.6869H174.639V98.4902Z" fill="#FAFAF9"/>
<path d="M174.639 101.513H176.358V99.7107H174.639V101.513Z" fill="#FAFAF9"/>
<path d="M174.639 104.537H176.358V102.734H174.639V104.537Z" fill="#FAFAF9"/>
<path d="M174.639 107.56H176.358V105.757H174.639V107.56Z" fill="#FAFAF9"/>
<path d="M174.639 110.583H176.358V108.78H174.639V110.583Z" fill="#FAFAF9"/>
<path d="M174.639 113.606H176.358V111.803H174.639V113.606Z" fill="#FAFAF9"/>
<path d="M174.639 116.629H176.358V114.826H174.639V116.629Z" fill="#FAFAF9"/>
<path d="M174.639 119.652H176.358V117.849H174.639V119.652Z" fill="#FAFAF9"/>
<path d="M174.639 122.676H176.358V120.872H174.639V122.676Z" fill="#FAFAF9"/>
<path d="M174.639 125.699H176.358V123.895H174.639V125.699Z" fill="#FAFAF9"/>
<path d="M177.371 95.4673H179.091V93.6639H177.371V95.4673Z" fill="#FAFAF9"/>
<path d="M177.371 98.4902H179.091V96.6869H177.371V98.4902Z" fill="#FAFAF9"/>
<path d="M177.371 101.513H179.091V99.7107H177.371V101.513Z" fill="#FAFAF9"/>
<path d="M177.371 104.537H179.091V102.734H177.371V104.537Z" fill="#FAFAF9"/>
<path d="M177.371 107.56H179.091V105.757H177.371V107.56Z" fill="#FAFAF9"/>
<path d="M177.371 110.583H179.091V108.78H177.371V110.583Z" fill="#FAFAF9"/>
<path d="M177.371 113.606H179.091V111.803H177.371V113.606Z" fill="#FAFAF9"/>
<path d="M177.371 116.629H179.091V114.826H177.371V116.629Z" fill="#FAFAF9"/>
<path d="M177.371 119.652H179.091V117.849H177.371V119.652Z" fill="#FAFAF9"/>
<path d="M177.371 122.676H179.091V120.872H177.371V122.676Z" fill="#FAFAF9"/>
<path d="M177.371 125.699H179.091V123.895H177.371V125.699Z" fill="#FAFAF9"/>
<path d="M177.371 128.722H179.091V126.918H177.371V128.722Z" fill="#FAFAF9"/>
<path d="M177.371 137.791H179.091V135.988H177.371V137.791Z" fill="#FAFAF9"/>
<path d="M177.371 140.814H179.091V139.011H177.371V140.814Z" fill="#FAFAF9"/>
<path d="M180.102 95.4673H181.821V93.6639H180.102V95.4673Z" fill="#FAFAF9"/>
<path d="M180.102 98.4902H181.821V96.6869H180.102V98.4902Z" fill="#FAFAF9"/>
<path d="M180.102 101.513H181.821V99.7107H180.102V101.513Z" fill="#FAFAF9"/>
<path d="M180.102 110.583H181.821V108.78H180.102V110.583Z" fill="#FAFAF9"/>
<path d="M180.102 113.606H181.821V111.803H180.102V113.606Z" fill="#FAFAF9"/>
<path d="M180.102 116.629H181.821V114.826H180.102V116.629Z" fill="#FAFAF9"/>
<path d="M180.102 119.652H181.821V117.849H180.102V119.652Z" fill="#FAFAF9"/>
<path d="M180.102 122.676H181.821V120.872H180.102V122.676Z" fill="#FAFAF9"/>
<path d="M180.102 125.699H181.821V123.895H180.102V125.699Z" fill="#FAFAF9"/>
<path d="M180.102 128.722H181.821V126.918H180.102V128.722Z" fill="#FAFAF9"/>
<path d="M180.102 137.791H181.821V135.988H180.102V137.791Z" fill="#FAFAF9"/>
<path d="M180.102 140.814H181.821V139.011H180.102V140.814Z" fill="#FAFAF9"/>
<path d="M180.102 143.838H181.821V142.034H180.102V143.838Z" fill="#FAFAF9"/>
<path d="M208.727 77.3287H210.446V75.5254H208.727V77.3287Z" fill="#FAFAF9"/>
<path d="M208.727 80.3519H210.446V78.5485H208.727V80.3519Z" fill="#FAFAF9"/>
<path d="M208.727 83.375H210.446V81.5716H208.727V83.375Z" fill="#FAFAF9"/>
<path d="M208.727 86.3982H210.446V84.5948H208.727V86.3982Z" fill="#FAFAF9"/>
<path d="M208.727 89.421H210.446V87.6176H208.727V89.421Z" fill="#FAFAF9"/>
<path d="M208.727 92.4442H210.446V90.6408H208.727V92.4442Z" fill="#FAFAF9"/>
<path d="M208.727 95.4673H210.446V93.6639H208.727V95.4673Z" fill="#FAFAF9"/>
<path d="M208.727 98.4902H210.446V96.6869H208.727V98.4902Z" fill="#FAFAF9"/>
<path d="M208.727 101.513H210.446V99.7107H208.727V101.513Z" fill="#FAFAF9"/>
<path d="M208.727 104.537H210.446V102.734H208.727V104.537Z" fill="#FAFAF9"/>
<path d="M208.727 107.56H210.446V105.757H208.727V107.56Z" fill="#FAFAF9"/>
<path d="M208.727 110.583H210.446V108.78H208.727V110.583Z" fill="#FAFAF9"/>
<path d="M208.727 113.606H210.446V111.803H208.727V113.606Z" fill="#FAFAF9"/>
<path d="M208.727 116.629H210.446V114.826H208.727V116.629Z" fill="#FAFAF9"/>
<path d="M208.727 119.652H210.446V117.849H208.727V119.652Z" fill="#FAFAF9"/>
<path d="M208.727 122.676H210.446V120.872H208.727V122.676Z" fill="#FAFAF9"/>
<path d="M208.727 125.699H210.446V123.895H208.727V125.699Z" fill="#FAFAF9"/>
<path d="M208.727 128.722H210.446V126.918H208.727V128.722Z" fill="#FAFAF9"/>
<path d="M208.727 131.745H210.446V129.941H208.727V131.745Z" fill="#FAFAF9"/>
<path d="M208.727 134.768H210.446V132.965H208.727V134.768Z" fill="#FAFAF9"/>
<path d="M208.727 137.791H210.446V135.988H208.727V137.791Z" fill="#FAFAF9"/>
<path d="M208.727 140.814H210.446V139.011H208.727V140.814Z" fill="#FAFAF9"/>
<path d="M208.727 143.838H210.446V142.034H208.727V143.838Z" fill="#FAFAF9"/>
<path d="M211.459 77.3287H213.178V75.5254H211.459V77.3287Z" fill="#FAFAF9"/>
<path d="M211.459 80.3519H213.178V78.5485H211.459V80.3519Z" fill="#FAFAF9"/>
<path d="M211.459 83.375H213.179V81.5716H211.459V83.375Z" fill="#FAFAF9"/>
<path d="M211.459 86.3982H213.179V84.5948H211.459V86.3982Z" fill="#FAFAF9"/>
<path d="M211.459 89.421H213.179V87.6176H211.459V89.421Z" fill="#FAFAF9"/>
<path d="M211.459 92.4442H213.179V90.6408H211.459V92.4442Z" fill="#FAFAF9"/>
<path d="M211.459 95.4673H213.179V93.6639H211.459V95.4673Z" fill="#FAFAF9"/>
<path d="M211.459 98.4902H213.179V96.6869H211.459V98.4902Z" fill="#FAFAF9"/>
<path d="M211.459 101.513H213.179V99.7107H211.459V101.513Z" fill="#FAFAF9"/>
<path d="M211.459 104.537H213.179V102.734H211.459V104.537Z" fill="#FAFAF9"/>
<path d="M211.459 107.56H213.179V105.757H211.459V107.56Z" fill="#FAFAF9"/>
<path d="M211.459 110.583H213.179V108.78H211.459V110.583Z" fill="#FAFAF9"/>
<path d="M211.459 113.606H213.179V111.803H211.459V113.606Z" fill="#FAFAF9"/>
<path d="M211.459 116.629H213.179V114.826H211.459V116.629Z" fill="#FAFAF9"/>
<path d="M211.459 119.652H213.179V117.849H211.459V119.652Z" fill="#FAFAF9"/>
<path d="M211.459 122.676H213.179V120.872H211.459V122.676Z" fill="#FAFAF9"/>
<path d="M211.459 125.699H213.179V123.895H211.459V125.699Z" fill="#FAFAF9"/>
<path d="M211.459 128.722H213.179V126.918H211.459V128.722Z" fill="#FAFAF9"/>
<path d="M211.459 131.745H213.179V129.941H211.459V131.745Z" fill="#FAFAF9"/>
<path d="M214.188 77.3287H215.907V75.5254H214.188V77.3287Z" fill="#FAFAF9"/>
<path d="M214.188 80.3519H215.907V78.5485H214.188V80.3519Z" fill="#FAFAF9"/>
<path d="M214.188 83.375H215.907V81.5716H214.188V83.375Z" fill="#FAFAF9"/>
<path d="M214.188 86.3982H215.907V84.5948H214.188V86.3982Z" fill="#FAFAF9"/>
<path d="M214.188 89.421H215.907V87.6176H214.188V89.421Z" fill="#FAFAF9"/>
<path d="M214.188 92.4442H215.907V90.6408H214.188V92.4442Z" fill="#FAFAF9"/>
<path d="M214.188 95.4673H215.907V93.6639H214.188V95.4673Z" fill="#FAFAF9"/>
<path d="M214.188 98.4902H215.907V96.6869H214.188V98.4902Z" fill="#FAFAF9"/>
<path d="M214.188 101.513H215.907V99.7107H214.188V101.513Z" fill="#FAFAF9"/>
<path d="M214.188 104.537H215.907V102.734H214.188V104.537Z" fill="#FAFAF9"/>
<path d="M214.188 107.56H215.907V105.757H214.188V107.56Z" fill="#FAFAF9"/>
<path d="M214.188 110.583H215.907V108.78H214.188V110.583Z" fill="#FAFAF9"/>
<path d="M214.188 113.606H215.907V111.803H214.188V113.606Z" fill="#FAFAF9"/>
<path d="M214.188 116.629H215.907V114.826H214.188V116.629Z" fill="#FAFAF9"/>
<path d="M214.188 119.652H215.907V117.849H214.188V119.652Z" fill="#FAFAF9"/>
<path d="M214.188 122.676H215.907V120.872H214.188V122.676Z" fill="#FAFAF9"/>
<path d="M214.188 125.699H215.907V123.895H214.188V125.699Z" fill="#FAFAF9"/>
<path d="M214.188 128.722H215.907V126.918H214.188V128.722Z" fill="#FAFAF9"/>
<path d="M214.188 131.745H215.907V129.941H214.188V131.745Z" fill="#FAFAF9"/>
<path d="M216.92 77.3287H218.64V75.5254H216.92V77.3287Z" fill="#FAFAF9"/>
<path d="M216.92 80.3519H218.64V78.5485H216.92V80.3519Z" fill="#FAFAF9"/>
<path d="M216.92 83.375H218.64V81.5716H216.92V83.375Z" fill="#FAFAF9"/>
<path d="M216.92 86.3982H218.64V84.5948H216.92V86.3982Z" fill="#FAFAF9"/>
<path d="M216.92 89.421H218.64V87.6176H216.92V89.421Z" fill="#FAFAF9"/>
<path d="M216.92 92.4442H218.64V90.6408H216.92V92.4442Z" fill="#FAFAF9"/>
<path d="M216.92 95.4673H218.64V93.6639H216.92V95.4673Z" fill="#FAFAF9"/>
<path d="M216.92 98.4902H218.64V96.6869H216.92V98.4902Z" fill="#FAFAF9"/>
<path d="M216.92 101.513H218.64V99.7107H216.92V101.513Z" fill="#FAFAF9"/>
<path d="M216.92 104.537H218.64V102.734H216.92V104.537Z" fill="#FAFAF9"/>
<path d="M216.92 107.56H218.64V105.757H216.92V107.56Z" fill="#FAFAF9"/>
<path d="M216.92 110.583H218.64V108.78H216.92V110.583Z" fill="#FAFAF9"/>
<path d="M216.92 113.606H218.64V111.803H216.92V113.606Z" fill="#FAFAF9"/>
<path d="M216.92 116.629H218.64V114.826H216.92V116.629Z" fill="#FAFAF9"/>
<path d="M216.92 119.652H218.64V117.849H216.92V119.652Z" fill="#FAFAF9"/>
<path d="M219.65 77.3287H221.37V75.5254H219.65V77.3287Z" fill="#FAFAF9"/>
<path d="M219.65 80.3519H221.37V78.5485H219.65V80.3519Z" fill="#FAFAF9"/>
<path d="M219.65 83.375H221.37V81.5716H219.65V83.375Z" fill="#FAFAF9"/>
<path d="M219.65 86.3982H221.37V84.5948H219.65V86.3982Z" fill="#FAFAF9"/>
<path d="M219.65 89.421H221.37V87.6176H219.65V89.421Z" fill="#FAFAF9"/>
<path d="M219.65 92.4442H221.37V90.6408H219.65V92.4442Z" fill="#FAFAF9"/>
<path d="M219.65 95.4673H221.37V93.6639H219.65V95.4673Z" fill="#FAFAF9"/>
<path d="M219.65 98.4902H221.37V96.6869H219.65V98.4902Z" fill="#FAFAF9"/>
<path d="M219.65 101.513H221.37V99.7107H219.65V101.513Z" fill="#FAFAF9"/>
<path d="M219.65 104.537H221.37V102.734H219.65V104.537Z" fill="#FAFAF9"/>
<path d="M219.65 107.56H221.37V105.757H219.65V107.56Z" fill="#FAFAF9"/>
<path d="M219.65 110.583H221.37V108.78H219.65V110.583Z" fill="#FAFAF9"/>
<path d="M219.65 113.606H221.37V111.803H219.65V113.606Z" fill="#FAFAF9"/>
<path d="M222.383 75.5254V77.3287H224.102V75.5254H222.383Z" fill="#FAFAF9"/>
<path d="M222.383 80.3519H224.102V78.5485H222.383V80.3519Z" fill="#FAFAF9"/>
<path d="M222.383 83.375H224.102V81.5716H222.383V83.375Z" fill="#FAFAF9"/>
<path d="M222.383 86.3982H224.102V84.5948H222.383V86.3982Z" fill="#FAFAF9"/>
<path d="M222.383 89.421H224.102V87.6176H222.383V89.421Z" fill="#FAFAF9"/>
<path d="M222.383 92.4442H224.102V90.6408H222.383V92.4442Z" fill="#FAFAF9"/>
<path d="M222.383 95.4673H224.102V93.6639H222.383V95.4673Z" fill="#FAFAF9"/>
<path d="M222.383 98.4902H224.102V96.6869H222.383V98.4902Z" fill="#FAFAF9"/>
<path d="M222.383 101.513H224.102V99.7107H222.383V101.513Z" fill="#FAFAF9"/>
<path d="M222.383 104.537H224.102V102.734H222.383V104.537Z" fill="#FAFAF9"/>
<path d="M222.383 107.56H224.102V105.757H222.383V107.56Z" fill="#FAFAF9"/>
<path d="M222.383 110.583H224.102V108.78H222.383V110.583Z" fill="#FAFAF9"/>
<path d="M21.7031 99.3922H23.4227V97.5888H21.7031V99.3922Z" fill="#FAFAF9"/>
<path d="M21.7031 102.415H23.4227V100.612H21.7031V102.415Z" fill="#FAFAF9"/>
<path d="M21.7031 105.438H23.4227V103.635H21.7031V105.438Z" fill="#FAFAF9"/>
<path d="M21.7031 108.462H23.4227V106.658H21.7031V108.462Z" fill="#FAFAF9"/>
<path d="M21.7031 111.485H23.4227V109.681H21.7031V111.485Z" fill="#FAFAF9"/>
<path d="M21.7031 114.508H23.4227V112.704H21.7031V114.508Z" fill="#FAFAF9"/>
<path d="M21.7031 117.531H23.4227V115.728H21.7031V117.531Z" fill="#FAFAF9"/>
<path d="M21.7031 120.554H23.4227V118.75H21.7031V120.554Z" fill="#FAFAF9"/>
<path d="M21.7031 123.577H23.4227V121.774H21.7031V123.577Z" fill="#FAFAF9"/>
<path d="M21.7031 126.6H23.4227V124.797H21.7031V126.6Z" fill="#FAFAF9"/>
<path d="M21.7031 129.624H23.4227V127.82H21.7031V129.624Z" fill="#FAFAF9"/>
<path d="M21.7031 132.647H23.4227V130.843H21.7031V132.647Z" fill="#FAFAF9"/>
<path d="M21.7031 135.67H23.4227V133.867H21.7031V135.67Z" fill="#FAFAF9"/>
<path d="M21.7031 138.693H23.4227V136.89H21.7031V138.693Z" fill="#FAFAF9"/>
<path d="M21.7031 141.716H23.4227V139.913H21.7031V141.716Z" fill="#FAFAF9"/>
<path d="M21.7031 144.739H23.4227V142.936H21.7031V144.739Z" fill="#FAFAF9"/>
<path d="M21.7031 147.762H23.4227V145.959H21.7031V147.762Z" fill="#FAFAF9"/>
<path d="M21.7031 150.785H23.4227V148.982H21.7031V150.785Z" fill="#FAFAF9"/>
<path d="M21.7031 153.808H23.4227V152.005H21.7031V153.808Z" fill="#FAFAF9"/>
<path d="M21.7031 156.831H23.4227V155.028H21.7031V156.831Z" fill="#FAFAF9"/>
<path d="M24.4355 99.3922H26.1552V97.5888H24.4355V99.3922Z" fill="#FAFAF9"/>
<path d="M24.4355 102.415H26.1552V100.612H24.4355V102.415Z" fill="#FAFAF9"/>
<path d="M24.4355 105.438H26.1552V103.635H24.4355V105.438Z" fill="#FAFAF9"/>
<path d="M24.4355 108.462H26.1552V106.658H24.4355V108.462Z" fill="#FAFAF9"/>
<path d="M24.4355 111.485H26.1552V109.681H24.4355V111.485Z" fill="#FAFAF9"/>
<path d="M24.4355 114.508H26.1552V112.704H24.4355V114.508Z" fill="#FAFAF9"/>
<path d="M24.4355 117.531H26.1552V115.728H24.4355V117.531Z" fill="#FAFAF9"/>
<path d="M24.4355 120.554H26.1552V118.75H24.4355V120.554Z" fill="#FAFAF9"/>
<path d="M24.4355 123.577H26.1552V121.774H24.4355V123.577Z" fill="#FAFAF9"/>
<path d="M24.4355 126.6H26.1552V124.797H24.4355V126.6Z" fill="#FAFAF9"/>
<path d="M24.4355 129.624H26.1552V127.82H24.4355V129.624Z" fill="#FAFAF9"/>
<path d="M24.4355 132.647H26.1552V130.843H24.4355V132.647Z" fill="#FAFAF9"/>
<path d="M24.4355 135.67H26.1552V133.867H24.4355V135.67Z" fill="#FAFAF9"/>
<path d="M24.4355 138.693H26.1552V136.89H24.4355V138.693Z" fill="#FAFAF9"/>
<path d="M24.4355 141.716H26.1552V139.913H24.4355V141.716Z" fill="#FAFAF9"/>
<path d="M24.4355 144.739H26.1552V142.936H24.4355V144.739Z" fill="#FAFAF9"/>
<path d="M24.4355 147.762H26.1552V145.959H24.4355V147.762Z" fill="#FAFAF9"/>
<path d="M24.4355 150.785H26.1552V148.982H24.4355V150.785Z" fill="#FAFAF9"/>
<path d="M27.1641 99.3922H28.8834V97.5888H27.1641V99.3922Z" fill="#FAFAF9"/>
<path d="M27.1641 102.415H28.8834V100.612H27.1641V102.415Z" fill="#FAFAF9"/>
<path d="M27.1641 105.438H28.8834V103.635H27.1641V105.438Z" fill="#FAFAF9"/>
<path d="M27.1641 108.462H28.8834V106.658H27.1641V108.462Z" fill="#FAFAF9"/>
<path d="M27.1641 111.485H28.8834V109.681H27.1641V111.485Z" fill="#FAFAF9"/>
<path d="M27.1641 114.508H28.8834V112.704H27.1641V114.508Z" fill="#FAFAF9"/>
<path d="M27.1641 117.531H28.8834V115.728H27.1641V117.531Z" fill="#FAFAF9"/>
<path d="M27.1641 120.554H28.8834V118.75H27.1641V120.554Z" fill="#FAFAF9"/>
<path d="M27.1641 123.577H28.8834V121.774H27.1641V123.577Z" fill="#FAFAF9"/>
<path d="M27.1641 126.6H28.8834V124.797H27.1641V126.6Z" fill="#FAFAF9"/>
<path d="M27.1641 129.624H28.8834V127.82H27.1641V129.624Z" fill="#FAFAF9"/>
<path d="M27.1641 132.647H28.8834V130.843H27.1641V132.647Z" fill="#FAFAF9"/>
<path d="M27.1641 135.67H28.8834V133.867H27.1641V135.67Z" fill="#FAFAF9"/>
<path d="M27.1641 138.693H28.8834V136.89H27.1641V138.693Z" fill="#FAFAF9"/>
<path d="M27.1641 141.716H28.8834V139.913H27.1641V141.716Z" fill="#FAFAF9"/>
<path d="M27.1641 144.739H28.8834V142.936H27.1641V144.739Z" fill="#FAFAF9"/>
<path d="M27.1641 147.762H28.8834V145.959H27.1641V147.762Z" fill="#FAFAF9"/>
<path d="M27.1641 150.785H28.8834V148.982H27.1641V150.785Z" fill="#FAFAF9"/>
<path d="M11.4863 121.456H13.2059V119.653H11.4863V121.456Z" fill="#FAFAF9"/>
<path d="M11.4863 124.479H13.2059V122.676H11.4863V124.479Z" fill="#FAFAF9"/>
<path d="M11.4863 127.502H13.2059V125.699H11.4863V127.502Z" fill="#FAFAF9"/>
<path d="M11.4863 130.525H13.2059V128.722H11.4863V130.525Z" fill="#FAFAF9"/>
<path d="M11.4863 133.548H13.2059V131.745H11.4863V133.548Z" fill="#FAFAF9"/>
<path d="M11.4863 136.571H13.2059V134.768H11.4863V136.571Z" fill="#FAFAF9"/>
<path d="M11.4863 139.594H13.2059V137.791H11.4863V139.594Z" fill="#FAFAF9"/>
<path d="M11.4863 142.617H13.2059V140.814H11.4863V142.617Z" fill="#FAFAF9"/>
<path d="M11.4863 145.641H13.2059V143.838H11.4863V145.641Z" fill="#FAFAF9"/>
<path d="M11.4863 148.664H13.2059V146.86H11.4863V148.664Z" fill="#FAFAF9"/>
<path d="M11.4863 151.687H13.2059V149.884H11.4863V151.687Z" fill="#FAFAF9"/>
<path d="M11.4863 154.71H13.2059V152.907H11.4863V154.71Z" fill="#FAFAF9"/>
<path d="M11.4863 157.734H13.2059V155.93H11.4863V157.734Z" fill="#FAFAF9"/>
<path d="M14.2188 121.456H15.9383V119.653H14.2188V121.456Z" fill="#FAFAF9"/>
<path d="M14.2188 124.479H15.9383V122.676H14.2188V124.479Z" fill="#FAFAF9"/>
<path d="M14.2188 127.502H15.9383V125.699H14.2188V127.502Z" fill="#FAFAF9"/>
<path d="M14.2188 130.525H15.9383V128.722H14.2188V130.525Z" fill="#FAFAF9"/>
<path d="M14.2188 133.548H15.9383V131.745H14.2188V133.548Z" fill="#FAFAF9"/>
<path d="M14.2188 136.571H15.9383V134.768H14.2188V136.571Z" fill="#FAFAF9"/>
<path d="M14.2188 139.594H15.9383V137.791H14.2188V139.594Z" fill="#FAFAF9"/>
<path d="M14.2188 142.617H15.9383V140.814H14.2188V142.617Z" fill="#FAFAF9"/>
<path d="M14.2188 145.641H15.9383V143.838H14.2188V145.641Z" fill="#FAFAF9"/>
<path d="M14.2188 148.664H15.9383V146.86H14.2188V148.664Z" fill="#FAFAF9"/>
<path d="M14.2188 151.687H15.9383V149.884H14.2188V151.687Z" fill="#FAFAF9"/>
<path d="M14.2188 154.71H15.9383V152.907H14.2188V154.71Z" fill="#FAFAF9"/>
<path d="M14.2188 157.734H15.9383V155.93H14.2188V157.734Z" fill="#FAFAF9"/>
<path d="M16.9492 121.456H18.6688V119.653H16.9492V121.456Z" fill="#FAFAF9"/>
<path d="M16.9492 124.479H18.6688V122.676H16.9492V124.479Z" fill="#FAFAF9"/>
<path d="M16.9492 127.502H18.6688V125.699H16.9492V127.502Z" fill="#FAFAF9"/>
<path d="M16.9492 130.525H18.6688V128.722H16.9492V130.525Z" fill="#FAFAF9"/>
<path d="M16.9492 133.548H18.6688V131.745H16.9492V133.548Z" fill="#FAFAF9"/>
<path d="M16.9492 136.571H18.6688V134.768H16.9492V136.571Z" fill="#FAFAF9"/>
<path d="M16.9492 139.594H18.6688V137.791H16.9492V139.594Z" fill="#FAFAF9"/>
<path d="M16.9492 142.617H18.6688V140.814H16.9492V142.617Z" fill="#FAFAF9"/>
<path d="M16.9492 145.641H18.6688V143.838H16.9492V145.641Z" fill="#FAFAF9"/>
<path d="M16.9492 148.664H18.6688V146.86H16.9492V148.664Z" fill="#FAFAF9"/>
<path d="M16.9492 151.687H18.6688V149.884H16.9492V151.687Z" fill="#FAFAF9"/>
<path d="M16.9492 154.71H18.6688V152.907H16.9492V154.71Z" fill="#FAFAF9"/>
<path d="M16.9492 157.734H18.6688V155.93H16.9492V157.734Z" fill="#FAFAF9"/>
<path d="M16.9492 160.756H18.6688V158.953H16.9492V160.756Z" fill="#FAFAF9"/>
<path d="M32.1211 122.357H33.8407V120.554H32.1211V122.357Z" fill="#FAFAF9"/>
<path d="M32.1211 125.38H33.8407V123.577H32.1211V125.38Z" fill="#FAFAF9"/>
<path d="M32.1211 128.403H33.8407V126.6H32.1211V128.403Z" fill="#FAFAF9"/>
<path d="M32.1211 131.427H33.8407V129.624H32.1211V131.427Z" fill="#FAFAF9"/>
<path d="M32.1211 134.45H33.8407V132.647H32.1211V134.45Z" fill="#FAFAF9"/>
<path d="M32.1211 137.473H33.8407V135.67H32.1211V137.473Z" fill="#FAFAF9"/>
<path d="M32.1211 140.496H33.8407V138.693H32.1211V140.496Z" fill="#FAFAF9"/>
<path d="M32.1211 143.52H33.8407V141.716H32.1211V143.52Z" fill="#FAFAF9"/>
<path d="M32.1211 146.543H33.8407V144.739H32.1211V146.543Z" fill="#FAFAF9"/>
<path d="M32.1211 149.566H33.8407V147.762H32.1211V149.566Z" fill="#FAFAF9"/>
<path d="M32.1211 158.635H33.8407V156.831H32.1211V158.635Z" fill="#FAFAF9"/>
<path d="M34.8516 122.357H36.5711V120.554H34.8516V122.357Z" fill="#FAFAF9"/>
<path d="M34.8516 125.38H36.5711V123.577H34.8516V125.38Z" fill="#FAFAF9"/>
<path d="M34.8516 128.403H36.5711V126.6H34.8516V128.403Z" fill="#FAFAF9"/>
<path d="M34.8516 131.427H36.5711V129.624H34.8516V131.427Z" fill="#FAFAF9"/>
<path d="M34.8516 134.45H36.5711V132.647H34.8516V134.45Z" fill="#FAFAF9"/>
<path d="M34.8516 137.473H36.5711V135.67H34.8516V137.473Z" fill="#FAFAF9"/>
<path d="M34.8516 140.496H36.5711V138.693H34.8516V140.496Z" fill="#FAFAF9"/>
<path d="M34.8516 143.52H36.5711V141.716H34.8516V143.52Z" fill="#FAFAF9"/>
<path d="M34.8516 146.543H36.5711V144.739H34.8516V146.543Z" fill="#FAFAF9"/>
<path d="M34.8516 155.612H36.5712V153.808H34.8516V155.612Z" fill="#FAFAF9"/>
<path d="M34.8516 158.635H36.5712V156.831H34.8516V158.635Z" fill="#FAFAF9"/>
<path d="M37.584 122.357H39.3036V120.554H37.584V122.357Z" fill="#FAFAF9"/>
<path d="M37.584 125.38H39.3036V123.577H37.584V125.38Z" fill="#FAFAF9"/>
<path d="M37.584 128.403H39.3036V126.6H37.584V128.403Z" fill="#FAFAF9"/>
<path d="M37.584 131.427H39.3036V129.624H37.584V131.427Z" fill="#FAFAF9"/>
<path d="M37.584 134.45H39.3036V132.647H37.584V134.45Z" fill="#FAFAF9"/>
<path d="M37.584 137.473H39.3036V135.67H37.584V137.473Z" fill="#FAFAF9"/>
<path d="M37.584 140.496H39.3036V138.693H37.584V140.496Z" fill="#FAFAF9"/>
<path d="M37.584 143.52H39.3036V141.716H37.584V143.52Z" fill="#FAFAF9"/>
<path d="M37.584 152.589H39.3036V150.785H37.584V152.589Z" fill="#FAFAF9"/>
<path d="M37.584 155.612H39.3036V153.808H37.584V155.612Z" fill="#FAFAF9"/>
<path d="M37.584 158.635H39.3036V156.831H37.584V158.635Z" fill="#FAFAF9"/>
<path d="M62.9707 76.4268H64.6903V74.6234H62.9707V76.4268Z" fill="#FAFAF9"/>
<path d="M62.9707 79.4497H64.6903V77.6469H62.9707V79.4497Z" fill="#FAFAF9"/>
<path d="M62.9707 82.4729H64.6903V80.6701H62.9707V82.4729Z" fill="#FAFAF9"/>
<path d="M62.9707 85.4961H64.6903V83.6933H62.9707V85.4961Z" fill="#FAFAF9"/>
<path d="M62.9707 88.5198H64.6903V86.7164H62.9707V88.5198Z" fill="#FAFAF9"/>
<path d="M62.9707 91.5428H64.6903V89.7395H62.9707V91.5428Z" fill="#FAFAF9"/>
<path d="M62.9707 94.5659H64.6903V92.7625H62.9707V94.5659Z" fill="#FAFAF9"/>
<path d="M62.9707 97.589H64.6903V95.7856H62.9707V97.589Z" fill="#FAFAF9"/>
<path d="M62.9707 100.612H64.6903V98.8088H62.9707V100.612Z" fill="#FAFAF9"/>
<path d="M62.9707 103.635H64.6903V101.832H62.9707V103.635Z" fill="#FAFAF9"/>
<path d="M62.9707 106.658H64.6903V104.855H62.9707V106.658Z" fill="#FAFAF9"/>
<path d="M62.9707 109.681H64.6903V107.878H62.9707V109.681Z" fill="#FAFAF9"/>
<path d="M62.9707 112.704H64.6903V110.901H62.9707V112.704Z" fill="#FAFAF9"/>
<path d="M62.9707 115.727H64.6903V113.924H62.9707V115.727Z" fill="#FAFAF9"/>
<path d="M62.9707 118.75H64.6903V116.947H62.9707V118.75Z" fill="#FAFAF9"/>
<path d="M62.9707 121.774H64.6903V119.971H62.9707V121.774Z" fill="#FAFAF9"/>
<path d="M62.9707 124.797H64.6903V122.994H62.9707V124.797Z" fill="#FAFAF9"/>
<path d="M62.9707 130.844H64.6903V129.04H62.9707V130.844Z" fill="#FAFAF9"/>
<path d="M62.9707 133.866H64.6903V132.063H62.9707V133.866Z" fill="#FAFAF9"/>
<path d="M62.9707 136.89H64.6903V135.086H62.9707V136.89Z" fill="#FAFAF9"/>
<path d="M62.9707 139.913H64.6903V138.109H62.9707V139.913Z" fill="#FAFAF9"/>
<path d="M62.9707 142.936H64.6903V141.132H62.9707V142.936Z" fill="#FAFAF9"/>
<path d="M65.7051 76.4268H67.4247V74.6234H65.7051V76.4268Z" fill="#FAFAF9"/>
<path d="M65.7051 79.4497H67.4247V77.6469H65.7051V79.4497Z" fill="#FAFAF9"/>
<path d="M65.7051 82.4729H67.4247V80.6701H65.7051V82.4729Z" fill="#FAFAF9"/>
<path d="M65.7051 85.4961H67.4247V83.6933H65.7051V85.4961Z" fill="#FAFAF9"/>
<path d="M65.7051 88.5198H67.4247V86.7164H65.7051V88.5198Z" fill="#FAFAF9"/>
<path d="M65.7051 91.5428H67.4247V89.7395H65.7051V91.5428Z" fill="#FAFAF9"/>
<path d="M65.7051 94.5659H67.4247V92.7625H65.7051V94.5659Z" fill="#FAFAF9"/>
<path d="M65.7051 97.589H67.4247V95.7856H65.7051V97.589Z" fill="#FAFAF9"/>
<path d="M65.7051 100.612H67.4247V98.8088H65.7051V100.612Z" fill="#FAFAF9"/>
<path d="M65.7051 103.635H67.4247V101.832H65.7051V103.635Z" fill="#FAFAF9"/>
<path d="M65.7051 106.658H67.4247V104.855H65.7051V106.658Z" fill="#FAFAF9"/>
<path d="M65.7051 109.681H67.4247V107.878H65.7051V109.681Z" fill="#FAFAF9"/>
<path d="M65.7051 112.704H67.4247V110.901H65.7051V112.704Z" fill="#FAFAF9"/>
<path d="M65.7051 115.727H67.4247V113.924H65.7051V115.727Z" fill="#FAFAF9"/>
<path d="M65.7051 118.75H67.4247V116.947H65.7051V118.75Z" fill="#FAFAF9"/>
<path d="M65.7051 121.774H67.4247V119.971H65.7051V121.774Z" fill="#FAFAF9"/>
<path d="M65.7051 139.913H67.4247V138.109H65.7051V139.913Z" fill="#FAFAF9"/>
<path d="M65.7051 142.936H67.4247V141.132H65.7051V142.936Z" fill="#FAFAF9"/>
<path d="M68.4336 76.4268H70.1532V74.6234H68.4336V76.4268Z" fill="#FAFAF9"/>
<path d="M68.4336 79.4497H70.1532V77.6469H68.4336V79.4497Z" fill="#FAFAF9"/>
<path d="M68.4336 82.4729H70.1526L70.1532 80.6701H68.4336V82.4729Z" fill="#FAFAF9"/>
<path d="M68.4336 85.4961H70.1526V83.6933H68.4336V85.4961Z" fill="#FAFAF9"/>
<path d="M68.4336 88.5198H70.1526V86.7164H68.4336V88.5198Z" fill="#FAFAF9"/>
<path d="M68.4336 91.5428H70.1526V89.7395H68.4336V91.5428Z" fill="#FAFAF9"/>
<path d="M68.4336 94.5659H70.1526V92.7625H68.4336V94.5659Z" fill="#FAFAF9"/>
<path d="M68.4336 97.589H70.1526V95.7856H68.4336V97.589Z" fill="#FAFAF9"/>
<path d="M68.4336 100.612H70.1526V98.8088H68.4336V100.612Z" fill="#FAFAF9"/>
<path d="M68.4336 103.635H70.1526V101.832H68.4336V103.635Z" fill="#FAFAF9"/>
<path d="M68.4336 106.658H70.1526V104.855H68.4336V106.658Z" fill="#FAFAF9"/>
<path d="M68.4336 109.681H70.1526V107.878H68.4336V109.681Z" fill="#FAFAF9"/>
<path d="M68.4336 112.704H70.1526V110.901H68.4336V112.704Z" fill="#FAFAF9"/>
<path d="M68.4336 115.727H70.1526V113.924H68.4336V115.727Z" fill="#FAFAF9"/>
<path d="M68.4336 118.75H70.1526V116.947H68.4336V118.75Z" fill="#FAFAF9"/>
<path d="M68.4336 121.774H70.1526V119.971H68.4336V121.774Z" fill="#FAFAF9"/>
<path d="M68.4336 127.82H70.1526V126.017H68.4336V127.82Z" fill="#FAFAF9"/>
<path d="M68.4336 130.844H70.1526V129.04H68.4336V130.844Z" fill="#FAFAF9"/>
<path d="M68.4336 133.866H70.1526V132.063H68.4336V133.866Z" fill="#FAFAF9"/>
<path d="M68.4336 136.89H70.1526V135.086H68.4336V136.89Z" fill="#FAFAF9"/>
<path d="M68.4336 142.936H70.1527V141.132H68.4336V142.936Z" fill="#FAFAF9"/>
<path d="M53.0586 114.508H54.7782V112.704H53.0586V114.508Z" fill="#FAFAF9"/>
<path d="M53.0586 117.531H54.7782V115.728H53.0586V117.531Z" fill="#FAFAF9"/>
<path d="M53.0586 120.554H54.7782V118.75H53.0586V120.554Z" fill="#FAFAF9"/>
<path d="M53.0586 123.577H54.7782V121.774H53.0586V123.577Z" fill="#FAFAF9"/>
<path d="M53.0586 126.6H54.7782V124.797H53.0586V126.6Z" fill="#FAFAF9"/>
<path d="M53.0586 129.624H54.7782V127.82H53.0586V129.624Z" fill="#FAFAF9"/>
<path d="M53.0586 132.647H54.7782V130.843H53.0586V132.647Z" fill="#FAFAF9"/>
<path d="M53.0586 138.693H54.7782V136.89H53.0586V138.693Z" fill="#FAFAF9"/>
<path d="M53.0586 141.716H54.7782V139.913H53.0586V141.716Z" fill="#FAFAF9"/>
<path d="M53.0586 144.739H54.7782V142.936H53.0586V144.739Z" fill="#FAFAF9"/>
<path d="M53.0586 147.762H54.7782V145.959H53.0586V147.762Z" fill="#FAFAF9"/>
<path d="M53.0586 150.785H54.7782V148.982H53.0586V150.785Z" fill="#FAFAF9"/>
<path d="M53.0586 153.808H54.7782V152.005H53.0586V153.808Z" fill="#FAFAF9"/>
<path d="M53.0586 156.831H54.7782V155.028H53.0586V156.831Z" fill="#FAFAF9"/>
<path d="M53.0586 159.854H54.7782V158.052H53.0586V159.854Z" fill="#FAFAF9"/>
<path d="M55.7891 114.508H57.5087V112.704H55.7891V114.508Z" fill="#FAFAF9"/>
<path d="M55.7891 117.531H57.5087V115.728H55.7891V117.531Z" fill="#FAFAF9"/>
<path d="M55.7891 120.554H57.5087V118.75H55.7891V120.554Z" fill="#FAFAF9"/>
<path d="M55.7891 123.577H57.5087V121.774H55.7891V123.577Z" fill="#FAFAF9"/>
<path d="M55.7891 126.6H57.5087V124.797H55.7891V126.6Z" fill="#FAFAF9"/>
<path d="M55.7891 129.624H57.5087V127.82H55.7891V129.624Z" fill="#FAFAF9"/>
<path d="M55.7891 138.693H57.5087V136.89H55.7891V138.693Z" fill="#FAFAF9"/>
<path d="M55.7891 141.716H57.5087V139.913H55.7891V141.716Z" fill="#FAFAF9"/>
<path d="M55.7891 144.739H57.5087V142.936H55.7891V144.739Z" fill="#FAFAF9"/>
<path d="M55.7891 147.762H57.5087V145.959H55.7891V147.762Z" fill="#FAFAF9"/>
<path d="M55.7891 150.785H57.5087V148.982H55.7891V150.785Z" fill="#FAFAF9"/>
<path d="M55.7891 153.808H57.5087V152.005H55.7891V153.808Z" fill="#FAFAF9"/>
<path d="M55.7891 156.831H57.5087V155.028H55.7891V156.831Z" fill="#FAFAF9"/>
<path d="M55.7891 159.854H57.5087V158.052H55.7891V159.854Z" fill="#FAFAF9"/>
<path d="M58.5215 114.508H60.2411V112.704H58.5215V114.508Z" fill="#FAFAF9"/>
<path d="M58.5215 117.531H60.2411V115.728H58.5215V117.531Z" fill="#FAFAF9"/>
<path d="M58.5215 120.554H60.2411V118.75H58.5215V120.554Z" fill="#FAFAF9"/>
<path d="M58.5215 123.577H60.2411V121.774H58.5215V123.577Z" fill="#FAFAF9"/>
<path d="M58.5215 126.6H60.2411V124.797H58.5215V126.6Z" fill="#FAFAF9"/>
<path d="M58.5215 129.624H60.2411V127.82H58.5215V129.624Z" fill="#FAFAF9"/>
<path d="M58.5215 135.67H60.2411V133.867H58.5215V135.67Z" fill="#FAFAF9"/>
<path d="M58.5215 138.693H60.2411V136.89H58.5215V138.693Z" fill="#FAFAF9"/>
<path d="M58.5215 141.716H60.2411V139.913H58.5215V141.716Z" fill="#FAFAF9"/>
<path d="M58.5215 144.739H60.2411V142.936H58.5215V144.739Z" fill="#FAFAF9"/>
<path d="M58.5215 147.762H60.2411V145.959H58.5215V147.762Z" fill="#FAFAF9"/>
<path d="M58.5215 150.785H60.2411V148.982H58.5215V150.785Z" fill="#FAFAF9"/>
<path d="M58.5215 153.808H60.2411V152.005H58.5215V153.808Z" fill="#FAFAF9"/>
<path d="M58.5215 156.831H60.2411V155.028H58.5215V156.831Z" fill="#FAFAF9"/>
<path d="M58.5215 159.854H60.2411V158.052H58.5215V159.854Z" fill="#FAFAF9"/>
<path d="M116.074 97.589H117.794V95.7857H116.074V97.589Z" fill="#FAFAF9"/>
<path d="M116.074 100.612H117.794V98.8088H116.074V100.612Z" fill="#FAFAF9"/>
<path d="M116.074 103.635H117.794V101.832H116.074V103.635Z" fill="#FAFAF9"/>
<path d="M116.074 106.658H117.794V104.855H116.074V106.658Z" fill="#FAFAF9"/>
<path d="M116.074 109.681H117.794V107.878H116.074V109.681Z" fill="#FAFAF9"/>
<path d="M116.074 112.704H117.794V110.901H116.074V112.704Z" fill="#FAFAF9"/>
<path d="M116.074 115.727H117.794V113.924H116.074V115.727Z" fill="#FAFAF9"/>
<path d="M116.074 118.75H117.794V116.947H116.074V118.75Z" fill="#FAFAF9"/>
<path d="M116.074 121.774H117.794V119.971H116.074V121.774Z" fill="#FAFAF9"/>
<path d="M116.074 124.797H117.794V122.994H116.074V124.797Z" fill="#FAFAF9"/>
<path d="M116.074 127.82H117.794V126.017H116.074V127.82Z" fill="#FAFAF9"/>
<path d="M116.074 130.844H117.794V129.04H116.074V130.844Z" fill="#FAFAF9"/>
<path d="M116.074 133.866H117.794V132.063H116.074V133.866Z" fill="#FAFAF9"/>
<path d="M116.074 139.913H117.794V138.109H116.074V139.913Z" fill="#FAFAF9"/>
<path d="M116.074 142.936H117.794V141.132H116.074V142.936Z" fill="#FAFAF9"/>
<path d="M116.074 145.959H117.794V144.156H116.074V145.959Z" fill="#FAFAF9"/>
<path d="M116.074 148.982H117.794V147.178H116.074V148.982Z" fill="#FAFAF9"/>
<path d="M116.074 155.029H117.794V153.225H116.074V155.029Z" fill="#FAFAF9"/>
<path d="M116.074 158.052H117.794V156.248H116.074V158.052Z" fill="#FAFAF9"/>
<path d="M116.074 161.075H117.794V159.271H116.074V161.075Z" fill="#FAFAF9"/>
<path d="M118.805 97.589H120.525V95.7857H118.805V97.589Z" fill="#FAFAF9"/>
<path d="M118.805 100.612H120.524V98.8088H118.805V100.612Z" fill="#FAFAF9"/>
<path d="M118.805 103.635H120.524V101.832H118.805V103.635Z" fill="#FAFAF9"/>
<path d="M118.805 106.658H120.524V104.855H118.805V106.658Z" fill="#FAFAF9"/>
<path d="M118.805 109.681H120.524V107.878H118.805V109.681Z" fill="#FAFAF9"/>
<path d="M118.805 112.704H120.524V110.901H118.805V112.704Z" fill="#FAFAF9"/>
<path d="M118.805 115.727H120.524V113.924H118.805V115.727Z" fill="#FAFAF9"/>
<path d="M118.805 118.75H120.525V116.947H118.805V118.75Z" fill="#FAFAF9"/>
<path d="M118.805 121.774H120.524V119.971H118.805V121.774Z" fill="#FAFAF9"/>
<path d="M118.805 124.797H120.524V122.994H118.805V124.797Z" fill="#FAFAF9"/>
<path d="M118.805 127.82H120.524V126.017H118.805V127.82Z" fill="#FAFAF9"/>
<path d="M118.805 130.844H120.524V129.04H118.805V130.844Z" fill="#FAFAF9"/>
<path d="M118.805 133.866H120.524V132.063H118.805V133.866Z" fill="#FAFAF9"/>
<path d="M118.805 142.936H120.524V141.132H118.805V142.936Z" fill="#FAFAF9"/>
<path d="M118.805 145.959H120.524V144.156H118.805V145.959Z" fill="#FAFAF9"/>
<path d="M118.805 152.005H120.524V150.202H118.805V152.005Z" fill="#FAFAF9"/>
<path d="M118.805 155.029H120.524V153.225H118.805V155.029Z" fill="#FAFAF9"/>
<path d="M118.805 158.052H120.524V156.248H118.805V158.052Z" fill="#FAFAF9"/>
<path d="M118.805 161.075H120.524V159.271H118.805V161.075Z" fill="#FAFAF9"/>
<path d="M121.537 97.589H123.257V95.7857H121.537V97.589Z" fill="#FAFAF9"/>
<path d="M121.537 100.612H123.257V98.8088H121.537V100.612Z" fill="#FAFAF9"/>
<path d="M121.537 103.635H123.257V101.832H121.537V103.635Z" fill="#FAFAF9"/>
<path d="M121.537 106.658H123.257V104.855H121.537V106.658Z" fill="#FAFAF9"/>
<path d="M121.537 109.681H123.257V107.878H121.537V109.681Z" fill="#FAFAF9"/>
<path d="M121.537 112.704H123.257V110.901H121.537V112.704Z" fill="#FAFAF9"/>
<path d="M121.537 115.727H123.257V113.924H121.537V115.727Z" fill="#FAFAF9"/>
<path d="M121.537 118.75H123.257V116.947H121.537V118.75Z" fill="#FAFAF9"/>
<path d="M121.537 121.774H123.257V119.971H121.537V121.774Z" fill="#FAFAF9"/>
<path d="M121.537 124.797H123.257V122.994H121.537V124.797Z" fill="#FAFAF9"/>
<path d="M121.537 127.82H123.257V126.017H121.537V127.82Z" fill="#FAFAF9"/>
<path d="M121.537 130.844H123.257V129.04H121.537V130.844Z" fill="#FAFAF9"/>
<path d="M121.537 133.866H123.257V132.063H121.537V133.866Z" fill="#FAFAF9"/>
<path d="M121.537 136.89H123.257V135.086H121.537V136.89Z" fill="#FAFAF9"/>
<path d="M121.537 142.936H123.257V141.132H121.537V142.936Z" fill="#FAFAF9"/>
<path d="M121.537 148.982H123.257V147.178H121.537V148.982Z" fill="#FAFAF9"/>
<path d="M121.537 152.005H123.257V150.202H121.537V152.005Z" fill="#FAFAF9"/>
<path d="M121.537 155.029H123.257V153.225H121.537V155.029Z" fill="#FAFAF9"/>
<path d="M121.537 158.052H123.257V156.248H121.537V158.052Z" fill="#FAFAF9"/>
<path d="M121.537 161.075H123.257V159.271H121.537V161.075Z" fill="#FAFAF9"/>
<path d="M104.947 114.826H106.667V113.023H104.947V114.826Z" fill="#FAFAF9"/>
<path d="M104.947 117.849H106.667V116.046H104.947V117.849Z" fill="#FAFAF9"/>
<path d="M104.947 120.872H106.667V119.069H104.947V120.872Z" fill="#FAFAF9"/>
<path d="M104.947 123.895H106.667V122.092H104.947V123.895Z" fill="#FAFAF9"/>
<path d="M104.947 126.918H106.667V125.115H104.947V126.918Z" fill="#FAFAF9"/>
<path d="M104.947 129.942H106.667V128.139H104.947V129.942Z" fill="#FAFAF9"/>
<path d="M104.947 139.011H106.667V137.208H104.947V139.011Z" fill="#FAFAF9"/>
<path d="M104.947 142.034H106.667V140.231H104.947V142.034Z" fill="#FAFAF9"/>
<path d="M104.947 145.058H106.667V143.254H104.947V145.058Z" fill="#FAFAF9"/>
<path d="M104.947 148.081H106.667V146.277H104.947V148.081Z" fill="#FAFAF9"/>
<path d="M104.947 151.104H106.667V149.3H104.947V151.104Z" fill="#FAFAF9"/>
<path d="M104.947 154.127H106.667V152.323H104.947V154.127Z" fill="#FAFAF9"/>
<path d="M104.947 157.15H106.667V155.346H104.947V157.15Z" fill="#FAFAF9"/>
<path d="M107.68 114.826H109.399V113.023H107.68V114.826Z" fill="#FAFAF9"/>
<path d="M107.68 117.849H109.399V116.046H107.68V117.849Z" fill="#FAFAF9"/>
<path d="M107.68 120.872H109.399V119.069H107.68V120.872Z" fill="#FAFAF9"/>
<path d="M107.68 123.895H109.399V122.092H107.68V123.895Z" fill="#FAFAF9"/>
<path d="M107.68 126.918H109.399V125.115H107.68V126.918Z" fill="#FAFAF9"/>
<path d="M107.68 129.942H109.399V128.139H107.68V129.942Z" fill="#FAFAF9"/>
<path d="M107.68 139.011H109.399V137.208H107.68V139.011Z" fill="#FAFAF9"/>
<path d="M107.68 142.034H109.399V140.231H107.68V142.034Z" fill="#FAFAF9"/>
<path d="M107.68 145.058H109.399V143.254H107.68V145.058Z" fill="#FAFAF9"/>
<path d="M107.68 148.081H109.399V146.277H107.68V148.081Z" fill="#FAFAF9"/>
<path d="M107.68 151.104H109.399V149.3H107.68V151.104Z" fill="#FAFAF9"/>
<path d="M107.68 154.127H109.399V152.323H107.68V154.127Z" fill="#FAFAF9"/>
<path d="M107.68 160.173H109.399V158.37H107.68V160.173Z" fill="#FAFAF9"/>
<path d="M198.41 101.513H200.13V99.7107H198.41V101.513Z" fill="#FAFAF9"/>
<path d="M198.41 104.537H200.13V102.734H198.41V104.537Z" fill="#FAFAF9"/>
<path d="M198.41 107.56H200.13V105.757H198.41V107.56Z" fill="#FAFAF9"/>
<path d="M198.41 110.583H200.13V108.78H198.41V110.583Z" fill="#FAFAF9"/>
<path d="M198.41 113.606H200.13V111.803H198.41V113.606Z" fill="#FAFAF9"/>
<path d="M198.41 116.629H200.13V114.826H198.41V116.629Z" fill="#FAFAF9"/>
<path d="M198.41 119.652H200.13V117.849H198.41V119.652Z" fill="#FAFAF9"/>
<path d="M198.41 122.676H200.13V120.872H198.41V122.676Z" fill="#FAFAF9"/>
<path d="M198.41 125.699H200.13V123.895H198.41V125.699Z" fill="#FAFAF9"/>
<path d="M198.41 128.722H200.13V126.918H198.41V128.722Z" fill="#FAFAF9"/>
<path d="M198.41 131.745H200.13V129.941H198.41V131.745Z" fill="#FAFAF9"/>
<path d="M198.41 137.791H200.13V135.988H198.41V137.791Z" fill="#FAFAF9"/>
<path d="M198.41 140.814H200.13V139.011H198.41V140.814Z" fill="#FAFAF9"/>
<path d="M198.41 143.838H200.13V142.034H198.41V143.838Z" fill="#FAFAF9"/>
<path d="M198.41 146.86H200.13V145.058H198.41V146.86Z" fill="#FAFAF9"/>
<path d="M198.41 149.884H200.13V148.081H198.41V149.884Z" fill="#FAFAF9"/>
<path d="M198.41 152.907H200.13V151.104H198.41V152.907Z" fill="#FAFAF9"/>
<path d="M198.41 155.93H200.13V154.127H198.41V155.93Z" fill="#FAFAF9"/>
<path d="M198.41 158.953H200.13V157.15H198.41V158.953Z" fill="#FAFAF9"/>
<path d="M201.141 101.513H202.86V99.7107H201.141V101.513Z" fill="#FAFAF9"/>
<path d="M201.141 104.537H202.86V102.734H201.141V104.537Z" fill="#FAFAF9"/>
<path d="M201.141 107.56H202.86V105.757H201.141V107.56Z" fill="#FAFAF9"/>
<path d="M201.141 110.583H202.86V108.78H201.141V110.583Z" fill="#FAFAF9"/>
<path d="M201.141 113.606H202.86V111.803H201.141V113.606Z" fill="#FAFAF9"/>
<path d="M201.141 116.629H202.86V114.826H201.141V116.629Z" fill="#FAFAF9"/>
<path d="M201.141 119.652H202.86V117.849H201.141V119.652Z" fill="#FAFAF9"/>
<path d="M201.141 122.676H202.86V120.872H201.141V122.676Z" fill="#FAFAF9"/>
<path d="M201.141 125.699H202.86V123.895H201.141V125.699Z" fill="#FAFAF9"/>
<path d="M201.141 128.722H202.86V126.918H201.141V128.722Z" fill="#FAFAF9"/>
<path d="M201.141 131.745H202.86V129.941H201.141V131.745Z" fill="#FAFAF9"/>
<path d="M201.141 134.768H202.86V132.965H201.141V134.768Z" fill="#FAFAF9"/>
<path d="M201.141 137.791H202.86V135.988H201.141V137.791Z" fill="#FAFAF9"/>
<path d="M201.141 140.814H202.86V139.011H201.141V140.814Z" fill="#FAFAF9"/>
<path d="M201.141 143.838H202.86V142.034H201.141V143.838Z" fill="#FAFAF9"/>
<path d="M201.141 146.86H202.86V145.058H201.141V146.86Z" fill="#FAFAF9"/>
<path d="M201.141 149.884H202.86V148.081H201.141V149.884Z" fill="#FAFAF9"/>
<path d="M201.141 152.907H202.86V151.104H201.141V152.907Z" fill="#FAFAF9"/>
<path d="M201.141 155.93H202.86V154.127H201.141V155.93Z" fill="#FAFAF9"/>
<path d="M201.141 158.953H202.86V157.15H201.141V158.953Z" fill="#FAFAF9"/>
<path d="M184.955 113.288H186.675V111.485H184.955V113.288Z" fill="#FAFAF9"/>
<path d="M184.955 116.311H186.675V114.508H184.955V116.311Z" fill="#FAFAF9"/>
<path d="M184.955 119.334H186.675V117.531H184.955V119.334Z" fill="#FAFAF9"/>
<path d="M184.955 122.357H186.675V120.554H184.955V122.357Z" fill="#FAFAF9"/>
<path d="M184.955 125.38H186.675V123.577H184.955V125.38Z" fill="#FAFAF9"/>
<path d="M184.955 128.403H186.675V126.6H184.955V128.403Z" fill="#FAFAF9"/>
<path d="M184.955 131.427H186.675V129.624H184.955V131.427Z" fill="#FAFAF9"/>
<path d="M184.955 134.45H186.675V132.647H184.955V134.45Z" fill="#FAFAF9"/>
<path d="M184.955 137.473H186.675V135.67H184.955V137.473Z" fill="#FAFAF9"/>
<path d="M184.955 140.496H186.675V138.693H184.955V140.496Z" fill="#FAFAF9"/>
<path d="M187.689 113.288H189.409V111.485H187.689V113.288Z" fill="#FAFAF9"/>
<path d="M187.689 116.311H189.409V114.508H187.689V116.311Z" fill="#FAFAF9"/>
<path d="M187.689 119.334H189.409V117.531H187.689V119.334Z" fill="#FAFAF9"/>
<path d="M187.689 122.357H189.409V120.554H187.689V122.357Z" fill="#FAFAF9"/>
<path d="M187.689 125.38H189.409V123.577H187.689V125.38Z" fill="#FAFAF9"/>
<path d="M187.689 128.403H189.409V126.6H187.689V128.403Z" fill="#FAFAF9"/>
<path d="M187.689 131.427H189.409V129.624H187.689V131.427Z" fill="#FAFAF9"/>
<path d="M187.689 134.45H189.409V132.647H187.689V134.45Z" fill="#FAFAF9"/>
<path d="M187.689 137.473H189.409V135.67H187.689V137.473Z" fill="#FAFAF9"/>
<path d="M193.385 32.0231C193.385 30.2141 194.783 28.7471 196.509 28.7471C196.82 28.7471 197.121 28.7969 197.406 28.886C197.36 28.5577 197.335 28.222 197.335 27.8806C197.335 24.049 200.297 20.943 203.95 20.943C204.367 20.943 204.774 20.9854 205.169 21.0626C206.185 19.3178 208.013 18.1492 210.106 18.1492C213.273 18.1492 215.842 20.8178 215.89 24.1281L215.986 24.1225C218.929 24.1225 221.314 26.6248 221.314 29.7108C221.314 32.7974 218.929 35.2991 215.986 35.2991H196.417L196.421 35.2947C194.736 35.2455 193.385 33.8015 193.385 32.0231Z" fill="#F3F2F1"/>
<path d="M63.4927 16.9251H50.0844C50.12 16.5881 50.1414 16.2468 50.1414 15.8998C50.1414 10.7874 46.1901 6.64429 41.3157 6.64429C41.207 6.64429 41.1019 6.65676 40.9944 6.66049C39.8884 3.54833 37.0371 1.32696 33.6834 1.32696C29.3712 1.32696 25.8752 4.99352 25.8752 9.51599L25.8762 9.53468C22.0527 9.72156 18.9892 12.9209 18.7904 16.9251H18.4356C16.2775 16.9251 14.5117 18.7765 14.5117 21.0402C14.5117 23.3033 16.2775 25.1553 18.4356 25.1553H63.4927C65.6507 25.1553 67.4167 23.3033 67.4167 21.0402C67.4167 18.7765 65.6507 16.9251 63.4927 16.9251Z" fill="#F3F2F1"/>
<path d="M233.67 188.055C233.67 191.951 182.107 195.109 118.5 195.109C54.8935 195.109 3.33008 191.951 3.33008 188.055C3.33008 184.16 54.8935 181.002 118.5 181.002C182.107 181.002 233.67 184.16 233.67 188.055Z" fill="#F3F2F1"/>
<path d="M34.709 138.726H50.8576V135.902H34.709V138.726Z" fill="#17282F"/>
<path d="M49.3821 138.726H36.1543L36.4947 135.902H49.0566L49.3821 138.726Z" fill="#57666B"/>
<path d="M17.9297 189.372H20.7496L42.7467 82.4312H39.927L17.9297 189.372Z" fill="#17282F"/>
<path d="M20.7497 189.372H18.7324L36.1059 104.91L34.5158 122.447L33.6616 126.6L33.2903 128.403L33.0397 129.624L32.6684 131.426L32.4178 132.647L32.1231 134.08L28.8861 149.815L28.6868 150.785L25.3244 167.132L24.2687 172.265L24.2367 172.42L20.7497 189.372Z" fill="#405158"/>
<path d="M58.0247 189.247H55.205L42.8926 82.4312H45.7123L58.0247 189.247Z" fill="#17282F"/>
<path d="M53.6972 169.213L45.8594 101.219C46.5169 101.043 47.1638 100.811 47.7964 100.523L55.3776 166.293L53.6972 169.213Z" fill="#6C7A7F"/>
<path d="M28.457 189.247H31.2769L40.9615 82.4312H38.1418L28.457 189.247Z" fill="#17282F"/>
<path d="M31.2769 189.247H29.2598L37.2882 100.699C37.938 100.938 38.5938 101.135 39.2519 101.285L36.5712 130.853L36.5195 131.426L36.4084 132.647L36.2451 134.45L36.1138 135.902L35.8578 138.726L35.6968 140.496L35.5863 141.716L35.423 143.519L35.3125 144.739L35.1486 146.543L33.2822 167.132L32.8165 172.264L32.8029 172.42L31.2769 189.247Z" fill="#6C7A7F"/>
<path d="M53.6323 74.1226C58.6285 84.272 56.3665 95.9171 48.5798 100.132C40.793 104.348 30.4301 99.5382 25.4341 89.3894C20.4378 79.24 22.7001 67.595 30.4865 63.379C38.2739 59.1636 48.6362 63.9732 53.6323 74.1226Z" fill="#064677"/>
<path d="M54.8241 73.4997C59.8202 83.6485 57.5577 95.2935 49.7709 99.5095C41.9842 103.725 31.6213 98.9153 26.6254 88.7659C21.6293 78.6165 23.8914 66.9714 31.6783 62.7561C39.465 58.5401 49.8274 63.3503 54.8241 73.4997Z" fill="#406FBF"/>
<path d="M44.2141 96.5978C38.9958 96.5978 33.4924 92.8714 30.4506 86.6932C26.4189 78.5029 28.2452 69.1023 34.529 65.7005C36.0739 64.8639 37.7461 64.4671 39.4473 64.4671C44.4583 64.4671 49.7312 67.9019 52.836 73.6441L51.5233 74.3548C49.0267 69.8423 44.8485 67.1482 40.8776 67.1482C39.515 67.1482 38.1767 67.4652 36.9394 68.1349C31.9059 70.8608 30.444 78.3883 33.6742 84.9484C36.109 89.8963 40.5177 92.8814 44.6965 92.8814C46.0597 92.882 47.3974 92.5643 48.6359 91.894C53.4455 89.2902 54.994 82.3003 52.305 75.9601L53.6195 75.2487C57.1081 83.2241 55.1942 92.084 49.1325 95.365C47.5875 96.2016 45.9153 96.5978 44.2141 96.5978ZM45.1485 89.4721C42.0074 89.4721 38.6353 87.1317 36.7422 83.2883C34.2622 78.2494 35.2625 72.5346 38.9762 70.5238C39.8554 70.0485 40.8087 69.8224 41.7835 69.8224C44.7226 69.8224 47.8643 71.8706 49.8066 75.2842L48.0852 76.2161C46.6816 74.0209 44.6062 72.7084 42.6905 72.7084C42.0478 72.7084 41.4241 72.8554 40.8485 73.1669C38.3169 74.5367 37.6997 78.5602 39.4675 82.1545C40.8343 84.9303 43.2257 86.6365 45.4104 86.6365C46.0532 86.6365 46.6774 86.4889 47.253 86.1774C49.6427 84.8842 50.327 81.227 48.9085 77.799L50.5872 76.8902C52.5456 81.6954 51.455 86.8757 47.9569 88.77C47.0772 89.2466 46.1238 89.4721 45.1485 89.4721ZM45.6112 84.3429C44.0906 84.3429 42.3769 83.0721 41.3736 81.0326C40.0971 78.4369 40.4511 75.582 42.1648 74.6532C42.5325 74.4545 42.9323 74.3598 43.3463 74.3598C44.6281 74.3598 46.0472 75.2637 47.0618 76.7699L45.9486 77.3729C45.4182 76.7388 44.7523 76.3681 44.1434 76.3681C43.9153 76.3681 43.6956 76.4198 43.493 76.5295C42.5486 77.0409 42.3531 78.6144 43.057 80.0434C43.61 81.1672 44.5539 81.8674 45.3914 81.8674C45.6195 81.8674 45.8393 81.8157 46.0413 81.706C46.8188 81.2849 47.0885 80.145 46.7677 78.9583L47.8803 78.3559C48.7885 80.7498 48.3567 83.2029 46.7909 84.0507C46.4244 84.2488 46.0246 84.3429 45.6112 84.3429Z" fill="#064677"/>
<path d="M55.0197 94.3386C56.6609 91.5361 57.508 88.0869 57.4765 84.4185C57.4771 84.4814 57.4777 84.5443 57.4777 84.6072C57.4777 85.5572 57.4189 86.4934 57.3025 87.4054C57.1575 88.5441 56.9223 89.6461 56.6003 90.6988C56.2042 91.997 55.6749 93.2192 55.0197 94.3386ZM24.4375 73.1441C25.4129 68.6098 27.8926 64.8049 31.6773 62.7561C32.1335 62.5088 32.5986 62.2926 33.0708 62.107C32.5986 62.2932 32.1341 62.5088 31.6779 62.7555C27.8931 64.8049 25.4131 68.6091 24.4375 73.1441Z" fill="#B8D2EF"/>
<path d="M49.0137 99.8862C49.0149 99.8856 49.0149 99.885 49.0161 99.8844C49.2691 99.7685 49.5192 99.6433 49.7675 99.5094C49.8399 99.4701 49.9124 99.4296 49.9843 99.3891C49.9124 99.4302 49.8405 99.4701 49.7675 99.5094C49.5192 99.6439 49.2673 99.7697 49.0137 99.8862Z" fill="#ADC7EB"/>
<path d="M43.678 101.038C37.2129 101.037 30.3938 96.4198 26.6257 88.7665C24.0574 83.5501 23.4069 77.9387 24.4388 73.144C24.1283 74.5861 23.9706 76.1011 23.971 77.6584C23.9722 81.2783 24.8302 85.1186 26.6257 88.7659C30.3938 96.4198 37.2129 101.037 43.678 101.037C45.5129 101.037 47.3198 100.664 49.0199 99.8846C49.0187 99.8852 49.0187 99.8858 49.0175 99.8864C47.318 100.666 45.5123 101.038 43.678 101.038Z" fill="#406FBF"/>
<path d="M57.476 84.4183C57.4481 81.143 56.7204 77.6938 55.2336 74.3748L55.2342 74.3742C56.721 77.6932 57.4481 81.143 57.476 84.4183ZM54.4496 72.7702C50.6159 65.5529 44.0272 61.2285 37.7694 61.2285C36.1645 61.2285 34.5797 61.5132 33.0703 62.1068C34.5803 61.5132 36.1645 61.2279 37.7706 61.2279C44.0278 61.2279 50.6165 65.5529 54.4501 72.7702H54.4496Z" fill="#B8D2EF"/>
<path d="M43.6777 101.037C37.2126 101.037 30.3935 96.4197 26.6254 88.7658C24.8299 85.1185 23.9718 81.2782 23.9707 77.6583C23.9702 76.101 24.128 74.586 24.4385 73.1439C25.4141 68.609 27.8941 64.8048 31.6789 62.7553C32.1351 62.5087 32.5996 62.2931 33.0718 62.1069C34.5812 61.5132 36.1659 61.2285 37.7709 61.2285C44.0287 61.2285 50.6174 65.5529 54.451 72.7702L52.8372 73.6442C49.7323 67.902 44.4594 64.4672 39.4484 64.4672C37.7472 64.4672 36.0751 64.864 34.5301 65.7006C28.2463 69.1024 26.42 78.503 30.4517 86.6933C33.4935 92.8715 38.9969 96.5979 44.2152 96.5979C45.9165 96.5979 47.5886 96.2017 49.1336 95.3651C55.1953 92.0841 57.1092 83.2242 53.6206 75.2488L55.2351 74.3748C56.7219 77.6938 57.4496 81.143 57.4775 84.4184C57.509 88.0868 56.6619 91.5359 55.0207 94.3385C53.7406 96.5231 51.9776 98.3147 49.7709 99.5094C47.8565 100.546 45.7858 101.037 43.6777 101.037Z" fill="#93CCFF"/>
<path d="M44.6939 92.8816C40.5152 92.8816 36.1065 89.8965 33.6717 84.9486C30.4415 78.3885 31.9033 70.861 36.9369 68.1351C38.1742 67.4654 39.5125 67.1484 40.8751 67.1484C44.846 67.1484 49.0242 69.8425 51.5208 74.355L49.8041 75.2845C47.8618 71.8708 44.7201 69.8226 41.781 69.8226C40.8062 69.8226 39.8528 70.0487 38.9737 70.524C35.26 72.5348 34.2597 78.2496 36.7397 83.2885C38.6328 87.1319 42.0049 89.4723 45.146 89.4723C46.1213 89.4723 47.0747 89.2468 47.9544 88.7703C51.4525 86.8759 52.5431 81.6956 50.5846 76.8904L52.3025 75.9603C54.9915 82.3005 53.443 89.2904 48.6334 91.8942C47.3949 92.5645 46.0572 92.8822 44.6939 92.8816Z" fill="#93CCFF"/>
<path d="M45.41 86.6366C43.2253 86.6366 40.8339 84.9304 39.4671 82.1546C37.6993 78.5603 38.3165 74.5368 40.8481 73.167C41.4237 72.8555 42.0474 72.7085 42.6901 72.7085C44.6058 72.7085 46.6812 74.021 48.0848 76.2162L47.0614 76.77C46.0468 75.2638 44.6277 74.3599 43.3459 74.3599C42.9319 74.3599 42.5321 74.4546 42.1644 74.6533C40.4507 75.5821 40.0967 78.437 41.3732 81.0327C42.3765 83.0722 44.0902 84.343 45.6108 84.343C46.0242 84.343 46.424 84.2489 46.7905 84.0508C48.3563 83.203 48.7881 80.7499 47.8799 78.356L48.9081 77.7991C50.3266 81.2271 49.6423 84.8843 47.2526 86.1775C46.677 86.489 46.0527 86.6366 45.41 86.6366Z" fill="#93CCFF"/>
<path d="M43.4934 76.5296C42.549 77.041 42.3536 78.6146 43.0574 80.0436C43.7613 81.4732 45.0972 82.2176 46.0417 81.7062C46.9868 81.1947 47.1816 79.6212 46.4783 78.1916C45.7744 76.7626 44.4379 76.0182 43.4934 76.5296Z" fill="#F69F32"/>
<path d="M67.7955 61.9973L63.1878 64.4922L62.8457 69.2376L66.7334 71.6938L71.3405 69.199L67.3779 66.7845L67.7955 61.9973Z" fill="#F69F32"/>
<path d="M45.6419 79.5097C45.2921 79.5583 44.9351 79.377 44.764 79.0294C44.546 78.5871 44.7117 78.0433 45.1335 77.8147L67.6924 65.6015C68.1136 65.3735 68.6321 65.5467 68.8501 65.989C69.0675 66.4313 68.9024 66.9751 68.4807 67.2037L45.9217 79.4169C45.8314 79.4654 45.737 79.496 45.6419 79.5097Z" fill="#17282F"/>
<path d="M45.5287 79.5171C45.2174 79.5171 44.9169 79.3396 44.7642 79.0293C44.6989 78.896 44.668 78.754 44.668 78.6138C44.6692 78.2887 44.8384 77.9747 45.1337 77.8146L67.6926 65.6015C67.8185 65.5336 67.9528 65.5012 68.0858 65.5012C68.3971 65.5012 68.6976 65.6787 68.8503 65.9889C68.9156 66.1222 68.9465 66.2643 68.9459 66.4044C68.9453 66.7302 68.7755 67.0435 68.4808 67.2036L68.2628 67.3214L63.7146 69.7838L61.5192 70.9724L60.0015 71.794L55.2352 74.3748L53.6207 75.2488L52.3062 75.9602L50.5884 76.8902L48.9097 77.7991L47.8815 78.3559L45.9219 79.4168C45.8316 79.4654 45.7372 79.4959 45.6421 79.5096C45.6041 79.5146 45.5661 79.5171 45.5287 79.5171Z" fill="#9BA6A6"/>
<path d="M200.557 175.475V176.505L203.954 177.923H200.557V180.355H203.484L206.576 182.476H204.257L207.35 184.36H204.257V189.191L149.581 189.213V186.515L147.525 184.36H150.037V178.329H145.555V176.302H143.322V175.475H200.557Z" fill="#406FBF"/>
<path d="M149.581 189.213V186.515L174.492 187.512V189.203L149.581 189.213ZM174.492 186.515H149.58H149.581L147.525 184.36H150.037V178.329H145.555V176.302H143.322V175.475H154.698V175.696L168.234 175.691V176.302H170.467H145.555V177.214L170.467 176.302V178.329H174.949H150.037L174.949 180.145V184.36L150.037 183.395V184.36H172.437L174.492 186.515Z" fill="#93CCFF"/>
<path d="M174.493 189.203V186.515L172.438 184.36H174.95V180.145L175.058 180.152L174.95 178.329H170.467V176.302H168.234V175.691L179.61 175.686V175.696L200.557 175.681V175.694L174.95 176.302L200.558 176.505H200.557L203.321 177.659L203.337 177.923H200.557H174.493L200.557 178.835V180.355H203.483L203.611 182.476H175.336V183.395L203.612 182.497L203.723 184.36H183.301L203.759 184.951L204.014 189.191L174.493 189.203Z" fill="#0079C2"/>
<path d="M174.949 180.145L150.037 178.329H174.949V180.145Z" fill="#064677"/>
<path d="M175.056 180.153L174.947 180.145V178.329L175.056 180.153Z" fill="#91A6CE"/>
<path d="M145.553 177.214V176.302H170.465L145.553 177.214Z" fill="#064677"/>
<path d="M174.949 184.361H150.037V183.395L174.949 184.361Z" fill="#064677"/>
<path d="M200.558 176.505L200.557 175.694H200.558V176.505Z" fill="#E0E1DE"/>
<path d="M200.556 176.505L174.947 176.302L200.555 175.694V176.505" fill="#064677"/>
<path d="M200.557 178.835L174.492 177.923H200.557L200.557 178.835Z" fill="#064677"/>
<path d="M175.336 183.395V182.476H203.61L203.612 182.497L175.336 183.395Z" fill="#064677"/>
<path d="M203.757 184.951L183.299 184.361H203.722L203.757 184.951Z" fill="#064677"/>
<path d="M205.674 161.958V162.989L209.07 164.407H205.674V166.839H208.602L211.693 168.96H209.374L212.466 170.844H209.374V175.674L154.697 175.696V172.999L152.642 170.844H155.155V164.812H150.672V162.786H148.439V161.958H205.674Z" fill="#406FBF"/>
<path d="M154.697 175.696V172.999L179.609 173.996V175.686L168.233 175.691L154.697 175.696ZM179.609 172.999H154.697V172.999L152.642 170.844H155.155V164.812H150.672V162.786H148.439V161.958H202.615H173.351V162.786H175.584H150.672V163.697L175.584 162.786V164.812H180.066H155.155L180.066 166.628V170.844L155.155 169.878V170.844H177.554L179.609 172.999V172.999Z" fill="#93CCFF"/>
<path d="M200.557 175.681V175.677L203.202 175.676V175.679L200.557 175.681Z" fill="#E0E1DE"/>
<path d="M179.607 175.696V175.686L200.555 175.678V175.681L179.607 175.696Z" fill="#91A6CE"/>
<path d="M179.609 175.686V172.998L177.555 170.844H180.067V166.628L180.175 166.636L180.067 164.812H175.584V162.786H173.352V161.958H202.616L202.651 162.25L180.067 162.786L202.738 162.965L202.914 164.407H179.609L203.014 165.225L203.302 167.599H202.54V168.96H180.453V169.878L202.54 169.177V169.738H202.845L202.911 170.844H188.417L202.936 171.263L203.202 175.676L179.609 175.686ZM209.71 167.599H208.171L208.233 166.839H208.602L209.71 167.599ZM209.071 164.407H208.431L208.452 164.148L209.071 164.407ZM204.32 164.407H204.284L204.109 162.976L204.347 162.978L204.32 164.407ZM204.017 162.217L203.985 161.958H205.675V162.178L204.017 162.217Z" fill="#0079C2"/>
<path d="M180.066 166.628L155.154 164.812H180.066V166.628Z" fill="#064677"/>
<path d="M180.175 166.636L180.066 166.628V164.812L180.175 166.636Z" fill="#91A6CE"/>
<path d="M150.668 163.697V162.786H175.58L150.668 163.697Z" fill="#064677"/>
<path d="M180.066 170.844H155.154V169.878L180.066 170.844Z" fill="#064677"/>
<path d="M179.609 173.996L154.697 172.999H179.609V173.996Z" fill="#064677"/>
<path d="M204.347 162.978L204.109 162.976L204.016 162.217L205.674 162.178V162.341L204.36 162.269L204.347 162.978ZM202.738 162.965L180.066 162.786L202.651 162.25L202.738 162.965Z" fill="#064677"/>
<path d="M203.012 165.225L179.607 164.407H202.912L203.012 165.225ZM204.313 164.667L204.282 164.407H204.318L204.313 164.667Z" fill="#064677"/>
<path d="M180.451 169.878V168.96H202.538V169.177L180.451 169.878Z" fill="#064677"/>
<path d="M202.935 171.263L188.416 170.844H202.91L202.935 171.263Z" fill="#064677"/>
<path d="M215.687 149.718L211.047 181.575L215.038 182.214L219.678 150.358L215.687 149.718Z" fill="#17282F"/>
<path d="M217.166 167.599L217.196 167.394L216.058 167.212L216.009 167.544L216.353 167.599H213.082L215.686 149.718L219.677 150.358L219.149 153.987L218.01 153.805L217.962 154.135L219.1 154.317L219.128 154.131L219.01 154.945L217.871 154.762L217.823 155.093L218.961 155.275L218.87 155.902L217.732 155.719L217.684 156.051L218.822 156.233L218.856 155.996L218.695 157.101L218.73 156.86L217.592 156.678L217.544 157.008L218.682 157.191L217.893 162.607L216.755 162.425L216.707 162.755L217.845 162.937L217.235 167.132L217.166 167.599ZM216.198 166.255L216.149 166.585L217.288 166.768L217.336 166.437L216.198 166.255ZM216.337 165.298L216.288 165.628L217.427 165.81L217.475 165.48L216.337 165.298ZM216.476 164.339L216.428 164.671L217.566 164.853L217.614 164.521L216.476 164.339ZM216.616 163.381L216.568 163.712L217.706 163.895L217.754 163.564L216.616 163.381ZM216.895 161.466L216.846 161.797L217.985 161.98L218.033 161.648L216.895 161.466ZM217.034 160.509L216.986 160.839L218.125 161.021L218.173 160.691L217.034 160.509ZM217.173 159.551L217.125 159.882L218.263 160.064L218.312 159.734L217.173 159.551ZM217.313 158.592L217.265 158.925L218.403 159.106L218.451 158.775L217.313 158.592ZM217.453 157.636L217.405 157.966L218.543 158.148L218.591 157.818L217.453 157.636ZM218.15 152.847L218.102 153.178L219.24 153.361L219.288 153.028L218.15 152.847ZM218.29 151.889L218.242 152.219L219.38 152.402L219.428 152.072L218.29 151.889ZM218.429 150.932L218.381 151.262L219.519 151.444L219.567 151.114L218.429 150.932Z" fill="#B1BABA"/>
<path d="M219.517 151.444L218.379 151.262L218.427 150.932L219.565 151.114L219.517 151.444Z" fill="#899193"/>
<path d="M219.38 152.402L218.242 152.219L218.29 151.889L219.428 152.072L219.38 152.402Z" fill="#899193"/>
<path d="M219.242 153.36L218.104 153.178L218.152 152.847L219.29 153.028L219.242 153.36Z" fill="#899193"/>
<path d="M219.127 154.131L219.148 153.986H219.149L219.127 154.131Z" fill="#B6B8B6"/>
<path d="M219.101 154.317L217.963 154.135L218.011 153.805L219.15 153.987L219.128 154.131L219.101 154.317Z" fill="#899193"/>
<path d="M218.961 155.275L217.822 155.093L217.87 154.762L219.009 154.945L218.961 155.275Z" fill="#899193"/>
<path d="M218.822 156.233L217.684 156.051L217.732 155.719L218.87 155.902L218.856 155.996L218.822 156.233Z" fill="#899193"/>
<path d="M218.683 157.191L217.545 157.008L217.593 156.678L218.731 156.86L218.696 157.101L218.683 157.191Z" fill="#899193"/>
<path d="M218.542 158.148L217.404 157.966L217.452 157.636L218.59 157.818L218.542 158.148Z" fill="#899193"/>
<path d="M218.402 159.106L217.264 158.925L217.312 158.593L218.45 158.775L218.402 159.106Z" fill="#899193"/>
<path d="M218.265 160.064L217.127 159.882L217.175 159.551L218.313 159.734L218.265 160.064Z" fill="#899193"/>
<path d="M218.125 161.021L216.986 160.839L217.034 160.509L218.173 160.691L218.125 161.021Z" fill="#899193"/>
<path d="M217.984 161.98L216.846 161.797L216.894 161.466L218.033 161.648L217.984 161.98Z" fill="#899193"/>
<path d="M217.845 162.937L216.707 162.755L216.755 162.425L217.893 162.607L217.845 162.937Z" fill="#899193"/>
<path d="M217.704 163.895L216.566 163.712L216.614 163.381L217.753 163.564L217.704 163.895Z" fill="#899193"/>
<path d="M217.566 164.853L216.428 164.671L216.476 164.339L217.614 164.522L217.566 164.853Z" fill="#899193"/>
<path d="M217.427 165.81L216.289 165.628L216.337 165.298L217.475 165.48L217.427 165.81Z" fill="#899193"/>
<path d="M217.287 166.768L216.148 166.585L216.197 166.255L217.335 166.437L217.287 166.768Z" fill="#899193"/>
<path d="M217.165 167.599H216.352L216.008 167.544L216.057 167.212L217.195 167.394L217.165 167.599Z" fill="#899193"/>
<path d="M209.928 176.287H211.473V154.834H209.928V176.287Z" fill="#406FBF"/>
<path d="M210.054 152.402H211.347L211.473 154.834H209.928L210.054 152.402Z" fill="#406FBF"/>
<path d="M211.473 154.834H209.928L210.054 152.402H211.347L211.473 154.834Z" fill="#CFE0F5"/>
<path d="M211.473 167.599H209.928V154.834H211.473V167.132V167.599Z" fill="#0079C2"/>
<path d="M204.663 178.778L206.011 178.598L203.391 157.08L202.043 157.261L204.663 178.778Z" fill="#17282F"/>
<path d="M201.359 155.508L201.757 155.02L201.671 152.121L202.52 152.012L203.589 157.033L203.517 158.115L202.169 158.296L201.977 157.728L202.269 161.54L202.097 161.562C201.544 159.219 201.359 155.508 201.359 155.508Z" fill="#17282F"/>
<path d="M202.097 161.562C201.544 159.219 201.359 155.508 201.359 155.508L201.757 155.02L201.671 152.121L202.52 152.012L203.589 157.033L203.517 158.115L202.169 158.296L201.977 157.728L202.269 161.54L202.097 161.562Z" fill="#2B3C43"/>
<path d="M204.357 162.269L208.584 162.502L208.429 158.049L204.957 157.857L204.357 162.269Z" fill="#17282F"/>
<path d="M204.358 162.269L208.584 162.502L207.603 174.539L204.131 174.348L204.358 162.269Z" fill="#93CCFF"/>
<path d="M202.762 168.391H218.44L217.18 189.372H204.022L202.762 168.391Z" fill="#17282F"/>
<path d="M202.537 169.738H218.663V167.599H202.537V169.738Z" fill="#17282F"/>
<path d="M218.664 169.738H202.537V167.599H218.664V169.738Z" fill="#405158"/>
<path d="M105.267 15.8568H89.2571C86.2171 15.8568 83.752 18.4413 83.752 21.6301V37.9465C83.752 41.1347 86.2171 43.7198 89.2571 43.7198H99.0837L105.09 49.8152L102.787 43.7198H105.267C108.307 43.7198 110.772 41.1347 110.772 37.9465V21.6301C110.772 18.4413 108.307 15.8568 105.267 15.8568Z" fill="#406FBF"/>
<path d="M99.4398 43.3689L103.787 47.7798L102.319 43.8966L102.063 43.2198H102.787H105.267C108.009 43.2198 110.272 40.8813 110.272 37.9465V21.6301C110.272 18.6948 108.009 16.3568 105.267 16.3568H89.2571C86.5153 16.3568 84.252 18.6948 84.252 21.6301V37.9465C84.252 40.8812 86.5153 43.2198 89.2571 43.2198H99.0837H99.293L99.4398 43.3689Z" fill="white" stroke="black"/>
<path d="M91.6977 26.5195C93.0877 24.0819 95.8118 24.9746 97.2362 26.834C98.6149 24.9366 101.316 23.9704 102.765 26.3693C105.209 30.4134 100.323 34.2569 98.0108 35.7669C97.7488 35.9407 97.532 36.0833 97.3514 36.196C97.1679 36.0883 96.9475 35.9519 96.682 35.7849C94.3339 34.3379 89.3544 30.6277 91.6977 26.5195Z" fill="#F69F32"/>
<path d="M193.528 40.6912H200.066L192.255 34.4824L186.596 38.1247L193.528 40.6912Z" fill="#406FBF"/>
<path d="M200.059 40.6912H193.529L192.383 40.2663L193.135 38.1247L200.059 40.6912Z" fill="#116699"/>
<path d="M194.565 13.8222H188.621L164.566 30.2931L171.199 32.834L128.568 116.261L81.0333 121.719L42.0996 189.37H63.7871H72.6241H94.3116L114.452 142.135L158.403 137.023L193.134 38.1252L200.069 40.6941L194.565 13.8222Z" fill="#406FBF"/>
<path d="M63.7865 189.37H42.0996L81.0357 121.722H96.652L80.2193 155.546L63.7865 189.37ZM156.751 85.2785H144.401L153.346 67.7729C153.485 67.6259 153.623 67.4801 153.762 67.3356C155.396 65.5229 156.902 63.6473 158.329 61.6601C158.676 61.1767 158.682 60.4896 158.304 59.9963C158.11 59.7415 157.846 59.5808 157.565 59.5185L171.2 32.8359H178.845L156.751 85.2785Z" fill="#93CCFF"/>
<path d="M164.563 30.2944H164.561L164.561 30.2934L164.563 30.2944Z" fill="white"/>
<path d="M171.978 30.2944H164.563L164.561 30.2932L188.616 13.8242L194.559 13.8223L171.978 30.2944Z" fill="#93CCFF"/>
<path d="M171.194 32.8354L164.561 30.2945H164.564L171.194 32.8342" fill="#A3C3EA"/>
<path d="M178.843 32.8361H171.198L171.196 32.8354L171.197 32.8342L164.566 30.2945H171.982L178.843 32.8361Z" fill="#116699"/>
<path d="M200.064 40.6912L193.132 38.1247L158.401 137.021L114.449 142.135L94.3069 189.372H63.7812L96.6473 121.722L143.693 116.259L178.84 32.836L171.98 30.2944L194.557 13.8242L200.064 40.6912Z" fill="#064677"/>
<path d="M96.6495 121.722H81.0332L108.84 118.526L114.405 117.886C114.911 118.517 115.508 119.034 116.172 119.454L96.6495 121.722Z" fill="#9ABDE7"/>
<path d="M120.177 50.6077C120.177 50.6077 114.042 52.089 113.679 56.8806C113.408 60.4481 115.508 66.2513 114.16 73.8698C113.539 77.38 113.567 84.9081 122.959 82.4662C134.264 79.5266 132.285 53.0982 127.596 51.8374C122.907 50.5765 120.177 50.6077 120.177 50.6077Z" fill="#17282F"/>
<path d="M131.377 71.2601L131.354 71.2576C131.288 71.2439 131.245 71.1767 131.259 71.1075C132.792 63.0356 130.61 54.0586 128.374 52.4757C127.98 52.1966 127.608 52.1748 127.268 52.4084C127.212 52.4458 127.137 52.4302 127.1 52.3717C127.063 52.3131 127.079 52.2346 127.135 52.196C127.559 51.9045 128.034 51.9281 128.509 52.2651C130.79 53.8791 133.1 62.7191 131.496 71.1574C131.485 71.2178 131.434 71.2601 131.377 71.2601Z" fill="#17282F"/>
<path d="M148.493 152.085L145.184 151.425L146.711 137.633L149.33 113.968L127.715 113.308L126.325 103.715L125.85 100.444C125.85 100.444 129.99 100.775 135.265 101.441C140.462 102.101 146.758 103.079 151.285 104.4H151.291C153.328 104.992 155.003 105.652 156.06 106.375C161.864 110.355 148.493 152.085 148.493 152.085Z" fill="#FFBA9A"/>
<path d="M146.712 137.633L147.701 128.705C151.303 121.346 153.644 114.824 151.907 112.795C150.208 110.81 145.737 108.883 140.76 107.239C141.578 106.302 142.411 105.424 143.238 104.657H148.719C146.865 104.963 144.349 105.633 142.34 107.097C142.34 107.097 148.958 109.116 153.009 113.302C155.676 116.061 150.526 129.093 146.712 137.633Z" fill="#E29D7D"/>
<path d="M133.177 68.3917C136.502 68.4097 139.929 68.4683 143.24 68.2422C144.619 68.097 145.998 68.1101 147.14 67.3128C150.419 65.1157 153.38 62.3356 156.467 59.8002C157.022 59.3181 157.85 59.4059 158.301 59.9965C158.678 60.4898 158.672 61.1769 158.325 61.6603C156.898 63.6474 155.392 65.5231 153.758 67.3358C151.941 69.2345 150.137 71.3606 147.701 72.47C145.187 73.42 142.712 73.5707 140.136 73.7588C137.744 73.9046 135.412 73.9339 133.015 73.8267C129.635 73.5713 129.784 68.4253 133.177 68.3917Z" fill="#FFBA9A"/>
<path d="M132.631 68.2116C136.652 67.755 142.291 68.2116 142.291 68.2116L141.116 74.616L131.975 76.5203L132.631 68.2116Z" fill="#406FBF"/>
<path d="M133.945 76.1111V76.1105L134.704 75.9522L135.193 75.8507L134.86 75.9205L133.945 76.1111Z" fill="#FEFEFE"/>
<path d="M141.117 74.6128L141.289 73.6734H141.29L141.118 74.6128H141.117Z" fill="#F9F9F8"/>
<path d="M141.291 73.6733L141.469 72.7016L141.292 73.6733H141.291Z" fill="#FABFBF"/>
<path d="M132.631 68.2123V68.2098C133.972 68.0584 135.492 68.008 136.923 68.008C139.784 68.008 142.289 68.2098 142.289 68.2098V68.2117C142.188 68.2036 139.726 68.0092 136.924 68.0092C135.493 68.0092 133.972 68.0597 132.632 68.2117C132.631 68.2123 132.631 68.2123 132.631 68.2123Z" fill="#F9F9F8"/>
<path d="M134.704 75.9521L136.622 75.5522C136.001 73.78 134.547 71.4963 133.196 70.4834C132.892 68.9616 132.633 68.2116 132.633 68.2116C133.973 68.0596 135.494 68.0092 136.924 68.0092C139.727 68.0092 142.188 68.2035 142.29 68.2116L141.469 72.7017L141.291 73.6735L141.119 74.6128L135.957 75.6911L135.192 75.8506L134.704 75.9521Z" fill="white"/>
<path d="M133.946 76.1104C133.753 73.6591 133.458 71.7872 133.197 70.4834C134.549 71.4963 136.002 73.78 136.623 75.5522L134.705 75.9521L133.946 76.1104Z" fill="#F4F4F4"/>
<path d="M142.019 67.8933L140.805 75.1243L142.097 74.7567L142.959 67.8933H142.019Z" fill="#0079C2"/>
<path d="M122.082 102.414C122.082 102.414 147.275 107.387 151.904 112.795C156.533 118.204 132.19 155.547 132.19 155.547L129.154 154.02L142.348 118.94L119.35 119.015L122.082 102.414Z" fill="#FFBA9A"/>
<path d="M145.735 102.702C139.669 106.44 132.022 119.672 132.022 119.672C132.022 119.672 101.63 129.484 117.008 97.3573L132.526 96.1015L133.466 100.745C140.443 101.672 145.735 102.702 145.735 102.702Z" fill="#17282F"/>
<path d="M117.105 95.1452L116.846 97.5871L132.886 98.1602L133.192 95.2716L117.105 95.1452Z" fill="#17282F"/>
<path d="M132.886 98.1602L125.913 97.911C124.732 97.0339 123.476 96.1269 122.275 95.2324L133.175 95.4299L132.886 98.1602ZM118.275 97.6381L116.846 97.5871L116.926 96.8302C117.37 97.113 117.821 97.3784 118.275 97.6381Z" fill="#405158"/>
<path d="M122.313 98.9774L121.52 98.9282L121.761 94.6898L122.554 94.7396L122.313 98.9774Z" fill="#17282F"/>
<path d="M129.399 98.0686L125.887 97.9901L125.944 95.1969L129.456 95.2748L129.399 98.0686Z" fill="white"/>
<path d="M132.147 98.9906L131.354 98.9408L131.595 94.703L132.388 94.7522L132.147 98.9906Z" fill="#17282F"/>
<path d="M133.181 95.4299L117.018 95.1372C117.018 95.1372 117.03 94.2594 116.893 91.1386C116.81 89.1452 116.668 86.7469 116.43 84.2365C116.044 80.2684 115.42 76.0263 114.387 72.6874C114.387 72.6874 119.62 70.025 132.634 68.2116C132.634 68.2116 135.664 76.9887 133.181 95.4299Z" fill="#0079C2"/>
<path d="M128.68 82.9458C128.669 82.9458 128.658 82.9452 128.646 82.9446C128.394 82.9252 128.205 82.6954 128.224 82.4313C128.241 82.179 128.442 81.9865 128.68 81.9865C128.691 81.9865 128.702 81.9871 128.713 81.9877C128.965 82.007 129.154 82.2369 129.136 82.501C129.118 82.7533 128.918 82.9458 128.68 82.9458Z" fill="#A4C3E9"/>
<path d="M128.733 88.1279C128.722 88.1279 128.711 88.1273 128.7 88.1267C128.448 88.1074 128.258 87.8775 128.277 87.6134C128.294 87.3611 128.495 87.1686 128.732 87.1686C128.744 87.1686 128.755 87.1692 128.766 87.1699C129.018 87.1892 129.207 87.419 129.189 87.6832C129.171 87.9354 128.97 88.1279 128.733 88.1279Z" fill="#A4C3E9"/>
<path d="M128.351 92.9868C128.339 92.9868 128.328 92.9862 128.317 92.9856C128.065 92.9663 127.875 92.7364 127.894 92.4723C127.912 92.22 128.112 92.0275 128.349 92.0275C128.361 92.0275 128.372 92.0281 128.383 92.0288C128.635 92.0481 128.825 92.2779 128.806 92.542C128.788 92.7943 128.588 92.9868 128.351 92.9868Z" fill="#A4C3E9"/>
<path d="M119.868 75.7559C119.868 75.7559 117.175 70.2741 123.997 68.9797C130.819 67.6858 132.567 72.0557 132.567 72.0557L129.273 71.1979L128.271 79.5265C128.271 79.5265 126.596 75.0613 121.651 72.8331L119.868 75.7559Z" fill="#406FBF"/>
<path d="M128.271 79.5265C128.271 79.5265 126.596 75.0613 121.651 72.8331L119.868 75.7559C119.868 75.7559 119.343 74.6882 119.344 73.3832C119.344 71.9803 119.952 70.3034 122.475 69.3877C122.254 69.9658 121.902 70.5108 121.368 70.9662C121.368 70.9662 124.349 73.5432 127.534 75.3348C127.534 75.3348 128.21 72.4176 127.508 70.7631C127.508 70.7631 126.721 70.6821 126.507 69.2077C126.486 69.0663 126.469 68.9105 126.46 68.7405C131.254 68.7716 132.567 72.0557 132.567 72.0557L129.272 71.1979L128.271 79.5265Z" fill="white"/>
<path d="M127.532 75.3348C124.347 73.5433 121.365 70.9662 121.365 70.9662C123.045 69.5341 122.92 67.2199 122.617 65.7592C122.455 64.9512 122.235 64.4043 122.235 64.4043L126.801 65.6663C126.624 66.4587 126.524 67.129 126.48 67.6965C126.426 68.3194 126.445 68.8159 126.505 69.2077C126.719 70.6822 127.506 70.7632 127.506 70.7632C128.208 72.4177 127.532 75.3348 127.532 75.3348Z" fill="#FFBA9A"/>
<path d="M126.506 69.2075C124.686 68.8132 123.401 67.1649 122.618 65.759C122.456 64.951 122.236 64.4041 122.236 64.4041L126.802 65.6662C126.625 66.4585 126.524 67.1288 126.48 67.6963C126.458 67.9492 126.449 68.1816 126.449 68.3946C126.45 68.7054 126.47 68.9745 126.506 69.2075Z" fill="#EEA989"/>
<path d="M142.336 152.22L142.992 152.789L143.844 152.099L145.2 155.01L150.691 159.785C150.691 159.785 152.293 159.624 150.258 156.616C150.165 156.479 150.079 156.324 150.004 156.146C149.152 154.247 148.999 150.205 148.999 150.205L145.986 147.585C145.986 147.585 145.756 147.651 145.379 147.825C144.5 148.234 142.777 149.199 142.336 152.22Z" fill="#F69F32"/>
<path d="M145.381 147.825L145.373 147.835C146.139 147.716 146.334 151.333 147.11 153.182C147.805 154.83 148.92 156.26 150.006 156.146C149.154 154.247 149.328 149.346 149.328 149.346L146.906 147.238C146.906 147.238 145.757 147.651 145.381 147.825Z" fill="#FFBA9A"/>
<path d="M125.295 155.349L125.806 156.063L126.788 155.6L127.461 158.762L131.742 164.746C131.742 164.746 133.335 164.981 132.023 161.558C131.964 161.402 131.915 161.231 131.881 161.039C131.474 158.984 132.222 155.016 132.222 155.016L129.873 151.732C129.873 151.732 129.634 151.741 129.229 151.818C128.283 152.002 126.394 152.52 125.295 155.349Z" fill="#F69F32"/>
<path d="M129.228 151.818L129.219 151.826C129.99 151.897 129.377 155.463 129.722 157.449C130.032 159.222 130.799 160.886 131.88 161.039C131.473 158.984 132.73 154.26 132.73 154.26L130.842 151.619C130.842 151.619 129.633 151.741 129.228 151.818Z" fill="#FFBA9A"/>
<path d="M155.971 60.3385L158.382 55.5145L162.015 58.3707C162.015 58.3707 160.782 61.9911 157.759 62.0802L155.971 60.3385Z" fill="#FFBA9A"/>
<path d="M161.435 53.3274L163.658 56.1362L162.016 58.3706L158.383 55.5145L161.435 53.3274Z" fill="#FFBA9A"/>
<path d="M124.954 98.1601L130.13 98.6099L129.037 103.231C129.037 103.231 125.377 103.451 124.121 100.565L124.954 98.1601Z" fill="#FFBA9A"/>
<path d="M133.238 100.706L131.637 103.946L129.035 103.231L129.582 100.921L130.128 98.6098L133.238 100.706Z" fill="#FFBA9A"/>
<path d="M155.066 102.503V104.084C155.066 104.49 154.61 104.657 154.228 104.657H124.095C123.708 104.657 123.242 104.49 123.242 104.084V102.503H155.066Z" fill="#17282F"/>
<path d="M134.354 104.657H124.095C123.708 104.657 123.242 104.49 123.242 104.084V102.503H135.139H133.508V104.084C133.508 104.49 133.967 104.657 134.354 104.657Z" fill="#6C7A7F"/>
<path d="M154.228 104.657H134.354C133.967 104.657 133.508 104.49 133.508 104.084V102.503H135.14L135.024 103.046C134.904 103.608 135.239 104.118 135.76 104.118H136.427H155.065C155.04 104.5 154.599 104.657 154.228 104.657Z" fill="#535F64"/>
<path d="M160.109 86.0853L156.523 103.149C156.406 103.711 155.884 104.118 155.357 104.118H135.763C135.241 104.118 134.906 103.608 135.027 103.046L138.61 86.1134C138.731 85.5559 139.248 85.2787 139.774 85.2787H159.369C159.896 85.2787 160.226 85.5284 160.109 86.0853Z" fill="#17282F"/>
<path d="M155.356 104.118H136.428C135.902 104.118 135.571 103.608 135.687 103.046L139.275 86.1134C139.391 85.5559 139.913 85.2787 140.439 85.2787H159.368C159.823 85.2787 160.131 85.4643 160.132 85.8742C160.132 85.939 160.125 86.0093 160.108 86.0853L156.522 103.149C156.405 103.711 155.883 104.118 155.356 104.118ZM148.9 92.1197C147.829 92.1633 146.739 93.3313 146.427 94.7628C146.115 96.2235 146.764 97.4108 147.859 97.4108C148.954 97.4108 150.448 96.2235 150.448 94.7628V94.7578L150.347 94.7628C149.257 94.7628 148.588 93.5804 148.9 92.1197Z" fill="#6C7A7F"/>
<path d="M147.858 97.4109C146.763 97.4109 146.114 96.2236 146.426 94.7628C146.738 93.3313 147.828 92.1633 148.899 92.1197C148.587 93.5805 149.256 94.7628 150.346 94.7628L150.446 94.7578V94.7628C150.446 96.2236 148.952 97.4109 147.858 97.4109Z" fill="#535F64"/>
<path d="M117.881 89.8883C117.812 88.7029 117.774 87.4016 117.754 86.0635L118.249 86.0299C118.249 86.0299 118.485 84.7093 118.65 83.0056C119.036 84.746 119.305 87.5573 117.881 89.8883Z" fill="#3563B7"/>
<path d="M117.718 77.0205C117.776 81.1629 117.611 87.5106 118.008 91.5634L118.05 91.8424C118.05 91.8742 118.082 91.9377 117.969 91.7247C120.347 94.0264 124.744 96.9399 127.848 99.3836C128.433 99.8209 128.567 100.678 128.143 101.287C127.789 101.798 127.157 101.973 126.622 101.751C124.349 100.808 122.148 99.763 119.968 98.59C118.096 97.5261 116.181 96.5618 114.538 95.0013C113.867 94.3703 113.494 93.3331 113.346 92.5308C112.452 87.3517 112.496 82.1827 112.533 76.9569C112.713 73.4143 117.616 73.4673 117.718 77.0205Z" fill="#FFBA9A"/>
<path d="M114.388 72.6848C111.693 74.1244 111.263 79.0119 111.79 86.464L118.251 86.0298C118.251 86.0298 119.352 79.8429 118.468 76.9699C117.149 72.6848 114.388 72.6848 114.388 72.6848Z" fill="#406FBF"/>
<path d="M111.79 86.464C111.665 84.6955 111.594 83.0715 111.594 81.6039C111.595 76.8864 112.333 73.783 114.389 72.6848C114.389 72.6848 117.149 72.6848 118.468 76.9699C118.721 77.7916 118.812 78.8854 118.812 80.0273C118.813 82.8772 118.251 86.0298 118.251 86.0298L117.756 86.0634L112.67 86.4048L111.79 86.464Z" fill="#F4F4F4"/>
<path d="M111.336 86.0418L118.503 85.7957L118.346 86.884L111.336 87.2739V86.0418Z" fill="#0079C2"/>
<path d="M122.88 52.441C127.761 51.3179 128.689 53.6975 129.861 57.896C131.326 63.1436 130.984 67.1864 125.814 67.1721C118.793 67.1521 116.33 53.9492 122.88 52.441Z" fill="#FFBA9A"/>
<path d="M127.264 58.2454C127.264 58.2454 128.034 59.2023 128.767 59.7006C128.767 59.7006 128.546 60.3404 127.824 60.4058L127.264 58.2454Z" fill="#F14453"/>
<path d="M124.778 58.4572C124.856 58.7955 124.745 59.1138 124.53 59.1686C124.315 59.2228 124.077 58.9929 123.999 58.6547C123.922 58.3164 124.033 57.9981 124.248 57.9439C124.462 57.8891 124.7 58.119 124.778 58.4572Z" fill="#17282F"/>
<path d="M124.162 57.9825L124.797 57.5165C124.797 57.5165 124.59 58.2236 124.162 57.9825Z" fill="#17282F"/>
<path d="M128.768 57.3702C128.846 57.7084 128.736 58.0267 128.521 58.0816C128.305 58.1358 128.068 57.9059 127.99 57.5676C127.912 57.2294 128.023 56.9111 128.238 56.8569C128.453 56.8021 128.691 57.0319 128.768 57.3702Z" fill="#17282F"/>
<path d="M128.154 56.8956L128.789 56.4297C128.789 56.4297 128.583 57.1373 128.154 56.8956Z" fill="#17282F"/>
<path d="M122.564 56.804L122.487 56.7846C122.402 56.7398 122.368 56.6314 122.411 56.543C122.891 55.5506 124.081 55.4335 124.132 55.4291C124.228 55.4279 124.309 55.4939 124.317 55.593C124.326 55.692 124.255 55.7792 124.161 55.788C124.151 55.7892 123.11 55.8945 122.718 56.7055C122.687 56.7678 122.627 56.804 122.564 56.804Z" fill="#17282F"/>
<path d="M126.976 54.96C126.92 54.96 126.863 54.9301 126.831 54.8759C126.781 54.7918 126.804 54.6815 126.884 54.6286C126.913 54.6099 127.61 54.1558 128.682 54.5949C128.77 54.6311 128.814 54.7351 128.779 54.8279C128.745 54.9207 128.645 54.9668 128.557 54.9301C127.657 54.5607 127.091 54.917 127.067 54.9326L126.976 54.96Z" fill="#17282F"/>
<path d="M120.144 60.6269C120.144 60.6269 121.285 56.8064 120.462 54.2449C120.462 54.2449 122.613 50.5971 126.983 52.7069C126.983 52.7069 129.141 55.1744 129.698 57.3496C129.698 57.3496 128.932 49.7842 122.114 51.1646C115.306 52.5425 117.48 62.946 121.625 65.2496C121.625 65.2496 119.443 63.0133 120.144 60.6269Z" fill="#17282F"/>
<path d="M120.972 61.3537C120.808 60.6928 119.919 59.7148 118.765 60.1191C117.571 60.5377 117.534 63.3029 120.707 63.2431C121.162 63.235 121.315 62.731 120.972 61.3537Z" fill="#FFBA9A"/>
<path d="M126.762 63.1583C126.216 63.1583 125.559 62.9708 125.043 62.2582C124.985 62.1791 125 62.0663 125.076 62.0065C125.151 61.9455 125.259 61.9611 125.316 62.0408C126.226 63.2966 127.627 62.6344 127.686 62.6052C127.771 62.564 127.874 62.6027 127.914 62.6924C127.954 62.7827 127.917 62.8892 127.831 62.9316C127.823 62.9359 127.358 63.1583 126.762 63.1583Z" fill="#17282F"/>
<path d="M120.467 54.2449C120.467 54.2449 124.534 51.1091 128.098 53.1934C128.098 53.1934 128.506 49.2758 124.248 48.9518C119.99 48.6273 116.803 53.7553 116.803 53.7553L120.467 54.2449Z" fill="#17282F"/>
<path d="M122.046 52.943C122.046 52.943 118.838 55.7443 119.632 61.2466C120.451 66.9172 119.713 69.5123 119.365 73.1384C118.899 77.981 121.887 78.7833 121.887 78.7833C121.887 78.7833 118.925 79.0867 117.968 75.6444C117.476 73.8728 117.765 66.5727 115.126 62.0888C112.128 56.9958 118.092 52.1083 122.046 52.943Z" fill="#17282F"/>
</g>
<defs>
<clipPath id="clip0_998_8523">
<rect width="238" height="186" fill="white"/>
</clipPath>
</defs>
</svg>
