<svg width="238" height="186" viewBox="0 0 238 186" fill="none" xmlns="http://www.w3.org/2000/svg">
<g clip-path="url(#clip0_998_11039)">
<rect width="238" height="186" fill="white"/>
<path d="M-30 167.132H267V166.976H-30V167.132Z" fill="#E7E8E5"/>
<path d="M217.565 177.002H237.24V177.158H217.565V177.002Z" fill="#E7E8E5"/>
<path d="M161.581 178.848H166.745V178.693H161.581V178.848Z" fill="#E7E8E5"/>
<path d="M205.572 171.374H216.972V171.218H205.572V171.374Z" fill="#E7E8E5"/>
<path d="M1.16016 172.42H26.817V172.264H1.16016V172.42Z" fill="#E7E8E5"/>
<path d="M32.1074 172.42H35.8693V172.264H32.1074V172.42Z" fill="#E7E8E5"/>
<path d="M48.0947 175.05H103.738V174.895H48.0947V175.05Z" fill="#E7E8E5"/>
<path d="M-3.91304 -36.8444C-5.7008 -36.8444 -7.15521 -35.3194 -7.15521 -33.445V135.638C-7.15521 137.513 -5.7008 139.038 -3.91304 139.038H110.788C112.575 139.038 114.029 137.513 114.029 135.638V-33.445C114.029 -35.3194 112.575 -36.8444 110.788 -36.8444H-3.91304ZM110.788 139.194H-3.91304C-5.78271 139.194 -7.30371 137.599 -7.30371 135.638V-33.445C-7.30371 -35.4048 -5.78271 -37.0001 -3.91304 -37.0001H110.788C112.656 -37.0001 114.178 -35.4048 114.178 -33.445V135.638C114.178 137.599 112.656 139.194 110.788 139.194Z" fill="#E7E8E5"/>
<path d="M124.567 -36.8444C122.779 -36.8444 121.325 -35.3194 121.325 -33.445V135.638C121.325 137.513 122.779 139.038 124.567 139.038H239.267C241.055 139.038 242.51 137.513 242.51 135.638V-33.445C242.51 -35.3194 241.055 -36.8444 239.267 -36.8444H124.567ZM239.267 139.194H124.567C122.697 139.194 121.177 137.599 121.177 135.638V-33.445C121.177 -35.4048 122.697 -37.0001 124.567 -37.0001H239.267C241.137 -37.0001 242.658 -35.4048 242.658 -33.445V135.638C242.658 137.599 241.137 139.194 239.267 139.194Z" fill="#E7E8E5"/>
<path d="M231.985 167.132V137.358H229.557V123.172H226.008L226.009 73.8467H220.879V67.4823L209.926 62.1257V55.7083H208.409V73.8467H206.285V123.172H204.16V97.2365H198.395V83.8716H196.786V123.172H192.408V108.215H189.525V104.396H182.849V91.3492H179.193V82.1211H174.699V68.6758H173.095V82.1211H168.601V91.3492H164.946V104.396H158.27V108.215H155.387V123.172H151.968V104.396H145.292V63.982H143.168V59.5268H128.906V63.982H125.872V93.2585H113.734V96.1227H109.182V98.3503H113.734V109.807H100.989V71.6198H98.2579V63.5049H92.3411V34.7056H90.6719V63.5049H86.4237V71.6198H61.5184V68.9486H60.0008V87.0871H57.8766V87.4054H56.6007V105.545H54.4771V110.477H49.9871V97.1113H48.3785V128.934H46.587V115.569H44.9785V136.412H43.9996V121.455H41.1169V117.637H34.4409V104.59H30.7849V95.3609H26.2913V81.9162H24.6875V95.3609H20.1935V104.59H16.5376V117.637H9.86186V121.455H6.97912V136.094H6.46192V136.412H5.03418V167.132H231.985Z" fill="#EDEDEB"/>
<path d="M75.4121 75.207H77.1317V73.4037H75.4121V75.207Z" fill="#FAFAF9"/>
<path d="M75.4121 78.2302H77.1317V76.4268H75.4121V78.2302Z" fill="#FAFAF9"/>
<path d="M75.4121 90.3225H77.1317V88.5198H75.4121V90.3225Z" fill="#FAFAF9"/>
<path d="M75.4121 93.3463H77.1317V91.5429H75.4121V93.3463Z" fill="#FAFAF9"/>
<path d="M75.4121 96.3693H77.1317V94.5659H75.4121V96.3693Z" fill="#FAFAF9"/>
<path d="M75.4121 105.438H77.1317V103.635H75.4121V105.438Z" fill="#FAFAF9"/>
<path d="M75.4121 108.462H77.1317V106.658H75.4121V108.462Z" fill="#FAFAF9"/>
<path d="M78.1436 87.2994H79.8632V85.4961H78.1436V87.2994Z" fill="#FAFAF9"/>
<path d="M78.1436 90.3225H79.8632V88.5198H78.1436V90.3225Z" fill="#FAFAF9"/>
<path d="M78.1436 93.3463H79.8632V91.5429H78.1436V93.3463Z" fill="#FAFAF9"/>
<path d="M78.1436 96.3693H79.8632V94.5659H78.1436V96.3693Z" fill="#FAFAF9"/>
<path d="M78.1436 99.3922H79.8632V97.5888H78.1436V99.3922Z" fill="#FAFAF9"/>
<path d="M78.1436 105.438H79.8632V103.635H78.1436V105.438Z" fill="#FAFAF9"/>
<path d="M78.1436 108.462H79.8632V106.658H78.1436V108.462Z" fill="#FAFAF9"/>
<path d="M80.875 75.207H82.594V73.4037H80.875V75.207Z" fill="#FAFAF9"/>
<path d="M80.875 78.2302H82.594V76.4268H80.875V78.2302Z" fill="#FAFAF9"/>
<path d="M80.875 81.2532H82.5946V79.4498H80.8756L80.875 81.2532Z" fill="#FAFAF9"/>
<path d="M80.875 84.2764H82.5946V82.473H80.875V84.2764Z" fill="#FAFAF9"/>
<path d="M80.875 87.2994H82.5946V85.4961H80.875V87.2994Z" fill="#FAFAF9"/>
<path d="M80.875 90.3225H82.5946V88.5198H80.875V90.3225Z" fill="#FAFAF9"/>
<path d="M80.875 93.3463H82.5946V91.5429H80.875V93.3463Z" fill="#FAFAF9"/>
<path d="M80.875 96.3693H82.5946V94.5659H80.875V96.3693Z" fill="#FAFAF9"/>
<path d="M80.875 99.3922H82.5946V97.5888H80.875V99.3922Z" fill="#FAFAF9"/>
<path d="M80.875 102.415H82.5946V100.612H80.875V102.415Z" fill="#FAFAF9"/>
<path d="M80.875 108.462H82.5946V106.658H80.875V108.462Z" fill="#FAFAF9"/>
<path d="M83.6045 75.207H85.3241V73.4037H83.6045V75.207Z" fill="#FAFAF9"/>
<path d="M83.6045 78.2302H85.3241V76.4268H83.6045V78.2302Z" fill="#FAFAF9"/>
<path d="M83.6045 81.2532H85.3241V79.4498H83.6045V81.2532Z" fill="#FAFAF9"/>
<path d="M83.6045 84.2764H85.3241V82.473H83.6045V84.2764Z" fill="#FAFAF9"/>
<path d="M83.6045 87.2994H85.3241V85.4961H83.6045V87.2994Z" fill="#FAFAF9"/>
<path d="M83.6045 90.3225H85.3241V88.5198H83.6045V90.3225Z" fill="#FAFAF9"/>
<path d="M83.6045 93.3463H85.3241V91.5429H83.6045V93.3463Z" fill="#FAFAF9"/>
<path d="M83.6045 120.554H85.3241V118.75H83.6045V120.554Z" fill="#FAFAF9"/>
<path d="M86.3379 75.207H88.0575V73.4037H86.3379V75.207Z" fill="#FAFAF9"/>
<path d="M86.3379 78.2302H88.0575V76.4268H86.3379V78.2302Z" fill="#FAFAF9"/>
<path d="M86.3379 81.2532H88.0575V79.4498H86.3379V81.2532Z" fill="#FAFAF9"/>
<path d="M86.3379 84.2764H88.0575V82.473H86.3379V84.2764Z" fill="#FAFAF9"/>
<path d="M86.3379 87.2994H88.0575V85.4961H86.3379V87.2994Z" fill="#FAFAF9"/>
<path d="M86.3379 90.3225H88.0575V88.5198H86.3379V90.3225Z" fill="#FAFAF9"/>
<path d="M86.3379 93.3463H88.0575V91.5429H86.3379V93.3463Z" fill="#FAFAF9"/>
<path d="M86.3379 96.3693H88.0575V94.5659H86.3379V96.3693Z" fill="#FAFAF9"/>
<path d="M86.3379 114.508H88.0575V112.704H86.3379V114.508Z" fill="#FAFAF9"/>
<path d="M86.3379 117.531H88.0575V115.728H86.3379V117.531Z" fill="#FAFAF9"/>
<path d="M86.3379 120.554H88.0575V118.75H86.3379V120.554Z" fill="#FAFAF9"/>
<path d="M86.3379 123.577H88.057V121.774H86.3379V123.577Z" fill="#FAFAF9"/>
<path d="M86.3379 135.67H88.057V133.867H86.3379V135.67Z" fill="#FAFAF9"/>
<path d="M89.0693 75.207H90.7884V73.4037H89.0693V75.207Z" fill="#FAFAF9"/>
<path d="M89.0693 78.2302H90.7884V76.4268H89.0693V78.2302Z" fill="#FAFAF9"/>
<path d="M89.0693 81.2532H90.7884V79.4498H89.0693V81.2532Z" fill="#FAFAF9"/>
<path d="M89.0693 84.2764H90.7884V82.473H89.0693V84.2764Z" fill="#FAFAF9"/>
<path d="M89.0693 87.2994H90.7884V85.4961H89.0693V87.2994Z" fill="#FAFAF9"/>
<path d="M89.0693 90.3225H90.7884V88.5198H89.0693V90.3225Z" fill="#FAFAF9"/>
<path d="M89.0693 93.3463H90.7884V91.5429H89.0693V93.3463Z" fill="#FAFAF9"/>
<path d="M89.0693 96.3693H90.7884V94.5659H89.0693V96.3693Z" fill="#FAFAF9"/>
<path d="M89.0693 99.3922H90.7884V97.5888H89.0693V99.3922Z" fill="#FAFAF9"/>
<path d="M89.0693 102.415H90.7884V100.612H89.0693V102.415Z" fill="#FAFAF9"/>
<path d="M89.0693 111.485H90.7884V109.681H89.0693V111.485Z" fill="#FAFAF9"/>
<path d="M89.0693 114.508H90.7884V112.704H89.0693V114.508Z" fill="#FAFAF9"/>
<path d="M89.0693 117.531H90.7884V115.728H89.0693V117.531Z" fill="#FAFAF9"/>
<path d="M89.0674 120.554H90.787V118.75H89.0674V120.554Z" fill="#FAFAF9"/>
<path d="M89.0674 123.577H90.787V121.774H89.0674V123.577Z" fill="#FAFAF9"/>
<path d="M89.0674 135.67H90.787V133.867H89.0674V135.67Z" fill="#FAFAF9"/>
<path d="M91.7988 75.207H93.5185V73.4037H91.7988V75.207Z" fill="#FAFAF9"/>
<path d="M91.7988 78.2302H93.5185V76.4268H91.7988V78.2302Z" fill="#FAFAF9"/>
<path d="M91.7988 81.2532H93.5185V79.4498H91.7988V81.2532Z" fill="#FAFAF9"/>
<path d="M91.7988 84.2764H93.5185V82.473H91.7988V84.2764Z" fill="#FAFAF9"/>
<path d="M91.7988 87.2994H93.5185V85.4961H91.7988V87.2994Z" fill="#FAFAF9"/>
<path d="M91.7988 90.3225H93.5185V88.5198H91.7988V90.3225Z" fill="#FAFAF9"/>
<path d="M91.7988 93.3463H93.5185V91.5429H91.7988V93.3463Z" fill="#FAFAF9"/>
<path d="M91.7988 96.3693H93.5185V94.5659H91.7988V96.3693Z" fill="#FAFAF9"/>
<path d="M91.7988 99.3922H93.5185V97.5888H91.7988V99.3922Z" fill="#FAFAF9"/>
<path d="M91.7988 102.415H93.5185V100.612H91.7988V102.415Z" fill="#FAFAF9"/>
<path d="M91.7988 105.438H93.5185V103.635H91.7988V105.438Z" fill="#FAFAF9"/>
<path d="M91.7988 108.462H93.5185V106.658H91.7988V108.462Z" fill="#FAFAF9"/>
<path d="M91.7988 111.485H93.5185V109.681H91.7988V111.485Z" fill="#FAFAF9"/>
<path d="M91.7988 114.508H93.5185V112.704H91.7988V114.508Z" fill="#FAFAF9"/>
<path d="M91.7988 117.531H93.5185V115.728H91.7988V117.531Z" fill="#FAFAF9"/>
<path d="M91.7988 120.554H93.5186V118.75H91.7988V120.554Z" fill="#FAFAF9"/>
<path d="M91.7988 123.577H93.5186V121.774H91.7988V123.577Z" fill="#FAFAF9"/>
<path d="M91.7988 126.6H93.5186V124.796H91.7988V126.6Z" fill="#FAFAF9"/>
<path d="M94.5293 75.207H96.2489V73.4037H94.5293V75.207Z" fill="#FAFAF9"/>
<path d="M94.5293 78.2302H96.2489V76.4268H94.5293V78.2302Z" fill="#FAFAF9"/>
<path d="M94.5293 81.2532H96.2489V79.4498H94.5293V81.2532Z" fill="#FAFAF9"/>
<path d="M94.5293 84.2764H96.2489V82.473H94.5293V84.2764Z" fill="#FAFAF9"/>
<path d="M94.5293 87.2994H96.2489V85.4961H94.5293V87.2994Z" fill="#FAFAF9"/>
<path d="M94.5293 90.3225H96.2489V88.5198H94.5293V90.3225Z" fill="#FAFAF9"/>
<path d="M94.5293 93.3463H96.2489V91.5429H94.5293V93.3463Z" fill="#FAFAF9"/>
<path d="M94.5293 96.3693H96.2489V94.5659H94.5293V96.3693Z" fill="#FAFAF9"/>
<path d="M94.5293 99.3922H96.2489V97.5888H94.5293V99.3922Z" fill="#FAFAF9"/>
<path d="M94.5293 102.415H96.2489V100.612H94.5293V102.415Z" fill="#FAFAF9"/>
<path d="M94.5293 111.485H96.2489V109.681H94.5293V111.485Z" fill="#FAFAF9"/>
<path d="M94.5293 114.508H96.2489V112.704H94.5293V114.508Z" fill="#FAFAF9"/>
<path d="M94.5293 117.531H96.2489V115.728H94.5293V117.531Z" fill="#FAFAF9"/>
<path d="M94.5293 120.554H96.2491V118.75H94.5293V120.554Z" fill="#FAFAF9"/>
<path d="M97.2607 75.207H98.9798V73.4037H97.2607V75.207Z" fill="#FAFAF9"/>
<path d="M97.2607 78.2302H98.9798V76.4268H97.2607V78.2302Z" fill="#FAFAF9"/>
<path d="M97.2607 81.2532H98.9804V79.4498H97.2613L97.2607 81.2532Z" fill="#FAFAF9"/>
<path d="M97.2607 84.2764H98.9804V82.473H97.2607V84.2764Z" fill="#FAFAF9"/>
<path d="M97.2607 87.2994H98.9804V85.4961H97.2607V87.2994Z" fill="#FAFAF9"/>
<path d="M97.2607 90.3225H98.9804V88.5198H97.2607V90.3225Z" fill="#FAFAF9"/>
<path d="M97.2607 93.3463H98.9804V91.5429H97.2607V93.3463Z" fill="#FAFAF9"/>
<path d="M97.2607 96.3693H98.9804V94.5659H97.2607V96.3693Z" fill="#FAFAF9"/>
<path d="M97.2607 99.3922H98.9804V97.5888H97.2607V99.3922Z" fill="#FAFAF9"/>
<path d="M97.2607 102.415H98.9804V100.612H97.2607V102.415Z" fill="#FAFAF9"/>
<path d="M97.2607 111.485H98.9804V109.681H97.2607V111.485Z" fill="#FAFAF9"/>
<path d="M97.2607 114.508H98.9804V112.704H97.2607V114.508Z" fill="#FAFAF9"/>
<path d="M97.2607 117.531H98.9804V115.728H97.2607V117.531Z" fill="#FAFAF9"/>
<path d="M128.011 67.3575H129.73V65.5541H128.011V67.3575Z" fill="#FAFAF9"/>
<path d="M128.011 70.3807H129.73V68.5774H128.011V70.3807Z" fill="#FAFAF9"/>
<path d="M128.011 73.4037H129.73V71.6004H128.011V73.4037Z" fill="#FAFAF9"/>
<path d="M128.011 76.4268H129.73V74.6235H128.011V76.4268Z" fill="#FAFAF9"/>
<path d="M128.011 79.4497H129.73V77.6469H128.011V79.4497Z" fill="#FAFAF9"/>
<path d="M128.011 82.473H129.73V80.6702H128.011L128.011 82.473Z" fill="#FAFAF9"/>
<path d="M128.011 85.4962H129.73V83.6934H128.011V85.4962Z" fill="#FAFAF9"/>
<path d="M128.011 88.5198H129.73V86.7164H128.011V88.5198Z" fill="#FAFAF9"/>
<path d="M128.011 97.5889H129.73V95.7856H128.011V97.5889Z" fill="#FAFAF9"/>
<path d="M128.011 100.612H129.73V98.8087H128.011V100.612Z" fill="#FAFAF9"/>
<path d="M130.74 67.3575H132.46V65.5541H130.74V67.3575Z" fill="#FAFAF9"/>
<path d="M130.74 70.3807H132.46V68.5774H130.74V70.3807Z" fill="#FAFAF9"/>
<path d="M130.74 73.4037H132.46V71.6004H130.74V73.4037Z" fill="#FAFAF9"/>
<path d="M130.74 76.4268H132.46V74.6235H130.74V76.4268Z" fill="#FAFAF9"/>
<path d="M130.74 79.4497H132.46V77.6469H130.74V79.4497Z" fill="#FAFAF9"/>
<path d="M130.74 82.473H132.46V80.6702H130.74V82.473Z" fill="#FAFAF9"/>
<path d="M130.74 85.4962H132.46V83.6934H130.74V85.4962Z" fill="#FAFAF9"/>
<path d="M130.74 88.5198H132.46V86.7164H130.74V88.5198Z" fill="#FAFAF9"/>
<path d="M130.74 100.612H132.46V98.8087H130.74V100.612Z" fill="#FAFAF9"/>
<path d="M133.472 67.3575H135.191V65.5541H133.472V67.3575Z" fill="#FAFAF9"/>
<path d="M133.472 70.3807H135.191V68.5774H133.472V70.3807Z" fill="#FAFAF9"/>
<path d="M133.472 73.4037H135.191V71.6004H133.472V73.4037Z" fill="#FAFAF9"/>
<path d="M133.472 76.4268H135.191V74.6235H133.472V76.4268Z" fill="#FAFAF9"/>
<path d="M133.472 79.4497H135.191V77.6469H133.472V79.4497Z" fill="#FAFAF9"/>
<path d="M133.472 82.473H135.191V80.6702H133.472V82.473Z" fill="#FAFAF9"/>
<path d="M133.472 85.4962H135.191V83.6934H133.472V85.4962Z" fill="#FAFAF9"/>
<path d="M133.472 88.5198H135.191V86.7164H133.472V88.5198Z" fill="#FAFAF9"/>
<path d="M136.203 67.3575H137.923V65.5541H136.203V67.3575Z" fill="#FAFAF9"/>
<path d="M136.203 70.3807H137.923V68.5774H136.203V70.3807Z" fill="#FAFAF9"/>
<path d="M136.203 73.4037H137.923V71.6004H136.203V73.4037Z" fill="#FAFAF9"/>
<path d="M136.203 76.4268H137.923V74.6235H136.203V76.4268Z" fill="#FAFAF9"/>
<path d="M136.203 79.4497H137.923V77.6469H136.203V79.4497Z" fill="#FAFAF9"/>
<path d="M136.203 82.473H137.923V80.6702H136.203V82.473Z" fill="#FAFAF9"/>
<path d="M136.203 88.5198H137.923V86.7164H136.203V88.5198Z" fill="#FAFAF9"/>
<path d="M136.203 91.5428H137.923V89.7395H136.203V91.5428Z" fill="#FAFAF9"/>
<path d="M136.203 100.612H137.923V98.8088H136.203V100.612Z" fill="#FAFAF9"/>
<path d="M136.203 103.635H137.923V101.832H136.203V103.635Z" fill="#FAFAF9"/>
<path d="M136.203 106.658H137.923V104.855H136.203V106.658Z" fill="#FAFAF9"/>
<path d="M136.203 109.681H137.923V107.878H136.203V109.681Z" fill="#FAFAF9"/>
<path d="M136.203 112.704H137.923V110.901H136.203V112.704Z" fill="#FAFAF9"/>
<path d="M136.203 115.727H137.923V113.924H136.203V115.727Z" fill="#FAFAF9"/>
<path d="M136.203 118.75H137.923V116.947H136.203V118.75Z" fill="#FAFAF9"/>
<path d="M138.935 67.3575H140.654V65.5541H138.935V67.3575Z" fill="#FAFAF9"/>
<path d="M138.935 70.3807H140.654V68.5774H138.935V70.3807Z" fill="#FAFAF9"/>
<path d="M138.935 73.4037H140.654V71.6004H138.935V73.4037Z" fill="#FAFAF9"/>
<path d="M138.935 76.4268H140.654V74.6235H138.935V76.4268Z" fill="#FAFAF9"/>
<path d="M138.935 79.4497H140.654V77.6469H138.935V79.4497Z" fill="#FAFAF9"/>
<path d="M138.935 82.473H140.654V80.6702H138.935V82.473Z" fill="#FAFAF9"/>
<path d="M138.935 91.5428H140.654V89.7395H138.935V91.5428Z" fill="#FAFAF9"/>
<path d="M138.935 94.5659H140.654V92.7625H138.935V94.5659Z" fill="#FAFAF9"/>
<path d="M138.935 97.5889H140.654V95.7856H138.935V97.5889Z" fill="#FAFAF9"/>
<path d="M138.935 100.612H140.654V98.8088H138.935V100.612Z" fill="#FAFAF9"/>
<path d="M138.935 103.635H140.654V101.832H138.935V103.635Z" fill="#FAFAF9"/>
<path d="M138.935 106.658H140.654V104.855H138.935V106.658Z" fill="#FAFAF9"/>
<path d="M138.935 109.681H140.654V107.878H138.935V109.681Z" fill="#FAFAF9"/>
<path d="M138.935 112.704H140.654V110.901H138.935V112.704Z" fill="#FAFAF9"/>
<path d="M138.935 115.727H140.654V113.924H138.935V115.727Z" fill="#FAFAF9"/>
<path d="M138.935 118.75H140.654V116.947H138.935V118.75Z" fill="#FAFAF9"/>
<path d="M138.935 121.774H140.654V119.971H138.935V121.774Z" fill="#FAFAF9"/>
<path d="M138.935 127.82H140.654V126.017H138.935V127.82Z" fill="#FAFAF9"/>
<path d="M141.666 67.3575H143.386V65.5541H141.666V67.3575Z" fill="#FAFAF9"/>
<path d="M141.666 70.3807H143.386V68.5774H141.666V70.3807Z" fill="#FAFAF9"/>
<path d="M141.666 73.4037H143.386V71.6004H141.666V73.4037Z" fill="#FAFAF9"/>
<path d="M141.666 76.4268H143.386V74.6234H141.666V76.4268Z" fill="#FAFAF9"/>
<path d="M141.666 79.4497H143.386V77.6469H141.666V79.4497Z" fill="#FAFAF9"/>
<path d="M141.666 82.473H143.386V80.6702H141.666V82.473Z" fill="#FAFAF9"/>
<path d="M141.666 91.5428H143.386V89.7395H141.666V91.5428Z" fill="#FAFAF9"/>
<path d="M141.666 94.5659H143.386V92.7625H141.666V94.5659Z" fill="#FAFAF9"/>
<path d="M141.666 97.5889H143.386V95.7856H141.666V97.5889Z" fill="#FAFAF9"/>
<path d="M141.666 100.612H143.386V98.8088H141.666V100.612Z" fill="#FAFAF9"/>
<path d="M141.666 109.681H143.386V107.878H141.666V109.681Z" fill="#FAFAF9"/>
<path d="M141.666 112.704H143.386V110.901H141.666V112.704Z" fill="#FAFAF9"/>
<path d="M141.666 115.727H143.386V113.924H141.666V115.727Z" fill="#FAFAF9"/>
<path d="M141.666 118.75H143.386V116.947H141.666V118.75Z" fill="#FAFAF9"/>
<path d="M141.666 121.774H143.386V119.971H141.666V121.774Z" fill="#FAFAF9"/>
<path d="M141.666 127.82H143.386V126.017H141.666V127.82Z" fill="#FAFAF9"/>
<path d="M141.666 130.844H143.386V129.04H141.666V130.844Z" fill="#FAFAF9"/>
<path d="M166.447 95.4673H168.167V93.6639H166.447V95.4673Z" fill="#FAFAF9"/>
<path d="M166.447 98.4902H168.167V96.6869H166.447V98.4902Z" fill="#FAFAF9"/>
<path d="M166.447 101.513H168.167V99.7107H166.447V101.513Z" fill="#FAFAF9"/>
<path d="M166.447 104.537H168.167V102.734H166.447V104.537Z" fill="#FAFAF9"/>
<path d="M166.447 107.56H168.167V105.757H166.447V107.56Z" fill="#FAFAF9"/>
<path d="M166.447 110.583H168.167V108.78H166.447V110.583Z" fill="#FAFAF9"/>
<path d="M166.447 113.606H168.167V111.803H166.447V113.606Z" fill="#FAFAF9"/>
<path d="M166.447 122.676H168.167V120.872H166.447V122.676Z" fill="#FAFAF9"/>
<path d="M166.447 125.699H168.167V123.895H166.447V125.699Z" fill="#FAFAF9"/>
<path d="M166.447 128.722H168.167V126.918H166.447V128.722Z" fill="#FAFAF9"/>
<path d="M169.179 95.4673H170.898V93.6639H169.179V95.4673Z" fill="#FAFAF9"/>
<path d="M169.179 98.4902H170.898V96.6869H169.179V98.4902Z" fill="#FAFAF9"/>
<path d="M169.179 101.513H170.898V99.7107H169.179V101.513Z" fill="#FAFAF9"/>
<path d="M169.179 104.537H170.898V102.734H169.179V104.537Z" fill="#FAFAF9"/>
<path d="M169.179 107.56H170.898V105.757H169.179V107.56Z" fill="#FAFAF9"/>
<path d="M169.179 110.583H170.898V108.78H169.179V110.583Z" fill="#FAFAF9"/>
<path d="M169.179 113.606H170.898V111.803H169.179V113.606Z" fill="#FAFAF9"/>
<path d="M171.908 95.4673H173.628V93.6639H171.908V95.4673Z" fill="#FAFAF9"/>
<path d="M171.908 98.4902H173.628V96.6869H171.908V98.4902Z" fill="#FAFAF9"/>
<path d="M171.908 101.513H173.628V99.7107H171.908V101.513Z" fill="#FAFAF9"/>
<path d="M171.908 104.537H173.628V102.734H171.908V104.537Z" fill="#FAFAF9"/>
<path d="M171.908 107.56H173.628V105.757H171.908V107.56Z" fill="#FAFAF9"/>
<path d="M171.908 110.583H173.628V108.78H171.908V110.583Z" fill="#FAFAF9"/>
<path d="M171.908 113.606H173.628V111.803H171.908V113.606Z" fill="#FAFAF9"/>
<path d="M174.64 95.4673H176.359V93.6639H174.64V95.4673Z" fill="#FAFAF9"/>
<path d="M174.64 98.4902H176.359V96.6869H174.64V98.4902Z" fill="#FAFAF9"/>
<path d="M174.64 101.513H176.359V99.7107H174.64V101.513Z" fill="#FAFAF9"/>
<path d="M174.64 104.537H176.359V102.734H174.64V104.537Z" fill="#FAFAF9"/>
<path d="M174.64 107.56H176.359V105.757H174.64V107.56Z" fill="#FAFAF9"/>
<path d="M174.64 110.583H176.359V108.78H174.64V110.583Z" fill="#FAFAF9"/>
<path d="M174.64 113.606H176.359V111.803H174.64V113.606Z" fill="#FAFAF9"/>
<path d="M174.64 116.629H176.359V114.826H174.64V116.629Z" fill="#FAFAF9"/>
<path d="M174.64 119.652H176.359V117.849H174.64V119.652Z" fill="#FAFAF9"/>
<path d="M174.64 122.676H176.359V120.872H174.64V122.676Z" fill="#FAFAF9"/>
<path d="M174.64 125.699H176.359V123.895H174.64V125.699Z" fill="#FAFAF9"/>
<path d="M177.37 95.4673H179.09V93.6639H177.37V95.4673Z" fill="#FAFAF9"/>
<path d="M177.37 98.4902H179.09V96.6869H177.37V98.4902Z" fill="#FAFAF9"/>
<path d="M177.37 101.513H179.09V99.7107H177.37V101.513Z" fill="#FAFAF9"/>
<path d="M177.37 104.537H179.09V102.734H177.37V104.537Z" fill="#FAFAF9"/>
<path d="M177.37 107.56H179.09V105.757H177.37V107.56Z" fill="#FAFAF9"/>
<path d="M177.37 110.583H179.09V108.78H177.37V110.583Z" fill="#FAFAF9"/>
<path d="M177.37 113.606H179.09V111.803H177.37V113.606Z" fill="#FAFAF9"/>
<path d="M177.37 116.629H179.09V114.826H177.37V116.629Z" fill="#FAFAF9"/>
<path d="M177.37 119.652H179.09V117.849H177.37V119.652Z" fill="#FAFAF9"/>
<path d="M177.37 122.676H179.09V120.872H177.37V122.676Z" fill="#FAFAF9"/>
<path d="M177.37 125.699H179.09V123.895H177.37V125.699Z" fill="#FAFAF9"/>
<path d="M177.37 128.722H179.09V126.918H177.37V128.722Z" fill="#FAFAF9"/>
<path d="M177.37 137.791H179.09V135.988H177.37V137.791Z" fill="#FAFAF9"/>
<path d="M177.37 140.814H179.09V139.011H177.37V140.814Z" fill="#FAFAF9"/>
<path d="M180.102 95.4673H181.821V93.6639H180.102V95.4673Z" fill="#FAFAF9"/>
<path d="M180.102 98.4902H181.821V96.6869H180.102V98.4902Z" fill="#FAFAF9"/>
<path d="M180.102 101.513H181.821V99.7107H180.102V101.513Z" fill="#FAFAF9"/>
<path d="M180.102 110.583H181.821V108.78H180.102V110.583Z" fill="#FAFAF9"/>
<path d="M180.102 113.606H181.821V111.803H180.102V113.606Z" fill="#FAFAF9"/>
<path d="M180.102 116.629H181.821V114.826H180.102V116.629Z" fill="#FAFAF9"/>
<path d="M180.102 119.652H181.821V117.849H180.102V119.652Z" fill="#FAFAF9"/>
<path d="M180.102 122.676H181.821V120.872H180.102V122.676Z" fill="#FAFAF9"/>
<path d="M180.102 125.699H181.821V123.895H180.102V125.699Z" fill="#FAFAF9"/>
<path d="M180.102 128.722H181.821V126.918H180.102V128.722Z" fill="#FAFAF9"/>
<path d="M180.102 137.791H181.821V135.988H180.102V137.791Z" fill="#FAFAF9"/>
<path d="M180.102 140.814H181.821V139.011H180.102V140.814Z" fill="#FAFAF9"/>
<path d="M180.102 143.838H181.821V142.034H180.102V143.838Z" fill="#FAFAF9"/>
<path d="M208.726 77.3287H210.445V75.5253H208.726V77.3287Z" fill="#FAFAF9"/>
<path d="M208.726 80.3519H210.445V78.5485H208.726V80.3519Z" fill="#FAFAF9"/>
<path d="M208.726 83.3749H210.445V81.5716H208.726V83.3749Z" fill="#FAFAF9"/>
<path d="M208.726 86.3981H210.445V84.5948H208.726V86.3981Z" fill="#FAFAF9"/>
<path d="M208.726 89.4211H210.445V87.6177H208.726V89.4211Z" fill="#FAFAF9"/>
<path d="M208.726 92.4443H210.445V90.6409H208.726V92.4443Z" fill="#FAFAF9"/>
<path d="M208.726 95.4673H210.445V93.6639H208.726V95.4673Z" fill="#FAFAF9"/>
<path d="M208.726 98.4902H210.445V96.6869H208.726V98.4902Z" fill="#FAFAF9"/>
<path d="M208.726 101.513H210.445V99.7107H208.726V101.513Z" fill="#FAFAF9"/>
<path d="M208.726 104.537H210.445V102.734H208.726V104.537Z" fill="#FAFAF9"/>
<path d="M208.726 107.56H210.445V105.757H208.726V107.56Z" fill="#FAFAF9"/>
<path d="M208.726 110.583H210.445V108.78H208.726V110.583Z" fill="#FAFAF9"/>
<path d="M208.726 113.606H210.445V111.803H208.726V113.606Z" fill="#FAFAF9"/>
<path d="M208.726 116.629H210.445V114.826H208.726V116.629Z" fill="#FAFAF9"/>
<path d="M208.726 119.652H210.445V117.849H208.726V119.652Z" fill="#FAFAF9"/>
<path d="M208.726 122.676H210.445V120.872H208.726V122.676Z" fill="#FAFAF9"/>
<path d="M208.726 125.699H210.445V123.895H208.726V125.699Z" fill="#FAFAF9"/>
<path d="M208.726 128.722H210.445V126.918H208.726V128.722Z" fill="#FAFAF9"/>
<path d="M208.726 131.745H210.445V129.941H208.726V131.745Z" fill="#FAFAF9"/>
<path d="M208.726 134.768H210.445V132.965H208.726V134.768Z" fill="#FAFAF9"/>
<path d="M208.726 137.791H210.445V135.988H208.726V137.791Z" fill="#FAFAF9"/>
<path d="M208.726 140.814H210.445V139.011H208.726V140.814Z" fill="#FAFAF9"/>
<path d="M208.726 143.838H210.445V142.034H208.726V143.838Z" fill="#FAFAF9"/>
<path d="M211.459 77.3287H213.178V75.5253H211.459V77.3287Z" fill="#FAFAF9"/>
<path d="M211.459 80.3519H213.178V78.5485H211.459V80.3519Z" fill="#FAFAF9"/>
<path d="M211.459 83.3749H213.179V81.5716H211.459V83.3749Z" fill="#FAFAF9"/>
<path d="M211.459 86.3981H213.179V84.5948H211.459V86.3981Z" fill="#FAFAF9"/>
<path d="M211.459 89.4211H213.179V87.6177H211.459V89.4211Z" fill="#FAFAF9"/>
<path d="M211.459 92.4443H213.179V90.6409H211.459V92.4443Z" fill="#FAFAF9"/>
<path d="M211.459 95.4673H213.179V93.6639H211.459V95.4673Z" fill="#FAFAF9"/>
<path d="M211.459 98.4902H213.179V96.6869H211.459V98.4902Z" fill="#FAFAF9"/>
<path d="M211.459 101.513H213.179V99.7107H211.459V101.513Z" fill="#FAFAF9"/>
<path d="M211.459 104.537H213.179V102.734H211.459V104.537Z" fill="#FAFAF9"/>
<path d="M211.459 107.56H213.179V105.757H211.459V107.56Z" fill="#FAFAF9"/>
<path d="M211.459 110.583H213.179V108.78H211.459V110.583Z" fill="#FAFAF9"/>
<path d="M211.459 113.606H213.179V111.803H211.459V113.606Z" fill="#FAFAF9"/>
<path d="M211.459 116.629H213.179V114.826H211.459V116.629Z" fill="#FAFAF9"/>
<path d="M211.459 119.652H213.179V117.849H211.459V119.652Z" fill="#FAFAF9"/>
<path d="M211.459 122.676H213.179V120.872H211.459V122.676Z" fill="#FAFAF9"/>
<path d="M211.459 125.699H213.179V123.895H211.459V125.699Z" fill="#FAFAF9"/>
<path d="M211.459 128.722H213.179V126.918H211.459V128.722Z" fill="#FAFAF9"/>
<path d="M211.459 131.745H213.179V129.941H211.459V131.745Z" fill="#FAFAF9"/>
<path d="M214.188 77.3287H215.908V75.5253H214.188V77.3287Z" fill="#FAFAF9"/>
<path d="M214.188 80.3519H215.908V78.5485H214.188V80.3519Z" fill="#FAFAF9"/>
<path d="M214.188 83.3749H215.908V81.5716H214.188V83.3749Z" fill="#FAFAF9"/>
<path d="M214.188 86.3981H215.908V84.5948H214.188V86.3981Z" fill="#FAFAF9"/>
<path d="M214.188 89.4211H215.908V87.6177H214.188V89.4211Z" fill="#FAFAF9"/>
<path d="M214.188 92.4443H215.908V90.6409H214.188V92.4443Z" fill="#FAFAF9"/>
<path d="M214.188 95.4673H215.908V93.6639H214.188V95.4673Z" fill="#FAFAF9"/>
<path d="M214.188 98.4902H215.908V96.6869H214.188V98.4902Z" fill="#FAFAF9"/>
<path d="M214.188 101.513H215.908V99.7107H214.188V101.513Z" fill="#FAFAF9"/>
<path d="M214.188 104.537H215.908V102.734H214.188V104.537Z" fill="#FAFAF9"/>
<path d="M214.188 107.56H215.908V105.757H214.188V107.56Z" fill="#FAFAF9"/>
<path d="M214.188 110.583H215.908V108.78H214.188V110.583Z" fill="#FAFAF9"/>
<path d="M214.188 113.606H215.908V111.803H214.188V113.606Z" fill="#FAFAF9"/>
<path d="M214.188 116.629H215.908V114.826H214.188V116.629Z" fill="#FAFAF9"/>
<path d="M214.188 119.652H215.908V117.849H214.188V119.652Z" fill="#FAFAF9"/>
<path d="M214.188 122.676H215.908V120.872H214.188V122.676Z" fill="#FAFAF9"/>
<path d="M214.188 125.699H215.908V123.895H214.188V125.699Z" fill="#FAFAF9"/>
<path d="M214.188 128.722H215.908V126.918H214.188V128.722Z" fill="#FAFAF9"/>
<path d="M214.188 131.745H215.908V129.941H214.188V131.745Z" fill="#FAFAF9"/>
<path d="M216.92 77.3287H218.64V75.5253H216.92V77.3287Z" fill="#FAFAF9"/>
<path d="M216.92 80.3519H218.64V78.5485H216.92V80.3519Z" fill="#FAFAF9"/>
<path d="M216.92 83.3749H218.64V81.5716H216.92V83.3749Z" fill="#FAFAF9"/>
<path d="M216.92 86.3981H218.64V84.5948H216.92V86.3981Z" fill="#FAFAF9"/>
<path d="M216.92 89.4211H218.64V87.6177H216.92V89.4211Z" fill="#FAFAF9"/>
<path d="M216.92 92.4443H218.64V90.6409H216.92V92.4443Z" fill="#FAFAF9"/>
<path d="M216.92 95.4673H218.64V93.6639H216.92V95.4673Z" fill="#FAFAF9"/>
<path d="M216.92 98.4902H218.64V96.6869H216.92V98.4902Z" fill="#FAFAF9"/>
<path d="M216.92 101.513H218.64V99.7107H216.92V101.513Z" fill="#FAFAF9"/>
<path d="M216.92 104.537H218.64V102.734H216.92V104.537Z" fill="#FAFAF9"/>
<path d="M216.92 107.56H218.64V105.757H216.92V107.56Z" fill="#FAFAF9"/>
<path d="M216.92 110.583H218.64V108.78H216.92V110.583Z" fill="#FAFAF9"/>
<path d="M216.92 113.606H218.64V111.803H216.92V113.606Z" fill="#FAFAF9"/>
<path d="M216.92 116.629H218.64V114.826H216.92V116.629Z" fill="#FAFAF9"/>
<path d="M216.92 119.652H218.64V117.849H216.92V119.652Z" fill="#FAFAF9"/>
<path d="M219.651 77.3287H221.371V75.5253H219.651V77.3287Z" fill="#FAFAF9"/>
<path d="M219.651 80.3519H221.371V78.5485H219.651V80.3519Z" fill="#FAFAF9"/>
<path d="M219.651 83.3749H221.371V81.5716H219.651V83.3749Z" fill="#FAFAF9"/>
<path d="M219.651 86.3981H221.371V84.5948H219.651V86.3981Z" fill="#FAFAF9"/>
<path d="M219.651 89.4211H221.371V87.6177H219.651V89.4211Z" fill="#FAFAF9"/>
<path d="M219.651 92.4443H221.371V90.6409H219.651V92.4443Z" fill="#FAFAF9"/>
<path d="M219.651 95.4673H221.371V93.6639H219.651V95.4673Z" fill="#FAFAF9"/>
<path d="M219.651 98.4902H221.371V96.6869H219.651V98.4902Z" fill="#FAFAF9"/>
<path d="M219.651 101.513H221.371V99.7107H219.651V101.513Z" fill="#FAFAF9"/>
<path d="M219.651 104.537H221.371V102.734H219.651V104.537Z" fill="#FAFAF9"/>
<path d="M219.651 107.56H221.371V105.757H219.651V107.56Z" fill="#FAFAF9"/>
<path d="M219.651 110.583H221.371V108.78H219.651V110.583Z" fill="#FAFAF9"/>
<path d="M219.651 113.606H221.371V111.803H219.651V113.606Z" fill="#FAFAF9"/>
<path d="M222.383 75.5253V77.3287H224.102V75.5253H222.383Z" fill="#FAFAF9"/>
<path d="M222.383 80.3519H224.102V78.5485H222.383V80.3519Z" fill="#FAFAF9"/>
<path d="M222.383 83.3749H224.102V81.5716H222.383V83.3749Z" fill="#FAFAF9"/>
<path d="M222.383 86.3981H224.102V84.5948H222.383V86.3981Z" fill="#FAFAF9"/>
<path d="M222.383 89.4211H224.102V87.6177H222.383V89.4211Z" fill="#FAFAF9"/>
<path d="M222.383 92.4443H224.102V90.6409H222.383V92.4443Z" fill="#FAFAF9"/>
<path d="M222.383 95.4673H224.102V93.6639H222.383V95.4673Z" fill="#FAFAF9"/>
<path d="M222.383 98.4902H224.102V96.6869H222.383V98.4902Z" fill="#FAFAF9"/>
<path d="M222.383 101.513H224.102V99.7107H222.383V101.513Z" fill="#FAFAF9"/>
<path d="M222.383 104.537H224.102V102.734H222.383V104.537Z" fill="#FAFAF9"/>
<path d="M222.383 107.56H224.102V105.757H222.383V107.56Z" fill="#FAFAF9"/>
<path d="M222.383 110.583H224.102V108.78H222.383V110.583Z" fill="#FAFAF9"/>
<path d="M21.7031 99.3922H23.4227V97.5888H21.7031V99.3922Z" fill="#FAFAF9"/>
<path d="M21.7031 102.415H23.4227V100.612H21.7031V102.415Z" fill="#FAFAF9"/>
<path d="M21.7031 105.438H23.4227V103.635H21.7031V105.438Z" fill="#FAFAF9"/>
<path d="M21.7031 108.462H23.4227V106.658H21.7031V108.462Z" fill="#FAFAF9"/>
<path d="M21.7031 111.485H23.4227V109.681H21.7031V111.485Z" fill="#FAFAF9"/>
<path d="M21.7031 114.508H23.4227V112.704H21.7031V114.508Z" fill="#FAFAF9"/>
<path d="M21.7031 117.531H23.4227V115.728H21.7031V117.531Z" fill="#FAFAF9"/>
<path d="M21.7031 120.554H23.4227V118.75H21.7031V120.554Z" fill="#FAFAF9"/>
<path d="M21.7031 123.577H23.4227V121.774H21.7031V123.577Z" fill="#FAFAF9"/>
<path d="M21.7031 126.6H23.4227V124.797H21.7031V126.6Z" fill="#FAFAF9"/>
<path d="M21.7031 129.624H23.4227V127.82H21.7031V129.624Z" fill="#FAFAF9"/>
<path d="M21.7031 132.647H23.4227V130.843H21.7031V132.647Z" fill="#FAFAF9"/>
<path d="M21.7031 135.67H23.4227V133.867H21.7031V135.67Z" fill="#FAFAF9"/>
<path d="M21.7031 138.693H23.4227V136.89H21.7031V138.693Z" fill="#FAFAF9"/>
<path d="M21.7031 141.716H23.4227V139.913H21.7031V141.716Z" fill="#FAFAF9"/>
<path d="M21.7031 144.739H23.4227V142.936H21.7031V144.739Z" fill="#FAFAF9"/>
<path d="M21.7031 147.762H23.4227V145.959H21.7031V147.762Z" fill="#FAFAF9"/>
<path d="M21.7031 150.785H23.4227V148.982H21.7031V150.785Z" fill="#FAFAF9"/>
<path d="M21.7031 153.808H23.4227V152.005H21.7031V153.808Z" fill="#FAFAF9"/>
<path d="M21.7031 156.831H23.4227V155.028H21.7031V156.831Z" fill="#FAFAF9"/>
<path d="M24.4346 99.3922H26.1542V97.5888H24.4346V99.3922Z" fill="#FAFAF9"/>
<path d="M24.4346 102.415H26.1542V100.612H24.4346V102.415Z" fill="#FAFAF9"/>
<path d="M24.4346 105.438H26.1542V103.635H24.4346V105.438Z" fill="#FAFAF9"/>
<path d="M24.4346 108.462H26.1542V106.658H24.4346V108.462Z" fill="#FAFAF9"/>
<path d="M24.4346 111.485H26.1542V109.681H24.4346V111.485Z" fill="#FAFAF9"/>
<path d="M24.4346 114.508H26.1542V112.704H24.4346V114.508Z" fill="#FAFAF9"/>
<path d="M24.4346 117.531H26.1542V115.728H24.4346V117.531Z" fill="#FAFAF9"/>
<path d="M24.4346 120.554H26.1542V118.75H24.4346V120.554Z" fill="#FAFAF9"/>
<path d="M24.4346 123.577H26.1542V121.774H24.4346V123.577Z" fill="#FAFAF9"/>
<path d="M24.4346 126.6H26.1542V124.797H24.4346V126.6Z" fill="#FAFAF9"/>
<path d="M24.4346 129.624H26.1542V127.82H24.4346V129.624Z" fill="#FAFAF9"/>
<path d="M24.4346 132.647H26.1542V130.843H24.4346V132.647Z" fill="#FAFAF9"/>
<path d="M24.4346 135.67H26.1542V133.867H24.4346V135.67Z" fill="#FAFAF9"/>
<path d="M24.4346 138.693H26.1542V136.89H24.4346V138.693Z" fill="#FAFAF9"/>
<path d="M24.4346 141.716H26.1542V139.913H24.4346V141.716Z" fill="#FAFAF9"/>
<path d="M24.4346 144.739H26.1542V142.936H24.4346V144.739Z" fill="#FAFAF9"/>
<path d="M24.4346 147.762H26.1542V145.959H24.4346V147.762Z" fill="#FAFAF9"/>
<path d="M24.4346 150.785H26.1542V148.982H24.4346V150.785Z" fill="#FAFAF9"/>
<path d="M27.1641 99.3922H28.8834V97.5888H27.1641V99.3922Z" fill="#FAFAF9"/>
<path d="M27.1641 102.415H28.8834V100.612H27.1641V102.415Z" fill="#FAFAF9"/>
<path d="M27.1641 105.438H28.8834V103.635H27.1641V105.438Z" fill="#FAFAF9"/>
<path d="M27.1641 108.462H28.8834V106.658H27.1641V108.462Z" fill="#FAFAF9"/>
<path d="M27.1641 111.485H28.8834V109.681H27.1641V111.485Z" fill="#FAFAF9"/>
<path d="M27.1641 114.508H28.8834V112.704H27.1641V114.508Z" fill="#FAFAF9"/>
<path d="M27.1641 117.531H28.8834V115.728H27.1641V117.531Z" fill="#FAFAF9"/>
<path d="M27.1641 120.554H28.8834V118.75H27.1641V120.554Z" fill="#FAFAF9"/>
<path d="M27.1641 123.577H28.8834V121.774H27.1641V123.577Z" fill="#FAFAF9"/>
<path d="M27.1641 126.6H28.8834V124.797H27.1641V126.6Z" fill="#FAFAF9"/>
<path d="M27.1641 129.624H28.8834V127.82H27.1641V129.624Z" fill="#FAFAF9"/>
<path d="M27.1641 132.647H28.8834V130.843H27.1641V132.647Z" fill="#FAFAF9"/>
<path d="M27.1641 135.67H28.8834V133.867H27.1641V135.67Z" fill="#FAFAF9"/>
<path d="M27.1641 138.693H28.8834V136.89H27.1641V138.693Z" fill="#FAFAF9"/>
<path d="M27.1641 141.716H28.8834V139.913H27.1641V141.716Z" fill="#FAFAF9"/>
<path d="M27.1641 144.739H28.8834V142.936H27.1641V144.739Z" fill="#FAFAF9"/>
<path d="M27.1641 147.762H28.8834V145.959H27.1641V147.762Z" fill="#FAFAF9"/>
<path d="M27.1641 150.785H28.8834V148.982H27.1641V150.785Z" fill="#FAFAF9"/>
<path d="M11.4873 121.456H13.2069V119.653H11.4873V121.456Z" fill="#FAFAF9"/>
<path d="M11.4873 124.479H13.2069V122.676H11.4873V124.479Z" fill="#FAFAF9"/>
<path d="M11.4873 127.502H13.2069V125.699H11.4873V127.502Z" fill="#FAFAF9"/>
<path d="M11.4873 130.525H13.2069V128.722H11.4873V130.525Z" fill="#FAFAF9"/>
<path d="M11.4873 133.548H13.2069V131.745H11.4873V133.548Z" fill="#FAFAF9"/>
<path d="M11.4873 136.571H13.2069V134.768H11.4873V136.571Z" fill="#FAFAF9"/>
<path d="M11.4873 139.594H13.2069V137.791H11.4873V139.594Z" fill="#FAFAF9"/>
<path d="M11.4873 142.617H13.2069V140.814H11.4873V142.617Z" fill="#FAFAF9"/>
<path d="M11.4873 145.641H13.2069V143.838H11.4873V145.641Z" fill="#FAFAF9"/>
<path d="M11.4873 148.664H13.2069V146.86H11.4873V148.664Z" fill="#FAFAF9"/>
<path d="M11.4873 151.687H13.2069V149.884H11.4873V151.687Z" fill="#FAFAF9"/>
<path d="M11.4873 154.71H13.2069V152.907H11.4873V154.71Z" fill="#FAFAF9"/>
<path d="M11.4873 157.733H13.2069V155.93H11.4873V157.733Z" fill="#FAFAF9"/>
<path d="M14.2188 121.456H15.9383V119.653H14.2188V121.456Z" fill="#FAFAF9"/>
<path d="M14.2188 124.479H15.9383V122.676H14.2188V124.479Z" fill="#FAFAF9"/>
<path d="M14.2188 127.502H15.9383V125.699H14.2188V127.502Z" fill="#FAFAF9"/>
<path d="M14.2188 130.525H15.9383V128.722H14.2188V130.525Z" fill="#FAFAF9"/>
<path d="M14.2188 133.548H15.9383V131.745H14.2188V133.548Z" fill="#FAFAF9"/>
<path d="M14.2188 136.571H15.9383V134.768H14.2188V136.571Z" fill="#FAFAF9"/>
<path d="M14.2188 139.594H15.9383V137.791H14.2188V139.594Z" fill="#FAFAF9"/>
<path d="M14.2188 142.617H15.9383V140.814H14.2188V142.617Z" fill="#FAFAF9"/>
<path d="M14.2188 145.641H15.9383V143.838H14.2188V145.641Z" fill="#FAFAF9"/>
<path d="M14.2188 148.664H15.9383V146.86H14.2188V148.664Z" fill="#FAFAF9"/>
<path d="M14.2188 151.687H15.9383V149.884H14.2188V151.687Z" fill="#FAFAF9"/>
<path d="M14.2188 154.71H15.9383V152.907H14.2188V154.71Z" fill="#FAFAF9"/>
<path d="M14.2188 157.733H15.9383V155.93H14.2188V157.733Z" fill="#FAFAF9"/>
<path d="M16.9502 121.456H18.6698V119.653H16.9502V121.456Z" fill="#FAFAF9"/>
<path d="M16.9502 124.479H18.6698V122.676H16.9502V124.479Z" fill="#FAFAF9"/>
<path d="M16.9502 127.502H18.6698V125.699H16.9502V127.502Z" fill="#FAFAF9"/>
<path d="M16.9502 130.525H18.6698V128.722H16.9502V130.525Z" fill="#FAFAF9"/>
<path d="M16.9502 133.548H18.6698V131.745H16.9502V133.548Z" fill="#FAFAF9"/>
<path d="M16.9502 136.571H18.6698V134.768H16.9502V136.571Z" fill="#FAFAF9"/>
<path d="M16.9502 139.594H18.6698V137.791H16.9502V139.594Z" fill="#FAFAF9"/>
<path d="M16.9502 142.617H18.6698V140.814H16.9502V142.617Z" fill="#FAFAF9"/>
<path d="M16.9502 145.641H18.6698V143.838H16.9502V145.641Z" fill="#FAFAF9"/>
<path d="M16.9502 148.664H18.6698V146.86H16.9502V148.664Z" fill="#FAFAF9"/>
<path d="M16.9502 151.687H18.6698V149.884H16.9502V151.687Z" fill="#FAFAF9"/>
<path d="M16.9502 154.71H18.6698V152.907H16.9502V154.71Z" fill="#FAFAF9"/>
<path d="M16.9502 157.733H18.6698V155.93H16.9502V157.733Z" fill="#FAFAF9"/>
<path d="M16.9502 160.756H18.6698V158.953H16.9502V160.756Z" fill="#FAFAF9"/>
<path d="M32.1211 122.357H33.8407V120.554H32.1211V122.357Z" fill="#FAFAF9"/>
<path d="M32.1211 125.38H33.8407V123.577H32.1211V125.38Z" fill="#FAFAF9"/>
<path d="M32.1211 128.404H33.8407V126.6H32.1211V128.404Z" fill="#FAFAF9"/>
<path d="M32.1211 131.427H33.8407V129.624H32.1211V131.427Z" fill="#FAFAF9"/>
<path d="M32.1211 134.45H33.8407V132.647H32.1211V134.45Z" fill="#FAFAF9"/>
<path d="M32.1211 137.473H33.8407V135.67H32.1211V137.473Z" fill="#FAFAF9"/>
<path d="M32.1211 140.496H33.8407V138.693H32.1211V140.496Z" fill="#FAFAF9"/>
<path d="M32.1211 143.519H33.8407V141.716H32.1211V143.519Z" fill="#FAFAF9"/>
<path d="M32.1211 146.543H33.8407V144.739H32.1211V146.543Z" fill="#FAFAF9"/>
<path d="M32.1211 149.566H33.8407V147.762H32.1211V149.566Z" fill="#FAFAF9"/>
<path d="M32.1211 158.635H33.8407V156.831H32.1211V158.635Z" fill="#FAFAF9"/>
<path d="M34.8525 122.357H36.5721V120.554H34.8525V122.357Z" fill="#FAFAF9"/>
<path d="M34.8525 125.38H36.5721V123.577H34.8525V125.38Z" fill="#FAFAF9"/>
<path d="M34.8525 128.404H36.5721V126.6H34.8525V128.404Z" fill="#FAFAF9"/>
<path d="M34.8525 131.427H36.5721V129.624H34.8525V131.427Z" fill="#FAFAF9"/>
<path d="M34.8525 134.45H36.5721V132.647H34.8525V134.45Z" fill="#FAFAF9"/>
<path d="M34.8525 137.473H36.5721V135.67H34.8525V137.473Z" fill="#FAFAF9"/>
<path d="M34.8525 140.496H36.5721V138.693H34.8525V140.496Z" fill="#FAFAF9"/>
<path d="M34.8525 143.519H36.5721V141.716H34.8525V143.519Z" fill="#FAFAF9"/>
<path d="M34.8525 146.543H36.5721V144.739H34.8525V146.543Z" fill="#FAFAF9"/>
<path d="M34.8525 155.612H36.5722V153.808H34.8525V155.612Z" fill="#FAFAF9"/>
<path d="M34.8525 158.635H36.5722V156.831H34.8525V158.635Z" fill="#FAFAF9"/>
<path d="M37.584 122.357H39.3036V120.554H37.584V122.357Z" fill="#FAFAF9"/>
<path d="M37.584 125.38H39.3036V123.577H37.584V125.38Z" fill="#FAFAF9"/>
<path d="M37.584 128.404H39.3036V126.6H37.584V128.404Z" fill="#FAFAF9"/>
<path d="M37.584 131.427H39.3036V129.624H37.584V131.427Z" fill="#FAFAF9"/>
<path d="M37.584 134.45H39.3036V132.647H37.584V134.45Z" fill="#FAFAF9"/>
<path d="M37.584 137.473H39.3036V135.67H37.584V137.473Z" fill="#FAFAF9"/>
<path d="M37.584 140.496H39.3036V138.693H37.584V140.496Z" fill="#FAFAF9"/>
<path d="M37.584 143.519H39.3036V141.716H37.584V143.519Z" fill="#FAFAF9"/>
<path d="M37.584 152.589H39.3036V150.785H37.584V152.589Z" fill="#FAFAF9"/>
<path d="M37.584 155.612H39.3036V153.808H37.584V155.612Z" fill="#FAFAF9"/>
<path d="M37.584 158.635H39.3036V156.831H37.584V158.635Z" fill="#FAFAF9"/>
<path d="M62.9707 76.4268H64.6903V74.6234H62.9707V76.4268Z" fill="#FAFAF9"/>
<path d="M62.9707 79.4497H64.6903V77.6469H62.9707V79.4497Z" fill="#FAFAF9"/>
<path d="M62.9707 82.473H64.6903V80.6702H62.9707V82.473Z" fill="#FAFAF9"/>
<path d="M62.9707 85.4962H64.6903V83.6934H62.9707V85.4962Z" fill="#FAFAF9"/>
<path d="M62.9707 88.5198H64.6903V86.7164H62.9707V88.5198Z" fill="#FAFAF9"/>
<path d="M62.9707 91.5428H64.6903V89.7395H62.9707V91.5428Z" fill="#FAFAF9"/>
<path d="M62.9707 94.5659H64.6903V92.7625H62.9707V94.5659Z" fill="#FAFAF9"/>
<path d="M62.9707 97.5889H64.6903V95.7855H62.9707V97.5889Z" fill="#FAFAF9"/>
<path d="M62.9707 100.612H64.6903V98.8087H62.9707V100.612Z" fill="#FAFAF9"/>
<path d="M62.9707 103.635H64.6903V101.832H62.9707V103.635Z" fill="#FAFAF9"/>
<path d="M62.9707 106.658H64.6903V104.855H62.9707V106.658Z" fill="#FAFAF9"/>
<path d="M62.9707 109.681H64.6903V107.878H62.9707V109.681Z" fill="#FAFAF9"/>
<path d="M62.9707 112.704H64.6903V110.901H62.9707V112.704Z" fill="#FAFAF9"/>
<path d="M62.9707 115.727H64.6903V113.924H62.9707V115.727Z" fill="#FAFAF9"/>
<path d="M62.9707 118.75H64.6903V116.947H62.9707V118.75Z" fill="#FAFAF9"/>
<path d="M62.9707 121.774H64.6903V119.971H62.9707V121.774Z" fill="#FAFAF9"/>
<path d="M62.9707 124.797H64.6903V122.994H62.9707V124.797Z" fill="#FAFAF9"/>
<path d="M62.9707 130.844H64.6903V129.04H62.9707V130.844Z" fill="#FAFAF9"/>
<path d="M62.9707 133.867H64.6903V132.063H62.9707V133.867Z" fill="#FAFAF9"/>
<path d="M62.9707 136.89H64.6903V135.086H62.9707V136.89Z" fill="#FAFAF9"/>
<path d="M62.9707 139.913H64.6903V138.109H62.9707V139.913Z" fill="#FAFAF9"/>
<path d="M62.9707 142.936H64.6903V141.132H62.9707V142.936Z" fill="#FAFAF9"/>
<path d="M65.7041 76.4268H67.4237V74.6234H65.7041V76.4268Z" fill="#FAFAF9"/>
<path d="M65.7041 79.4497H67.4237V77.6469H65.7041V79.4497Z" fill="#FAFAF9"/>
<path d="M65.7041 82.473H67.4237V80.6702H65.7041V82.473Z" fill="#FAFAF9"/>
<path d="M65.7041 85.4962H67.4237V83.6934H65.7041V85.4962Z" fill="#FAFAF9"/>
<path d="M65.7041 88.5198H67.4237V86.7164H65.7041V88.5198Z" fill="#FAFAF9"/>
<path d="M65.7041 91.5428H67.4237V89.7395H65.7041V91.5428Z" fill="#FAFAF9"/>
<path d="M65.7041 94.5659H67.4237V92.7625H65.7041V94.5659Z" fill="#FAFAF9"/>
<path d="M65.7041 97.5889H67.4237V95.7855H65.7041V97.5889Z" fill="#FAFAF9"/>
<path d="M65.7041 100.612H67.4237V98.8087H65.7041V100.612Z" fill="#FAFAF9"/>
<path d="M65.7041 103.635H67.4237V101.832H65.7041V103.635Z" fill="#FAFAF9"/>
<path d="M65.7041 106.658H67.4237V104.855H65.7041V106.658Z" fill="#FAFAF9"/>
<path d="M65.7041 109.681H67.4237V107.878H65.7041V109.681Z" fill="#FAFAF9"/>
<path d="M65.7041 112.704H67.4237V110.901H65.7041V112.704Z" fill="#FAFAF9"/>
<path d="M65.7041 115.727H67.4237V113.924H65.7041V115.727Z" fill="#FAFAF9"/>
<path d="M65.7041 118.75H67.4237V116.947H65.7041V118.75Z" fill="#FAFAF9"/>
<path d="M65.7041 121.774H67.4237V119.971H65.7041V121.774Z" fill="#FAFAF9"/>
<path d="M65.7041 139.913H67.4237V138.109H65.7041V139.913Z" fill="#FAFAF9"/>
<path d="M65.7041 142.936H67.4237V141.132H65.7041V142.936Z" fill="#FAFAF9"/>
<path d="M68.4336 76.4268H70.1532V74.6234H68.4336V76.4268Z" fill="#FAFAF9"/>
<path d="M68.4336 79.4497H70.1532V77.6469H68.4336V79.4497Z" fill="#FAFAF9"/>
<path d="M68.4336 82.473H70.1526L70.1532 80.6702H68.4336V82.473Z" fill="#FAFAF9"/>
<path d="M68.4336 85.4962H70.1526V83.6934H68.4336V85.4962Z" fill="#FAFAF9"/>
<path d="M68.4336 88.5198H70.1526V86.7164H68.4336V88.5198Z" fill="#FAFAF9"/>
<path d="M68.4336 91.5428H70.1526V89.7395H68.4336V91.5428Z" fill="#FAFAF9"/>
<path d="M68.4336 94.5659H70.1526V92.7625H68.4336V94.5659Z" fill="#FAFAF9"/>
<path d="M68.4336 97.5889H70.1526V95.7855H68.4336V97.5889Z" fill="#FAFAF9"/>
<path d="M68.4336 100.612H70.1526V98.8087H68.4336V100.612Z" fill="#FAFAF9"/>
<path d="M68.4336 103.635H70.1526V101.832H68.4336V103.635Z" fill="#FAFAF9"/>
<path d="M68.4336 106.658H70.1526V104.855H68.4336V106.658Z" fill="#FAFAF9"/>
<path d="M68.4336 109.681H70.1526V107.878H68.4336V109.681Z" fill="#FAFAF9"/>
<path d="M68.4336 112.704H70.1526V110.901H68.4336V112.704Z" fill="#FAFAF9"/>
<path d="M68.4336 115.727H70.1526V113.924H68.4336V115.727Z" fill="#FAFAF9"/>
<path d="M68.4336 118.75H70.1526V116.947H68.4336V118.75Z" fill="#FAFAF9"/>
<path d="M68.4336 121.774H70.1526V119.971H68.4336V121.774Z" fill="#FAFAF9"/>
<path d="M68.4336 127.82H70.1526V126.017H68.4336V127.82Z" fill="#FAFAF9"/>
<path d="M68.4336 130.844H70.1526V129.04H68.4336V130.844Z" fill="#FAFAF9"/>
<path d="M68.4336 133.867H70.1526V132.063H68.4336V133.867Z" fill="#FAFAF9"/>
<path d="M68.4336 136.89H70.1526V135.086H68.4336V136.89Z" fill="#FAFAF9"/>
<path d="M68.4336 142.936H70.1527V141.132H68.4336V142.936Z" fill="#FAFAF9"/>
<path d="M53.0586 114.508H54.7782V112.704H53.0586V114.508Z" fill="#FAFAF9"/>
<path d="M53.0586 117.531H54.7782V115.728H53.0586V117.531Z" fill="#FAFAF9"/>
<path d="M53.0586 120.554H54.7782V118.75H53.0586V120.554Z" fill="#FAFAF9"/>
<path d="M53.0586 123.577H54.7782V121.774H53.0586V123.577Z" fill="#FAFAF9"/>
<path d="M53.0586 126.6H54.7782V124.797H53.0586V126.6Z" fill="#FAFAF9"/>
<path d="M53.0586 129.624H54.7782V127.82H53.0586V129.624Z" fill="#FAFAF9"/>
<path d="M53.0586 132.647H54.7782V130.843H53.0586V132.647Z" fill="#FAFAF9"/>
<path d="M53.0586 138.693H54.7782V136.89H53.0586V138.693Z" fill="#FAFAF9"/>
<path d="M53.0586 141.716H54.7782V139.913H53.0586V141.716Z" fill="#FAFAF9"/>
<path d="M53.0586 144.739H54.7782V142.936H53.0586V144.739Z" fill="#FAFAF9"/>
<path d="M53.0586 147.762H54.7782V145.959H53.0586V147.762Z" fill="#FAFAF9"/>
<path d="M53.0586 150.785H54.7782V148.982H53.0586V150.785Z" fill="#FAFAF9"/>
<path d="M53.0586 153.808H54.7782V152.005H53.0586V153.808Z" fill="#FAFAF9"/>
<path d="M53.0586 156.831H54.7782V155.028H53.0586V156.831Z" fill="#FAFAF9"/>
<path d="M53.0586 159.855H54.7782V158.052H53.0586V159.855Z" fill="#FAFAF9"/>
<path d="M55.79 114.508H57.5097V112.704H55.79V114.508Z" fill="#FAFAF9"/>
<path d="M55.79 117.531H57.5097V115.728H55.79V117.531Z" fill="#FAFAF9"/>
<path d="M55.79 120.554H57.5097V118.75H55.79V120.554Z" fill="#FAFAF9"/>
<path d="M55.79 123.577H57.5097V121.774H55.79V123.577Z" fill="#FAFAF9"/>
<path d="M55.79 126.6H57.5097V124.797H55.79V126.6Z" fill="#FAFAF9"/>
<path d="M55.79 129.624H57.5097V127.82H55.79V129.624Z" fill="#FAFAF9"/>
<path d="M55.79 138.693H57.5097V136.89H55.79V138.693Z" fill="#FAFAF9"/>
<path d="M55.79 141.716H57.5097V139.913H55.79V141.716Z" fill="#FAFAF9"/>
<path d="M55.79 144.739H57.5097V142.936H55.79V144.739Z" fill="#FAFAF9"/>
<path d="M55.79 147.762H57.5097V145.959H55.79V147.762Z" fill="#FAFAF9"/>
<path d="M55.79 150.785H57.5097V148.982H55.79V150.785Z" fill="#FAFAF9"/>
<path d="M55.79 153.808H57.5097V152.005H55.79V153.808Z" fill="#FAFAF9"/>
<path d="M55.79 156.831H57.5097V155.028H55.79V156.831Z" fill="#FAFAF9"/>
<path d="M55.79 159.855H57.5097V158.052H55.79V159.855Z" fill="#FAFAF9"/>
<path d="M58.5215 114.508H60.2411V112.704H58.5215V114.508Z" fill="#FAFAF9"/>
<path d="M58.5215 117.531H60.2411V115.728H58.5215V117.531Z" fill="#FAFAF9"/>
<path d="M58.5215 120.554H60.2411V118.75H58.5215V120.554Z" fill="#FAFAF9"/>
<path d="M58.5215 123.577H60.2411V121.774H58.5215V123.577Z" fill="#FAFAF9"/>
<path d="M58.5215 126.6H60.2411V124.797H58.5215V126.6Z" fill="#FAFAF9"/>
<path d="M58.5215 129.624H60.2411V127.82H58.5215V129.624Z" fill="#FAFAF9"/>
<path d="M58.5215 135.67H60.2411V133.867H58.5215V135.67Z" fill="#FAFAF9"/>
<path d="M58.5215 138.693H60.2411V136.89H58.5215V138.693Z" fill="#FAFAF9"/>
<path d="M58.5215 141.716H60.2411V139.913H58.5215V141.716Z" fill="#FAFAF9"/>
<path d="M58.5215 144.739H60.2411V142.936H58.5215V144.739Z" fill="#FAFAF9"/>
<path d="M58.5215 147.762H60.2411V145.959H58.5215V147.762Z" fill="#FAFAF9"/>
<path d="M58.5215 150.785H60.2411V148.982H58.5215V150.785Z" fill="#FAFAF9"/>
<path d="M58.5215 153.808H60.2411V152.005H58.5215V153.808Z" fill="#FAFAF9"/>
<path d="M58.5215 156.831H60.2411V155.028H58.5215V156.831Z" fill="#FAFAF9"/>
<path d="M58.5215 159.855H60.2411V158.052H58.5215V159.855Z" fill="#FAFAF9"/>
<path d="M116.074 97.5889H117.794V95.7856H116.074V97.5889Z" fill="#FAFAF9"/>
<path d="M116.074 100.612H117.794V98.8087H116.074V100.612Z" fill="#FAFAF9"/>
<path d="M116.074 103.635H117.794V101.832H116.074V103.635Z" fill="#FAFAF9"/>
<path d="M116.074 106.658H117.794V104.855H116.074V106.658Z" fill="#FAFAF9"/>
<path d="M116.074 109.681H117.794V107.878H116.074V109.681Z" fill="#FAFAF9"/>
<path d="M116.074 112.704H117.794V110.901H116.074V112.704Z" fill="#FAFAF9"/>
<path d="M116.074 115.727H117.794V113.924H116.074V115.727Z" fill="#FAFAF9"/>
<path d="M116.074 118.75H117.794V116.947H116.074V118.75Z" fill="#FAFAF9"/>
<path d="M116.074 121.774H117.794V119.971H116.074V121.774Z" fill="#FAFAF9"/>
<path d="M116.074 124.797H117.794V122.994H116.074V124.797Z" fill="#FAFAF9"/>
<path d="M116.074 127.82H117.794V126.017H116.074V127.82Z" fill="#FAFAF9"/>
<path d="M116.074 130.844H117.794V129.04H116.074V130.844Z" fill="#FAFAF9"/>
<path d="M116.074 133.867H117.794V132.063H116.074V133.867Z" fill="#FAFAF9"/>
<path d="M116.074 139.913H117.794V138.109H116.074V139.913Z" fill="#FAFAF9"/>
<path d="M116.074 142.936H117.794V141.132H116.074V142.936Z" fill="#FAFAF9"/>
<path d="M116.074 145.959H117.794V144.156H116.074V145.959Z" fill="#FAFAF9"/>
<path d="M116.074 148.982H117.794V147.178H116.074V148.982Z" fill="#FAFAF9"/>
<path d="M116.074 155.029H117.794V153.225H116.074V155.029Z" fill="#FAFAF9"/>
<path d="M116.074 158.052H117.794V156.248H116.074V158.052Z" fill="#FAFAF9"/>
<path d="M116.074 161.075H117.794V159.272H116.074V161.075Z" fill="#FAFAF9"/>
<path d="M118.804 97.5889H120.524V95.7856H118.804V97.5889Z" fill="#FAFAF9"/>
<path d="M118.804 100.612H120.523V98.8087H118.804V100.612Z" fill="#FAFAF9"/>
<path d="M118.804 103.635H120.523V101.832H118.804V103.635Z" fill="#FAFAF9"/>
<path d="M118.804 106.658H120.523V104.855H118.804V106.658Z" fill="#FAFAF9"/>
<path d="M118.804 109.681H120.523V107.878H118.804V109.681Z" fill="#FAFAF9"/>
<path d="M118.804 112.704H120.523V110.901H118.804V112.704Z" fill="#FAFAF9"/>
<path d="M118.804 115.727H120.523V113.924H118.804V115.727Z" fill="#FAFAF9"/>
<path d="M118.804 118.75H120.524V116.947H118.804V118.75Z" fill="#FAFAF9"/>
<path d="M118.804 121.774H120.523V119.971H118.804V121.774Z" fill="#FAFAF9"/>
<path d="M118.804 124.797H120.523V122.994H118.804V124.797Z" fill="#FAFAF9"/>
<path d="M118.804 127.82H120.523V126.017H118.804V127.82Z" fill="#FAFAF9"/>
<path d="M118.804 130.844H120.523V129.04H118.804V130.844Z" fill="#FAFAF9"/>
<path d="M118.804 133.867H120.523V132.063H118.804V133.867Z" fill="#FAFAF9"/>
<path d="M118.804 142.936H120.523V141.132H118.804V142.936Z" fill="#FAFAF9"/>
<path d="M118.804 145.959H120.523V144.156H118.804V145.959Z" fill="#FAFAF9"/>
<path d="M118.804 152.005H120.523V150.202H118.804V152.005Z" fill="#FAFAF9"/>
<path d="M118.804 155.029H120.523V153.225H118.804V155.029Z" fill="#FAFAF9"/>
<path d="M118.804 158.052H120.523V156.248H118.804V158.052Z" fill="#FAFAF9"/>
<path d="M118.804 161.075H120.523V159.272H118.804V161.075Z" fill="#FAFAF9"/>
<path d="M121.537 97.5889H123.257V95.7856H121.537V97.5889Z" fill="#FAFAF9"/>
<path d="M121.537 100.612H123.257V98.8087H121.537V100.612Z" fill="#FAFAF9"/>
<path d="M121.537 103.635H123.257V101.832H121.537V103.635Z" fill="#FAFAF9"/>
<path d="M121.537 106.658H123.257V104.855H121.537V106.658Z" fill="#FAFAF9"/>
<path d="M121.537 109.681H123.257V107.878H121.537V109.681Z" fill="#FAFAF9"/>
<path d="M121.537 112.704H123.257V110.901H121.537V112.704Z" fill="#FAFAF9"/>
<path d="M121.537 115.727H123.257V113.924H121.537V115.727Z" fill="#FAFAF9"/>
<path d="M121.537 118.75H123.257V116.947H121.537V118.75Z" fill="#FAFAF9"/>
<path d="M121.537 121.774H123.257V119.971H121.537V121.774Z" fill="#FAFAF9"/>
<path d="M121.537 124.797H123.257V122.994H121.537V124.797Z" fill="#FAFAF9"/>
<path d="M121.537 127.82H123.257V126.017H121.537V127.82Z" fill="#FAFAF9"/>
<path d="M121.537 130.844H123.257V129.04H121.537V130.844Z" fill="#FAFAF9"/>
<path d="M121.537 133.867H123.257V132.063H121.537V133.867Z" fill="#FAFAF9"/>
<path d="M121.537 136.89H123.257V135.086H121.537V136.89Z" fill="#FAFAF9"/>
<path d="M121.537 142.936H123.257V141.132H121.537V142.936Z" fill="#FAFAF9"/>
<path d="M121.537 148.982H123.257V147.178H121.537V148.982Z" fill="#FAFAF9"/>
<path d="M121.537 152.005H123.257V150.202H121.537V152.005Z" fill="#FAFAF9"/>
<path d="M121.537 155.029H123.257V153.225H121.537V155.029Z" fill="#FAFAF9"/>
<path d="M121.537 158.052H123.257V156.248H121.537V158.052Z" fill="#FAFAF9"/>
<path d="M121.537 161.075H123.257V159.272H121.537V161.075Z" fill="#FAFAF9"/>
<path d="M104.947 114.826H106.667V113.023H104.947V114.826Z" fill="#FAFAF9"/>
<path d="M104.947 117.849H106.667V116.046H104.947V117.849Z" fill="#FAFAF9"/>
<path d="M104.947 120.872H106.667V119.069H104.947V120.872Z" fill="#FAFAF9"/>
<path d="M104.947 123.895H106.667V122.092H104.947V123.895Z" fill="#FAFAF9"/>
<path d="M104.947 126.918H106.667V125.115H104.947V126.918Z" fill="#FAFAF9"/>
<path d="M104.947 129.942H106.667V128.139H104.947V129.942Z" fill="#FAFAF9"/>
<path d="M104.947 139.011H106.667V137.208H104.947V139.011Z" fill="#FAFAF9"/>
<path d="M104.947 142.034H106.667V140.231H104.947V142.034Z" fill="#FAFAF9"/>
<path d="M104.947 145.058H106.667V143.254H104.947V145.058Z" fill="#FAFAF9"/>
<path d="M104.947 148.081H106.667V146.277H104.947V148.081Z" fill="#FAFAF9"/>
<path d="M104.947 151.104H106.667V149.3H104.947V151.104Z" fill="#FAFAF9"/>
<path d="M104.947 154.127H106.667V152.323H104.947V154.127Z" fill="#FAFAF9"/>
<path d="M104.947 157.15H106.667V155.346H104.947V157.15Z" fill="#FAFAF9"/>
<path d="M107.679 114.826H109.398V113.023H107.679V114.826Z" fill="#FAFAF9"/>
<path d="M107.679 117.849H109.398V116.046H107.679V117.849Z" fill="#FAFAF9"/>
<path d="M107.679 120.872H109.398V119.069H107.679V120.872Z" fill="#FAFAF9"/>
<path d="M107.679 123.895H109.398V122.092H107.679V123.895Z" fill="#FAFAF9"/>
<path d="M107.679 126.918H109.398V125.115H107.679V126.918Z" fill="#FAFAF9"/>
<path d="M107.679 129.942H109.398V128.139H107.679V129.942Z" fill="#FAFAF9"/>
<path d="M107.679 139.011H109.398V137.208H107.679V139.011Z" fill="#FAFAF9"/>
<path d="M107.679 142.034H109.398V140.231H107.679V142.034Z" fill="#FAFAF9"/>
<path d="M107.679 145.058H109.398V143.254H107.679V145.058Z" fill="#FAFAF9"/>
<path d="M107.679 148.081H109.398V146.277H107.679V148.081Z" fill="#FAFAF9"/>
<path d="M107.679 151.104H109.398V149.3H107.679V151.104Z" fill="#FAFAF9"/>
<path d="M107.679 154.127H109.398V152.323H107.679V154.127Z" fill="#FAFAF9"/>
<path d="M107.679 160.173H109.398V158.37H107.679V160.173Z" fill="#FAFAF9"/>
<path d="M198.41 101.513H200.13V99.7107H198.41V101.513Z" fill="#FAFAF9"/>
<path d="M198.41 104.537H200.13V102.734H198.41V104.537Z" fill="#FAFAF9"/>
<path d="M198.41 107.56H200.13V105.757H198.41V107.56Z" fill="#FAFAF9"/>
<path d="M198.41 110.583H200.13V108.78H198.41V110.583Z" fill="#FAFAF9"/>
<path d="M198.41 113.606H200.13V111.803H198.41V113.606Z" fill="#FAFAF9"/>
<path d="M198.41 116.629H200.13V114.826H198.41V116.629Z" fill="#FAFAF9"/>
<path d="M198.41 119.652H200.13V117.849H198.41V119.652Z" fill="#FAFAF9"/>
<path d="M198.41 122.676H200.13V120.872H198.41V122.676Z" fill="#FAFAF9"/>
<path d="M198.41 125.699H200.13V123.895H198.41V125.699Z" fill="#FAFAF9"/>
<path d="M198.41 128.722H200.13V126.918H198.41V128.722Z" fill="#FAFAF9"/>
<path d="M198.41 131.745H200.13V129.941H198.41V131.745Z" fill="#FAFAF9"/>
<path d="M198.41 137.791H200.13V135.988H198.41V137.791Z" fill="#FAFAF9"/>
<path d="M198.41 140.814H200.13V139.011H198.41V140.814Z" fill="#FAFAF9"/>
<path d="M198.41 143.838H200.13V142.034H198.41V143.838Z" fill="#FAFAF9"/>
<path d="M198.41 146.86H200.13V145.058H198.41V146.86Z" fill="#FAFAF9"/>
<path d="M198.41 149.884H200.13V148.081H198.41V149.884Z" fill="#FAFAF9"/>
<path d="M198.41 152.907H200.13V151.104H198.41V152.907Z" fill="#FAFAF9"/>
<path d="M198.41 155.93H200.13V154.127H198.41V155.93Z" fill="#FAFAF9"/>
<path d="M198.41 158.953H200.13V157.15H198.41V158.953Z" fill="#FAFAF9"/>
<path d="M201.142 101.513H202.861V99.7107H201.142V101.513Z" fill="#FAFAF9"/>
<path d="M201.142 104.537H202.861V102.734H201.142V104.537Z" fill="#FAFAF9"/>
<path d="M201.142 107.56H202.861V105.757H201.142V107.56Z" fill="#FAFAF9"/>
<path d="M201.142 110.583H202.861V108.78H201.142V110.583Z" fill="#FAFAF9"/>
<path d="M201.142 113.606H202.861V111.803H201.142V113.606Z" fill="#FAFAF9"/>
<path d="M201.142 116.629H202.861V114.826H201.142V116.629Z" fill="#FAFAF9"/>
<path d="M201.142 119.652H202.861V117.849H201.142V119.652Z" fill="#FAFAF9"/>
<path d="M201.142 122.676H202.861V120.872H201.142V122.676Z" fill="#FAFAF9"/>
<path d="M201.142 125.699H202.861V123.895H201.142V125.699Z" fill="#FAFAF9"/>
<path d="M201.142 128.722H202.861V126.918H201.142V128.722Z" fill="#FAFAF9"/>
<path d="M201.142 131.745H202.861V129.941H201.142V131.745Z" fill="#FAFAF9"/>
<path d="M201.142 134.768H202.861V132.965H201.142V134.768Z" fill="#FAFAF9"/>
<path d="M201.142 137.791H202.861V135.988H201.142V137.791Z" fill="#FAFAF9"/>
<path d="M201.142 140.814H202.861V139.011H201.142V140.814Z" fill="#FAFAF9"/>
<path d="M201.142 143.838H202.861V142.034H201.142V143.838Z" fill="#FAFAF9"/>
<path d="M201.142 146.86H202.861V145.058H201.142V146.86Z" fill="#FAFAF9"/>
<path d="M201.142 149.884H202.861V148.081H201.142V149.884Z" fill="#FAFAF9"/>
<path d="M201.142 152.907H202.861V151.104H201.142V152.907Z" fill="#FAFAF9"/>
<path d="M201.142 155.93H202.861V154.127H201.142V155.93Z" fill="#FAFAF9"/>
<path d="M201.142 158.953H202.861V157.15H201.142V158.953Z" fill="#FAFAF9"/>
<path d="M184.955 113.288H186.675V111.485H184.955V113.288Z" fill="#FAFAF9"/>
<path d="M184.955 116.311H186.675V114.508H184.955V116.311Z" fill="#FAFAF9"/>
<path d="M184.955 119.334H186.675V117.531H184.955V119.334Z" fill="#FAFAF9"/>
<path d="M184.955 122.357H186.675V120.554H184.955V122.357Z" fill="#FAFAF9"/>
<path d="M184.955 125.38H186.675V123.577H184.955V125.38Z" fill="#FAFAF9"/>
<path d="M184.955 128.404H186.675V126.6H184.955V128.404Z" fill="#FAFAF9"/>
<path d="M184.955 131.427H186.675V129.624H184.955V131.427Z" fill="#FAFAF9"/>
<path d="M184.955 134.45H186.675V132.647H184.955V134.45Z" fill="#FAFAF9"/>
<path d="M184.955 137.473H186.675V135.67H184.955V137.473Z" fill="#FAFAF9"/>
<path d="M184.955 140.496H186.675V138.693H184.955V140.496Z" fill="#FAFAF9"/>
<path d="M187.688 113.288H189.408V111.485H187.688V113.288Z" fill="#FAFAF9"/>
<path d="M187.688 116.311H189.408V114.508H187.688V116.311Z" fill="#FAFAF9"/>
<path d="M187.688 119.334H189.408V117.531H187.688V119.334Z" fill="#FAFAF9"/>
<path d="M187.688 122.357H189.408V120.554H187.688V122.357Z" fill="#FAFAF9"/>
<path d="M187.688 125.38H189.408V123.577H187.688V125.38Z" fill="#FAFAF9"/>
<path d="M187.688 128.404H189.408V126.6H187.688V128.404Z" fill="#FAFAF9"/>
<path d="M187.688 131.427H189.408V129.624H187.688V131.427Z" fill="#FAFAF9"/>
<path d="M187.688 134.45H189.408V132.647H187.688V134.45Z" fill="#FAFAF9"/>
<path d="M187.688 137.473H189.408V135.67H187.688V137.473Z" fill="#FAFAF9"/>
<path d="M193.385 32.0231C193.385 30.2142 194.783 28.7472 196.509 28.7472C196.82 28.7472 197.121 28.797 197.406 28.8861C197.36 28.5578 197.335 28.222 197.335 27.8807C197.335 24.049 200.297 20.9431 203.95 20.9431C204.367 20.9431 204.774 20.9855 205.169 21.0627C206.185 19.3179 208.013 18.1493 210.106 18.1493C213.273 18.1493 215.842 20.8179 215.89 24.1281L215.986 24.1225C218.929 24.1225 221.314 26.6248 221.314 29.7108C221.314 32.7974 218.929 35.2991 215.986 35.2991H196.417L196.421 35.2948C194.736 35.2456 193.385 33.8016 193.385 32.0231Z" fill="#F3F2F1"/>
<path d="M63.4918 16.9251H50.0834C50.119 16.5881 50.1404 16.2468 50.1404 15.8998C50.1404 10.7874 46.1891 6.64429 41.3148 6.64429C41.2061 6.64429 41.1009 6.65676 40.9934 6.66049C39.8874 3.54833 37.0362 1.32696 33.6824 1.32696C29.3702 1.32696 25.8743 4.99352 25.8743 9.51599L25.8752 9.53468C22.0518 9.72156 18.9883 12.9209 18.7894 16.9251H18.4346C16.2765 16.9251 14.5107 18.7765 14.5107 21.0402C14.5107 23.3033 16.2765 25.1553 18.4346 25.1553H63.4918C65.6498 25.1553 67.4157 23.3033 67.4157 21.0402C67.4157 18.7765 65.6498 16.9251 63.4918 16.9251Z" fill="#F3F2F1"/>
<path d="M233.669 188.055C233.669 191.951 182.106 195.109 118.499 195.109C54.8925 195.109 3.3291 191.951 3.3291 188.055C3.3291 184.16 54.8925 181.002 118.499 181.002C182.106 181.002 233.669 184.16 233.669 188.055Z" fill="#F3F2F1"/>
<path d="M34.71 138.726H50.8586V135.902H34.71V138.726Z" fill="#17282F"/>
<path d="M49.3811 138.726H36.1533L36.4937 135.902H49.0556L49.3811 138.726Z" fill="#57666B"/>
<path d="M17.9297 189.372H20.7496L42.7467 82.4312H39.927L17.9297 189.372Z" fill="#17282F"/>
<path d="M20.7487 189.372H18.7314L36.1049 104.91L34.5148 122.447L33.6606 126.6L33.2894 128.403L33.0387 129.624L32.6675 131.426L32.4168 132.647L32.1222 134.08L28.8851 149.815L28.6858 150.785L25.3234 167.132L24.2677 172.265L24.2357 172.42L20.7487 189.372Z" fill="#405158"/>
<path d="M58.0247 189.247H55.205L42.8926 82.4312H45.7123L58.0247 189.247Z" fill="#17282F"/>
<path d="M53.6972 169.213L45.8594 101.219C46.5169 101.043 47.1638 100.811 47.7964 100.523L55.3776 166.293L53.6972 169.213Z" fill="#6C7A7F"/>
<path d="M28.458 189.247H31.2779L40.9625 82.4312H38.1428L28.458 189.247Z" fill="#17282F"/>
<path d="M31.2778 189.247H29.2607L37.2891 100.699C37.939 100.938 38.5947 101.135 39.2529 101.285L36.5722 130.853L36.5205 131.427L36.4094 132.647L36.2461 134.45L36.1148 135.902L35.8588 138.726L35.6978 140.496L35.5873 141.716L35.424 143.519L35.3135 144.739L35.1495 146.543L33.2832 167.132L32.8175 172.265L32.8038 172.42L31.2778 189.247Z" fill="#6C7A7F"/>
<path d="M53.6333 74.1226C58.6294 84.272 56.3675 95.9171 48.5808 100.132C40.794 104.348 30.4311 99.5382 25.4351 89.3894C20.4388 79.24 22.7011 67.595 30.4875 63.379C38.2748 59.1636 48.6372 63.9732 53.6333 74.1226Z" fill="#064677"/>
<path d="M54.8231 73.4997C59.8192 83.6485 57.5567 95.2935 49.77 99.5095C41.9832 103.725 31.6203 98.9153 26.6244 88.7659C21.6283 78.6165 23.8904 66.9714 31.6773 62.7561C39.4641 58.5401 49.8264 63.3503 54.8231 73.4997Z" fill="#406FBF"/>
<path d="M44.2141 96.5978C38.9958 96.5978 33.4924 92.8715 30.4506 86.6933C26.4189 78.503 28.2452 69.1023 34.529 65.7005C36.0739 64.8639 37.7461 64.4671 39.4473 64.4671C44.4583 64.4671 49.7312 67.902 52.836 73.6441L51.5233 74.3549C49.0267 69.8424 44.8485 67.1482 40.8776 67.1482C39.515 67.1482 38.1767 67.4653 36.9394 68.1349C31.9059 70.8609 30.444 78.3884 33.6742 84.9484C36.109 89.8964 40.5177 92.8814 44.6965 92.8814C46.0597 92.8821 47.3974 92.5644 48.6359 91.8941C53.4455 89.2902 54.994 82.3004 52.305 75.9602L53.6195 75.2488C57.1081 83.2242 55.1942 92.0841 49.1325 95.3651C47.5875 96.2017 45.9153 96.5978 44.2141 96.5978ZM45.1485 89.4721C42.0074 89.4721 38.6353 87.1318 36.7422 83.2883C34.2622 78.2494 35.2625 72.5347 38.9762 70.5239C39.8554 70.0486 40.8087 69.8225 41.7835 69.8225C44.7226 69.8225 47.8643 71.8706 49.8066 75.2843L48.0852 76.2162C46.6816 74.021 44.6062 72.7085 42.6905 72.7085C42.0478 72.7085 41.4241 72.8555 40.8485 73.167C38.3169 74.5368 37.6997 78.5603 39.4675 82.1546C40.8343 84.9304 43.2257 86.6366 45.4104 86.6366C46.0532 86.6366 46.6774 86.4889 47.253 86.1775C49.6427 84.8843 50.327 81.2271 48.9085 77.7991L50.5872 76.8902C52.5456 81.6955 51.455 86.8758 47.9569 88.7701C47.0772 89.2467 46.1238 89.4721 45.1485 89.4721ZM45.6112 84.3429C44.0906 84.3429 42.3769 83.0722 41.3736 81.0327C40.0971 78.4369 40.4511 75.5821 42.1648 74.6533C42.5325 74.4546 42.9323 74.3599 43.3463 74.3599C44.6281 74.3599 46.0472 75.2637 47.0618 76.77L45.9486 77.373C45.4182 76.7388 44.7523 76.3682 44.1434 76.3682C43.9153 76.3682 43.6956 76.4199 43.493 76.5295C42.5486 77.041 42.3531 78.6145 43.057 80.0435C43.61 81.1672 44.5539 81.8674 45.3914 81.8674C45.6195 81.8674 45.8393 81.8157 46.0413 81.7061C46.8188 81.285 47.0885 80.145 46.7677 78.9583L47.8803 78.356C48.7885 80.7499 48.3567 83.203 46.7909 84.0508C46.4244 84.2489 46.0246 84.3429 45.6112 84.3429Z" fill="white"/>
<path d="M55.0187 94.3386C56.66 91.5361 57.507 88.0869 57.4755 84.4185C57.4761 84.4814 57.4767 84.5443 57.4767 84.6072C57.4767 85.5572 57.4179 86.4934 57.3015 87.4054C57.1565 88.5441 56.9213 89.6461 56.5994 90.6988C56.2032 91.997 55.6739 93.2192 55.0187 94.3386ZM24.4365 73.1441C25.4119 68.6098 27.8916 64.8049 31.6763 62.7561C32.1325 62.5088 32.5976 62.2926 33.0698 62.107C32.5976 62.2932 32.1331 62.5088 31.6769 62.7555C27.8921 64.8049 25.4122 68.6091 24.4365 73.1441Z" fill="#B8D2EF"/>
<path d="M49.0146 99.8862C49.0158 99.8856 49.0158 99.885 49.017 99.8844C49.2701 99.7685 49.5201 99.6433 49.7684 99.5094C49.8409 99.4701 49.9134 99.4296 49.9852 99.3891C49.9134 99.4302 49.8415 99.4701 49.7684 99.5094C49.5201 99.6439 49.2683 99.7697 49.0146 99.8862Z" fill="#ADC7EB"/>
<path d="M43.677 101.038C37.2119 101.037 30.3928 96.4198 26.6247 88.7665C24.0564 83.5501 23.4059 77.9387 24.4378 73.144C24.1274 74.5861 23.9696 76.1011 23.9701 77.6584C23.9712 81.2783 24.8292 85.1186 26.6247 88.7659C30.3928 96.4198 37.2119 101.037 43.677 101.037C45.5119 101.037 47.3188 100.664 49.0189 99.8846C49.0177 99.8852 49.0177 99.8858 49.0165 99.8864C47.3171 100.666 45.5113 101.038 43.677 101.038Z" fill="#406FBF"/>
<path d="M57.476 84.4183C57.4481 81.143 56.7204 77.6938 55.2336 74.3748L55.2342 74.3742C56.721 77.6932 57.4481 81.143 57.476 84.4183ZM54.4496 72.7702C50.6159 65.5529 44.0272 61.2285 37.7694 61.2285C36.1645 61.2285 34.5797 61.5132 33.0703 62.1068C34.5803 61.5132 36.1645 61.2279 37.7706 61.2279C44.0278 61.2279 50.6165 65.5529 54.4501 72.7702H54.4496Z" fill="#B8D2EF"/>
<path d="M43.6767 101.037C37.2116 101.037 30.3925 96.4197 26.6244 88.7658C24.8289 85.1185 23.9709 81.2782 23.9697 77.6583C23.9693 76.101 24.127 74.586 24.4375 73.1439C25.4131 68.609 27.8931 64.8048 31.6779 62.7553C32.1341 62.5087 32.5986 62.2931 33.0708 62.1069C34.5802 61.5132 36.165 61.2285 37.77 61.2285C44.0277 61.2285 50.6164 65.5529 54.4501 72.7702L52.8362 73.6442C49.7313 67.902 44.4584 64.4672 39.4474 64.4672C37.7462 64.4672 36.0741 64.864 34.5291 65.7006C28.2453 69.1024 26.419 78.503 30.4507 86.6933C33.4926 92.8715 38.996 96.5979 44.2143 96.5979C45.9155 96.5979 47.5876 96.2017 49.1326 95.3651C55.1944 92.0841 57.1082 83.2242 53.6197 75.2488L55.2341 74.3748C56.7209 77.6938 57.4486 81.143 57.4765 84.4184C57.508 88.0868 56.6609 91.5359 55.0197 94.3385C53.7396 96.5231 51.9767 98.3147 49.7699 99.5094C47.8555 100.546 45.7848 101.037 43.6767 101.037Z" fill="#FF5C33"/>
<path d="M44.6939 92.8816C40.5152 92.8816 36.1065 89.8965 33.6717 84.9486C30.4415 78.3885 31.9033 70.861 36.9369 68.1351C38.1742 67.4654 39.5125 67.1484 40.8751 67.1484C44.846 67.1484 49.0242 69.8425 51.5208 74.355L49.8041 75.2845C47.8618 71.8708 44.7201 69.8226 41.781 69.8226C40.8062 69.8226 39.8528 70.0487 38.9737 70.524C35.26 72.5348 34.2597 78.2496 36.7397 83.2885C38.6328 87.1319 42.0049 89.4723 45.146 89.4723C46.1213 89.4723 47.0747 89.2468 47.9544 88.7703C51.4525 86.8759 52.5431 81.6956 50.5846 76.8904L52.3025 75.9603C54.9915 82.3005 53.443 89.2904 48.6334 91.8942C47.3949 92.5645 46.0572 92.8822 44.6939 92.8816Z" fill="#FF5C33"/>
<path d="M45.41 86.6366C43.2253 86.6366 40.8339 84.9304 39.4671 82.1546C37.6993 78.5603 38.3165 74.5368 40.8481 73.167C41.4237 72.8555 42.0474 72.7085 42.6901 72.7085C44.6058 72.7085 46.6812 74.021 48.0848 76.2162L47.0614 76.77C46.0468 75.2638 44.6277 74.3599 43.3459 74.3599C42.9319 74.3599 42.5321 74.4546 42.1644 74.6533C40.4507 75.5821 40.0967 78.437 41.3732 81.0327C42.3765 83.0722 44.0902 84.343 45.6108 84.343C46.0242 84.343 46.424 84.2489 46.7905 84.0508C48.3563 83.203 48.7881 80.7499 47.8799 78.356L48.9081 77.7991C50.3266 81.2271 49.6423 84.8843 47.2526 86.1775C46.677 86.489 46.0527 86.6366 45.41 86.6366Z" fill="#FF5C33"/>
<path d="M43.4925 76.5297C42.548 77.0411 42.3526 78.6146 43.0565 80.0436C43.7604 81.4732 45.0963 82.2176 46.0407 81.7062C46.9858 81.1948 47.1806 79.6213 46.4773 78.1917C45.7734 76.7627 44.4369 76.0183 43.4925 76.5297Z" fill="#FF5C33"/>
<path d="M67.7955 61.9973L63.1878 64.4922L62.8457 69.2376L66.7334 71.6938L71.3405 69.199L67.3779 66.7845L67.7955 61.9973Z" fill="#FF5C33"/>
<path d="M45.641 79.5097C45.2911 79.5583 44.9341 79.377 44.763 79.0294C44.545 78.5871 44.7108 78.0433 45.1325 77.8147L67.6914 65.6015C68.1126 65.3735 68.6311 65.5467 68.8491 65.989C69.0665 66.4313 68.9014 66.9751 68.4797 67.2037L45.9207 79.4169C45.8305 79.4654 45.736 79.496 45.641 79.5097Z" fill="#17282F"/>
<path d="M45.5277 79.517C45.2164 79.517 44.9159 79.3395 44.7632 79.0293C44.6979 78.896 44.667 78.7539 44.667 78.6138C44.6682 78.2886 44.8375 77.9747 45.1327 77.8146L67.6916 65.6014C67.8176 65.5335 67.9518 65.5011 68.0849 65.5011C68.3961 65.5011 68.6967 65.6786 68.8493 65.9889C68.9147 66.1222 68.9456 66.2642 68.945 66.4044C68.9444 66.7301 68.7745 67.0435 68.4799 67.2036L68.2619 67.3213L63.7136 69.7838L61.5182 70.9723L60.0005 71.7939L55.2343 74.3747L53.6198 75.2487L52.3052 75.9601L50.5874 76.8901L48.9087 77.799L47.8805 78.3559L45.9209 79.4167C45.8306 79.4653 45.7362 79.4958 45.6412 79.5096C45.6031 79.5145 45.5651 79.517 45.5277 79.517Z" fill="#9BA6A6"/>
<path d="M200.557 175.475V176.505L203.954 177.923H200.557V180.355H203.484L206.576 182.476H204.257L207.35 184.361H204.257V189.191L149.581 189.213V186.515L147.525 184.361H150.037V178.329H145.555V176.302H143.322V175.475H200.557Z" fill="#406FBF"/>
<path d="M149.581 189.213V186.515L174.492 187.512V189.203L149.581 189.213ZM174.492 186.515H149.58H149.581L147.525 184.361H150.037V178.329H145.555V176.302H143.322V175.475H154.698V175.696L168.234 175.691V176.302H170.467H145.555V177.214L170.467 176.302V178.329H174.949H150.037L174.949 180.145V184.361L150.037 183.395V184.361H172.437L174.492 186.515Z" fill="#93CCFF"/>
<path d="M174.492 189.203V186.515L172.437 184.36H174.949V180.145L175.057 180.152L174.949 178.329H170.466V176.302H168.233V175.691L179.609 175.686V175.696L200.556 175.681V175.694L174.949 176.302L200.557 176.505H200.556L203.32 177.659L203.336 177.923H200.556H174.492L200.556 178.835V180.355H203.482L203.61 182.476H175.335V183.395L203.611 182.497L203.723 184.36H183.3L203.758 184.951L204.013 189.191L174.492 189.203Z" fill="#0079C2"/>
<path d="M174.948 180.145L150.036 178.329H174.948V180.145Z" fill="#064677"/>
<path d="M175.056 180.153L174.947 180.145V178.329L175.056 180.153Z" fill="#91A6CE"/>
<path d="M145.553 177.214V176.302H170.465L145.553 177.214Z" fill="#064677"/>
<path d="M174.948 184.361H150.036V183.395L174.948 184.361Z" fill="#064677"/>
<path d="M200.558 176.505L200.557 175.694H200.558V176.505Z" fill="#E0E1DE"/>
<path d="M200.556 176.505L174.947 176.302L200.555 175.694V176.505" fill="#064677"/>
<path d="M200.557 178.835H200.557V177.923H200.557V178.835Z" fill="#E0E1DE"/>
<path d="M200.557 178.835L174.492 177.923H200.557L200.557 178.835Z" fill="#064677"/>
<path d="M175.335 183.395V182.476H203.609L203.611 182.497L175.335 183.395Z" fill="#064677"/>
<path d="M203.756 184.951L183.298 184.361H203.721L203.756 184.951Z" fill="#064677"/>
<path d="M205.673 161.958V162.989L209.069 164.407H205.673V166.839H208.601L211.692 168.96H209.373L212.465 170.844H209.373V175.674L154.696 175.696V172.999L152.641 170.844H155.154V164.812H150.671V162.786H148.438V161.958H205.673Z" fill="#406FBF"/>
<path d="M154.696 175.696V172.999L179.608 173.996V175.686L168.232 175.691L154.696 175.696ZM179.608 172.999H154.696V172.999L152.641 170.844H155.154V164.812H150.671V162.786H148.438V161.958H202.614H173.35V162.786H175.583H150.671V163.697L175.583 162.786V164.812H180.065H155.154L180.065 166.628V170.844L155.154 169.878V170.844H177.553L179.608 172.999V172.999Z" fill="#93CCFF"/>
<path d="M200.557 175.681V175.677L203.202 175.676V175.679L200.557 175.681Z" fill="#E0E1DE"/>
<path d="M179.607 175.696V175.686L200.555 175.678V175.681L179.607 175.696Z" fill="#91A6CE"/>
<path d="M179.609 175.686V172.998L177.555 170.844H180.067V166.628L180.175 166.636L180.067 164.812H175.584V162.786H173.352V161.958H202.616L202.651 162.25L180.067 162.786L202.738 162.965L202.914 164.407H179.609L203.014 165.225L203.302 167.599H202.54V168.96H180.453V169.878L202.54 169.177V169.738H202.845L202.911 170.844H188.417L202.936 171.263L203.202 175.676L179.609 175.686ZM209.71 167.599H208.171L208.233 166.839H208.602L209.71 167.599ZM209.071 164.407H208.431L208.452 164.148L209.071 164.407ZM204.32 164.407H204.284L204.109 162.976L204.347 162.978L204.32 164.407ZM204.017 162.217L203.985 161.958H205.675V162.178L204.017 162.217Z" fill="#0079C2"/>
<path d="M180.066 166.628L155.154 164.812H180.066V166.628Z" fill="#064677"/>
<path d="M180.174 166.636L180.065 166.628V164.812L180.174 166.636Z" fill="#91A6CE"/>
<path d="M150.669 163.697V162.786H175.581L150.669 163.697Z" fill="#064677"/>
<path d="M180.066 170.844H155.154V169.878L180.066 170.844Z" fill="#064677"/>
<path d="M179.609 173.996L154.697 172.999H179.609V173.996Z" fill="#064677"/>
<path d="M204.346 162.978L204.108 162.976L204.016 162.217L205.673 162.178V162.341L204.359 162.269L204.346 162.978ZM202.737 162.965L180.065 162.786L202.65 162.25L202.737 162.965Z" fill="#064677"/>
<path d="M203.012 165.225L179.607 164.407H202.912L203.012 165.225ZM204.313 164.667L204.282 164.407H204.318L204.313 164.667Z" fill="#064677"/>
<path d="M180.451 169.878V168.96H202.538V169.177L180.451 169.878Z" fill="#064677"/>
<path d="M202.935 171.263L188.416 170.844H202.91L202.935 171.263Z" fill="#064677"/>
<path d="M215.687 149.718L211.047 181.575L215.038 182.214L219.678 150.358L215.687 149.718Z" fill="#17282F"/>
<path d="M217.166 167.599L217.196 167.395L216.058 167.213L216.009 167.544L216.353 167.599H213.082L215.686 149.718L219.677 150.358L219.149 153.987L218.01 153.805L217.962 154.135L219.1 154.317L219.128 154.131L219.01 154.945L217.871 154.762L217.823 155.093L218.961 155.275L218.87 155.902L217.732 155.719L217.684 156.051L218.822 156.233L218.856 155.996L218.695 157.101L218.73 156.86L217.592 156.678L217.544 157.008L218.682 157.191L217.893 162.607L216.755 162.425L216.707 162.755L217.845 162.937L217.235 167.132L217.166 167.599ZM216.198 166.255L216.149 166.585L217.288 166.768L217.336 166.437L216.198 166.255ZM216.337 165.298L216.288 165.628L217.427 165.81L217.475 165.48L216.337 165.298ZM216.476 164.339L216.428 164.671L217.566 164.853L217.614 164.522L216.476 164.339ZM216.616 163.382L216.568 163.712L217.706 163.895L217.754 163.564L216.616 163.382ZM216.895 161.466L216.846 161.797L217.985 161.98L218.033 161.648L216.895 161.466ZM217.034 160.509L216.986 160.839L218.125 161.021L218.173 160.691L217.034 160.509ZM217.173 159.551L217.125 159.882L218.263 160.064L218.312 159.734L217.173 159.551ZM217.313 158.592L217.265 158.925L218.403 159.106L218.451 158.775L217.313 158.592ZM217.453 157.636L217.405 157.966L218.543 158.148L218.591 157.818L217.453 157.636ZM218.15 152.847L218.102 153.178L219.24 153.361L219.288 153.028L218.15 152.847ZM218.29 151.889L218.242 152.219L219.38 152.402L219.428 152.072L218.29 151.889ZM218.429 150.932L218.381 151.262L219.519 151.444L219.567 151.114L218.429 150.932Z" fill="#B1BABA"/>
<path d="M219.518 151.444L218.38 151.262L218.428 150.932L219.566 151.114L219.518 151.444Z" fill="#899193"/>
<path d="M219.379 152.402L218.241 152.219L218.289 151.889L219.427 152.072L219.379 152.402Z" fill="#899193"/>
<path d="M219.242 153.36L218.104 153.178L218.152 152.847L219.29 153.028L219.242 153.36Z" fill="#899193"/>
<path d="M219.128 154.131L219.149 153.986H219.149L219.128 154.131Z" fill="#B6B8B6"/>
<path d="M219.101 154.317L217.963 154.135L218.011 153.805L219.15 153.987L219.128 154.131L219.101 154.317Z" fill="#899193"/>
<path d="M218.961 155.275L217.822 155.093L217.87 154.762L219.009 154.945L218.961 155.275Z" fill="#899193"/>
<path d="M218.822 156.233L217.684 156.051L217.732 155.719L218.87 155.902L218.856 155.996L218.822 156.233Z" fill="#899193"/>
<path d="M218.684 157.191L217.546 157.008L217.594 156.678L218.732 156.86L218.697 157.101L218.684 157.191Z" fill="#899193"/>
<path d="M218.543 158.148L217.405 157.966L217.453 157.636L218.591 157.818L218.543 158.148Z" fill="#899193"/>
<path d="M218.403 159.106L217.265 158.925L217.313 158.592L218.451 158.775L218.403 159.106Z" fill="#899193"/>
<path d="M218.264 160.064L217.126 159.882L217.174 159.551L218.312 159.734L218.264 160.064Z" fill="#899193"/>
<path d="M218.124 161.021L216.985 160.839L217.033 160.509L218.172 160.691L218.124 161.021Z" fill="#899193"/>
<path d="M217.983 161.98L216.845 161.797L216.893 161.466L218.032 161.648L217.983 161.98Z" fill="#899193"/>
<path d="M217.845 162.937L216.707 162.755L216.755 162.425L217.893 162.607L217.845 162.937Z" fill="#899193"/>
<path d="M217.704 163.895L216.566 163.712L216.614 163.381L217.753 163.564L217.704 163.895Z" fill="#899193"/>
<path d="M217.566 164.853L216.428 164.671L216.476 164.339L217.614 164.522L217.566 164.853Z" fill="#899193"/>
<path d="M217.428 165.81L216.29 165.628L216.338 165.298L217.476 165.48L217.428 165.81Z" fill="#899193"/>
<path d="M217.288 166.768L216.149 166.585L216.198 166.255L217.336 166.437L217.288 166.768Z" fill="#899193"/>
<path d="M217.166 167.599H216.353L216.009 167.544L216.058 167.213L217.196 167.395L217.166 167.599Z" fill="#899193"/>
<path d="M209.927 176.287H211.472V154.834H209.927V176.287Z" fill="#406FBF"/>
<path d="M210.053 152.402H211.346L211.472 154.834H209.927L210.053 152.402Z" fill="#406FBF"/>
<path d="M211.472 154.834H209.927L210.053 152.402H211.346L211.472 154.834Z" fill="#CFE0F5"/>
<path d="M211.472 167.599H209.927V154.834H211.472V167.132V167.599Z" fill="#0079C2"/>
<path d="M204.664 178.778L206.012 178.598L203.392 157.08L202.044 157.261L204.664 178.778Z" fill="#17282F"/>
<path d="M201.359 155.508L201.757 155.02L201.671 152.121L202.52 152.012L203.589 157.033L203.517 158.115L202.169 158.296L201.977 157.728L202.269 161.54L202.097 161.562C201.544 159.219 201.359 155.508 201.359 155.508Z" fill="#17282F"/>
<path d="M202.097 161.562C201.544 159.219 201.359 155.508 201.359 155.508L201.757 155.02L201.671 152.121L202.52 152.012L203.589 157.033L203.517 158.115L202.169 158.296L201.977 157.728L202.269 161.54L202.097 161.562Z" fill="#2B3C43"/>
<path d="M204.357 162.269L208.584 162.502L208.429 158.049L204.957 157.857L204.357 162.269Z" fill="#17282F"/>
<path d="M204.358 162.269L208.584 162.502L207.603 174.539L204.131 174.348L204.358 162.269Z" fill="#93CCFF"/>
<path d="M202.762 168.391H218.44L217.18 189.372H204.022L202.762 168.391Z" fill="#17282F"/>
<path d="M202.538 169.738H218.664V167.599H202.538V169.738Z" fill="#17282F"/>
<path d="M218.665 169.738H202.538V167.599H218.665V169.738Z" fill="#405158"/>
<path d="M105.267 15.8568H89.2571C86.2171 15.8568 83.752 18.4413 83.752 21.6301V37.9465C83.752 41.1347 86.2171 43.7198 89.2571 43.7198H99.0837L105.09 49.8152L102.787 43.7198H105.267C108.307 43.7198 110.772 41.1347 110.772 37.9465V21.6301C110.772 18.4413 108.307 15.8568 105.267 15.8568Z" fill="#406FBF"/>
<path d="M99.4398 43.3689L103.787 47.7798L102.319 43.8966L102.063 43.2198H102.787H105.267C108.009 43.2198 110.272 40.8813 110.272 37.9465V21.6301C110.272 18.6948 108.009 16.3568 105.267 16.3568H89.2571C86.5153 16.3568 84.252 18.6948 84.252 21.6301V37.9465C84.252 40.8812 86.5153 43.2198 89.2571 43.2198H99.0837H99.293L99.4398 43.3689Z" fill="white" stroke="black"/>
<path d="M91.6987 26.5195C93.0887 24.082 95.8127 24.9746 97.2372 26.8341C98.6158 24.9366 101.317 23.9705 102.766 26.3694C105.21 30.4134 100.324 34.2569 98.0117 35.7669C97.7498 35.9407 97.533 36.0834 97.3524 36.1961C97.1688 36.0883 96.9485 35.9519 96.683 35.785C94.3349 34.3379 89.3554 30.6277 91.6987 26.5195Z" fill="#FF5C33"/>
<path d="M193.528 40.6912H200.066L192.255 34.4824L186.596 38.1247L193.528 40.6912Z" fill="#406FBF"/>
<path d="M200.059 40.6912H193.529L192.383 40.2663L193.135 38.1247L200.059 40.6912Z" fill="#116699"/>
<path d="M194.564 13.8222H188.62L164.565 30.2931L171.198 32.834L128.567 116.261L81.0324 121.719L42.0986 189.37H63.7862H72.6231H94.3106L114.451 142.135L158.402 137.023L193.133 38.1252L200.068 40.6941L194.564 13.8222Z" fill="#406FBF"/>
<path d="M63.7856 189.37H42.0986L81.0347 121.722H96.651L80.2183 155.546L63.7856 189.37ZM156.75 85.2785H144.4L153.345 67.7729C153.484 67.6259 153.622 67.4801 153.761 67.3356C155.395 65.5229 156.901 63.6473 158.328 61.6601C158.675 61.1767 158.681 60.4896 158.303 59.9963C158.109 59.7415 157.845 59.5808 157.564 59.5185L171.199 32.8359H178.844L156.75 85.2785Z" fill="#93CCFF"/>
<path d="M164.564 30.2944H164.562L164.562 30.2934L164.564 30.2944Z" fill="white"/>
<path d="M171.979 30.2944H164.564L164.562 30.2932L188.617 13.8242L194.56 13.8223L171.979 30.2944Z" fill="#93CCFF"/>
<path d="M171.195 32.8354L164.562 30.2945H164.565L171.195 32.8342" fill="#A3C3EA"/>
<path d="M178.843 32.8361H171.198L171.196 32.8354L171.197 32.8342L164.566 30.2945H171.982L178.843 32.8361Z" fill="#116699"/>
<path d="M200.065 40.6912L193.133 38.1247L158.402 137.021L114.45 142.135L94.3079 189.372H63.7822L96.6482 121.722L143.694 116.259L178.841 32.836L171.981 30.2944L194.558 13.8242L200.065 40.6912Z" fill="#064677"/>
<path d="M96.6504 121.722H81.0342L108.841 118.526L114.406 117.886C114.912 118.518 115.509 119.035 116.173 119.454L96.6504 121.722Z" fill="#9ABDE7"/>
<path d="M120.177 50.6076C120.177 50.6076 114.042 52.089 113.679 56.8805C113.408 60.4481 115.508 66.2513 114.16 73.8697C113.539 77.3799 113.567 84.908 122.959 82.4661C134.264 79.5265 132.285 53.0981 127.596 51.8373C122.907 50.5765 120.177 50.6076 120.177 50.6076Z" fill="#17282F"/>
<path d="M131.376 71.2602L131.353 71.2577C131.287 71.244 131.244 71.1767 131.258 71.1076C132.791 63.0357 130.609 54.0586 128.373 52.4758C127.979 52.1967 127.607 52.1749 127.267 52.4085C127.211 52.4458 127.136 52.4303 127.099 52.3717C127.062 52.3132 127.078 52.2347 127.134 52.1961C127.558 51.9045 128.033 51.9282 128.508 52.2652C130.789 53.8792 133.099 62.7192 131.495 71.1574C131.484 71.2178 131.433 71.2602 131.376 71.2602Z" fill="#17282F"/>
<path d="M148.492 152.085L145.183 151.425L146.71 137.633L149.329 113.968L127.714 113.308L126.324 103.715L125.849 100.444C125.849 100.444 129.989 100.775 135.264 101.441C140.461 102.101 146.757 103.079 151.284 104.4H151.29C153.327 104.992 155.002 105.652 156.059 106.375C161.863 110.355 148.492 152.085 148.492 152.085Z" fill="#FFBA9A"/>
<path d="M146.711 137.633L147.7 128.705C151.302 121.346 153.643 114.824 151.906 112.795C150.207 110.81 145.737 108.883 140.759 107.239C141.577 106.302 142.41 105.424 143.237 104.657H148.718C146.865 104.963 144.348 105.633 142.339 107.097C142.339 107.097 148.957 109.116 153.008 113.302C155.675 116.061 150.525 129.093 146.711 137.633Z" fill="#E29D7D"/>
<path d="M133.177 68.3917C136.502 68.4097 139.929 68.4683 143.24 68.2422C144.619 68.097 145.998 68.1101 147.14 67.3128C150.419 65.1157 153.38 62.3356 156.467 59.8002C157.022 59.3181 157.85 59.4059 158.301 59.9965C158.678 60.4898 158.672 61.1769 158.325 61.6603C156.898 63.6474 155.392 65.5231 153.758 67.3358C151.941 69.2345 150.137 71.3606 147.701 72.47C145.187 73.42 142.712 73.5707 140.136 73.7588C137.744 73.9046 135.412 73.9339 133.015 73.8267C129.635 73.5713 129.784 68.4253 133.177 68.3917Z" fill="#FFBA9A"/>
<path d="M132.632 68.2117C136.653 67.7551 142.292 68.2117 142.292 68.2117L141.117 74.616L131.976 76.5203L132.632 68.2117Z" fill="#406FBF"/>
<path d="M133.945 76.111V76.1104L134.704 75.9522L135.193 75.8506L134.86 75.9204L133.945 76.111Z" fill="#FEFEFE"/>
<path d="M141.117 74.6128L141.289 73.6734H141.29L141.118 74.6128H141.117Z" fill="#F9F9F8"/>
<path d="M141.292 73.6733L141.47 72.7016L141.293 73.6733H141.292Z" fill="#FABFBF"/>
<path d="M132.631 68.2123V68.2098C133.972 68.0585 135.492 68.008 136.923 68.008C139.784 68.008 142.289 68.2098 142.289 68.2098V68.2117C142.188 68.2036 139.726 68.0093 136.924 68.0093C135.493 68.0093 133.972 68.0597 132.632 68.2117C132.631 68.2123 132.631 68.2123 132.631 68.2123Z" fill="#F9F9F8"/>
<path d="M134.704 75.9521L136.622 75.5522C136.001 73.7799 134.547 71.4963 133.196 70.4834C132.892 68.9616 132.633 68.2116 132.633 68.2116C133.973 68.0596 135.494 68.0091 136.924 68.0091C139.727 68.0091 142.188 68.2035 142.29 68.2116L141.469 72.7016L141.291 73.6734L141.119 74.6128L135.957 75.6911L135.192 75.8505L134.704 75.9521Z" fill="white"/>
<path d="M133.946 76.1104C133.753 73.6591 133.458 71.7872 133.197 70.4834C134.549 71.4963 136.002 73.78 136.623 75.5522L134.705 75.9521L133.946 76.1104Z" fill="#F4F4F4"/>
<path d="M142.019 67.8934L140.805 75.1243L142.097 74.7568L142.959 67.8934H142.019Z" fill="#0079C2"/>
<path d="M122.082 102.414C122.082 102.414 147.275 107.387 151.904 112.795C156.533 118.204 132.19 155.547 132.19 155.547L129.154 154.02L142.348 118.94L119.35 119.015L122.082 102.414Z" fill="#FFBA9A"/>
<path d="M145.734 102.702C139.668 106.44 132.021 119.672 132.021 119.672C132.021 119.672 101.629 129.484 117.007 97.3573L132.525 96.1015L133.465 100.745C140.442 101.672 145.734 102.702 145.734 102.702Z" fill="#17282F"/>
<path d="M117.105 95.1452L116.846 97.5871L132.886 98.1602L133.192 95.2716L117.105 95.1452Z" fill="#17282F"/>
<path d="M132.886 98.1602L125.913 97.911C124.732 97.0339 123.476 96.1269 122.275 95.2324L133.175 95.4299L132.886 98.1602ZM118.275 97.6381L116.846 97.5871L116.926 96.8302C117.37 97.113 117.821 97.3784 118.275 97.6381Z" fill="#405158"/>
<path d="M122.313 98.9774L121.52 98.9282L121.761 94.6898L122.554 94.7396L122.313 98.9774Z" fill="#17282F"/>
<path d="M129.399 98.0686L125.887 97.9901L125.944 95.1969L129.456 95.2748L129.399 98.0686Z" fill="white"/>
<path d="M132.148 98.9906L131.354 98.9408L131.596 94.703L132.389 94.7522L132.148 98.9906Z" fill="#17282F"/>
<path d="M133.18 95.4299L117.017 95.1372C117.017 95.1372 117.029 94.2594 116.892 91.1386C116.809 89.1452 116.667 86.7469 116.429 84.2365C116.043 80.2684 115.419 76.0263 114.386 72.6874C114.386 72.6874 119.619 70.025 132.633 68.2116C132.633 68.2116 135.663 76.9887 133.18 95.4299Z" fill="#0079C2"/>
<path d="M128.679 82.9458C128.668 82.9458 128.657 82.9452 128.645 82.9446C128.393 82.9252 128.205 82.6954 128.223 82.4313C128.24 82.179 128.441 81.9865 128.679 81.9865C128.69 81.9865 128.701 81.9871 128.712 81.9877C128.964 82.007 129.153 82.2369 129.135 82.501C129.117 82.7533 128.917 82.9458 128.679 82.9458Z" fill="#A4C3E9"/>
<path d="M128.734 88.1279C128.723 88.1279 128.712 88.1273 128.701 88.1267C128.449 88.1074 128.259 87.8775 128.278 87.6134C128.295 87.3611 128.496 87.1686 128.733 87.1686C128.744 87.1686 128.756 87.1692 128.767 87.1699C129.019 87.1892 129.208 87.419 129.19 87.6832C129.172 87.9354 128.971 88.1279 128.734 88.1279Z" fill="#A4C3E9"/>
<path d="M128.352 92.9868C128.34 92.9868 128.329 92.9862 128.318 92.9856C128.066 92.9663 127.876 92.7364 127.895 92.4723C127.913 92.22 128.113 92.0275 128.35 92.0275C128.362 92.0275 128.373 92.0281 128.384 92.0288C128.636 92.0481 128.826 92.2779 128.807 92.542C128.789 92.7943 128.589 92.9868 128.352 92.9868Z" fill="#A4C3E9"/>
<path d="M119.868 75.7559C119.868 75.7559 117.175 70.2741 123.997 68.9797C130.819 67.6858 132.567 72.0557 132.567 72.0557L129.273 71.1979L128.271 79.5265C128.271 79.5265 126.596 75.0613 121.651 72.8331L119.868 75.7559Z" fill="#406FBF"/>
<path d="M128.271 79.5265C128.271 79.5265 126.596 75.0613 121.651 72.8331L119.868 75.7559C119.868 75.7559 119.343 74.6882 119.344 73.3832C119.344 71.9803 119.952 70.3034 122.475 69.3877C122.254 69.9658 121.902 70.5108 121.368 70.9662C121.368 70.9662 124.349 73.5432 127.534 75.3348C127.534 75.3348 128.21 72.4176 127.508 70.7631C127.508 70.7631 126.721 70.6821 126.507 69.2077C126.486 69.0663 126.469 68.9105 126.46 68.7405C131.254 68.7716 132.567 72.0557 132.567 72.0557L129.272 71.1979L128.271 79.5265Z" fill="white"/>
<path d="M127.532 75.3348C124.347 73.5433 121.365 70.9662 121.365 70.9662C123.045 69.5341 122.92 67.2199 122.617 65.7592C122.455 64.9512 122.235 64.4043 122.235 64.4043L126.801 65.6663C126.624 66.4587 126.524 67.129 126.48 67.6965C126.426 68.3194 126.445 68.8159 126.505 69.2077C126.719 70.6822 127.506 70.7632 127.506 70.7632C128.208 72.4177 127.532 75.3348 127.532 75.3348Z" fill="#FFBA9A"/>
<path d="M126.505 69.2075C124.685 68.8132 123.4 67.1649 122.617 65.759C122.455 64.951 122.235 64.4041 122.235 64.4041L126.801 65.6662C126.624 66.4585 126.523 67.1288 126.479 67.6963C126.458 67.9492 126.448 68.1816 126.448 68.3946C126.449 68.7054 126.469 68.9745 126.505 69.2075Z" fill="#EEA989"/>
<path d="M142.337 152.22L142.993 152.789L143.845 152.099L145.201 155.01L150.692 159.785C150.692 159.785 152.294 159.624 150.258 156.616C150.166 156.479 150.08 156.324 150.005 156.146C149.153 154.247 149 150.205 149 150.205L145.987 147.585C145.987 147.585 145.757 147.651 145.38 147.825C144.501 148.234 142.778 149.199 142.337 152.22Z" fill="black"/>
<path d="M145.382 147.825L145.374 147.835C146.14 147.716 146.335 151.333 147.111 153.182C147.806 154.83 148.921 156.26 150.007 156.146C149.155 154.247 149.329 149.346 149.329 149.346L146.907 147.238C146.907 147.238 145.758 147.651 145.382 147.825Z" fill="#FFBA9A"/>
<path d="M125.296 155.349L125.807 156.063L126.789 155.6L127.462 158.762L131.743 164.746C131.743 164.746 133.336 164.981 132.024 161.558C131.965 161.402 131.916 161.231 131.882 161.039C131.475 158.984 132.223 155.016 132.223 155.016L129.874 151.732C129.874 151.732 129.635 151.741 129.23 151.818C128.284 152.002 126.395 152.52 125.296 155.349Z" fill="#1A1818"/>
<path d="M129.228 151.818L129.219 151.826C129.99 151.897 129.377 155.463 129.722 157.449C130.032 159.222 130.799 160.886 131.88 161.039C131.473 158.984 132.73 154.26 132.73 154.26L130.842 151.619C130.842 151.619 129.633 151.741 129.228 151.818Z" fill="#FFBA9A"/>
<path d="M155.971 60.3385L158.382 55.5145L162.015 58.3707C162.015 58.3707 160.782 61.9911 157.759 62.0802L155.971 60.3385Z" fill="#FFBA9A"/>
<path d="M161.435 53.3274L163.658 56.1362L162.016 58.3706L158.383 55.5145L161.435 53.3274Z" fill="#FFBA9A"/>
<path d="M124.954 98.1602L130.13 98.61L129.037 103.231C129.037 103.231 125.377 103.451 124.121 100.565L124.954 98.1602Z" fill="#FFBA9A"/>
<path d="M133.238 100.706L131.637 103.946L129.035 103.231L129.582 100.921L130.128 98.6098L133.238 100.706Z" fill="#FFBA9A"/>
<path d="M155.066 102.503V104.084C155.066 104.49 154.61 104.657 154.228 104.657H124.095C123.708 104.657 123.242 104.49 123.242 104.084V102.503H155.066Z" fill="#17282F"/>
<path d="M134.354 104.657H124.095C123.708 104.657 123.242 104.49 123.242 104.084V102.503H135.139H133.508V104.084C133.508 104.49 133.967 104.657 134.354 104.657Z" fill="#6C7A7F"/>
<path d="M154.228 104.657H134.354C133.967 104.657 133.508 104.49 133.508 104.084V102.503H135.14L135.024 103.046C134.904 103.608 135.239 104.118 135.76 104.118H136.427H155.065C155.04 104.5 154.599 104.657 154.228 104.657Z" fill="#535F64"/>
<path d="M160.109 86.0853L156.523 103.149C156.406 103.71 155.884 104.118 155.357 104.118H135.763C135.241 104.118 134.906 103.608 135.027 103.046L138.61 86.1133C138.731 85.5558 139.248 85.2786 139.774 85.2786H159.369C159.896 85.2786 160.226 85.5284 160.109 86.0853Z" fill="#17282F"/>
<path d="M155.356 104.118H136.427C135.901 104.118 135.57 103.608 135.686 103.046L139.274 86.1133C139.39 85.5558 139.912 85.2786 140.438 85.2786H159.367C159.822 85.2786 160.13 85.4642 160.131 85.8741C160.131 85.9389 160.124 86.0093 160.108 86.0853L156.521 103.149C156.404 103.71 155.882 104.118 155.356 104.118ZM148.899 92.1196C147.828 92.1632 146.738 93.3312 146.427 94.7627C146.114 96.2235 146.763 97.4108 147.858 97.4108C148.953 97.4108 150.447 96.2235 150.447 94.7627V94.7577L150.346 94.7627C149.256 94.7627 148.587 93.5804 148.899 92.1196Z" fill="#6C7A7F"/>
<path d="M147.859 97.4109C146.764 97.4109 146.115 96.2236 146.427 94.7628C146.739 93.3313 147.829 92.1633 148.9 92.1197C148.588 93.5805 149.257 94.7628 150.347 94.7628L150.447 94.7578V94.7628C150.447 96.2236 148.953 97.4109 147.859 97.4109Z" fill="#535F64"/>
<path d="M117.881 89.8883C117.812 88.7029 117.774 87.4016 117.754 86.0635L118.249 86.0299C118.249 86.0299 118.485 84.7093 118.65 83.0056C119.036 84.746 119.305 87.5573 117.881 89.8883Z" fill="#3563B7"/>
<path d="M117.719 77.0205C117.777 81.1629 117.612 87.5106 118.009 91.5634L118.05 91.8424C118.05 91.8742 118.083 91.9377 117.97 91.7247C120.348 94.0264 124.745 96.9399 127.849 99.3836C128.434 99.8209 128.568 100.678 128.144 101.287C127.79 101.798 127.158 101.973 126.623 101.751C124.35 100.808 122.149 99.763 119.969 98.59C118.097 97.5261 116.182 96.5618 114.539 95.0013C113.868 94.3703 113.495 93.3331 113.347 92.5308C112.453 87.3517 112.497 82.1827 112.534 76.9569C112.714 73.4143 117.617 73.4673 117.719 77.0205Z" fill="#FFBA9A"/>
<path d="M114.388 72.6848C111.693 74.1244 111.263 79.0119 111.79 86.464L118.251 86.0298C118.251 86.0298 119.352 79.8429 118.468 76.9699C117.149 72.6848 114.388 72.6848 114.388 72.6848Z" fill="#406FBF"/>
<path d="M111.79 86.464C111.665 84.6955 111.594 83.0715 111.594 81.6039C111.595 76.8864 112.333 73.783 114.389 72.6848C114.389 72.6848 117.149 72.6848 118.468 76.9699C118.721 77.7916 118.812 78.8854 118.812 80.0273C118.813 82.8772 118.251 86.0298 118.251 86.0298L117.756 86.0634L112.67 86.4048L111.79 86.464Z" fill="#F4F4F4"/>
<path d="M111.335 86.0418L118.502 85.7957L118.345 86.884L111.335 87.2739V86.0418Z" fill="#0079C2"/>
<path d="M122.879 52.441C127.76 51.3178 128.688 53.6974 129.86 57.896C131.325 63.1435 130.983 67.1863 125.813 67.172C118.792 67.1521 116.329 53.9491 122.879 52.441Z" fill="#FFBA9A"/>
<path d="M127.263 58.2454C127.263 58.2454 128.033 59.2022 128.766 59.7005C128.766 59.7005 128.545 60.3403 127.823 60.4057L127.263 58.2454Z" fill="#F14453"/>
<path d="M124.778 58.4572C124.856 58.7954 124.745 59.1137 124.53 59.1685C124.315 59.2227 124.077 58.9929 123.999 58.6546C123.922 58.3164 124.033 57.9981 124.248 57.9439C124.462 57.889 124.7 58.1189 124.778 58.4572Z" fill="#17282F"/>
<path d="M124.162 57.9825L124.797 57.5165C124.797 57.5165 124.59 58.2236 124.162 57.9825Z" fill="#17282F"/>
<path d="M128.769 57.3701C128.847 57.7084 128.737 58.0267 128.522 58.0815C128.306 58.1357 128.069 57.9058 127.991 57.5676C127.913 57.2293 128.024 56.911 128.239 56.8568C128.454 56.802 128.692 57.0319 128.769 57.3701Z" fill="#17282F"/>
<path d="M128.154 56.8956L128.789 56.4296C128.789 56.4296 128.583 57.1372 128.154 56.8956Z" fill="#17282F"/>
<path d="M122.563 56.804L122.486 56.7846C122.401 56.7398 122.367 56.6314 122.41 56.543C122.89 55.5506 124.08 55.4335 124.131 55.4291C124.227 55.4279 124.308 55.4939 124.316 55.593C124.325 55.692 124.254 55.7792 124.16 55.788C124.15 55.7892 123.109 55.8945 122.717 56.7055C122.686 56.7678 122.626 56.804 122.563 56.804Z" fill="#17282F"/>
<path d="M126.977 54.96C126.921 54.96 126.864 54.9301 126.832 54.8759C126.782 54.7918 126.805 54.6815 126.885 54.6286C126.914 54.6099 127.61 54.1558 128.683 54.5949C128.771 54.6311 128.815 54.7351 128.78 54.8279C128.746 54.9207 128.646 54.9668 128.558 54.9301C127.658 54.5607 127.092 54.917 127.068 54.9326L126.977 54.96Z" fill="#17282F"/>
<path d="M120.144 60.6269C120.144 60.6269 121.285 56.8064 120.462 54.2449C120.462 54.2449 122.613 50.5971 126.983 52.7069C126.983 52.7069 129.141 55.1744 129.698 57.3496C129.698 57.3496 128.932 49.7842 122.114 51.1646C115.306 52.5425 117.48 62.946 121.625 65.2496C121.625 65.2496 119.443 63.0133 120.144 60.6269Z" fill="#17282F"/>
<path d="M120.972 61.3537C120.808 60.6928 119.919 59.7148 118.765 60.1191C117.571 60.5377 117.534 63.3029 120.707 63.2431C121.162 63.235 121.315 62.731 120.972 61.3537Z" fill="#FFBA9A"/>
<path d="M126.762 63.1583C126.216 63.1583 125.559 62.9708 125.043 62.2582C124.985 62.1791 125 62.0663 125.076 62.0065C125.151 61.9455 125.259 61.9611 125.316 62.0408C126.226 63.2966 127.627 62.6344 127.686 62.6052C127.771 62.564 127.874 62.6027 127.914 62.6924C127.954 62.7827 127.917 62.8892 127.831 62.9316C127.823 62.9359 127.358 63.1583 126.762 63.1583Z" fill="#17282F"/>
<path d="M120.467 54.2448C120.467 54.2448 124.534 51.109 128.098 53.1933C128.098 53.1933 128.506 49.2757 124.248 48.9518C119.99 48.6272 116.803 53.7552 116.803 53.7552L120.467 54.2448Z" fill="#17282F"/>
<path d="M122.047 52.943C122.047 52.943 118.839 55.7443 119.633 61.2466C120.452 66.9172 119.714 69.5123 119.366 73.1384C118.9 77.981 121.888 78.7833 121.888 78.7833C121.888 78.7833 118.926 79.0867 117.969 75.6444C117.477 73.8728 117.766 66.5727 115.127 62.0888C112.129 56.9958 118.093 52.1083 122.047 52.943Z" fill="#17282F"/>
</g>
<defs>
<clipPath id="clip0_998_11039">
<rect width="238" height="186" fill="white"/>
</clipPath>
</defs>
</svg>
