<svg width="238" height="186" viewBox="0 0 238 186" fill="none" xmlns="http://www.w3.org/2000/svg">
<g clip-path="url(#clip0_998_10982)">
<rect width="238" height="186" fill="white"/>
<path d="M228.814 113.778C230.484 113.837 232.355 113.989 233.446 115.247C234.123 116.025 234.356 117.08 234.565 118.086C236.07 125.286 237.574 134.691 239.077 143.061C239.883 147.537 236.49 151.695 231.924 151.77C191.144 152.444 154.458 151.003 113.678 152.153C79.1365 153.126 40.4934 153.131 5.98656 154.961C4.45872 155.041 2.71337 155.041 1.68147 153.914C1.04807 153.225 0.840981 152.256 0.670448 151.336C-0.848687 143.165 0.637415 132.154 1.00458 123.853C1.41003 114.692 3.0179 115.136 11.736 114.613C29.4053 113.549 45.3501 114.558 63.0403 113.902C98.4172 112.593 133.825 112.105 169.227 112.438C189.094 112.625 208.959 113.072 228.814 113.778Z" fill="#F69F32"/>
<mask id="mask0_998_10982" style="mask-type:luminance" maskUnits="userSpaceOnUse" x="0" y="112" width="240" height="43">
<path d="M228.814 113.778C230.484 113.837 232.355 113.989 233.446 115.247C234.123 116.025 234.356 117.08 234.565 118.086C236.07 125.286 237.574 134.691 239.077 143.061C239.883 147.537 236.49 151.695 231.924 151.77C191.144 152.444 154.458 151.003 113.678 152.153C79.1365 153.126 40.4934 153.131 5.98656 154.961C4.45872 155.041 2.71337 155.041 1.68147 153.914C1.04807 153.225 0.840981 152.256 0.670448 151.336C-0.848687 143.165 0.637415 132.154 1.00458 123.853C1.41003 114.692 3.0179 115.136 11.736 114.613C29.4053 113.549 45.3501 114.558 63.0403 113.902C98.4172 112.593 133.825 112.105 169.227 112.438C189.094 112.625 208.959 113.072 228.814 113.778Z" fill="white"/>
</mask>
<g mask="url(#mask0_998_10982)">
<path d="M-7.99797 150.312C47.942 145.307 104.073 148.871 160.123 147.519C178.659 147.073 196.984 146.191 215.525 146.544C227.987 146.782 241.8 148.36 254.115 145.804C254.999 145.62 254.769 144.809 253.895 144.99C239.579 147.961 223.297 145.774 208.774 145.508C189.804 145.158 170.947 146.499 151.979 146.794C98.6947 147.621 45.3423 144.669 -7.82918 149.427C-8.56874 149.493 -8.98288 150.4 -7.99797 150.312Z" fill="white"/>
</g>
<path d="M12.4623 45.0172C12.3649 44.6416 12.2466 44.2429 11.9455 43.9953C11.6062 43.7164 11.1294 43.7022 10.6892 43.7022L7.80052 43.6968C4.40553 43.6921 2.41482 40.8088 2.32085 37.4281C2.28431 36.0975 2.28954 34.7655 2.33653 33.435C2.36611 32.6274 2.42182 31.7834 2.83771 31.0885C3.35801 30.224 4.3377 29.7578 5.27041 29.3591C11.9682 26.4921 19.0871 24.5997 26.3277 23.7524C28.0522 23.5514 29.6757 24.7107 30.0359 26.4021C30.4553 28.3717 30.7946 30.3595 31.0522 32.3554C31.2366 33.7827 31.3672 35.2976 30.7529 36.5983C29.6044 39.0342 27.9043 40.0636 25.2227 40.3966C25.489 46.5422 25 52.2653 26.5766 58.2119C26.3173 57.2359 14.7593 61.6251 13.8371 61.7306C12.2953 56.756 13.8823 50.5408 12.4623 45.0172Z" fill="#FFBA9A"/>
<path d="M184.709 2.80643C185.652 2.86014 186.643 2.92944 187.441 3.43192C188.578 4.14577 189.288 5.49725 189.397 6.8314C191.621 33.9492 190.528 45.6257 190.003 73.3447C189.921 77.6744 188.167 78.4108 187.57 79.1607C186.771 80.1658 182.228 80.4189 180.947 80.5386C149.999 83.4219 121.381 81.1986 89.4753 79.4003C83.9904 79.0915 63.8658 79.878 58.4574 80.833C52.983 81.7981 51.2394 79.116 51.0654 77.0347C49.849 62.5123 49.4749 47.9336 49.4279 33.3651C49.4036 25.5891 45.6066 6.11754 54.0584 1.53987C58.6767 -0.962082 66.295 0.353004 71.3309 0.288895C78.5316 0.198799 85.734 0.155479 92.9364 0.158943C107.339 0.169342 121.744 0.368591 136.142 0.76017C152.341 1.20026 168.533 1.88293 184.709 2.80643Z" fill="#3394CE"/>
<path d="M170.968 11.9306C173.333 12.0831 176.808 11.7054 178.522 13.3358C180.405 15.1291 179.733 18.6152 179.839 21.2055C180.488 37.0314 181.137 52.8574 181.787 68.6835C181.809 69.269 181.82 69.9031 181.48 70.3837C181.033 71.0104 180.163 71.1369 179.392 71.1993C160.183 72.7864 143.521 73.9979 124.319 72.3207C105.786 70.7024 85.2249 71.5633 62.9895 72.142C61.7505 72.1751 60.7169 71.187 60.7238 69.9539C60.7708 62.626 59.9181 49.6629 59.4587 37.2636C59.2064 30.4372 55.2319 12.2979 59.7911 10.4526C62.8607 9.21033 70.4425 9.80811 74.6953 9.57247C80.8119 9.23633 86.9372 9.03882 93.0624 8.95392C105.151 8.78585 117.242 9.06133 129.318 9.56553C143.211 10.146 157.091 11.0383 170.968 11.9306Z" fill="white"/>
<path d="M90.5513 94.1087C85.7955 95.645 79.8634 95.4962 73.1499 96.2745C72.5183 96.3469 71.8327 96.087 71.2897 96.4167C70.5815 96.8443 70.4336 97.7886 70.3779 98.6116C69.9638 104.589 70.6546 107.859 72.1963 113.651C101.655 115.081 131.357 116.498 160.505 111.996C160.868 109.673 161.312 106.679 161.935 103.879C162.603 100.88 160.646 97.9619 157.604 97.4333C153.316 96.6881 149.02 96.4612 144.568 95.5083C144.113 89.794 143.213 83.4007 144.713 77.865C131.597 76.841 119.906 76.6014 106.766 75.9484C103.487 75.7858 91.4144 73.4002 89.2044 75.9193C87.4382 77.9307 91.4561 93.8157 90.5513 94.1087Z" fill="#3394CE"/>
<path d="M106.435 83.7005C106.27 83.3039 106.094 82.8654 106.226 82.4565C106.438 81.7892 107.289 81.6139 107.991 81.555C114.774 80.9783 121.569 80.5506 128.371 80.2751C128.796 80.2596 129.253 80.2522 129.601 80.4951C130.108 80.8505 130.16 81.5671 130.141 82.1844C130.035 85.8554 129.18 89.4595 128.698 93.1016C127.673 100.829 128.34 108.775 130.638 116.228C124.12 116.804 110.15 120.876 108.932 111.87C107.615 102.122 110.479 93.3945 106.435 83.7005Z" fill="#FFBA9A"/>
<mask id="mask1_998_10982" style="mask-type:luminance" maskUnits="userSpaceOnUse" x="57" y="8" width="125" height="66">
<path d="M170.97 11.9306C173.335 12.0831 176.81 11.7054 178.524 13.3358C180.407 15.1291 179.735 18.6152 179.841 21.2055C180.49 37.0314 181.139 52.8574 181.788 68.6835C181.811 69.269 181.822 69.9031 181.482 70.3837C181.035 71.0104 180.165 71.1369 179.394 71.1993C160.185 72.7864 143.523 73.9979 124.321 72.3207C105.788 70.7024 85.2268 71.5633 62.9914 72.142C61.7525 72.1751 60.7188 71.187 60.7258 69.9539C60.7728 62.626 59.9201 49.6629 59.4607 37.2636C59.2084 30.4372 55.2339 12.2979 59.793 10.4526C62.8626 9.21034 70.4444 9.80811 74.6973 9.57247C80.8139 9.23633 86.9391 9.03882 93.0644 8.95392C105.153 8.78585 117.244 9.06133 129.32 9.56553C143.213 10.146 157.093 11.0383 170.97 11.9306Z" fill="white"/>
</mask>
<g mask="url(#mask1_998_10982)">
<path d="M51.0628 50.8716C50.9863 50.8716 50.9079 50.8648 50.8314 50.8513C50.1632 50.7227 49.7229 50.0818 49.85 49.4144C50.5756 45.61 53.6521 42.7614 55.8969 40.6822L79.6427 18.7104L80.4258 20.0047C86.2379 29.6033 93.4576 38.2132 101.904 45.6114C110.84 34.3681 120.259 23.2879 129.913 12.6617L130.75 11.7417L142.321 22.427C143.079 23.1289 143.765 23.7122 144.463 23.7786C145.3 23.8496 146.192 23.2048 147.116 22.4737L169.994 4.3086C175.305 0.0930585 180.797 -4.26629 185.088 -9.59594C185.514 -10.1261 186.29 -10.2076 186.821 -9.78479C187.352 -9.36029 187.437 -8.58926 187.011 -8.05907C182.549 -2.51631 176.947 1.92967 171.53 6.23011L148.653 24.3939C147.706 25.1458 146.138 26.3932 144.231 26.2246C142.642 26.0744 141.44 24.9637 140.643 24.2274L130.905 15.233C121.293 25.8557 111.92 36.9223 103.039 48.1427L102.242 49.1499L101.267 48.3145C92.5876 40.8865 85.1381 32.2288 79.105 22.5604L57.5744 42.4805C54.9886 44.8771 52.8047 47.0863 52.274 49.8739C52.1608 50.4615 51.644 50.8716 51.0628 50.8716Z" fill="#8DC548"/>
</g>
<path d="M166.041 151.201C165.675 145.629 168.823 140.296 173.032 136.607C177.244 132.918 182.443 130.581 187.528 128.223C200.587 122.167 214.555 114.401 219.33 100.868C221.175 95.6384 221.438 90.0073 221.683 84.4696C222.235 71.9844 222.607 61.401 223.16 48.9157C216.779 48.1847 211.561 48.3249 205.18 49.0599C208.55 53.7361 207.116 56.5827 205.324 62.0548C202.597 70.3783 203.874 77.7942 197.928 85.5911C196.08 88.0148 191.982 91.4402 189.518 93.2425C179.986 100.211 160.622 96.9326 152.723 105.697C150.72 107.918 148.65 110.527 145.679 110.935C144.051 111.158 142.422 110.659 140.842 110.208C129.258 106.901 117.028 105.858 105.049 107.155C101.795 107.509 98.3651 108.008 95.3581 106.722C93.2926 105.84 91.6604 104.203 89.7862 102.968C78.4702 95.514 61.8258 104.125 50.2208 97.1289C46.9616 95.164 44.4854 92.144 42.345 89.0078C34.2673 77.1803 30.0823 62.7613 30.58 48.4669C22.7859 49.1432 15.0789 50.7925 7.69727 53.3672C8.3968 56.3594 9.48089 59.374 9.77497 62.4325C10.9809 74.9679 13.5685 87.5485 19.3196 98.766C25.069 109.983 34.2395 119.792 45.9471 124.558C52.4204 127.194 60.1935 128.767 63.7434 134.765C66.3849 139.227 65.8942 145.102 68.8872 149.339C97.9805 155.907 126.465 149.961 156.296 150.038C160.554 150.049 161.803 151.619 166.041 151.201Z" fill="#064677"/>
<path d="M104.253 98.2185C111.308 97.2676 121.336 98.324 127.133 97.8252C129.123 97.6554 131.208 97.4943 133.061 98.1529C135.609 99.0571 137.144 101.285 138.497 103.37C140.088 105.814 141.677 108.259 143.265 110.704C130.916 110.156 117.776 110.011 105.412 110.207C97.4373 110.333 94.3904 111.714 94.4948 110.023C94.5365 109.323 99.0991 98.9137 104.253 98.2185Z" fill="white"/>
<path d="M207.274 43.3901C204.573 43.0123 201.765 41.7026 200.653 39.2249C199.257 36.1162 201.14 32.3321 203.981 30.4385C206.821 28.5468 210.354 28.0803 213.745 27.6628C216.197 27.363 226.365 28.1013 227.367 29.7128C229.252 32.745 228.526 36.9311 227.656 39.0969C226.885 41.0151 222.714 41.6661 222.582 41.6959C220.622 42.1216 222.554 48.51 222.436 50.5047C222.213 54.3111 219.408 52.7848 219.185 56.5913C216.465 56.0005 211.471 56.8633 210.145 53.9036C208.911 51.1523 208.407 43.5477 207.274 43.3901Z" fill="#FFBA9A"/>
<path d="M28.7674 46.5676C29.5157 46.433 30.3892 46.3356 30.9391 46.8587C31.2958 47.1985 31.4107 47.7136 31.4977 48.1982C31.9728 50.8771 32.0684 53.6214 31.7831 56.3261C24.3631 56.8615 17.2634 59.5071 10.4839 62.5548C9.6747 62.919 8.6776 63.2756 7.9537 62.7646C7.64396 62.5446 7.44907 62.2015 7.26636 61.8692C6.52158 60.5229 2.67761 55.4807 3.28317 53.9977C3.97401 52.3119 9.62597 51.3622 11.2182 50.8701C16.978 49.0841 22.8388 47.6749 28.7674 46.5676Z" fill="#F4F4F4"/>
<path d="M209.195 47.8551C214.123 47.646 221.491 47.4897 226.77 48.446C227.746 48.6213 228.46 49.4734 228.427 50.4616C228.361 52.3966 227.953 54.507 227.499 56.2396C227.4 56.6172 227.257 57.0314 226.909 57.2082C226.664 57.3333 226.373 57.3102 226.1 57.2846C217.485 56.4792 213.479 57.3691 205.728 57.9879C204.47 58.0866 203.299 57.2601 202.998 56.0386C200.955 47.7273 203.343 48.1036 209.195 47.8551Z" fill="#F4F4F4"/>
<path d="M65.824 185.073C63.8333 183.853 56.8345 144.068 61.1848 143.202C65.5351 142.335 169.652 138.58 171.683 143.778C173.712 148.976 170.813 182.474 168.203 183.629C165.593 184.785 69.5949 187.384 65.824 185.073Z" fill="#3394CE"/>
<path d="M129.195 22.0526C128.683 22.5224 127.399 23.5931 126.708 23.673C126.132 23.7387 125.568 23.5011 125.051 23.2378C121.315 21.3353 119.683 17.0314 118.754 12.9562C117.04 16.9119 115.084 21.1965 116.144 25.3738C112.644 22.829 110.901 21.6262 109.639 17.4992C109.039 21.6073 108.4 23.8699 109.039 27.9728C104.927 23.2499 99.4453 22.276 93.1721 22.075C95.7057 25.5945 96.3531 27.6316 98.8867 31.1491C94.0039 30.316 90.7951 32.2564 86.142 33.949C90.7498 33.9626 92.8484 35.6141 95.262 39.5226C90.186 40.1488 87.7046 42.9812 83.5996 46.0201C86.6309 45.4502 89.2707 48.4581 90.6211 51.218C91.9714 53.9802 92.1367 54.6523 91.9262 57.7155C89.3212 59.457 85.4911 61.8848 84.8212 64.9358C86.2603 63.8597 90.5845 66.2786 92.0218 67.3562C93.4574 68.4356 94.3658 70.0525 95.2759 71.5977C97.552 75.4651 98.2376 77.4386 101.352 80.6732C104.688 84.1385 110.342 87.3129 111.959 87.7689C114.471 88.4756 118.092 90.0227 119.479 92.2251C120.929 89.482 122.436 88.6475 125.424 86.883C127.749 85.5111 132.656 82.6887 134.271 80.5297C135.704 78.6096 141.295 70.2914 143.695 70.4228C142.545 68.8031 142.291 67.8813 140.361 67.3906C143.406 65.5124 143.89 65.1144 146.596 64.9358C149.3 64.7572 149.845 65.2635 152.535 64.9202C151.011 62.9013 149.284 58.6517 146.813 58.0776C147.179 54.5399 150.041 53.4672 153.266 51.9409C150.711 51.3677 148.804 48.7355 146.25 48.1603C145.717 48.0404 145.534 47.5571 145.146 47.1761C144.717 46.7551 144.207 45.388 144.13 44.7937C143.542 40.1467 143.417 38.9961 146.634 35.5795C144.066 35.7318 141.626 35.1565 139.635 36.7802C137.93 32.1833 140.431 28.0128 145.011 26.2198C141.134 26.2699 137.841 25.918 134.559 27.9728C133.301 24.6118 132.957 22.2171 134.582 19.017C132.167 20.1762 131.07 20.3269 129.195 22.0526Z" fill="#1E2939"/>
<mask id="mask2_998_10982" style="mask-type:luminance" maskUnits="userSpaceOnUse" x="6" y="54" width="216" height="104">
<path d="M164.66 156.768C164.294 151.196 167.442 145.864 171.652 142.174C175.863 138.486 181.062 136.148 186.147 133.79C199.207 127.734 213.175 119.968 217.95 106.435C219.794 101.206 220.057 95.5745 220.302 90.0367C220.854 77.5516 221.226 66.9682 221.78 54.4828C215.398 53.7518 210.18 53.892 203.799 54.627C207.169 59.3033 205.735 62.1498 203.943 67.6219C201.216 75.9454 202.494 83.3613 196.548 91.1583C194.7 93.5819 190.602 97.0074 188.138 98.8097C178.605 105.778 159.241 102.5 151.342 111.264C149.34 113.485 147.269 116.094 144.298 116.502C142.67 116.725 141.041 116.226 139.461 115.775C127.877 112.468 115.647 111.425 103.668 112.722C100.414 113.076 96.9842 113.575 93.9773 112.289C91.9118 111.407 90.2795 109.77 88.4054 108.535C77.0893 101.081 60.4449 109.692 48.84 102.696C45.5807 100.731 43.1045 97.7112 40.9641 94.5749C32.8865 82.7475 28.7015 68.3285 29.1991 54.0341C21.4051 54.7104 13.698 56.3597 6.31641 58.9344C7.01594 61.9265 8.10003 64.9411 8.39411 67.9996C9.60002 80.535 12.1876 93.1156 17.9388 104.333C23.6881 115.55 32.8586 125.359 44.5663 130.125C51.0395 132.761 58.8127 134.334 62.3625 140.333C65.0041 144.794 64.5134 150.67 67.5064 154.906C96.5996 161.474 125.084 155.528 154.915 155.606C159.173 155.616 160.422 157.186 164.66 156.768Z" fill="white"/>
</mask>
<g mask="url(#mask2_998_10982)">
<path d="M38.2284 105.165C41.9836 102.427 46.266 100.958 50.9244 100.875C51.2219 100.869 52.534 100.293 51.8536 100.305C46.407 100.402 41.3363 102.072 36.9372 105.281C36.6518 105.489 37.95 105.369 38.2284 105.165Z" fill="white"/>
<path d="M34.3312 101.727C38.8382 98.9133 43.7488 97.366 49.0701 97.148C49.5435 97.1285 50.6032 96.3921 49.6496 96.4307C43.8498 96.6683 38.391 98.321 33.4681 101.394C32.6555 101.901 33.9188 101.984 34.3312 101.727Z" fill="white"/>
<path d="M189.17 91.9346C194.308 91.9737 198.949 93.875 202.644 97.4215C203.034 97.7958 204.387 97.2502 203.966 96.8447C200.077 93.1088 195.107 91.1007 189.708 91.0594C189.125 91.056 188.206 91.9271 189.17 91.9346Z" fill="white"/>
<path d="M195.984 86.5734C198.763 87.7362 201.335 89.2416 203.721 91.073C204.205 91.4439 205.466 90.7576 204.828 90.2675C202.36 88.3738 199.687 86.8387 196.816 85.6382C196.233 85.3951 195.154 86.2269 195.984 86.5734Z" fill="white"/>
</g>
<path d="M106.405 33.6458C106.877 34.1968 107.124 34.7979 107.155 35.5254C107.209 36.8012 109.224 36.1996 109.179 35.1463C109.137 34.1291 108.862 33.1917 108.189 32.4073C107.461 31.558 105.69 32.8107 106.405 33.6458Z" fill="#3B4A5B"/>
<path d="M112.705 31.4422C112.964 31.8456 113.107 32.2333 113.201 32.7017C113.397 33.6891 115.515 33.1951 115.315 32.1954C115.198 31.6045 114.977 31.0745 114.65 30.567C114.13 29.7596 112.108 30.5184 112.705 31.4422Z" fill="#3B4A5B"/>
<path d="M103.118 37.4336C102.859 38.2464 102.647 39.0661 102.494 39.9045C102.372 40.5645 103.806 42.1204 103.981 41.1642C104.115 40.4345 104.291 39.7226 104.516 39.0153C104.665 38.551 104.385 38.0454 104.082 37.7021C103.954 37.5547 103.265 36.9713 103.118 37.4336Z" fill="#3B4A5B"/>
<path d="M96.0465 42.4426C95.5853 43.4733 95.6897 44.3552 96.1248 45.3739C96.5911 46.4689 98.145 46.2402 97.5899 44.9358C97.4194 44.5406 97.4995 44.1995 97.6665 43.8233C98.0494 42.9656 96.4711 41.4896 96.0465 42.4426Z" fill="#3B4A5B"/>
<path d="M101.63 48.2644C101.426 49.4043 101.661 50.3126 102.479 51.1524C103.292 51.9877 104.986 51.147 103.996 50.1305C103.678 49.8028 103.605 49.4197 103.685 48.9745C103.885 47.8692 101.825 47.1829 101.63 48.2644Z" fill="#3B4A5B"/>
<path d="M101.07 29.3942C101.322 29.8532 101.501 30.3365 101.651 30.8372C101.983 31.9622 103.998 31.1492 103.662 30.0163C103.514 29.5153 103.335 29.0321 103.083 28.5726C102.514 27.5365 100.506 28.3682 101.07 29.3942Z" fill="#3B4A5B"/>
<path d="M114.715 38.9371C115.587 39.547 116.231 40.4532 116.953 41.2228C117.29 41.585 117.8 41.8773 118.286 41.9869C118.675 42.075 118.795 41.8705 118.522 41.5782C117.562 40.554 116.699 39.4779 115.538 38.6672C115.246 38.4607 114.65 38.0763 114.262 38.2042C113.899 38.3239 114.635 38.8803 114.715 38.9371Z" fill="#3B4A5B"/>
<path d="M109.689 44.0196C109.561 45.3983 109.835 46.6342 110.491 47.8505C110.673 48.1896 111.176 48.7269 111.62 48.6526C112.099 48.5727 111.763 47.8796 111.644 47.6582C111.223 46.8785 111.206 45.9947 111.286 45.1372C111.347 44.4732 109.777 43.0545 109.689 44.0196Z" fill="#3B4A5B"/>
<path d="M123.371 37.03C124.111 36.4737 124.983 36.2483 125.896 36.184C126.22 36.1616 125.209 34.4513 124.663 34.4879C123.7 34.5554 122.75 34.7876 121.969 35.3752C121.647 35.6174 123.003 37.3067 123.371 37.03Z" fill="#3B4A5B"/>
<path d="M126.422 29.654C126.818 29.399 127.182 29.3434 127.645 29.4144C128.122 29.4856 127.772 28.9468 127.64 28.7945C127.339 28.4479 126.865 28.046 126.392 27.9749C125.757 27.8794 125.256 27.9647 124.715 28.3126C124.438 28.4893 125.88 30.0019 126.422 29.654Z" fill="#3B4A5B"/>
<path d="M132.081 39.0327C132.45 39.8301 132.608 40.6354 132.608 41.5106C132.61 42.1447 134.773 42.0006 134.773 41.2919C134.773 40.318 134.55 39.4503 134.141 38.5698C133.877 38.002 131.755 38.3364 132.081 39.0327Z" fill="#3B4A5B"/>
<path d="M127.252 46.6098C126.954 47.1187 126.845 47.6061 126.871 48.1935C126.92 49.2223 128.964 49.7319 128.905 48.4689C128.893 48.1779 128.961 47.9904 129.105 47.7428C129.659 46.7985 127.804 45.669 127.252 46.6098Z" fill="#3B4A5B"/>
<path d="M98.9633 60.398C98.8641 61.1586 98.9581 61.843 99.2853 62.538C99.5532 63.1025 101.667 63.0058 101.393 62.425C101.095 61.7948 101.046 61.204 101.135 60.5212C101.212 59.9371 99.0469 59.7557 98.9633 60.398Z" fill="#3B4A5B"/>
<path d="M94.24 54.6821C94.9378 54.6923 95.599 54.7843 96.2707 54.9699C96.617 55.0666 97.2469 54.6091 97.5079 54.4392C97.5619 54.4033 98.3014 53.897 98.0265 53.8206C97.3548 53.6357 96.6936 53.5437 95.9958 53.5337C95.5712 53.5262 95.0961 53.8416 94.7586 54.0635C94.7307 54.0812 93.9685 54.6767 94.24 54.6821Z" fill="#3B4A5B"/>
<path d="M106.915 55.6209C106.117 56.2416 105.539 56.9902 105.175 57.9309C105.015 58.3452 106.985 59.2318 107.096 58.9462C107.462 58.0054 108.04 57.2548 108.837 56.6349C108.924 56.5671 107.373 55.2664 106.915 55.6209Z" fill="#3B4A5B"/>
<path d="M102.625 71.2777C102.499 72.2144 102.667 73.0984 103.074 73.9491C103.234 74.2801 103.516 74.921 103.94 74.9974C104.335 75.0698 104.038 74.2333 103.98 74.1156C103.761 73.656 103.784 73.2351 103.85 72.7449C103.919 72.2265 102.722 70.5637 102.625 71.2777Z" fill="#3B4A5B"/>
<path d="M138.46 51.4178C138.016 52.2266 138.418 52.9006 139.017 53.5056C139.236 53.729 139.877 53.5212 140.127 53.457C140.174 53.4448 141.246 53.0962 141.126 52.9751C140.595 52.4383 140.11 51.7744 140.522 51.0212C140.66 50.7713 139.788 50.9257 139.718 50.9392C139.424 50.9968 138.629 51.109 138.46 51.4178Z" fill="#3B4A5B"/>
<path d="M137.333 59.9457C136.978 60.6077 136.522 61.1573 135.925 61.6175C134.802 62.4859 136.374 63.4475 137.254 62.768C138.109 62.1061 138.813 61.3527 139.325 60.3965C139.911 59.3027 137.804 59.0693 137.333 59.9457Z" fill="#3B4A5B"/>
<path d="M131.379 55.8515C131.078 56.1528 130.935 56.4769 130.876 56.8945C130.695 58.1905 132.856 58.3274 133.027 57.0934C133.053 57.0576 133.079 57.0191 133.105 56.9811C133.502 56.5859 133.333 55.9071 132.9 55.6241C132.392 55.2918 131.783 55.4495 131.379 55.8515Z" fill="#3B4A5B"/>
<path d="M131.158 70.9603C131.158 71.4422 131.158 71.9233 131.158 72.4054C131.158 73.1436 133.323 72.9927 133.323 72.1942C133.323 71.7142 133.323 71.2324 133.323 70.7505C133.323 70.0127 131.158 70.163 131.158 70.9603Z" fill="#3B4A5B"/>
<path d="M118.687 54.5036C118.389 55.0578 118.203 55.6142 118.107 56.2362C118.094 56.3249 120.21 56.4251 120.272 56.0196C120.368 55.3976 120.554 54.8433 120.852 54.287C120.9 54.199 119.802 54.2194 119.752 54.2248C119.52 54.2471 118.821 54.2539 118.687 54.5036Z" fill="#3B4A5B"/>
</g>
<defs>
<clipPath id="clip0_998_10982">
<rect width="238" height="186" fill="white"/>
</clipPath>
</defs>
</svg>
