<svg width="238" height="186" viewBox="0 0 238 186" fill="none" xmlns="http://www.w3.org/2000/svg">
<g clip-path="url(#clip0_998_11945)">
<rect width="238" height="186" fill="white"/>
<path d="M-31 160.485H269.852V160.334H-31V160.485Z" fill="#EEEEEE"/>
<path d="M219.777 170.028H239.707V170.179H219.777V170.028Z" fill="#EEEEEE"/>
<path d="M163.065 171.662H168.296V171.813H163.065V171.662Z" fill="#EEEEEE"/>
<path d="M207.627 164.435H219.175V164.586H207.627V164.435Z" fill="#EEEEEE"/>
<path d="M0.564453 165.448H26.554V165.598H0.564453V165.448Z" fill="#EEEEEE"/>
<path d="M31.9121 165.448H35.7227V165.598H31.9121V165.448Z" fill="#EEEEEE"/>
<path d="M48.1064 168.141H104.472V167.99H48.1064V168.141Z" fill="#EEEEEE"/>
<path d="M-4.5761 -36.7207C-6.38728 -36.7207 -7.86032 -35.2464 -7.86032 -33.4342V130.037C-7.86032 131.85 -6.38728 133.324 -4.5761 133.324H111.612C113.422 133.324 114.896 131.85 114.896 130.037V-33.4342C114.896 -35.2464 113.422 -36.7207 111.612 -36.7207H-4.5761ZM111.612 133.474H-4.5761C-6.47002 133.474 -8.01074 131.933 -8.01074 130.037V-33.4342C-8.01074 -35.3289 -6.47002 -36.8713 -4.5761 -36.8713H111.612C113.505 -36.8713 115.046 -35.3289 115.046 -33.4342V130.037C115.046 131.933 113.505 133.474 111.612 133.474Z" fill="#EEEEEE"/>
<path d="M125.571 -36.7207C123.76 -36.7207 122.287 -35.2464 122.287 -33.4342V130.037C122.287 131.85 123.76 133.324 125.571 133.324H241.759C243.57 133.324 245.043 131.85 245.043 130.037V-33.4342C245.043 -35.2464 243.57 -36.7207 241.759 -36.7207H125.571ZM241.759 133.474H125.571C123.677 133.474 122.137 131.933 122.137 130.037V-33.4342C122.137 -35.3289 123.677 -36.8713 125.571 -36.8713H241.759C243.653 -36.8713 245.194 -35.3289 245.194 -33.4342V130.037C245.194 131.933 243.653 133.474 241.759 133.474Z" fill="#EEEEEE"/>
<path d="M200.11 47.3708C200.11 45.6219 201.527 44.2042 203.275 44.2042C203.59 44.2042 203.895 44.2518 204.183 44.3379C204.137 44.0205 204.112 43.6959 204.112 43.3658C204.112 39.662 207.112 36.6591 210.813 36.6591C211.235 36.6591 211.647 36.7001 212.047 36.7748C213.077 35.0873 214.929 33.9574 217.048 33.9574C220.257 33.9574 222.859 36.5381 222.906 39.7379L223.004 39.7331C225.985 39.7331 228.402 42.1517 228.402 45.1359C228.402 48.1194 225.985 50.5387 223.004 50.5387H203.181L203.186 50.5339C201.479 50.4863 200.11 49.0903 200.11 47.3708Z" fill="#F4F4F4"/>
<path d="M22.8223 33.0672C22.8223 31.3183 24.2391 29.9 25.9866 29.9C26.3028 29.9 26.6073 29.9482 26.8953 30.0343C26.8492 29.7169 26.8243 29.3923 26.8243 29.0622C26.8243 25.3578 29.8239 22.3549 33.525 22.3549C33.9468 22.3549 34.359 22.3959 34.7591 22.4706C35.7892 20.7837 37.6407 19.6538 39.7605 19.6538C42.9688 19.6538 45.5711 22.2345 45.6187 25.4343L45.7167 25.4289C48.6976 25.4289 51.114 27.8481 51.114 30.8323C51.114 33.8158 48.6976 36.2345 45.7167 36.2345H25.8933L25.8975 36.2297C24.1919 36.1821 22.8223 34.7867 22.8223 33.0672Z" fill="#F4F4F4"/>
<path d="M128.947 30.6691C127.144 27.7903 123.955 25.8691 120.31 25.8691C116.604 25.8691 113.371 27.8548 111.586 30.8142C111.117 30.683 110.625 30.6077 110.114 30.6077C107.098 30.6077 104.652 33.0552 104.652 36.0749V36.0816H101.773C100.272 36.0816 99.0449 37.3102 99.0449 38.8122C99.0449 40.3136 100.272 41.5416 101.773 41.5416H111.711C113.52 44.3866 116.691 46.2795 120.31 46.2795C123.164 46.2795 125.741 45.1033 127.592 43.2116C127.764 43.2261 127.936 43.2382 128.112 43.2382C131.597 43.2382 134.422 40.4106 134.422 36.9229C134.422 33.7189 132.036 31.0792 128.947 30.6691Z" fill="#F4F4F4"/>
<path d="M2.95898 160.244V131.459H5.41796V117.744H9.01291V70.0559H14.209V63.9033L25.3038 58.7239V52.5195H26.8405V70.0559H28.9926V117.744H31.1441V92.6694H36.9842V79.7474H38.6142V117.744H43.05V103.284H45.97V99.5917H52.7326V86.9775H56.4349V78.0557H60.9874V65.0566H62.612V78.0557H67.1645V86.9775H70.868V99.5917H77.6299V103.284H80.5506V117.744H84.0134V99.5917H90.7759V60.5186H92.9276V56.2113H107.375V60.5186H110.449V88.824H122.744V91.5926H127.354V93.7462H122.744V104.822H135.653V67.9029H138.42V60.0573H144.414V32.2139H146.104V60.0573H150.408V67.9029H175.637V65.3204H177.173V82.8569H179.325V83.1646H180.618V100.701H182.769V105.47H187.317V92.5483H188.947V123.315H190.761V110.393H192.391V130.545H193.383V116.084H196.303V112.393H203.065V99.7784H206.768V90.8566H211.321V77.8575H212.945V90.8566H217.497V99.7784H221.2V112.393H227.963V116.084H230.883V130.237H231.407V130.545H232.853V160.244H2.95898Z" fill="#E9E9E8"/>
<path d="M161.559 71.3712H159.817V69.6283H161.559V71.3712Z" fill="#F4F4F4"/>
<path d="M161.559 74.294H159.817V72.5505H161.559V74.294Z" fill="#F4F4F4"/>
<path d="M159.817 85.9856H161.559V84.2414H159.817V85.9856Z" fill="#F4F4F4"/>
<path d="M159.817 88.9077H161.559V87.1649H159.817V88.9077Z" fill="#F4F4F4"/>
<path d="M159.817 91.8311H161.559V90.0871H159.817V91.8311Z" fill="#F4F4F4"/>
<path d="M159.817 100.599H161.559V98.8558H159.817V100.599Z" fill="#F4F4F4"/>
<path d="M159.817 103.522H161.559V101.779H159.817V103.522Z" fill="#F4F4F4"/>
<path d="M157.052 83.0622H158.794V81.3192H157.052V83.0622Z" fill="#F4F4F4"/>
<path d="M157.052 85.9856H158.794V84.2414H157.052V85.9856Z" fill="#F4F4F4"/>
<path d="M157.052 88.9077H158.794V87.1649H157.052V88.9077Z" fill="#F4F4F4"/>
<path d="M157.052 91.8311H158.794V90.0871H157.052V91.8311Z" fill="#F4F4F4"/>
<path d="M157.052 94.7538H158.794V93.0103H157.052V94.7538Z" fill="#F4F4F4"/>
<path d="M157.052 100.599H158.794V98.8558H157.052V100.599Z" fill="#F4F4F4"/>
<path d="M157.052 103.522H158.794V101.779H157.052V103.522Z" fill="#F4F4F4"/>
<path d="M156.027 71.3712H154.285V69.6283H156.027V71.3712Z" fill="#F4F4F4"/>
<path d="M156.027 74.294H154.285V72.5505H156.027V74.294Z" fill="#F4F4F4"/>
<path d="M154.285 77.2167H156.027V75.473H154.285V77.2167Z" fill="#F4F4F4"/>
<path d="M154.285 80.1401H156.027V78.3959H154.285V80.1401Z" fill="#F4F4F4"/>
<path d="M154.285 83.0622H156.027V81.3192H154.285V83.0622Z" fill="#F4F4F4"/>
<path d="M154.285 85.9856H156.027V84.2414H154.285V85.9856Z" fill="#F4F4F4"/>
<path d="M154.285 88.9077H156.027V87.1649H154.285V88.9077Z" fill="#F4F4F4"/>
<path d="M154.285 91.8311H156.027V90.0871H154.285V91.8311Z" fill="#F4F4F4"/>
<path d="M154.285 94.7538H156.027V93.0103H154.285V94.7538Z" fill="#F4F4F4"/>
<path d="M154.285 97.6765H156.027V95.933H154.285V97.6765Z" fill="#F4F4F4"/>
<path d="M154.285 103.522H156.027V101.779H154.285V103.522Z" fill="#F4F4F4"/>
<path d="M153.26 71.3712H151.519V69.6283H153.26V71.3712Z" fill="#F4F4F4"/>
<path d="M153.26 74.294H151.519V72.5505H153.26V74.294Z" fill="#F4F4F4"/>
<path d="M151.519 77.2167H153.26V75.473H151.519V77.2167Z" fill="#F4F4F4"/>
<path d="M151.519 80.1401H153.26V78.3959H151.519V80.1401Z" fill="#F4F4F4"/>
<path d="M151.519 83.0622H153.26V81.3192H151.519V83.0622Z" fill="#F4F4F4"/>
<path d="M151.519 85.9856H153.26V84.2414H151.519V85.9856Z" fill="#F4F4F4"/>
<path d="M151.519 88.9077H153.26V87.1649H151.519V88.9077Z" fill="#F4F4F4"/>
<path d="M151.519 115.213H153.26V113.47H151.519V115.213Z" fill="#F4F4F4"/>
<path d="M150.494 71.3712H148.752V69.6283H150.494V71.3712Z" fill="#F4F4F4"/>
<path d="M150.494 74.294H148.752V72.5505H150.494V74.294Z" fill="#F4F4F4"/>
<path d="M148.752 77.2167H150.494V75.473H148.752V77.2167Z" fill="#F4F4F4"/>
<path d="M148.752 80.1401H150.494V78.3959H148.752V80.1401Z" fill="#F4F4F4"/>
<path d="M148.752 83.0622H150.494V81.3192H148.752V83.0622Z" fill="#F4F4F4"/>
<path d="M148.752 85.9856H150.494V84.2414H148.752V85.9856Z" fill="#F4F4F4"/>
<path d="M148.752 88.9077H150.494V87.1649H148.752V88.9077Z" fill="#F4F4F4"/>
<path d="M148.752 91.8311H150.494V90.0871H148.752V91.8311Z" fill="#F4F4F4"/>
<path d="M148.752 109.367H150.494V107.624H148.752V109.367Z" fill="#F4F4F4"/>
<path d="M148.752 112.29H150.494V110.547H148.752V112.29Z" fill="#F4F4F4"/>
<path d="M148.752 115.213H150.494V113.47H148.752V115.213Z" fill="#F4F4F4"/>
<path d="M148.752 118.136H150.494V116.392H148.752V118.136Z" fill="#F4F4F4"/>
<path d="M148.752 129.827H150.494V128.084H148.752V129.827Z" fill="#F4F4F4"/>
<path d="M147.727 71.3712H145.985V69.6283H147.727V71.3712Z" fill="#F4F4F4"/>
<path d="M147.727 74.294H145.985V72.5505H147.727V74.294Z" fill="#F4F4F4"/>
<path d="M145.985 77.2167H147.727V75.473H145.985V77.2167Z" fill="#F4F4F4"/>
<path d="M145.985 80.1401H147.727V78.3959H145.985V80.1401Z" fill="#F4F4F4"/>
<path d="M145.985 83.0622H147.727V81.3192H145.985V83.0622Z" fill="#F4F4F4"/>
<path d="M145.985 85.9856H147.727V84.2414H145.985V85.9856Z" fill="#F4F4F4"/>
<path d="M145.985 88.9077H147.727V87.1649H145.985V88.9077Z" fill="#F4F4F4"/>
<path d="M145.985 91.8311H147.727V90.0871H145.985V91.8311Z" fill="#F4F4F4"/>
<path d="M145.985 94.7538H147.727V93.0103H145.985V94.7538Z" fill="#F4F4F4"/>
<path d="M145.985 97.6765H147.727V95.933H145.985V97.6765Z" fill="#F4F4F4"/>
<path d="M145.985 106.445H147.727V104.701H145.985V106.445Z" fill="#F4F4F4"/>
<path d="M145.985 109.367H147.727V107.624H145.985V109.367Z" fill="#F4F4F4"/>
<path d="M145.985 112.29H147.727V110.547H145.985V112.29Z" fill="#F4F4F4"/>
<path d="M145.985 115.213H147.727V113.47H145.985V115.213Z" fill="#F4F4F4"/>
<path d="M145.985 118.136H147.727V116.392H145.985V118.136Z" fill="#F4F4F4"/>
<path d="M145.985 129.827H147.727V128.084H145.985V129.827Z" fill="#F4F4F4"/>
<path d="M144.961 71.3712H143.219V69.6283H144.961V71.3712Z" fill="#F4F4F4"/>
<path d="M144.961 74.294H143.219V72.5505H144.961V74.294Z" fill="#F4F4F4"/>
<path d="M143.219 77.2167H144.961V75.473H143.219V77.2167Z" fill="#F4F4F4"/>
<path d="M143.219 80.1401H144.961V78.3959H143.219V80.1401Z" fill="#F4F4F4"/>
<path d="M143.219 83.0622H144.961V81.3192H143.219V83.0622Z" fill="#F4F4F4"/>
<path d="M143.219 85.9856H144.961V84.2414H143.219V85.9856Z" fill="#F4F4F4"/>
<path d="M143.219 88.9077H144.961V87.1649H143.219V88.9077Z" fill="#F4F4F4"/>
<path d="M143.219 91.8311H144.961V90.0871H143.219V91.8311Z" fill="#F4F4F4"/>
<path d="M143.219 94.7538H144.961V93.0103H143.219V94.7538Z" fill="#F4F4F4"/>
<path d="M143.219 97.6765H144.961V95.933H143.219V97.6765Z" fill="#F4F4F4"/>
<path d="M143.219 100.599H144.961V98.8558H143.219V100.599Z" fill="#F4F4F4"/>
<path d="M143.219 103.522H144.961V101.779H143.219V103.522Z" fill="#F4F4F4"/>
<path d="M143.219 106.445H144.961V104.701H143.219V106.445Z" fill="#F4F4F4"/>
<path d="M143.219 109.367H144.961V107.624H143.219V109.367Z" fill="#F4F4F4"/>
<path d="M143.219 112.29H144.961V110.547H143.219V112.29Z" fill="#F4F4F4"/>
<path d="M143.219 115.213H144.961V113.47H143.219V115.213Z" fill="#F4F4F4"/>
<path d="M143.219 118.136H144.961V116.392H143.219V118.136Z" fill="#F4F4F4"/>
<path d="M143.219 121.058H144.961V119.315H143.219V121.058Z" fill="#F4F4F4"/>
<path d="M142.195 71.3712H140.453V69.6283H142.195V71.3712Z" fill="#F4F4F4"/>
<path d="M142.195 74.294H140.453V72.5505H142.195V74.294Z" fill="#F4F4F4"/>
<path d="M140.453 77.2167H142.195V75.473H140.453V77.2167Z" fill="#F4F4F4"/>
<path d="M140.453 80.1401H142.195V78.3959H140.453V80.1401Z" fill="#F4F4F4"/>
<path d="M140.453 83.0622H142.195V81.3192H140.453V83.0622Z" fill="#F4F4F4"/>
<path d="M140.453 85.9856H142.195V84.2414H140.453V85.9856Z" fill="#F4F4F4"/>
<path d="M140.453 88.9077H142.195V87.1649H140.453V88.9077Z" fill="#F4F4F4"/>
<path d="M140.453 91.8311H142.195V90.0871H140.453V91.8311Z" fill="#F4F4F4"/>
<path d="M140.453 94.7538H142.195V93.0103H140.453V94.7538Z" fill="#F4F4F4"/>
<path d="M140.453 97.6765H142.195V95.933H140.453V97.6765Z" fill="#F4F4F4"/>
<path d="M140.453 106.445H142.195V104.701H140.453V106.445Z" fill="#F4F4F4"/>
<path d="M140.453 109.367H142.195V107.624H140.453V109.367Z" fill="#F4F4F4"/>
<path d="M140.453 112.29H142.195V110.547H140.453V112.29Z" fill="#F4F4F4"/>
<path d="M140.453 115.213H142.195V113.47H140.453V115.213Z" fill="#F4F4F4"/>
<path d="M139.428 71.3712H137.687V69.6283H139.428V71.3712Z" fill="#F4F4F4"/>
<path d="M139.428 74.294H137.687V72.5505H139.428V74.294Z" fill="#F4F4F4"/>
<path d="M137.687 77.2167H139.428V75.473H137.687V77.2167Z" fill="#F4F4F4"/>
<path d="M137.687 80.1401H139.428V78.3959H137.687V80.1401Z" fill="#F4F4F4"/>
<path d="M139.428 83.0622H137.687V81.3193H139.428V83.0622Z" fill="#F4F4F4"/>
<path d="M139.428 85.9856H137.687V84.2415H139.428V85.9856Z" fill="#F4F4F4"/>
<path d="M137.687 88.9077H139.428V87.1649H137.687V88.9077Z" fill="#F4F4F4"/>
<path d="M137.687 91.8311H139.428V90.0871H137.687V91.8311Z" fill="#F4F4F4"/>
<path d="M137.687 94.7538H139.428V93.0103H137.687V94.7538Z" fill="#F4F4F4"/>
<path d="M137.687 97.6765H139.428V95.933H137.687V97.6765Z" fill="#F4F4F4"/>
<path d="M137.687 106.445H139.428V104.701H137.687V106.445Z" fill="#F4F4F4"/>
<path d="M137.687 109.367H139.428V107.624H137.687V109.367Z" fill="#F4F4F4"/>
<path d="M137.687 112.29H139.428V110.547H137.687V112.29Z" fill="#F4F4F4"/>
<path d="M108.28 63.7823H106.538V62.0388H108.28V63.7823Z" fill="#F4F4F4"/>
<path d="M108.28 66.705H106.538V64.9614H108.28V66.705Z" fill="#F4F4F4"/>
<path d="M108.28 69.6284H106.538V67.8842H108.28V69.6284Z" fill="#F4F4F4"/>
<path d="M108.28 72.5505H106.538V70.8075H108.28V72.5505Z" fill="#F4F4F4"/>
<path d="M108.28 75.4738H106.538V73.7303H108.28V75.4738Z" fill="#F4F4F4"/>
<path d="M108.28 78.3959H106.538V76.653H108.28V78.3959Z" fill="#F4F4F4"/>
<path d="M106.538 81.3193H108.28V79.5759H106.538V81.3193Z" fill="#F4F4F4"/>
<path d="M106.538 84.2415H108.28V82.4987H106.538V84.2415Z" fill="#F4F4F4"/>
<path d="M106.538 93.0103H108.28V91.2668H106.538V93.0103Z" fill="#F4F4F4"/>
<path d="M108.28 95.933H106.538V94.1895H108.28V95.933Z" fill="#F4F4F4"/>
<path d="M105.513 63.7823H103.771V62.0388H105.513V63.7823Z" fill="#F4F4F4"/>
<path d="M105.513 66.705H103.771V64.9614H105.513V66.705Z" fill="#F4F4F4"/>
<path d="M105.513 69.6284H103.771V67.8842H105.513V69.6284Z" fill="#F4F4F4"/>
<path d="M105.513 72.5505H103.771V70.8075H105.513V72.5505Z" fill="#F4F4F4"/>
<path d="M105.513 75.4738H103.771V73.7303H105.513V75.4738Z" fill="#F4F4F4"/>
<path d="M105.513 78.3959H103.771V76.653H105.513V78.3959Z" fill="#F4F4F4"/>
<path d="M105.513 81.3193H103.771V79.5758H105.513V81.3193Z" fill="#F4F4F4"/>
<path d="M103.771 84.2415H105.513V82.4987H103.771V84.2415Z" fill="#F4F4F4"/>
<path d="M105.513 95.933H103.771V94.1895H105.513V95.933Z" fill="#F4F4F4"/>
<path d="M102.748 63.7823H101.006V62.0388H102.748V63.7823Z" fill="#F4F4F4"/>
<path d="M102.748 66.705H101.006V64.9614H102.748V66.705Z" fill="#F4F4F4"/>
<path d="M102.748 69.6284H101.006V67.8842H102.748V69.6284Z" fill="#F4F4F4"/>
<path d="M102.748 72.5505H101.006V70.8075H102.748V72.5505Z" fill="#F4F4F4"/>
<path d="M102.748 75.4738H101.006V73.7303H102.748V75.4738Z" fill="#F4F4F4"/>
<path d="M102.748 78.3959H101.006V76.653H102.748V78.3959Z" fill="#F4F4F4"/>
<path d="M102.748 81.3193H101.006V79.5758H102.748V81.3193Z" fill="#F4F4F4"/>
<path d="M102.748 84.2415H101.006V82.4985H102.748V84.2415Z" fill="#F4F4F4"/>
<path d="M99.9812 63.7823H98.2393V62.0388H99.9812V63.7823Z" fill="#F4F4F4"/>
<path d="M99.9812 66.705H98.2393V64.9614H99.9812V66.705Z" fill="#F4F4F4"/>
<path d="M99.9812 69.6284H98.2393V67.8842H99.9812V69.6284Z" fill="#F4F4F4"/>
<path d="M99.9812 72.5505H98.2393V70.8075H99.9812V72.5505Z" fill="#F4F4F4"/>
<path d="M99.9812 75.4738H98.2393V73.7303H99.9812V75.4738Z" fill="#F4F4F4"/>
<path d="M99.9812 78.3959H98.2393V76.653H99.9812V78.3959Z" fill="#F4F4F4"/>
<path d="M99.9812 84.2415H98.2393V82.4985H99.9812V84.2415Z" fill="#F4F4F4"/>
<path d="M98.2393 87.1648H99.9811V85.4211H98.2393V87.1648Z" fill="#F4F4F4"/>
<path d="M98.2393 95.933H99.9811V94.1893H98.2393V95.933Z" fill="#F4F4F4"/>
<path d="M98.2393 98.8557H99.9811V97.1122H98.2393V98.8557Z" fill="#F4F4F4"/>
<path d="M99.9812 101.779H98.2393V100.036H99.9812V101.779Z" fill="#F4F4F4"/>
<path d="M99.9812 104.701H98.2393V102.958H99.9812V104.701Z" fill="#F4F4F4"/>
<path d="M99.9812 107.624H98.2393V105.881H99.9812V107.624Z" fill="#F4F4F4"/>
<path d="M99.9812 110.547H98.2393V108.803H99.9812V110.547Z" fill="#F4F4F4"/>
<path d="M99.9812 113.469H98.2393V111.727H99.9812V113.469Z" fill="#F4F4F4"/>
<path d="M95.4727 63.7823H97.2145V62.0386H95.4727V63.7823Z" fill="#F4F4F4"/>
<path d="M95.4727 66.705H97.2145V64.9615H95.4727V66.705Z" fill="#F4F4F4"/>
<path d="M95.4727 69.6277H97.2145V67.8847H95.4727V69.6277Z" fill="#F4F4F4"/>
<path d="M95.4727 72.5505H97.2145V70.8068H95.4727V72.5505Z" fill="#F4F4F4"/>
<path d="M97.2146 75.4738H95.4727V73.7303H97.2146V75.4738Z" fill="#F4F4F4"/>
<path d="M97.2146 78.3959H95.4727V76.653H97.2146V78.3959Z" fill="#F4F4F4"/>
<path d="M97.2146 87.1648H95.4727V85.4213H97.2146V87.1648Z" fill="#F4F4F4"/>
<path d="M95.4727 90.0869H97.2145V88.3439H95.4727V90.0869Z" fill="#F4F4F4"/>
<path d="M95.4727 93.0103H97.2145V91.2668H95.4727V93.0103Z" fill="#F4F4F4"/>
<path d="M95.4727 95.933H97.2145V94.1893H95.4727V95.933Z" fill="#F4F4F4"/>
<path d="M95.4727 98.8557H97.2145V97.1122H95.4727V98.8557Z" fill="#F4F4F4"/>
<path d="M95.4727 101.779H97.2145V100.035H95.4727V101.779Z" fill="#F4F4F4"/>
<path d="M97.2146 104.701H95.4727V102.958H97.2146V104.701Z" fill="#F4F4F4"/>
<path d="M97.2146 107.624H95.4727V105.881H97.2146V107.624Z" fill="#F4F4F4"/>
<path d="M97.2146 110.547H95.4727V108.803H97.2146V110.547Z" fill="#F4F4F4"/>
<path d="M97.2146 113.469H95.4727V111.727H97.2146V113.469Z" fill="#F4F4F4"/>
<path d="M97.2146 116.392H95.4727V114.649H97.2146V116.392Z" fill="#F4F4F4"/>
<path d="M95.4727 122.238H97.2145V120.495H95.4727V122.238Z" fill="#F4F4F4"/>
<path d="M92.707 63.7823H94.4489V62.0386H92.707V63.7823Z" fill="#F4F4F4"/>
<path d="M92.707 66.705H94.4489V64.9615H92.707V66.705Z" fill="#F4F4F4"/>
<path d="M92.707 69.6277H94.4489V67.8847H92.707V69.6277Z" fill="#F4F4F4"/>
<path d="M92.707 72.5505H94.4489V70.8068H92.707V72.5505Z" fill="#F4F4F4"/>
<path d="M92.707 75.4732H94.4489V73.7304H92.707V75.4732Z" fill="#F4F4F4"/>
<path d="M92.707 78.3959H94.4489V76.6529H92.707V78.3959Z" fill="#F4F4F4"/>
<path d="M92.707 87.1648H94.4489V85.4211H92.707V87.1648Z" fill="#F4F4F4"/>
<path d="M94.449 90.0869H92.707V88.344H94.449V90.0869Z" fill="#F4F4F4"/>
<path d="M92.707 93.0103H94.4489V91.2668H92.707V93.0103Z" fill="#F4F4F4"/>
<path d="M92.707 95.933H94.4489V94.1893H92.707V95.933Z" fill="#F4F4F4"/>
<path d="M94.449 104.701H92.707V102.958H94.449V104.701Z" fill="#F4F4F4"/>
<path d="M94.449 107.624H92.707V105.881H94.449V107.624Z" fill="#F4F4F4"/>
<path d="M94.449 110.547H92.707V108.803H94.449V110.547Z" fill="#F4F4F4"/>
<path d="M94.449 113.469H92.707V111.727H94.449V113.469Z" fill="#F4F4F4"/>
<path d="M94.449 116.392H92.707V114.649H94.449V116.392Z" fill="#F4F4F4"/>
<path d="M94.449 122.238H92.707V120.495H94.449V122.238Z" fill="#F4F4F4"/>
<path d="M92.707 125.161H94.4489V123.418H92.707V125.161Z" fill="#F4F4F4"/>
<path d="M69.3454 90.959H67.6035V89.2155H69.3454V90.959Z" fill="#F4F4F4"/>
<path d="M69.3454 93.8817H67.6035V92.1382H69.3454V93.8817Z" fill="#F4F4F4"/>
<path d="M69.3454 96.8051H67.6035V95.0615H69.3454V96.8051Z" fill="#F4F4F4"/>
<path d="M69.3454 99.7278H67.6035V97.9843H69.3454V99.7278Z" fill="#F4F4F4"/>
<path d="M69.3454 102.651H67.6035V100.907H69.3454V102.651Z" fill="#F4F4F4"/>
<path d="M69.3454 105.573H67.6035V103.83H69.3454V105.573Z" fill="#F4F4F4"/>
<path d="M69.3454 108.496H67.6035V106.753H69.3454V108.496Z" fill="#F4F4F4"/>
<path d="M67.6035 117.264H69.3456V115.521H67.6035V117.264Z" fill="#F4F4F4"/>
<path d="M67.6035 120.187H69.3456V118.444H67.6035V120.187Z" fill="#F4F4F4"/>
<path d="M67.6035 123.11H69.3456V121.367H67.6035V123.11Z" fill="#F4F4F4"/>
<path d="M66.5788 90.959H64.8369V89.2155H66.5788V90.959Z" fill="#F4F4F4"/>
<path d="M66.5788 93.8817H64.8369V92.1382H66.5788V93.8817Z" fill="#F4F4F4"/>
<path d="M66.5788 96.8051H64.8369V95.0615H66.5788V96.8051Z" fill="#F4F4F4"/>
<path d="M66.5788 99.7278H64.8369V97.9843H66.5788V99.7278Z" fill="#F4F4F4"/>
<path d="M66.5788 102.651H64.8369V100.907H66.5788V102.651Z" fill="#F4F4F4"/>
<path d="M66.5788 105.573H64.8369V103.83H66.5788V105.573Z" fill="#F4F4F4"/>
<path d="M66.5788 108.496H64.8369V106.753H66.5788V108.496Z" fill="#F4F4F4"/>
<path d="M63.8122 90.959H62.0703V89.2155H63.8122V90.959Z" fill="#F4F4F4"/>
<path d="M63.8122 93.8817H62.0703V92.1382H63.8122V93.8817Z" fill="#F4F4F4"/>
<path d="M63.8122 96.8051H62.0703V95.0615H63.8122V96.8051Z" fill="#F4F4F4"/>
<path d="M63.8122 99.7278H62.0703V97.9843H63.8122V99.7278Z" fill="#F4F4F4"/>
<path d="M63.8122 102.651H62.0703V100.907H63.8122V102.651Z" fill="#F4F4F4"/>
<path d="M63.8122 105.573H62.0703V103.83H63.8122V105.573Z" fill="#F4F4F4"/>
<path d="M63.8122 108.496H62.0703V106.753H63.8122V108.496Z" fill="#F4F4F4"/>
<path d="M61.0456 90.959H59.3037V89.2155H61.0456V90.959Z" fill="#F4F4F4"/>
<path d="M61.0456 93.8817H59.3037V92.1382H61.0456V93.8817Z" fill="#F4F4F4"/>
<path d="M61.0456 96.8051H59.3037V95.0615H61.0456V96.8051Z" fill="#F4F4F4"/>
<path d="M61.0456 99.7278H59.3037V97.9843H61.0456V99.7278Z" fill="#F4F4F4"/>
<path d="M61.0456 102.651H59.3037V100.907H61.0456V102.651Z" fill="#F4F4F4"/>
<path d="M61.0456 105.573H59.3037V103.83H61.0456V105.573Z" fill="#F4F4F4"/>
<path d="M61.0456 108.496H59.3037V106.753H61.0456V108.496Z" fill="#F4F4F4"/>
<path d="M61.0456 111.419H59.3037V109.675H61.0456V111.419Z" fill="#F4F4F4"/>
<path d="M61.0456 114.341H59.3037V112.598H61.0456V114.341Z" fill="#F4F4F4"/>
<path d="M61.0456 117.264H59.3037V115.521H61.0456V117.264Z" fill="#F4F4F4"/>
<path d="M59.3037 120.187H61.0458V118.444H59.3037V120.187Z" fill="#F4F4F4"/>
<path d="M58.2794 90.959H56.5381V89.2155H58.2794V90.959Z" fill="#F4F4F4"/>
<path d="M58.2794 93.8817H56.5381V92.1382H58.2794V93.8817Z" fill="#F4F4F4"/>
<path d="M58.2794 96.8051H56.5381V95.0615H58.2794V96.8051Z" fill="#F4F4F4"/>
<path d="M58.2794 99.7278H56.5381V97.9843H58.2794V99.7278Z" fill="#F4F4F4"/>
<path d="M58.2794 102.651H56.5381V100.907H58.2794V102.651Z" fill="#F4F4F4"/>
<path d="M58.2794 105.573H56.5381V103.83H58.2794V105.573Z" fill="#F4F4F4"/>
<path d="M58.2794 108.496H56.5381V106.753H58.2794V108.496Z" fill="#F4F4F4"/>
<path d="M58.2794 111.419H56.5381V109.675H58.2794V111.419Z" fill="#F4F4F4"/>
<path d="M58.2794 114.341H56.5381V112.598H58.2794V114.341Z" fill="#F4F4F4"/>
<path d="M58.2794 117.264H56.5381V115.521H58.2794V117.264Z" fill="#F4F4F4"/>
<path d="M56.5381 120.187H58.2795V118.444H56.5381V120.187Z" fill="#F4F4F4"/>
<path d="M56.5381 123.11H58.2795V121.367H56.5381V123.11Z" fill="#F4F4F4"/>
<path d="M56.5381 131.879H58.2795V130.134H56.5381V131.879Z" fill="#F4F4F4"/>
<path d="M58.2794 134.801H56.5381V133.058H58.2794V134.801Z" fill="#F4F4F4"/>
<path d="M55.5134 90.959H53.7715V89.2155H55.5134V90.959Z" fill="#F4F4F4"/>
<path d="M55.5134 93.8817H53.7715V92.1382H55.5134V93.8817Z" fill="#F4F4F4"/>
<path d="M55.5134 96.8051H53.7715V95.0615H55.5134V96.8051Z" fill="#F4F4F4"/>
<path d="M55.5134 105.573H53.7715V103.83H55.5134V105.573Z" fill="#F4F4F4"/>
<path d="M55.5134 108.496H53.7715V106.753H55.5134V108.496Z" fill="#F4F4F4"/>
<path d="M55.5134 111.419H53.7715V109.675H55.5134V111.419Z" fill="#F4F4F4"/>
<path d="M55.5134 114.341H53.7715V112.598H55.5134V114.341Z" fill="#F4F4F4"/>
<path d="M55.5134 117.264H53.7715V115.521H55.5134V117.264Z" fill="#F4F4F4"/>
<path d="M55.5134 120.187H53.7715V118.443H55.5134V120.187Z" fill="#F4F4F4"/>
<path d="M53.7715 123.11H55.5134V121.367H53.7715V123.11Z" fill="#F4F4F4"/>
<path d="M53.7715 131.879H55.5134V130.134H53.7715V131.879Z" fill="#F4F4F4"/>
<path d="M53.7715 134.801H55.5134V133.058H53.7715V134.801Z" fill="#F4F4F4"/>
<path d="M55.5134 137.724H53.7715V135.98H55.5134V137.724Z" fill="#F4F4F4"/>
<path d="M26.5173 73.4225H24.7754V71.679H26.5173V73.4225Z" fill="#F4F4F4"/>
<path d="M26.5173 76.3453H24.7754V74.6017H26.5173V76.3453Z" fill="#F4F4F4"/>
<path d="M26.5173 79.268H24.7754V77.5245H26.5173V79.268Z" fill="#F4F4F4"/>
<path d="M26.5173 82.1908H24.7754V80.4473H26.5173V82.1908Z" fill="#F4F4F4"/>
<path d="M26.5173 85.1135H24.7754V83.37H26.5173V85.1135Z" fill="#F4F4F4"/>
<path d="M26.5173 88.0363H24.7754V86.2927H26.5173V88.0363Z" fill="#F4F4F4"/>
<path d="M26.5173 90.959H24.7754V89.2155H26.5173V90.959Z" fill="#F4F4F4"/>
<path d="M26.5173 93.8817H24.7754V92.1382H26.5173V93.8817Z" fill="#F4F4F4"/>
<path d="M26.5173 96.8051H24.7754V95.0615H26.5173V96.8051Z" fill="#F4F4F4"/>
<path d="M26.5173 99.7278H24.7754V97.9843H26.5173V99.7278Z" fill="#F4F4F4"/>
<path d="M26.5173 102.651H24.7754V100.907H26.5173V102.651Z" fill="#F4F4F4"/>
<path d="M26.5173 105.573H24.7754V103.83H26.5173V105.573Z" fill="#F4F4F4"/>
<path d="M26.5173 108.496H24.7754V106.753H26.5173V108.496Z" fill="#F4F4F4"/>
<path d="M26.5173 111.419H24.7754V109.675H26.5173V111.419Z" fill="#F4F4F4"/>
<path d="M26.5173 114.341H24.7754V112.598H26.5173V114.341Z" fill="#F4F4F4"/>
<path d="M26.5173 117.264H24.7754V115.521H26.5173V117.264Z" fill="#F4F4F4"/>
<path d="M26.5173 120.187H24.7754V118.443H26.5173V120.187Z" fill="#F4F4F4"/>
<path d="M26.5173 123.11H24.7754V121.367H26.5173V123.11Z" fill="#F4F4F4"/>
<path d="M26.5173 126.032H24.7754V124.289H26.5173V126.032Z" fill="#F4F4F4"/>
<path d="M26.5173 128.955H24.7754V127.212H26.5173V128.955Z" fill="#F4F4F4"/>
<path d="M26.5173 131.879H24.7754V130.134H26.5173V131.879Z" fill="#F4F4F4"/>
<path d="M26.5173 134.801H24.7754V133.058H26.5173V134.801Z" fill="#F4F4F4"/>
<path d="M26.5173 137.724H24.7754V135.98H26.5173V137.724Z" fill="#F4F4F4"/>
<path d="M23.7519 73.4225H22.0098V71.679H23.7519V73.4225Z" fill="#F4F4F4"/>
<path d="M23.7519 76.3453H22.0098V74.6017H23.7519V76.3453Z" fill="#F4F4F4"/>
<path d="M23.7519 79.268H22.0098V77.5245H23.7519V79.268Z" fill="#F4F4F4"/>
<path d="M23.7519 82.1908H22.0098V80.4473H23.7519V82.1908Z" fill="#F4F4F4"/>
<path d="M23.7519 85.1135H22.0098V83.37H23.7519V85.1135Z" fill="#F4F4F4"/>
<path d="M23.7519 88.0363H22.0098V86.2927H23.7519V88.0363Z" fill="#F4F4F4"/>
<path d="M23.7519 90.959H22.0098V89.2155H23.7519V90.959Z" fill="#F4F4F4"/>
<path d="M23.7519 93.8817H22.0098V92.1382H23.7519V93.8817Z" fill="#F4F4F4"/>
<path d="M23.7519 96.8051H22.0098V95.0615H23.7519V96.8051Z" fill="#F4F4F4"/>
<path d="M23.7519 99.7278H22.0098V97.9843H23.7519V99.7278Z" fill="#F4F4F4"/>
<path d="M23.7519 102.651H22.0098V100.907H23.7519V102.651Z" fill="#F4F4F4"/>
<path d="M23.7519 105.573H22.0098V103.83H23.7519V105.573Z" fill="#F4F4F4"/>
<path d="M23.7519 108.496H22.0098V106.753H23.7519V108.496Z" fill="#F4F4F4"/>
<path d="M23.7519 111.419H22.0098V109.675H23.7519V111.419Z" fill="#F4F4F4"/>
<path d="M23.7519 114.341H22.0098V112.598H23.7519V114.341Z" fill="#F4F4F4"/>
<path d="M23.7519 117.264H22.0098V115.521H23.7519V117.264Z" fill="#F4F4F4"/>
<path d="M23.7519 120.187H22.0098V118.443H23.7519V120.187Z" fill="#F4F4F4"/>
<path d="M23.7519 123.11H22.0098V121.367H23.7519V123.11Z" fill="#F4F4F4"/>
<path d="M23.7519 126.032H22.0098V124.289H23.7519V126.032Z" fill="#F4F4F4"/>
<path d="M20.9841 73.4225H19.2422V71.679H20.9841V73.4225Z" fill="#F4F4F4"/>
<path d="M20.9841 76.3453H19.2422V74.6017H20.9841V76.3453Z" fill="#F4F4F4"/>
<path d="M20.9841 79.268H19.2422V77.5245H20.9841V79.268Z" fill="#F4F4F4"/>
<path d="M20.9841 82.1908H19.2422V80.4473H20.9841V82.1908Z" fill="#F4F4F4"/>
<path d="M20.9841 85.1135H19.2422V83.37H20.9841V85.1135Z" fill="#F4F4F4"/>
<path d="M20.9841 88.0363H19.2422V86.2927H20.9841V88.0363Z" fill="#F4F4F4"/>
<path d="M20.9841 90.959H19.2422V89.2155H20.9841V90.959Z" fill="#F4F4F4"/>
<path d="M20.9841 93.8817H19.2422V92.1382H20.9841V93.8817Z" fill="#F4F4F4"/>
<path d="M20.9841 96.8051H19.2422V95.0615H20.9841V96.8051Z" fill="#F4F4F4"/>
<path d="M20.9841 99.7278H19.2422V97.9843H20.9841V99.7278Z" fill="#F4F4F4"/>
<path d="M20.9841 102.651H19.2422V100.907H20.9841V102.651Z" fill="#F4F4F4"/>
<path d="M20.9841 105.573H19.2422V103.83H20.9841V105.573Z" fill="#F4F4F4"/>
<path d="M20.9841 108.496H19.2422V106.753H20.9841V108.496Z" fill="#F4F4F4"/>
<path d="M20.9841 111.419H19.2422V109.675H20.9841V111.419Z" fill="#F4F4F4"/>
<path d="M20.9841 114.341H19.2422V112.598H20.9841V114.341Z" fill="#F4F4F4"/>
<path d="M20.9841 117.264H19.2422V115.521H20.9841V117.264Z" fill="#F4F4F4"/>
<path d="M20.9841 120.187H19.2422V118.443H20.9841V120.187Z" fill="#F4F4F4"/>
<path d="M20.9841 123.11H19.2422V121.367H20.9841V123.11Z" fill="#F4F4F4"/>
<path d="M20.9841 126.032H19.2422V124.289H20.9841V126.032Z" fill="#F4F4F4"/>
<path d="M18.2177 73.4225H16.4756V71.679H18.2177V73.4225Z" fill="#F4F4F4"/>
<path d="M18.2177 76.3453H16.4756V74.6017H18.2177V76.3453Z" fill="#F4F4F4"/>
<path d="M18.2177 79.268H16.4756V77.5245H18.2177V79.268Z" fill="#F4F4F4"/>
<path d="M18.2177 82.1908H16.4756V80.4473H18.2177V82.1908Z" fill="#F4F4F4"/>
<path d="M18.2177 85.1135H16.4756V83.37H18.2177V85.1135Z" fill="#F4F4F4"/>
<path d="M18.2177 88.0363H16.4756V86.2927H18.2177V88.0363Z" fill="#F4F4F4"/>
<path d="M18.2177 90.959H16.4756V89.2155H18.2177V90.959Z" fill="#F4F4F4"/>
<path d="M18.2177 93.8817H16.4756V92.1382H18.2177V93.8817Z" fill="#F4F4F4"/>
<path d="M18.2177 96.8051H16.4756V95.0615H18.2177V96.8051Z" fill="#F4F4F4"/>
<path d="M18.2177 99.7278H16.4756V97.9843H18.2177V99.7278Z" fill="#F4F4F4"/>
<path d="M18.2177 102.651H16.4756V100.907H18.2177V102.651Z" fill="#F4F4F4"/>
<path d="M18.2177 105.573H16.4756V103.83H18.2177V105.573Z" fill="#F4F4F4"/>
<path d="M18.2177 108.496H16.4756V106.753H18.2177V108.496Z" fill="#F4F4F4"/>
<path d="M18.2177 111.419H16.4756V109.675H18.2177V111.419Z" fill="#F4F4F4"/>
<path d="M18.2177 114.341H16.4756V112.598H18.2177V114.341Z" fill="#F4F4F4"/>
<path d="M15.4521 73.4225H13.71V71.679H15.4521V73.4225Z" fill="#F4F4F4"/>
<path d="M15.4521 76.3453H13.71V74.6017H15.4521V76.3453Z" fill="#F4F4F4"/>
<path d="M15.4521 79.268H13.71V77.5245H15.4521V79.268Z" fill="#F4F4F4"/>
<path d="M15.4521 82.1908H13.71V80.4473H15.4521V82.1908Z" fill="#F4F4F4"/>
<path d="M15.4521 85.1135H13.71V83.37H15.4521V85.1135Z" fill="#F4F4F4"/>
<path d="M15.4521 88.0363H13.71V86.2927H15.4521V88.0363Z" fill="#F4F4F4"/>
<path d="M15.4521 90.959H13.71V89.2155H15.4521V90.959Z" fill="#F4F4F4"/>
<path d="M15.4521 93.8817H13.71V92.1382H15.4521V93.8817Z" fill="#F4F4F4"/>
<path d="M15.4521 96.8051H13.71V95.0615H15.4521V96.8051Z" fill="#F4F4F4"/>
<path d="M15.4521 99.7278H13.71V97.9843H15.4521V99.7278Z" fill="#F4F4F4"/>
<path d="M15.4521 102.651H13.71V100.907H15.4521V102.651Z" fill="#F4F4F4"/>
<path d="M15.4521 105.573H13.71V103.83H15.4521V105.573Z" fill="#F4F4F4"/>
<path d="M15.4521 108.496H13.71V106.753H15.4521V108.496Z" fill="#F4F4F4"/>
<path d="M12.6852 71.679V73.4225H10.9434V71.679H12.6852Z" fill="#F4F4F4"/>
<path d="M12.6852 76.3453H10.9434V74.6017H12.6852V76.3453Z" fill="#F4F4F4"/>
<path d="M12.6852 79.268H10.9434V77.5245H12.6852V79.268Z" fill="#F4F4F4"/>
<path d="M12.6852 82.1908H10.9434V80.4473H12.6852V82.1908Z" fill="#F4F4F4"/>
<path d="M12.6852 85.1135H10.9434V83.37H12.6852V85.1135Z" fill="#F4F4F4"/>
<path d="M12.6852 88.0363H10.9434V86.2927H12.6852V88.0363Z" fill="#F4F4F4"/>
<path d="M12.6852 90.959H10.9434V89.2155H12.6852V90.959Z" fill="#F4F4F4"/>
<path d="M12.6852 93.8817H10.9434V92.1382H12.6852V93.8817Z" fill="#F4F4F4"/>
<path d="M12.6852 96.8051H10.9434V95.0615H12.6852V96.8051Z" fill="#F4F4F4"/>
<path d="M12.6852 99.7278H10.9434V97.9843H12.6852V99.7278Z" fill="#F4F4F4"/>
<path d="M12.6852 102.651H10.9434V100.907H12.6852V102.651Z" fill="#F4F4F4"/>
<path d="M12.6852 105.573H10.9434V103.83H12.6852V105.573Z" fill="#F4F4F4"/>
<path d="M215.967 94.7538H214.225V93.0103H215.967V94.7538Z" fill="#F4F4F4"/>
<path d="M215.967 97.6765H214.225V95.933H215.967V97.6765Z" fill="#F4F4F4"/>
<path d="M215.967 100.599H214.225V98.8557H215.967V100.599Z" fill="#F4F4F4"/>
<path d="M215.967 103.522H214.225V101.779H215.967V103.522Z" fill="#F4F4F4"/>
<path d="M215.967 106.445H214.225V104.701H215.967V106.445Z" fill="#F4F4F4"/>
<path d="M215.967 109.367H214.225V107.624H215.967V109.367Z" fill="#F4F4F4"/>
<path d="M215.967 112.29H214.225V110.547H215.967V112.29Z" fill="#F4F4F4"/>
<path d="M215.967 115.213H214.225V113.469H215.967V115.213Z" fill="#F4F4F4"/>
<path d="M215.967 118.136H214.225V116.392H215.967V118.136Z" fill="#F4F4F4"/>
<path d="M214.225 121.058H215.966V119.315H214.225V121.058Z" fill="#F4F4F4"/>
<path d="M214.225 123.981H215.966V122.238H214.225V123.981Z" fill="#F4F4F4"/>
<path d="M214.225 126.905H215.966V125.161H214.225V126.905Z" fill="#F4F4F4"/>
<path d="M214.225 129.827H215.966V128.084H214.225V129.827Z" fill="#F4F4F4"/>
<path d="M214.225 132.75H215.966V131.006H214.225V132.75Z" fill="#F4F4F4"/>
<path d="M214.225 135.673H215.966V133.929H214.225V135.673Z" fill="#F4F4F4"/>
<path d="M214.225 138.596H215.966V136.852H214.225V138.596Z" fill="#F4F4F4"/>
<path d="M214.225 141.518H215.966V139.775H214.225V141.518Z" fill="#F4F4F4"/>
<path d="M214.225 144.441H215.966V142.697H214.225V144.441Z" fill="#F4F4F4"/>
<path d="M215.967 147.364H214.225V145.62H215.967V147.364Z" fill="#F4F4F4"/>
<path d="M215.967 150.286H214.225V148.544H215.967V150.286Z" fill="#F4F4F4"/>
<path d="M213.2 94.7538H211.458V93.0103H213.2V94.7538Z" fill="#F4F4F4"/>
<path d="M213.2 97.6765H211.458V95.933H213.2V97.6765Z" fill="#F4F4F4"/>
<path d="M213.2 100.599H211.458V98.8557H213.2V100.599Z" fill="#F4F4F4"/>
<path d="M213.2 103.522H211.458V101.779H213.2V103.522Z" fill="#F4F4F4"/>
<path d="M213.2 106.445H211.458V104.701H213.2V106.445Z" fill="#F4F4F4"/>
<path d="M213.2 109.367H211.458V107.624H213.2V109.367Z" fill="#F4F4F4"/>
<path d="M213.2 112.29H211.458V110.547H213.2V112.29Z" fill="#F4F4F4"/>
<path d="M213.2 115.213H211.458V113.469H213.2V115.213Z" fill="#F4F4F4"/>
<path d="M213.2 118.136H211.458V116.392H213.2V118.136Z" fill="#F4F4F4"/>
<path d="M211.458 121.058H213.2V119.315H211.458V121.058Z" fill="#F4F4F4"/>
<path d="M211.458 123.981H213.2V122.238H211.458V123.981Z" fill="#F4F4F4"/>
<path d="M211.458 126.905H213.2V125.161H211.458V126.905Z" fill="#F4F4F4"/>
<path d="M211.458 129.827H213.2V128.084H211.458V129.827Z" fill="#F4F4F4"/>
<path d="M211.458 132.75H213.2V131.006H211.458V132.75Z" fill="#F4F4F4"/>
<path d="M211.458 135.673H213.2V133.929H211.458V135.673Z" fill="#F4F4F4"/>
<path d="M211.458 138.596H213.2V136.852H211.458V138.596Z" fill="#F4F4F4"/>
<path d="M211.458 141.518H213.2V139.775H211.458V141.518Z" fill="#F4F4F4"/>
<path d="M211.458 144.441H213.2V142.697H211.458V144.441Z" fill="#F4F4F4"/>
<path d="M210.434 94.7538H208.692V93.0103H210.434V94.7538Z" fill="#F4F4F4"/>
<path d="M210.434 97.6765H208.692V95.933H210.434V97.6765Z" fill="#F4F4F4"/>
<path d="M210.434 100.599H208.692V98.8557H210.434V100.599Z" fill="#F4F4F4"/>
<path d="M210.434 103.522H208.692V101.779H210.434V103.522Z" fill="#F4F4F4"/>
<path d="M210.434 106.445H208.692V104.701H210.434V106.445Z" fill="#F4F4F4"/>
<path d="M210.434 109.367H208.692V107.624H210.434V109.367Z" fill="#F4F4F4"/>
<path d="M210.434 112.29H208.692V110.547H210.434V112.29Z" fill="#F4F4F4"/>
<path d="M210.434 115.213H208.692V113.469H210.434V115.213Z" fill="#F4F4F4"/>
<path d="M210.434 118.136H208.692V116.392H210.434V118.136Z" fill="#F4F4F4"/>
<path d="M208.692 121.058H210.434V119.315H208.692V121.058Z" fill="#F4F4F4"/>
<path d="M208.692 123.981H210.434V122.238H208.692V123.981Z" fill="#F4F4F4"/>
<path d="M208.692 126.905H210.434V125.161H208.692V126.905Z" fill="#F4F4F4"/>
<path d="M208.692 129.827H210.434V128.084H208.692V129.827Z" fill="#F4F4F4"/>
<path d="M208.692 132.75H210.434V131.006H208.692V132.75Z" fill="#F4F4F4"/>
<path d="M208.692 135.673H210.434V133.929H208.692V135.673Z" fill="#F4F4F4"/>
<path d="M208.692 138.596H210.434V136.852H208.692V138.596Z" fill="#F4F4F4"/>
<path d="M208.692 141.518H210.434V139.775H208.692V141.518Z" fill="#F4F4F4"/>
<path d="M208.692 144.441H210.434V142.697H208.692V144.441Z" fill="#F4F4F4"/>
<path d="M226.315 116.085H224.573V114.342H226.315V116.085Z" fill="#F4F4F4"/>
<path d="M226.315 119.008H224.573V117.264H226.315V119.008Z" fill="#F4F4F4"/>
<path d="M224.573 121.931H226.315V120.187H224.573V121.931Z" fill="#F4F4F4"/>
<path d="M224.573 124.853H226.315V123.11H224.573V124.853Z" fill="#F4F4F4"/>
<path d="M224.573 127.776H226.315V126.032H224.573V127.776Z" fill="#F4F4F4"/>
<path d="M224.573 130.699H226.315V128.955H224.573V130.699Z" fill="#F4F4F4"/>
<path d="M224.573 133.621H226.315V131.878H224.573V133.621Z" fill="#F4F4F4"/>
<path d="M224.573 136.544H226.315V134.801H224.573V136.544Z" fill="#F4F4F4"/>
<path d="M224.573 139.467H226.315V137.724H224.573V139.467Z" fill="#F4F4F4"/>
<path d="M226.315 142.39H224.573V140.646H226.315V142.39Z" fill="#F4F4F4"/>
<path d="M226.315 145.312H224.573V143.57H226.315V145.312Z" fill="#F4F4F4"/>
<path d="M226.315 148.236H224.573V146.492H226.315V148.236Z" fill="#F4F4F4"/>
<path d="M226.315 151.158H224.573V149.415H226.315V151.158Z" fill="#F4F4F4"/>
<path d="M223.549 116.085H221.807V114.342H223.549V116.085Z" fill="#F4F4F4"/>
<path d="M223.549 119.008H221.807V117.264H223.549V119.008Z" fill="#F4F4F4"/>
<path d="M221.807 121.931H223.549V120.187H221.807V121.931Z" fill="#F4F4F4"/>
<path d="M221.807 124.853H223.549V123.11H221.807V124.853Z" fill="#F4F4F4"/>
<path d="M221.807 127.776H223.549V126.032H221.807V127.776Z" fill="#F4F4F4"/>
<path d="M221.807 130.699H223.549V128.955H221.807V130.699Z" fill="#F4F4F4"/>
<path d="M221.807 133.621H223.549V131.878H221.807V133.621Z" fill="#F4F4F4"/>
<path d="M221.807 136.544H223.549V134.801H221.807V136.544Z" fill="#F4F4F4"/>
<path d="M221.807 139.467H223.549V137.724H221.807V139.467Z" fill="#F4F4F4"/>
<path d="M223.549 142.39H221.807V140.646H223.549V142.39Z" fill="#F4F4F4"/>
<path d="M223.549 145.312H221.807V143.57H223.549V145.312Z" fill="#F4F4F4"/>
<path d="M223.549 148.236H221.807V146.492H223.549V148.236Z" fill="#F4F4F4"/>
<path d="M223.549 151.158H221.807V149.415H223.549V151.158Z" fill="#F4F4F4"/>
<path d="M220.782 116.085H219.04V114.342H220.782V116.085Z" fill="#F4F4F4"/>
<path d="M220.782 119.008H219.04V117.264H220.782V119.008Z" fill="#F4F4F4"/>
<path d="M219.04 121.931H220.782V120.187H219.04V121.931Z" fill="#F4F4F4"/>
<path d="M219.04 124.853H220.782V123.11H219.04V124.853Z" fill="#F4F4F4"/>
<path d="M219.04 127.776H220.782V126.032H219.04V127.776Z" fill="#F4F4F4"/>
<path d="M219.04 130.699H220.782V128.955H219.04V130.699Z" fill="#F4F4F4"/>
<path d="M219.04 133.621H220.782V131.878H219.04V133.621Z" fill="#F4F4F4"/>
<path d="M219.04 136.544H220.782V134.801H219.04V136.544Z" fill="#F4F4F4"/>
<path d="M219.04 139.467H220.782V137.724H219.04V139.467Z" fill="#F4F4F4"/>
<path d="M220.782 142.39H219.04V140.646H220.782V142.39Z" fill="#F4F4F4"/>
<path d="M220.782 145.312H219.04V143.57H220.782V145.312Z" fill="#F4F4F4"/>
<path d="M220.782 148.236H219.04V146.492H220.782V148.236Z" fill="#F4F4F4"/>
<path d="M220.782 151.158H219.04V149.415H220.782V151.158Z" fill="#F4F4F4"/>
<path d="M220.782 154.081H219.04V152.338H220.782V154.081Z" fill="#F4F4F4"/>
<path d="M205.414 116.957H203.672V115.213H205.414V116.957Z" fill="#F4F4F4"/>
<path d="M205.414 119.879H203.672V118.136H205.414V119.879Z" fill="#F4F4F4"/>
<path d="M205.414 122.802H203.672V121.058H205.414V122.802Z" fill="#F4F4F4"/>
<path d="M205.414 125.725H203.672V123.982H205.414V125.725Z" fill="#F4F4F4"/>
<path d="M203.672 128.647H205.414V126.904H203.672V128.647Z" fill="#F4F4F4"/>
<path d="M203.672 131.57H205.414V129.827H203.672V131.57Z" fill="#F4F4F4"/>
<path d="M203.672 134.494H205.414V132.75H203.672V134.494Z" fill="#F4F4F4"/>
<path d="M203.672 137.416H205.414V135.673H203.672V137.416Z" fill="#F4F4F4"/>
<path d="M203.672 140.339H205.414V138.595H203.672V140.339Z" fill="#F4F4F4"/>
<path d="M203.672 143.262H205.414V141.518H203.672V143.262Z" fill="#F4F4F4"/>
<path d="M203.672 152.03H205.414V150.286H203.672V152.03Z" fill="#F4F4F4"/>
<path d="M202.647 116.957H200.905V115.213H202.647V116.957Z" fill="#F4F4F4"/>
<path d="M202.647 119.879H200.905V118.136H202.647V119.879Z" fill="#F4F4F4"/>
<path d="M202.647 122.802H200.905V121.058H202.647V122.802Z" fill="#F4F4F4"/>
<path d="M202.647 125.725H200.905V123.982H202.647V125.725Z" fill="#F4F4F4"/>
<path d="M202.647 128.648H200.905V126.905H202.647V128.648Z" fill="#F4F4F4"/>
<path d="M200.905 131.57H202.647V129.827H200.905V131.57Z" fill="#F4F4F4"/>
<path d="M200.905 134.494H202.647V132.75H200.905V134.494Z" fill="#F4F4F4"/>
<path d="M200.905 137.416H202.647V135.673H200.905V137.416Z" fill="#F4F4F4"/>
<path d="M200.905 140.339H202.647V138.595H200.905V140.339Z" fill="#F4F4F4"/>
<path d="M200.905 149.107H202.647V147.364H200.905V149.107Z" fill="#F4F4F4"/>
<path d="M200.905 152.03H202.647V150.286H200.905V152.03Z" fill="#F4F4F4"/>
<path d="M199.88 116.957H198.138V115.213H199.88V116.957Z" fill="#F4F4F4"/>
<path d="M199.88 119.879H198.138V118.136H199.88V119.879Z" fill="#F4F4F4"/>
<path d="M199.88 122.802H198.138V121.058H199.88V122.802Z" fill="#F4F4F4"/>
<path d="M199.88 125.725H198.138V123.982H199.88V125.725Z" fill="#F4F4F4"/>
<path d="M199.88 128.648H198.138V126.905H199.88V128.648Z" fill="#F4F4F4"/>
<path d="M199.88 131.57H198.138V129.827H199.88V131.57Z" fill="#F4F4F4"/>
<path d="M198.138 134.494H199.88V132.75H198.138V134.494Z" fill="#F4F4F4"/>
<path d="M198.138 137.416H199.88V135.673H198.138V137.416Z" fill="#F4F4F4"/>
<path d="M198.138 146.184H199.88V144.441H198.138V146.184Z" fill="#F4F4F4"/>
<path d="M198.138 149.107H199.88V147.364H198.138V149.107Z" fill="#F4F4F4"/>
<path d="M198.138 152.03H199.88V150.286H198.138V152.03Z" fill="#F4F4F4"/>
<path d="M174.163 72.5505H172.421V70.8075H174.163V72.5505Z" fill="#F4F4F4"/>
<path d="M172.421 75.4732H174.163V73.7304H172.421V75.4732Z" fill="#F4F4F4"/>
<path d="M172.421 78.3959H174.163V76.6529H172.421V78.3959Z" fill="#F4F4F4"/>
<path d="M172.421 81.3193H174.163V79.5759H172.421V81.3193Z" fill="#F4F4F4"/>
<path d="M172.421 84.2415H174.163V82.4987H172.421V84.2415Z" fill="#F4F4F4"/>
<path d="M172.421 87.1648H174.163V85.4211H172.421V87.1648Z" fill="#F4F4F4"/>
<path d="M172.421 90.0869H174.163V88.3439H172.421V90.0869Z" fill="#F4F4F4"/>
<path d="M172.421 93.0103H174.163V91.2668H172.421V93.0103Z" fill="#F4F4F4"/>
<path d="M172.421 95.933H174.163V94.1893H172.421V95.933Z" fill="#F4F4F4"/>
<path d="M172.421 98.8557H174.163V97.1122H172.421V98.8557Z" fill="#F4F4F4"/>
<path d="M172.421 101.779H174.163V100.035H172.421V101.779Z" fill="#F4F4F4"/>
<path d="M172.421 104.701H174.163V102.957H172.421V104.701Z" fill="#F4F4F4"/>
<path d="M172.421 107.624H174.163V105.881H172.421V107.624Z" fill="#F4F4F4"/>
<path d="M172.421 110.547H174.163V108.803H172.421V110.547Z" fill="#F4F4F4"/>
<path d="M172.421 113.469H174.163V111.726H172.421V113.469Z" fill="#F4F4F4"/>
<path d="M172.421 116.392H174.163V114.649H172.421V116.392Z" fill="#F4F4F4"/>
<path d="M172.421 119.315H174.163V117.572H172.421V119.315Z" fill="#F4F4F4"/>
<path d="M172.421 125.161H174.163V123.418H172.421V125.161Z" fill="#F4F4F4"/>
<path d="M172.421 128.084H174.163V126.34H172.421V128.084Z" fill="#F4F4F4"/>
<path d="M172.421 131.006H174.163V129.263H172.421V131.006Z" fill="#F4F4F4"/>
<path d="M172.421 133.929H174.163V132.186H172.421V133.929Z" fill="#F4F4F4"/>
<path d="M174.163 136.852H172.421V135.109H174.163V136.852Z" fill="#F4F4F4"/>
<path d="M171.396 72.5505H169.654V70.8075H171.396V72.5505Z" fill="#F4F4F4"/>
<path d="M169.654 75.4732H171.396V73.7304H169.654V75.4732Z" fill="#F4F4F4"/>
<path d="M169.654 78.3959H171.396V76.6529H169.654V78.3959Z" fill="#F4F4F4"/>
<path d="M169.654 81.3193H171.396V79.5759H169.654V81.3193Z" fill="#F4F4F4"/>
<path d="M169.654 84.2415H171.396V82.4987H169.654V84.2415Z" fill="#F4F4F4"/>
<path d="M169.654 87.1648H171.396V85.4211H169.654V87.1648Z" fill="#F4F4F4"/>
<path d="M169.654 90.0869H171.396V88.3439H169.654V90.0869Z" fill="#F4F4F4"/>
<path d="M169.654 93.0103H171.396V91.2668H169.654V93.0103Z" fill="#F4F4F4"/>
<path d="M169.654 95.933H171.396V94.1893H169.654V95.933Z" fill="#F4F4F4"/>
<path d="M169.654 98.8557H171.396V97.1122H169.654V98.8557Z" fill="#F4F4F4"/>
<path d="M169.654 101.779H171.396V100.035H169.654V101.779Z" fill="#F4F4F4"/>
<path d="M169.654 104.701H171.396V102.957H169.654V104.701Z" fill="#F4F4F4"/>
<path d="M169.654 107.624H171.396V105.881H169.654V107.624Z" fill="#F4F4F4"/>
<path d="M169.654 110.547H171.396V108.803H169.654V110.547Z" fill="#F4F4F4"/>
<path d="M169.654 113.469H171.396V111.726H169.654V113.469Z" fill="#F4F4F4"/>
<path d="M169.654 116.392H171.396V114.649H169.654V116.392Z" fill="#F4F4F4"/>
<path d="M169.654 133.929H171.396V132.186H169.654V133.929Z" fill="#F4F4F4"/>
<path d="M169.654 136.852H171.396V135.109H169.654V136.852Z" fill="#F4F4F4"/>
<path d="M168.63 72.5505H166.888V70.8075H168.63V72.5505Z" fill="#F4F4F4"/>
<path d="M166.888 75.4732H168.63V73.7304H166.888V75.4732Z" fill="#F4F4F4"/>
<path d="M166.888 78.3959H168.63V76.6529H166.888V78.3959Z" fill="#F4F4F4"/>
<path d="M166.888 81.3193H168.63V79.5759H166.888V81.3193Z" fill="#F4F4F4"/>
<path d="M166.888 84.2415H168.63V82.4987H166.888V84.2415Z" fill="#F4F4F4"/>
<path d="M166.888 87.1648H168.63V85.4211H166.888V87.1648Z" fill="#F4F4F4"/>
<path d="M166.888 90.0869H168.63V88.3439H166.888V90.0869Z" fill="#F4F4F4"/>
<path d="M166.888 93.0103H168.63V91.2668H166.888V93.0103Z" fill="#F4F4F4"/>
<path d="M166.888 95.933H168.63V94.1893H166.888V95.933Z" fill="#F4F4F4"/>
<path d="M166.888 98.8557H168.63V97.1122H166.888V98.8557Z" fill="#F4F4F4"/>
<path d="M166.888 101.779H168.63V100.035H166.888V101.779Z" fill="#F4F4F4"/>
<path d="M166.888 104.701H168.63V102.957H166.888V104.701Z" fill="#F4F4F4"/>
<path d="M166.888 107.624H168.63V105.881H166.888V107.624Z" fill="#F4F4F4"/>
<path d="M166.888 110.547H168.63V108.803H166.888V110.547Z" fill="#F4F4F4"/>
<path d="M166.888 113.469H168.63V111.726H166.888V113.469Z" fill="#F4F4F4"/>
<path d="M166.888 116.392H168.63V114.649H166.888V116.392Z" fill="#F4F4F4"/>
<path d="M166.888 122.238H168.63V120.495H166.888V122.238Z" fill="#F4F4F4"/>
<path d="M166.888 125.161H168.63V123.418H166.888V125.161Z" fill="#F4F4F4"/>
<path d="M166.888 128.084H168.63V126.34H166.888V128.084Z" fill="#F4F4F4"/>
<path d="M166.888 131.006H168.63V129.263H166.888V131.006Z" fill="#F4F4F4"/>
<path d="M166.888 136.852H168.63V135.109H166.888V136.852Z" fill="#F4F4F4"/>
<path d="M182.462 109.367H184.204V107.624H182.462V109.367Z" fill="#F4F4F4"/>
<path d="M182.462 112.29H184.204V110.547H182.462V112.29Z" fill="#F4F4F4"/>
<path d="M182.462 115.213H184.204V113.47H182.462V115.213Z" fill="#F4F4F4"/>
<path d="M182.462 118.136H184.204V116.392H182.462V118.136Z" fill="#F4F4F4"/>
<path d="M182.462 121.058H184.204V119.315H182.462V121.058Z" fill="#F4F4F4"/>
<path d="M182.462 123.981H184.204V122.238H182.462V123.981Z" fill="#F4F4F4"/>
<path d="M182.462 126.905H184.204V125.161H182.462V126.905Z" fill="#F4F4F4"/>
<path d="M182.462 132.75H184.204V131.006H182.462V132.75Z" fill="#F4F4F4"/>
<path d="M182.462 135.673H184.204V133.929H182.462V135.673Z" fill="#F4F4F4"/>
<path d="M184.204 138.596H182.462V136.852H184.204V138.596Z" fill="#F4F4F4"/>
<path d="M184.204 141.518H182.462V139.775H184.204V141.518Z" fill="#F4F4F4"/>
<path d="M182.462 144.441H184.204V142.697H182.462V144.441Z" fill="#F4F4F4"/>
<path d="M182.462 147.364H184.204V145.62H182.462V147.364Z" fill="#F4F4F4"/>
<path d="M182.462 150.286H184.204V148.543H182.462V150.286Z" fill="#F4F4F4"/>
<path d="M182.462 153.21H184.204V151.466H182.462V153.21Z" fill="#F4F4F4"/>
<path d="M179.695 109.367H181.437V107.624H179.695V109.367Z" fill="#F4F4F4"/>
<path d="M179.695 112.29H181.437V110.547H179.695V112.29Z" fill="#F4F4F4"/>
<path d="M179.695 115.213H181.437V113.47H179.695V115.213Z" fill="#F4F4F4"/>
<path d="M179.695 118.136H181.437V116.392H179.695V118.136Z" fill="#F4F4F4"/>
<path d="M179.695 121.058H181.437V119.315H179.695V121.058Z" fill="#F4F4F4"/>
<path d="M179.695 123.981H181.437V122.238H179.695V123.981Z" fill="#F4F4F4"/>
<path d="M179.695 132.75H181.437V131.006H179.695V132.75Z" fill="#F4F4F4"/>
<path d="M181.437 135.673H179.695V133.929H181.437V135.673Z" fill="#F4F4F4"/>
<path d="M181.437 138.596H179.695V136.852H181.437V138.596Z" fill="#F4F4F4"/>
<path d="M181.437 141.518H179.695V139.775H181.437V141.518Z" fill="#F4F4F4"/>
<path d="M181.437 144.441H179.695V142.697H181.437V144.441Z" fill="#F4F4F4"/>
<path d="M179.695 147.364H181.437V145.62H179.695V147.364Z" fill="#F4F4F4"/>
<path d="M179.695 150.286H181.437V148.543H179.695V150.286Z" fill="#F4F4F4"/>
<path d="M179.695 153.21H181.437V151.466H179.695V153.21Z" fill="#F4F4F4"/>
<path d="M176.929 109.367H178.671V107.624H176.929V109.367Z" fill="#F4F4F4"/>
<path d="M176.929 112.29H178.671V110.547H176.929V112.29Z" fill="#F4F4F4"/>
<path d="M176.929 115.213H178.671V113.47H176.929V115.213Z" fill="#F4F4F4"/>
<path d="M176.929 118.136H178.671V116.392H176.929V118.136Z" fill="#F4F4F4"/>
<path d="M176.929 121.058H178.671V119.315H176.929V121.058Z" fill="#F4F4F4"/>
<path d="M176.929 123.981H178.671V122.238H176.929V123.981Z" fill="#F4F4F4"/>
<path d="M176.929 129.827H178.671V128.084H176.929V129.827Z" fill="#F4F4F4"/>
<path d="M178.671 132.75H176.929V131.006H178.671V132.75Z" fill="#F4F4F4"/>
<path d="M178.671 135.673H176.929V133.929H178.671V135.673Z" fill="#F4F4F4"/>
<path d="M178.671 138.596H176.929V136.852H178.671V138.596Z" fill="#F4F4F4"/>
<path d="M178.671 141.518H176.929V139.775H178.671V141.518Z" fill="#F4F4F4"/>
<path d="M178.671 144.441H176.929V142.697H178.671V144.441Z" fill="#F4F4F4"/>
<path d="M178.671 147.364H176.929V145.62H178.671V147.364Z" fill="#F4F4F4"/>
<path d="M176.929 150.286H178.671V148.543H176.929V150.286Z" fill="#F4F4F4"/>
<path d="M176.929 153.21H178.671V151.466H176.929V153.21Z" fill="#F4F4F4"/>
<path d="M120.371 93.0103H118.629V91.2667H120.371V93.0103Z" fill="#F4F4F4"/>
<path d="M120.371 95.933H118.629V94.1895H120.371V95.933Z" fill="#F4F4F4"/>
<path d="M120.371 98.8557H118.629V97.1122H120.371V98.8557Z" fill="#F4F4F4"/>
<path d="M120.371 101.779H118.629V100.036H120.371V101.779Z" fill="#F4F4F4"/>
<path d="M118.629 104.701H120.371V102.957H118.629V104.701Z" fill="#F4F4F4"/>
<path d="M118.629 107.624H120.371V105.881H118.629V107.624Z" fill="#F4F4F4"/>
<path d="M118.629 110.547H120.371V108.803H118.629V110.547Z" fill="#F4F4F4"/>
<path d="M118.629 113.469H120.371V111.726H118.629V113.469Z" fill="#F4F4F4"/>
<path d="M118.629 116.392H120.371V114.649H118.629V116.392Z" fill="#F4F4F4"/>
<path d="M118.629 119.315H120.371V117.572H118.629V119.315Z" fill="#F4F4F4"/>
<path d="M118.629 122.238H120.371V120.495H118.629V122.238Z" fill="#F4F4F4"/>
<path d="M118.629 125.161H120.371V123.418H118.629V125.161Z" fill="#F4F4F4"/>
<path d="M118.629 128.084H120.371V126.34H118.629V128.084Z" fill="#F4F4F4"/>
<path d="M118.629 133.929H120.371V132.186H118.629V133.929Z" fill="#F4F4F4"/>
<path d="M118.629 136.852H120.371V135.109H118.629V136.852Z" fill="#F4F4F4"/>
<path d="M118.629 139.775H120.371V138.032H118.629V139.775Z" fill="#F4F4F4"/>
<path d="M118.629 142.697H120.371V140.954H118.629V142.697Z" fill="#F4F4F4"/>
<path d="M118.629 148.544H120.371V146.799H118.629V148.544Z" fill="#F4F4F4"/>
<path d="M118.629 151.466H120.371V149.723H118.629V151.466Z" fill="#F4F4F4"/>
<path d="M118.629 154.389H120.371V152.645H118.629V154.389Z" fill="#F4F4F4"/>
<path d="M117.605 93.0103H115.863V91.2667H117.605V93.0103Z" fill="#F4F4F4"/>
<path d="M117.605 95.933H115.863V94.1895H117.605V95.933Z" fill="#F4F4F4"/>
<path d="M117.605 98.8557H115.863V97.1122H117.605V98.8557Z" fill="#F4F4F4"/>
<path d="M117.605 101.779H115.863V100.036H117.605V101.779Z" fill="#F4F4F4"/>
<path d="M117.605 104.701H115.863V102.958H117.605V104.701Z" fill="#F4F4F4"/>
<path d="M115.863 107.624H117.605V105.881H115.863V107.624Z" fill="#F4F4F4"/>
<path d="M115.863 110.547H117.605V108.803H115.863V110.547Z" fill="#F4F4F4"/>
<path d="M115.863 113.469H117.605V111.726H115.863V113.469Z" fill="#F4F4F4"/>
<path d="M115.863 116.392H117.605V114.649H115.863V116.392Z" fill="#F4F4F4"/>
<path d="M115.863 119.315H117.605V117.572H115.863V119.315Z" fill="#F4F4F4"/>
<path d="M115.863 122.238H117.605V120.495H115.863V122.238Z" fill="#F4F4F4"/>
<path d="M115.863 125.161H117.605V123.418H115.863V125.161Z" fill="#F4F4F4"/>
<path d="M115.863 128.084H117.605V126.34H115.863V128.084Z" fill="#F4F4F4"/>
<path d="M115.863 136.852H117.605V135.109H115.863V136.852Z" fill="#F4F4F4"/>
<path d="M115.863 139.775H117.605V138.032H115.863V139.775Z" fill="#F4F4F4"/>
<path d="M115.863 145.62H117.605V143.877H115.863V145.62Z" fill="#F4F4F4"/>
<path d="M115.863 148.544H117.605V146.799H115.863V148.544Z" fill="#F4F4F4"/>
<path d="M115.863 151.466H117.605V149.723H115.863V151.466Z" fill="#F4F4F4"/>
<path d="M115.863 154.389H117.605V152.645H115.863V154.389Z" fill="#F4F4F4"/>
<path d="M114.838 93.0103H113.096V91.2667H114.838V93.0103Z" fill="#F4F4F4"/>
<path d="M114.838 95.933H113.096V94.1895H114.838V95.933Z" fill="#F4F4F4"/>
<path d="M114.838 98.8557H113.096V97.1122H114.838V98.8557Z" fill="#F4F4F4"/>
<path d="M114.838 101.779H113.096V100.036H114.838V101.779Z" fill="#F4F4F4"/>
<path d="M114.838 104.701H113.096V102.958H114.838V104.701Z" fill="#F4F4F4"/>
<path d="M114.838 107.624H113.096V105.881H114.838V107.624Z" fill="#F4F4F4"/>
<path d="M113.096 110.547H114.838V108.803H113.096V110.547Z" fill="#F4F4F4"/>
<path d="M113.096 113.469H114.838V111.726H113.096V113.469Z" fill="#F4F4F4"/>
<path d="M113.096 116.392H114.838V114.649H113.096V116.392Z" fill="#F4F4F4"/>
<path d="M113.096 119.315H114.838V117.572H113.096V119.315Z" fill="#F4F4F4"/>
<path d="M113.096 122.238H114.838V120.495H113.096V122.238Z" fill="#F4F4F4"/>
<path d="M113.096 125.161H114.838V123.418H113.096V125.161Z" fill="#F4F4F4"/>
<path d="M113.096 128.084H114.838V126.34H113.096V128.084Z" fill="#F4F4F4"/>
<path d="M113.096 131.006H114.838V129.263H113.096V131.006Z" fill="#F4F4F4"/>
<path d="M113.096 136.852H114.838V135.109H113.096V136.852Z" fill="#F4F4F4"/>
<path d="M113.096 142.697H114.838V140.954H113.096V142.697Z" fill="#F4F4F4"/>
<path d="M113.096 145.62H114.838V143.877H113.096V145.62Z" fill="#F4F4F4"/>
<path d="M113.096 148.544H114.838V146.799H113.096V148.544Z" fill="#F4F4F4"/>
<path d="M113.096 151.466H114.838V149.723H113.096V151.466Z" fill="#F4F4F4"/>
<path d="M113.096 154.389H114.838V152.645H113.096V154.389Z" fill="#F4F4F4"/>
<path d="M129.9 109.675H131.642V107.932H129.9V109.675Z" fill="#F4F4F4"/>
<path d="M129.9 112.598H131.642V110.855H129.9V112.598Z" fill="#F4F4F4"/>
<path d="M129.9 115.521H131.642V113.777H129.9V115.521Z" fill="#F4F4F4"/>
<path d="M129.9 118.443H131.642V116.7H129.9V118.443Z" fill="#F4F4F4"/>
<path d="M129.9 121.367H131.642V119.623H129.9V121.367Z" fill="#F4F4F4"/>
<path d="M129.9 124.289H131.642V122.546H129.9V124.289Z" fill="#F4F4F4"/>
<path d="M129.9 133.058H131.642V131.314H129.9V133.058Z" fill="#F4F4F4"/>
<path d="M129.9 135.98H131.642V134.237H129.9V135.98Z" fill="#F4F4F4"/>
<path d="M129.9 138.903H131.642V137.16H129.9V138.903Z" fill="#F4F4F4"/>
<path d="M129.9 141.826H131.642V140.083H129.9V141.826Z" fill="#F4F4F4"/>
<path d="M129.9 144.749H131.642V143.005H129.9V144.749Z" fill="#F4F4F4"/>
<path d="M129.9 147.671H131.642V145.928H129.9V147.671Z" fill="#F4F4F4"/>
<path d="M129.9 150.594H131.642V148.851H129.9V150.594Z" fill="#F4F4F4"/>
<path d="M127.133 109.675H128.875V107.932H127.133V109.675Z" fill="#F4F4F4"/>
<path d="M127.133 112.598H128.875V110.855H127.133V112.598Z" fill="#F4F4F4"/>
<path d="M127.133 115.521H128.875V113.777H127.133V115.521Z" fill="#F4F4F4"/>
<path d="M127.133 118.443H128.875V116.7H127.133V118.443Z" fill="#F4F4F4"/>
<path d="M127.133 121.367H128.875V119.623H127.133V121.367Z" fill="#F4F4F4"/>
<path d="M127.133 124.289H128.875V122.546H127.133V124.289Z" fill="#F4F4F4"/>
<path d="M127.133 133.058H128.875V131.314H127.133V133.058Z" fill="#F4F4F4"/>
<path d="M127.133 135.98H128.875V134.237H127.133V135.98Z" fill="#F4F4F4"/>
<path d="M127.133 138.903H128.875V137.16H127.133V138.903Z" fill="#F4F4F4"/>
<path d="M127.133 141.826H128.875V140.083H127.133V141.826Z" fill="#F4F4F4"/>
<path d="M127.133 144.749H128.875V143.005H127.133V144.749Z" fill="#F4F4F4"/>
<path d="M127.133 147.671H128.875V145.928H127.133V147.671Z" fill="#F4F4F4"/>
<path d="M127.133 153.517H128.875V151.773H127.133V153.517Z" fill="#F4F4F4"/>
<path d="M36.9675 96.8051H35.2256V95.0615H36.9675V96.8051Z" fill="#F4F4F4"/>
<path d="M36.9675 99.7278H35.2256V97.9843H36.9675V99.7278Z" fill="#F4F4F4"/>
<path d="M36.9675 102.651H35.2256V100.907H36.9675V102.651Z" fill="#F4F4F4"/>
<path d="M36.9675 105.573H35.2256V103.83H36.9675V105.573Z" fill="#F4F4F4"/>
<path d="M36.9675 108.496H35.2256V106.753H36.9675V108.496Z" fill="#F4F4F4"/>
<path d="M36.9675 111.419H35.2256V109.675H36.9675V111.419Z" fill="#F4F4F4"/>
<path d="M36.9675 114.341H35.2256V112.598H36.9675V114.341Z" fill="#F4F4F4"/>
<path d="M36.9675 117.264H35.2256V115.521H36.9675V117.264Z" fill="#F4F4F4"/>
<path d="M36.9675 120.187H35.2256V118.443H36.9675V120.187Z" fill="#F4F4F4"/>
<path d="M36.9675 123.11H35.2256V121.367H36.9675V123.11Z" fill="#F4F4F4"/>
<path d="M36.9675 126.032H35.2256V124.289H36.9675V126.032Z" fill="#F4F4F4"/>
<path d="M36.9675 131.879H35.2256V130.134H36.9675V131.879Z" fill="#F4F4F4"/>
<path d="M36.9675 134.801H35.2256V133.058H36.9675V134.801Z" fill="#F4F4F4"/>
<path d="M35.2256 137.724H36.9675V135.98H35.2256V137.724Z" fill="#F4F4F4"/>
<path d="M35.2256 140.646H36.9675V138.903H35.2256V140.646Z" fill="#F4F4F4"/>
<path d="M35.2256 143.57H36.9675V141.826H35.2256V143.57Z" fill="#F4F4F4"/>
<path d="M35.2256 146.492H36.9675V144.749H35.2256V146.492Z" fill="#F4F4F4"/>
<path d="M35.2256 149.415H36.9675V147.671H35.2256V149.415Z" fill="#F4F4F4"/>
<path d="M35.2256 152.338H36.9675V150.594H35.2256V152.338Z" fill="#F4F4F4"/>
<path d="M34.2019 96.8051H32.46V95.0615H34.2019V96.8051Z" fill="#F4F4F4"/>
<path d="M34.2019 99.7278H32.46V97.9843H34.2019V99.7278Z" fill="#F4F4F4"/>
<path d="M34.2019 102.651H32.46V100.907H34.2019V102.651Z" fill="#F4F4F4"/>
<path d="M34.2019 105.573H32.46V103.83H34.2019V105.573Z" fill="#F4F4F4"/>
<path d="M34.2019 108.496H32.46V106.753H34.2019V108.496Z" fill="#F4F4F4"/>
<path d="M34.2019 111.419H32.46V109.675H34.2019V111.419Z" fill="#F4F4F4"/>
<path d="M34.2019 114.341H32.46V112.598H34.2019V114.341Z" fill="#F4F4F4"/>
<path d="M34.2019 117.264H32.46V115.521H34.2019V117.264Z" fill="#F4F4F4"/>
<path d="M34.2019 120.187H32.46V118.443H34.2019V120.187Z" fill="#F4F4F4"/>
<path d="M34.2019 123.11H32.46V121.367H34.2019V123.11Z" fill="#F4F4F4"/>
<path d="M34.2019 126.032H32.46V124.289H34.2019V126.032Z" fill="#F4F4F4"/>
<path d="M34.2019 128.955H32.46V127.212H34.2019V128.955Z" fill="#F4F4F4"/>
<path d="M34.2019 131.879H32.46V130.134H34.2019V131.879Z" fill="#F4F4F4"/>
<path d="M34.2019 134.801H32.46V133.058H34.2019V134.801Z" fill="#F4F4F4"/>
<path d="M34.2019 137.724H32.46V135.98H34.2019V137.724Z" fill="#F4F4F4"/>
<path d="M32.46 140.646H34.2018V138.903H32.46V140.646Z" fill="#F4F4F4"/>
<path d="M32.46 143.57H34.2018V141.826H32.46V143.57Z" fill="#F4F4F4"/>
<path d="M32.46 146.492H34.2018V144.749H32.46V146.492Z" fill="#F4F4F4"/>
<path d="M32.46 149.415H34.2018V147.671H32.46V149.415Z" fill="#F4F4F4"/>
<path d="M32.46 152.338H34.2018V150.594H32.46V152.338Z" fill="#F4F4F4"/>
<path d="M50.5954 108.188H48.8535V106.445H50.5954V108.188Z" fill="#F4F4F4"/>
<path d="M50.5954 111.11H48.8535V109.367H50.5954V111.11Z" fill="#F4F4F4"/>
<path d="M50.5954 114.034H48.8535V112.29H50.5954V114.034Z" fill="#F4F4F4"/>
<path d="M50.5954 116.957H48.8535V115.213H50.5954V116.957Z" fill="#F4F4F4"/>
<path d="M50.5954 119.879H48.8535V118.136H50.5954V119.879Z" fill="#F4F4F4"/>
<path d="M50.5954 122.802H48.8535V121.058H50.5954V122.802Z" fill="#F4F4F4"/>
<path d="M50.5954 125.725H48.8535V123.982H50.5954V125.725Z" fill="#F4F4F4"/>
<path d="M48.8535 128.647H50.5954V126.904H48.8535V128.647Z" fill="#F4F4F4"/>
<path d="M48.8535 131.57H50.5954V129.827H48.8535V131.57Z" fill="#F4F4F4"/>
<path d="M48.8535 134.494H50.5954V132.75H48.8535V134.494Z" fill="#F4F4F4"/>
<path d="M47.8292 108.188H46.0879V106.445H47.8292V108.188Z" fill="#F4F4F4"/>
<path d="M47.8292 111.11H46.0879V109.367H47.8292V111.11Z" fill="#F4F4F4"/>
<path d="M47.8292 114.034H46.0879V112.29H47.8292V114.034Z" fill="#F4F4F4"/>
<path d="M47.8292 116.957H46.0879V115.213H47.8292V116.957Z" fill="#F4F4F4"/>
<path d="M47.8292 119.879H46.0879V118.136H47.8292V119.879Z" fill="#F4F4F4"/>
<path d="M47.8292 122.802H46.0879V121.058H47.8292V122.802Z" fill="#F4F4F4"/>
<path d="M47.8292 125.725H46.0879V123.982H47.8292V125.725Z" fill="#F4F4F4"/>
<path d="M46.0879 128.647H47.8293V126.904H46.0879V128.647Z" fill="#F4F4F4"/>
<path d="M46.0879 131.57H47.8293V129.827H46.0879V131.57Z" fill="#F4F4F4"/>
<path d="M236.089 180.715C236.089 184.481 183.858 187.534 119.425 187.534C54.9937 187.534 2.76172 184.481 2.76172 180.715C2.76172 176.948 54.9937 173.895 119.425 173.895C183.858 173.895 236.089 176.948 236.089 180.715Z" fill="#F8F8F9"/>
<path d="M116.701 71.629L117.714 72.8835L21.6025 149.509L25.696 154.582L26.258 155.278L122.369 78.6525L123.381 79.907L125.181 71.6116L116.701 71.629Z" fill="#4870C0"/>
<path d="M34.2545 148.903C33.2719 147.872 31.8856 147.23 30.35 147.23L30.2525 147.236C30.2327 145.876 29.7513 144.629 28.959 143.644L71.9915 109.336C71.7629 109.961 71.5336 110.582 71.3038 111.195C69.4975 116.036 67.6737 120.478 66.0816 123.528L57.7949 130.134L56.538 131.137L54.1281 133.058L53.7713 133.343L35.7978 147.671L35.2256 148.128L34.2545 148.903ZM83.9095 109.315C84.9408 106.84 85.9487 104.368 86.8819 102.048C87.5011 100.519 88.0829 99.0551 88.6196 97.7001L96.9562 98.913L95.5476 100.036L95.4724 100.095L84.013 109.231L83.9095 109.315ZM108.912 89.3805C105.886 88.4862 102.574 87.7538 99.7487 87.2058L117.713 72.8836L116.701 71.6291L125.181 71.6116L123.381 79.9071L122.369 78.6526L122.287 78.7176L122.136 78.8375L115.046 84.4908L114.895 84.6107L108.912 89.3805Z" fill="#F69F32"/>
<path d="M7.45605 154.868C7.45605 153.119 8.87289 151.701 10.6204 151.701C10.9366 151.701 11.2411 151.749 11.529 151.835C11.4828 151.517 11.4581 151.193 11.4581 150.863C11.4581 147.159 14.4579 144.156 18.1586 144.156C18.5803 144.156 18.9928 144.197 19.3931 144.272C20.4228 142.584 22.2742 141.454 24.394 141.454C27.6023 141.454 30.205 144.035 30.2525 147.235L30.35 147.23C33.3314 147.23 35.7479 149.649 35.7479 152.633C35.7479 155.617 33.3314 158.035 30.35 158.035H10.5273L10.5313 158.031C8.82565 157.983 7.45605 156.587 7.45605 154.868Z" fill="#4870C0"/>
<path d="M30.35 158.035H10.5273L10.5313 158.031C8.82565 157.983 7.45605 156.587 7.45605 154.868C7.45605 153.119 8.87289 151.701 10.6204 151.701C10.9366 151.701 11.2411 151.749 11.529 151.835C11.4828 151.517 11.4581 151.193 11.4581 150.863C11.4581 147.159 14.4579 144.156 18.1586 144.156C18.5803 144.156 18.9928 144.197 19.3931 144.272C20.4228 142.584 22.2742 141.454 24.394 141.454C27.6023 141.454 30.205 144.035 30.2525 147.235L30.35 147.23C33.3314 147.23 35.7479 149.649 35.7479 152.633C35.7479 155.617 33.3314 158.035 30.35 158.035Z" fill="#93CCFF"/>
<path d="M208.93 120.171L211.33 123.145L166.656 159.266L176.362 171.293L177.694 172.944L222.369 136.824L224.769 139.798L229.038 120.131L208.93 120.171Z" fill="#4870C0"/>
<path d="M190.114 162.903C189.565 160.316 187.431 158.318 184.777 157.966C182.975 155.087 179.786 153.166 176.14 153.166C175.367 153.166 174.614 153.253 173.891 153.416L193.959 137.191H199.873L201.132 131.391L211.33 123.145L208.93 120.171L229.038 120.131L226.315 132.677L226.11 133.621L225.854 134.801L225.476 136.544L225.22 137.724L224.841 139.467L224.77 139.798L223.549 138.286L223.095 137.724L222.369 136.824L220.782 138.107L219.1 139.467L215.105 142.697L214.225 143.409L213.2 144.237L212.948 144.441L205.413 150.533L203.671 151.942L193.402 160.244L193.291 160.335L193.105 160.485L190.114 162.903Z" fill="#F69F32"/>
<path d="M184.777 157.966C182.974 155.087 179.785 153.166 176.14 153.166C172.435 153.166 169.2 155.151 167.415 158.11C166.946 157.98 166.455 157.904 165.944 157.904C162.927 157.904 160.482 160.352 160.482 163.372L160.482 163.379H157.603C156.102 163.379 154.875 164.607 154.875 166.109C154.875 167.61 156.102 168.839 157.603 168.839H167.54C169.35 171.684 172.521 173.577 176.14 173.577C178.994 173.577 181.571 172.4 183.421 170.508C183.593 170.523 183.766 170.535 183.942 170.535C187.427 170.535 190.251 167.708 190.251 164.22C190.251 161.016 187.866 158.376 184.777 157.966Z" fill="#4870C0"/>
<path d="M176.14 173.577C172.521 173.577 169.35 171.684 167.54 168.839H157.603C156.102 168.839 154.875 167.61 154.875 166.109C154.875 164.607 156.102 163.379 157.603 163.379H160.482L160.482 163.372C160.482 160.352 162.927 157.904 165.944 157.904C166.455 157.904 166.946 157.98 167.415 158.11C169.2 155.151 172.435 153.166 176.14 153.166C179.785 153.166 182.974 155.087 184.777 157.966C187.866 158.376 190.251 161.016 190.251 164.22C190.251 167.708 187.427 170.535 183.942 170.535C183.766 170.535 183.593 170.523 183.421 170.508C181.571 172.4 178.994 173.577 176.14 173.577Z" fill="#93CCFF"/>
<path d="M117.706 35.76L116.838 34.8457C116.605 34.5994 116.262 34.4892 115.929 34.5531L114.632 34.803C114.207 34.8843 113.884 35.2306 113.832 35.6594L113.167 41.1032L115.18 41.8759C117.631 40.8087 117.504 37.5679 117.504 37.5679L117.857 36.9229C118.064 36.5435 118.003 36.0737 117.706 35.76Z" fill="#F8A461"/>
<path d="M93.417 52.0738C93.417 52.0738 95.3442 52.1907 96.4748 52.163C97.6145 52.1479 98.7493 52.1268 99.8642 52.063C100.974 51.9913 102.079 51.9136 103.091 51.7733C103.593 51.7022 104.08 51.6119 104.464 51.5077C104.644 51.4559 104.818 51.4005 104.897 51.3686C104.967 51.3367 104.958 51.3511 104.947 51.3656C104.936 51.3788 104.922 51.3915 104.956 51.3722C105.145 51.212 105.51 50.7766 105.83 50.3731C106.159 49.9539 106.491 49.5022 106.819 49.0427C107.48 48.1212 108.135 47.1643 108.789 46.2007L112.719 40.3636L115.791 41.9999C115.339 43.1243 114.85 44.2078 114.359 45.3045C113.851 46.3891 113.334 47.4714 112.8 48.5525C112.258 49.6299 111.696 50.7007 111.084 51.7733C110.774 52.3087 110.455 52.8459 110.105 53.3934C109.74 53.9529 109.405 54.4762 108.771 55.167C108.43 55.547 107.805 56.0078 107.402 56.2065C106.958 56.4492 106.576 56.6004 106.199 56.7431C105.46 57.0099 104.79 57.1791 104.132 57.3267C102.819 57.6188 101.569 57.7928 100.325 57.9121C97.8317 58.1602 95.4399 58.253 92.9404 58.1963L93.417 52.0738Z" fill="#4870C0"/>
<path d="M98.7358 58.0524C98.7352 58.0518 98.734 58.0512 98.7334 58.05C99.2605 58.0115 99.79 57.9651 100.324 57.9121C101.109 57.8368 101.895 57.7398 102.699 57.6055C101.895 57.7411 101.109 57.838 100.324 57.9139C99.7888 57.9681 99.2593 58.0103 98.7358 58.0524ZM105.173 57.0689C105.503 56.9774 105.843 56.872 106.199 56.7431C106.398 56.6678 106.598 56.5902 106.808 56.498C106.598 56.5908 106.397 56.6691 106.197 56.7455C105.841 56.8732 105.502 56.978 105.173 57.0689Z" fill="#FAFAFA"/>
<path d="M108.487 55.4464C108.593 55.3519 108.69 55.2573 108.771 55.167C108.936 54.9881 109.079 54.8201 109.209 54.6599C109.08 54.8207 108.936 54.9887 108.772 55.1676C108.691 55.2579 108.594 55.3525 108.487 55.4464ZM110.63 52.5448C110.691 52.4436 110.75 52.3424 110.81 52.2412C110.751 52.3424 110.691 52.4436 110.63 52.5448ZM96.2925 52.1659C96.3551 52.1653 96.4153 52.1641 96.4737 52.1629C97.6169 52.1442 98.7481 52.1262 99.8673 52.0605C100.096 52.0467 100.325 52.0322 100.552 52.0172C100.323 52.0328 100.094 52.0479 99.8642 52.0629C98.7493 52.1268 97.6145 52.1479 96.4749 52.1629C96.4159 52.1641 96.3551 52.1653 96.2925 52.1659ZM94.5115 52.1286C93.9086 52.1033 93.4405 52.075 93.4176 52.0738C93.417 52.0726 93.417 52.0726 93.417 52.0726C93.417 52.0726 93.8929 52.1021 94.5115 52.1286ZM102.604 51.8353C102.769 51.8154 102.932 51.7943 103.092 51.7715C103.175 51.76 103.257 51.7486 103.338 51.7365C103.257 51.7492 103.174 51.7612 103.091 51.7733C102.931 51.7949 102.769 51.816 102.604 51.8353ZM104.234 51.5655C104.314 51.5468 104.391 51.5263 104.464 51.5059C104.493 51.498 104.522 51.4902 104.55 51.4824C104.522 51.4908 104.493 51.4992 104.464 51.5077C104.391 51.5275 104.314 51.5468 104.234 51.5655ZM104.936 51.3824C104.932 51.3824 104.94 51.374 104.947 51.3655C104.953 51.3577 104.959 51.3493 104.95 51.3493C104.943 51.3493 104.928 51.3547 104.898 51.3685C104.891 51.371 104.884 51.3734 104.877 51.3764C104.884 51.3734 104.891 51.3704 104.898 51.3673C104.928 51.3541 104.943 51.3487 104.95 51.3487C104.96 51.3487 104.955 51.3577 104.948 51.3661C104.943 51.3728 104.937 51.3794 104.936 51.3824ZM106.315 49.7364C106.484 49.5088 106.651 49.2769 106.817 49.0426C107.316 48.3482 107.811 47.6334 108.306 46.9107C107.812 47.6334 107.318 48.3482 106.819 49.0426C106.652 49.2769 106.484 49.5094 106.315 49.7364ZM114.013 46.0398C114.129 45.7947 114.244 45.5502 114.359 45.3044C114.468 45.0623 114.576 44.8208 114.684 44.5793V44.5799C114.577 44.8208 114.469 45.0611 114.362 45.3026C114.246 45.5484 114.13 45.7941 114.013 46.0398Z" fill="white"/>
<path d="M114.684 44.58V44.5794C114.714 44.512 114.744 44.4445 114.774 44.3764C114.744 44.4445 114.714 44.512 114.684 44.58Z" fill="#FCFDFD"/>
<path d="M104.947 51.8836C105.042 51.8816 105.114 51.8518 105.12 51.8491L105.12 51.8489C105.142 51.8404 105.159 51.8321 105.167 51.8283C105.183 51.8202 105.198 51.8119 105.205 51.8075L105.248 51.7829L105.286 51.7503C105.513 51.5517 105.909 51.0795 106.222 50.6837L106.223 50.6827C106.388 50.4724 106.553 50.2553 106.716 50.0342M104.947 51.8836L106.717 50.0339C106.716 50.034 106.716 50.0341 106.716 50.0342M104.947 51.8836C104.867 51.9109 104.777 51.9383 104.688 51.9629M104.947 51.8836L104.688 51.9629M106.716 50.0342C106.887 49.8044 107.057 49.5697 107.225 49.3339M106.716 50.0342C106.716 50.0343 106.716 50.0344 106.716 50.0345L107.225 49.3339M107.225 49.3339C107.726 48.6353 108.223 47.9171 108.718 47.1931M107.225 49.3339L105.039 56.5871C105.358 56.4988 105.684 56.3975 106.025 56.2742C106.22 56.2003 106.41 56.1268 106.606 56.0406C106.781 55.963 106.962 55.8744 107.158 55.7661L107.168 55.7602L107.179 55.7548C107.437 55.6281 107.837 55.3543 108.154 55.0729C108.25 54.9873 108.333 54.9059 108.399 54.8327L108.399 54.8327L108.402 54.8289C108.559 54.6581 108.696 54.498 108.82 54.3453C109.172 53.9104 109.413 53.5361 109.681 53.121L109.682 53.1205L109.682 53.12C109.863 52.8397 110.035 52.5631 110.201 52.2871C110.26 52.1882 110.319 52.089 110.378 51.9876L110.379 51.9867C110.47 51.8325 110.56 51.678 110.649 51.5231C111.256 50.4618 111.811 49.3997 112.35 48.3316C112.762 47.4971 113.164 46.662 113.561 45.8258C113.676 45.5829 113.79 45.3403 113.904 45.0965C113.937 45.0223 113.97 44.9484 114.003 44.8746C114.078 44.708 114.152 44.542 114.226 44.3758L114.226 44.3757C114.257 44.3082 114.286 44.2415 114.316 44.1743L114.316 44.1739C114.603 43.5273 114.884 42.8836 115.154 42.231L112.882 41.0179L109.205 46.4799L109.205 46.4799L109.203 46.4824C109.178 46.5198 109.152 46.5571 109.127 46.5944C108.99 46.7941 108.854 46.9938 108.718 47.1931M108.718 47.1931C108.718 47.193 108.718 47.1928 108.718 47.1927L108.305 46.9108L108.717 47.1935C108.717 47.1934 108.717 47.1933 108.718 47.1931ZM104.688 51.9629C104.66 51.9712 104.632 51.9794 104.606 51.9871L104.604 51.9877L104.604 51.9878L104.594 51.9904C104.516 52.0116 104.434 52.0322 104.349 52.052M104.688 51.9629L94.4899 52.6282C94.979 52.6488 95.5621 52.6672 96.0711 52.6672H96.073C96.1469 52.6672 96.2233 52.6672 96.2986 52.666M104.349 52.052C104.35 52.0519 104.351 52.0517 104.351 52.0516L104.234 51.5656L104.347 52.0525C104.348 52.0523 104.349 52.0522 104.349 52.052ZM104.349 52.052C104.061 52.1217 103.74 52.1813 103.413 52.2308M103.413 52.2308C103.337 52.2427 103.259 52.254 103.185 52.2649L103.163 52.2681L103.163 52.2681L103.158 52.2688C102.996 52.2907 102.831 52.3122 102.663 52.3319C101.991 52.4122 101.289 52.4689 100.586 52.5161M103.413 52.2308C103.413 52.2309 103.412 52.2309 103.412 52.231L103.337 51.7366M103.413 52.2308C103.413 52.2308 103.414 52.2307 103.414 52.2307L103.337 51.7366M100.586 52.5161C100.356 52.5318 100.126 52.5469 99.8963 52.562L99.8963 52.562L99.8922 52.5622C98.766 52.6267 97.6223 52.6479 96.4827 52.6629M100.586 52.5161C100.585 52.5161 100.585 52.5161 100.585 52.5161L100.551 52.0173M100.586 52.5161L100.551 52.0173M96.4827 52.6629C96.4249 52.6641 96.3629 52.6654 96.2986 52.666M96.4827 52.6629C96.4821 52.663 96.4815 52.663 96.4809 52.663L96.4743 52.163M96.4827 52.6629C96.4833 52.6629 96.4839 52.6629 96.4845 52.6629L96.4743 52.163M96.2986 52.666C96.298 52.666 96.2974 52.666 96.2967 52.666L96.2919 52.166L96.3003 52.666C96.2998 52.666 96.2992 52.666 96.2986 52.666ZM96.4743 52.163C97.6139 52.148 98.7487 52.1269 99.8636 52.063C100.093 52.048 100.323 52.0329 100.551 52.0173M96.4743 52.163L103.337 51.7366M100.551 52.0173C101.252 51.9703 101.944 51.9143 102.604 51.8354C102.768 51.8161 102.931 51.795 103.091 51.7734L103.112 51.7702C103.187 51.7592 103.263 51.7482 103.337 51.7366M104.023 56.836L104.023 56.836C103.547 56.9434 103.079 57.0344 102.616 57.1125C101.826 57.2444 101.052 57.34 100.276 57.4144L100.275 57.4146C99.8237 57.4593 99.3766 57.4992 98.9319 57.5337C97.7356 56.322 96.2662 55.7777 95.1739 55.5318C94.8332 54.1986 94.4773 53.2288 94.2206 52.6164C94.3064 52.6203 94.3965 52.6243 94.4898 52.6282L104.023 56.836ZM104.023 56.836L104.026 56.8353M104.023 56.836L104.026 56.8353M104.026 56.8353C104.36 56.762 104.694 56.6822 105.039 56.5871L104.026 56.8353Z" fill="white" stroke="black"/>
<path d="M97.1865 58.1445C97.701 58.1198 98.2161 58.0885 98.7335 58.05C98.7341 58.0512 98.7353 58.0518 98.7359 58.0524C98.2178 58.0897 97.7016 58.1204 97.1865 58.1445Z" fill="#E2E1DF"/>
<path d="M97.5107 57.6274C96.8253 57.1307 96.0891 56.8218 95.4319 56.6302C95.5041 56.9679 95.5741 57.3235 95.6407 57.6974C96.149 57.6861 96.6558 57.6689 97.1632 57.6451C97.279 57.6396 97.3948 57.6337 97.5107 57.6274Z" fill="#F4F4F4" stroke="black"/>
<path d="M61.2354 160.113C61.2354 160.113 55.7882 156.362 56.1222 153.841C56.1553 153.595 56.0108 153.375 55.7491 153.336L51.1316 152.637C50.9162 152.604 50.6858 152.703 50.5582 152.882L47.8301 156.708L49.0557 157.153L49.714 156.691L50.0233 157.503C56.6751 159.912 59.5753 160.881 61.0417 160.943C61.4454 160.424 61.2354 160.113 61.2354 160.113Z" fill="#100F0D"/>
<path d="M91.912 89.2672C91.912 89.2672 91.6353 89.9899 91.1479 91.2426C90.6244 92.5977 89.8542 94.5731 88.9276 96.9225C88.3078 98.4877 87.6219 100.222 86.8818 102.048C83.4822 110.503 79.0897 120.964 76.1835 126.246C70.6177 136.351 56.1167 155.546 56.1167 155.546L50.3223 153.425C50.3223 153.425 60.7558 133.66 66.0207 123.644C67.6273 120.591 69.4745 116.098 71.3037 111.195C72.1762 108.865 73.0426 106.438 73.879 104.034C74.2581 102.951 74.6311 101.867 74.9921 100.8C75.9488 97.9824 76.8454 95.2663 77.6336 92.8446C77.7299 92.5435 77.8262 92.2423 77.9224 91.9538C78.2413 90.9595 78.5422 90.02 78.8129 89.1528C79.9442 85.588 80.6481 83.2386 80.6722 83.1489H80.6782L85.8469 85.9668L91.912 89.2672Z" fill="#064677"/>
<path d="M73.8799 104.035C74.259 102.951 74.632 101.867 74.993 100.8C75.6639 98.8244 76.3053 96.8978 76.9004 95.0887C79.563 96.6431 82.5998 96.9635 83.6991 97.0309C83.9729 97.046 84.1263 97.046 84.1263 97.046L88.6204 97.7C88.0837 99.0551 87.5019 100.519 86.8827 102.048C82.1533 102.999 77.3397 103.643 73.8799 104.035Z" fill="#064677"/>
<path d="M73.3955 55.2808L73.3991 55.294C74.2331 58.0957 74.7223 61.3515 74.9954 64.5615C75.2054 67.0591 75.2861 69.5175 75.2963 71.7229C75.3047 73.9453 75.2379 75.9128 75.1657 77.4184C75.0688 79.3535 74.9545 80.5448 74.9545 80.5448L93.2367 81.4855C98.7218 61.5876 93.4172 52.0738 93.4172 52.0738C93.4172 52.0738 91.1398 51.8437 88.5151 51.9612C88.177 51.9714 87.8334 51.9979 87.482 52.0244C85.2461 52.2117 81.6834 52.9187 79.3054 53.4566C78.8151 53.565 78.3229 53.692 77.8415 53.8221C75.4533 54.4744 73.3955 55.2808 73.3955 55.2808Z" fill="#4870C0"/>
<path d="M93.3076 81.2241C93.5706 80.2569 93.8082 79.3138 94.0224 78.3959C93.8088 79.3138 93.5712 80.2569 93.3076 81.2241ZM94.4075 76.653H94.4069C94.9358 74.1097 95.28 71.7681 95.4822 69.6277H95.4834C95.28 71.7687 94.9364 74.1091 94.4075 76.653ZM95.6212 67.8848H95.62C95.6452 67.4831 95.6657 67.0904 95.6813 66.705H95.6819C95.6663 67.0904 95.6464 67.4831 95.6212 67.8848ZM95.7217 64.9614H95.7211C95.7229 64.5591 95.7198 64.1659 95.712 63.7822H95.7132C95.7211 64.1659 95.7241 64.5585 95.7217 64.9614ZM95.6428 62.0387H95.6422C95.555 60.6041 95.4034 59.3274 95.2186 58.206C95.2192 58.206 95.2198 58.206 95.2198 58.206C95.4046 59.3274 95.5562 60.6041 95.6428 62.0387Z" fill="#FAFAFA"/>
<path d="M95.7136 63.7823H95.7124C95.6997 63.177 95.6763 62.5965 95.6426 62.0388H95.6432C95.6769 62.5965 95.7009 63.177 95.7136 63.7823Z" fill="#FCFDFD"/>
<path d="M95.6822 66.705H95.6816C95.7057 66.1051 95.7184 65.5239 95.7214 64.9614H95.722C95.7196 65.5239 95.7063 66.1051 95.6822 66.705Z" fill="#FCFDFD"/>
<path d="M95.4836 69.6277H95.4824C95.539 69.0315 95.5847 68.4503 95.6202 67.8848H95.6214C95.5853 68.4503 95.5402 69.0315 95.4836 69.6277Z" fill="#FCFDFD"/>
<path d="M94.0225 78.3959C94.1609 77.8039 94.2884 77.224 94.4069 76.653H94.4075C94.289 77.2233 94.1609 77.8051 94.0225 78.3959Z" fill="#FCFDFD"/>
<path d="M93.4172 52.0739C93.4058 52.0726 92.5983 51.9913 91.3955 51.951C92.6061 51.9907 93.4172 52.0726 93.4172 52.0726V52.0739Z" fill="white"/>
<path d="M95.2188 58.206C95.2188 58.205 95.2188 58.206 95.2188 58.205C95.2188 58.205 95.2198 58.205 95.2208 58.205V58.206C95.2208 58.206 95.2197 58.206 95.2188 58.206Z" fill="#C7D9F2"/>
<path d="M93.418 52.0739C93.417 52.0739 93.417 52.0739 93.417 52.0739V52.0719C93.417 52.0719 93.417 52.0719 93.418 52.0739Z" fill="white"/>
<path d="M94.7654 55.9578C94.7648 55.9578 94.7642 55.9578 94.7642 55.9578C94.1306 53.3542 93.417 52.0738 93.417 52.0738C93.417 52.0738 93.417 52.0738 93.4176 52.0738C93.4459 52.1244 94.1444 53.4054 94.7654 55.9578Z" fill="#F0F6FC"/>
<path d="M95.2186 58.2054C95.0808 57.3695 94.9249 56.6208 94.7637 55.9578C94.7637 55.9578 94.7643 55.9578 94.7649 55.9578C94.9261 56.6208 95.082 57.3695 95.2198 58.2054C95.2192 58.2054 95.2186 58.2054 95.2186 58.2054Z" fill="#E9EFFA"/>
<path d="M75.1778 77.1608C75.1989 76.6591 75.2194 76.102 75.2398 75.5058C75.2663 74.6789 75.2861 73.7707 75.2952 72.7998C75.2837 74.4621 75.2338 75.9478 75.1778 77.1608ZM75.2885 70.8491C75.2825 70.4571 75.2741 70.0572 75.2639 69.6525C75.2639 69.5495 75.2591 69.4471 75.2579 69.3441C75.2723 69.8554 75.2825 70.3571 75.2885 70.8491ZM73.3962 55.2845L73.3926 55.2821C73.3926 55.2821 73.3932 55.2815 73.3956 55.2809L73.3962 55.2845ZM75.859 54.4148C76.4631 54.2197 77.14 54.0125 77.8452 53.8186C78.2911 53.6999 78.7532 53.5813 79.2117 53.4777C78.7526 53.5813 78.2923 53.7006 77.8416 53.8222C77.137 54.0149 76.4619 54.2203 75.859 54.4148ZM87.4538 52.0269L87.4526 52.0263C87.461 52.0257 87.4701 52.0251 87.4785 52.0245C87.5182 52.0215 87.5579 52.0185 87.597 52.0161C87.5591 52.0191 87.5206 52.0221 87.4821 52.0245C87.4725 52.0257 87.4634 52.0263 87.4538 52.0269Z" fill="white"/>
<path d="M75.6774 77.1809C75.6767 77.2006 75.676 77.2201 75.6752 77.2395L92.9467 80.6432C93.1606 79.8387 93.3567 79.0515 93.5362 78.2823L93.5363 78.2821C93.6737 77.6943 93.8003 77.1184 93.9181 76.5514L93.9181 76.5512C94.4433 74.0255 94.7847 71.7022 94.9851 69.5807L94.9851 69.5805C95.0412 68.9894 95.0865 68.4136 95.1216 67.8535L95.1216 67.8534C95.1467 67.4553 95.1669 67.0664 95.1824 66.6849L75.6774 77.1809ZM75.6774 77.1809C75.7335 75.9636 75.7836 74.4723 75.7951 72.8037M75.6774 77.1809L93.0956 52.5472M93.0956 52.5472C93.1674 52.6983 93.2688 52.924 93.3888 53.2248C93.638 53.8493 93.9675 54.7978 94.2786 56.0759C94.4343 56.7163 94.5852 57.4392 94.7193 58.2464V58.2469L94.726 58.2872C94.9079 59.3918 95.0576 60.6516 95.1438 62.0691C95.1771 62.6197 95.2003 63.1935 95.2128 63.7924C95.2128 63.7925 95.2128 63.7926 95.2128 63.7927L95.7127 63.7822L93.0956 52.5472ZM93.0956 52.5472C93.018 52.5408 92.9247 52.5335 92.8171 52.5258C92.4688 52.5006 91.9727 52.4706 91.3787 52.4507C90.9875 52.4376 90.5545 52.4287 90.094 52.4287C89.7095 52.4287 89.3061 52.4348 88.892 52.4491L88.8982 52.4811L89.5529 55.8435L89.7342 56.7749L88.8634 56.3979L87.5662 55.8363L86.3873 57.1506C83.8084 61.9536 78.7892 64.694 75.6091 66.0249C75.6798 67.1386 75.7293 68.2358 75.7576 69.2952L75.7578 69.2951V69.3085V69.3086V69.3087V69.3087V69.3088V69.3089V69.3089V69.309V69.3091V69.3091V69.3092V69.3093V69.3094V69.3094V69.3095V69.3096V69.3096V69.3097V69.3098V69.3099V69.3099V69.31V69.3101V69.3101V69.3102V69.3103V69.3103V69.3104V69.3105V69.3106V69.3106V69.3107V69.3108V69.3108V69.3109V69.311V69.3111V69.3111V69.3112V69.3113V69.3113V69.3114V69.3115V69.3115V69.3116V69.3117V69.3118V69.3118V69.3119V69.312V69.312V69.3121V69.3122V69.3123V69.3123V69.3124V69.3125V69.3125V69.3126V69.3127V69.3127V69.3128V69.3129V69.313V69.313V69.3131V69.3132V69.3132V69.3133V69.3134V69.3135V69.3135V69.3136V69.3137V69.3137V69.3138V69.3139V69.3139V69.314V69.3141V69.3142V69.3142V69.3143V69.3144V69.3144V69.3145V69.3146V69.3147V69.3147V69.3148V69.3149V69.3149V69.315V69.3151V69.3151V69.3152V69.3153V69.3154V69.3154V69.3155V69.3156V69.3156V69.3157V69.3158V69.3158V69.3159V69.316V69.3161V69.3161V69.3162V69.3163V69.3163V69.3164V69.3165V69.3166V69.3166V69.3167V69.3168V69.3168V69.3169V69.317V69.317V69.3171V69.3172V69.3173V69.3173V69.3174V69.3175V69.3175V69.3176V69.3177V69.3177V69.3178V69.3179V69.318V69.318V69.3181V69.3182V69.3182V69.3183V69.3184V69.3185V69.3185V69.3186V69.3187V69.3187V69.3188V69.3189V69.3189V69.319V69.3191V69.3192V69.3192V69.3193V69.3194V69.3194V69.3195V69.3196V69.3196V69.3197V69.3198V69.3199V69.3199V69.32V69.3201V69.3201V69.3202V69.3203V69.3203V69.3204V69.3205V69.3206V69.3206V69.3207V69.3208V69.3208V69.3209V69.321V69.3211V69.3211V69.3212V69.3213V69.3213V69.3214V69.3215V69.3215V69.3216V69.3217V69.3218V69.3218V69.3219V69.322V69.322V69.3221V69.3222V69.3222V69.3223V69.3224V69.3225V69.3225V69.3226V69.3227V69.3227V69.3228V69.3229V69.3229V69.323V69.3231V69.3232V69.3232V69.3233V69.3234V69.3234V69.3235V69.3236V69.3236V69.3237V69.3238V69.3239V69.3239V69.324V69.3241V69.3241V69.3242V69.3243V69.3243V69.3244V69.3245V69.3246V69.3246V69.3247V69.3248V69.3248V69.3249V69.325V69.325V69.3251V69.3252V69.3253V69.3253V69.3254V69.3255V69.3255V69.3256V69.3257V69.3257V69.3258V69.3259V69.3259V69.326V69.3261V69.3262V69.3262V69.3263V69.3264V69.3264V69.3265V69.3266V69.3266V69.3267V69.3268V69.3269V69.3269V69.327V69.3271V69.3271V69.3272V69.3273V69.3273V69.3274V69.3275V69.3276V69.3276V69.3277V69.3278V69.3278V69.3279V69.328V69.328V69.3281V69.3282V69.3282V69.3283V69.3284V69.3285V69.3285V69.3286V69.3287V69.3287V69.3288V69.3289V69.3289V69.329V69.3291V69.3292V69.3292V69.3293V69.3294V69.3294V69.3295V69.3296V69.3296V69.3297V69.3298V69.3298V69.3299V69.33V69.3301V69.3301V69.3302V69.3303V69.3303V69.3304V69.3305V69.3305V69.3306V69.3307V69.3307V69.3308V69.3309V69.331V69.331V69.3311V69.3312V69.3312V69.3313V69.3314V69.3314V69.3315V69.3316V69.3316V69.3317V69.3318V69.3319V69.3319V69.332V69.3321V69.3321V69.3322V69.3323V69.3323V69.3324V69.3325V69.3325V69.3326V69.3327V69.3328V69.3328V69.3329V69.333V69.333V69.3331V69.3332V69.3332V69.3333V69.3334V69.3334V69.3335V69.3336V69.3336V69.3337V69.3338V69.3339V69.3339V69.334V69.3341V69.3341V69.3342V69.3343V69.3343V69.3344V69.3345V69.3345V69.3346V69.3347V69.3347V69.3348V69.3349V69.335V69.335V69.3351V69.3352V69.3352V69.3353V69.3354V69.3354V69.3355V69.3356V69.3356V69.3357V69.3358V69.3358V69.3359V69.336V69.3361V69.3361V69.3362V69.3363V69.3363V69.3364V69.3365V69.3365V69.3366V69.3367V69.3367V69.3368V69.3369V69.3369V69.337C75.7722 69.8481 75.7824 70.3497 75.7884 70.842C75.7932 71.1386 75.7969 71.4307 75.7999 71.7183H75.7999V71.7236C75.7999 72.0912 75.7981 72.4521 75.7951 72.8037M75.7951 72.8037C75.7951 72.8036 75.7951 72.8034 75.7951 72.8032L75.2951 72.7998L75.7951 72.8041C75.7951 72.804 75.7951 72.8039 75.7951 72.8037ZM83.7763 57.0958C83.3994 57.4743 82.8504 57.9898 82.1324 58.5727C80.743 59.7007 78.7239 61.079 76.0971 62.2088C76.1002 61.5914 76.067 61.0504 76.0272 60.6287C75.9991 60.332 75.9677 60.0934 75.943 59.9275C75.9307 59.8445 75.92 59.7797 75.9122 59.7348C75.9084 59.7123 75.9052 59.6948 75.903 59.6825L75.9003 59.6681L75.8995 59.6638L75.8992 59.6625L75.8991 59.662L75.8991 59.6618C75.8991 59.6617 75.8991 59.6617 75.8928 59.6629C75.8928 59.6629 75.8928 59.6628 75.8928 59.6628L75.8991 59.6616L75.8943 59.6372C75.9032 59.4836 75.9082 59.3224 75.9082 59.1533C75.9082 58.8457 75.8923 58.5132 75.8557 58.1551C75.7233 56.846 75.2313 55.9994 74.7429 55.4753C74.7049 55.4345 74.667 55.3958 74.6294 55.3591C75.0136 55.223 75.4849 55.0612 76.0126 54.8905L83.7763 57.0958ZM83.7763 57.0958L83.3473 57.4787L83.003 57.7859L82.6692 57.4674L79.0616 54.0257C78.6984 54.112 78.3339 54.2071 77.9726 54.3047C77.277 54.4949 76.6096 54.6979 76.0128 54.8905L83.7763 57.0958ZM75.2999 71.7236C75.2969 71.4363 75.2933 71.1448 75.2885 70.8491L75.2999 71.7236Z" fill="white" stroke="black"/>
<path d="M104.543 129.103C104.543 129.103 99.3199 125.045 99.7976 122.549C99.8451 122.303 99.7134 122.076 99.454 122.023L94.8847 121.058C94.6711 121.014 94.4358 121.098 94.298 121.27L91.3545 124.933L92.5525 125.446L93.236 125.024L93.4984 125.852C100.001 128.64 102.84 129.775 104.301 129.921C104.733 129.425 104.543 129.103 104.543 129.103Z" fill="#100F0D"/>
<path d="M83.6983 97.0309C83.972 97.046 84.1255 97.046 84.1255 97.046L106.041 100.235L93.5656 120.951L99.8125 123.331C99.8125 123.331 122.402 98.9521 117.356 93.3933C113.205 88.8216 92.8682 86.0404 92.8682 86.0404L93.5349 81.2693L74.7238 77.5618C66.6827 95.1808 81.0056 96.8659 83.6983 97.0309Z" fill="#064677"/>
<path d="M74.5015 79.4355L74.1025 79.3578L74.4678 78.0888L74.8222 78.1581L74.5015 79.4355Z" fill="#1D2A30"/>
<path d="M89.2985 82.3016L81.2676 80.7454L81.5811 79.4698L89.5789 81.0218L89.2985 82.3016Z" fill="#1D2A30"/>
<path d="M90.198 81.1428L93.5935 81.8011L93.3672 83.0893L89.9297 82.4238L90.198 81.1428Z" fill="#1D2A30"/>
<path d="M75.4419 78.2779L80.9637 79.35L80.6376 80.6237L75.1338 79.5577L75.4419 78.2779Z" fill="#1D2A30"/>
<path d="M74.5015 79.4355L74.1025 79.3578L74.4678 78.0888L74.8222 78.1581L74.5015 79.4355Z" fill="#45555C"/>
<path d="M89.2985 82.3016L81.2676 80.7454L81.5811 79.4698L89.5789 81.0218L89.2985 82.3016Z" fill="#45555C"/>
<path d="M93.3672 83.0893L93.283 83.073L89.9297 82.4238L90.198 81.1428L93.5935 81.8011L93.3672 83.0893Z" fill="#45555C"/>
<path d="M80.6376 80.6237L75.1338 79.5577L75.4419 78.2779L80.9637 79.35L80.6376 80.6237Z" fill="#45555C"/>
<path d="M87.0705 80.7875L86.8978 80.7472L86.7167 81.5241L86.6565 81.5717L86.6457 81.5705L84.6354 81.2133L84.5849 81.1531L84.5867 81.138L84.7888 80.3316L84.8472 80.2859L84.8592 80.2871L86.8497 80.6725L86.899 80.7333L86.8978 80.7472L87.0705 80.7875L87.2432 80.8273L87.2534 80.7333C87.2534 80.5376 87.1168 80.3641 86.9171 80.3244L84.9266 79.939H84.9272L84.8472 79.9311C84.6607 79.9311 84.4922 80.0576 84.4447 80.2461V80.2455L84.2431 81.0519L84.2305 81.1531C84.2305 81.3506 84.3713 81.5265 84.574 81.5626H84.5734L86.5843 81.9204H86.5849L86.6565 81.9264C86.8473 81.9264 87.017 81.7963 87.0621 81.6048L87.2438 80.8231L87.2432 80.8273L87.0705 80.7875Z" fill="white"/>
<path d="M85.4345 80.6761L84.8208 80.5683C84.7239 80.5508 84.6324 80.6153 84.615 80.7116C84.5981 80.8086 84.6625 80.9001 84.7588 80.9176L85.3731 81.0254C85.4694 81.0429 85.5615 80.9784 85.5783 80.8815C85.5952 80.7851 85.5308 80.693 85.4345 80.6761Z" fill="white"/>
<path d="M81.1993 45.1539L85.9738 49.1156C85.5069 51.0548 86.318 52.8429 87.259 53.1742C87.259 53.1742 87.9564 54.8364 86.6134 55.117C83.8919 55.6843 80.7871 53.0459 80.7871 53.0459C82.227 51.4975 81.7065 47.6298 81.1993 45.1539Z" fill="#F9A95E"/>
<path d="M85.7448 50.488C84.6846 50.3543 83.2213 49.2191 83.0997 48.1127C83.0389 47.5611 83.0582 47.0293 83.1461 46.7703L85.4734 48.6999L85.9723 49.1137C85.8597 49.5726 85.7737 50.0376 85.7448 50.488Z" fill="#CA8849"/>
<path d="M85.4147 37.3264C86.5699 38.0473 88.1362 40.2209 86.1939 40.7436C84.2516 41.2658 83.4284 36.087 85.4147 37.3264Z" fill="#1D2A30"/>
<path d="M79.5062 44.7657C81.5261 47.4324 82.5742 49.0977 84.9209 49.5753C88.4505 50.2932 91.0168 46.6953 89.8296 43.4684C88.761 40.5643 85.6369 36.6906 82.1934 37.426C78.8004 38.1505 77.4856 42.0983 79.5062 44.7657Z" fill="#F8A461"/>
<path d="M80.0473 41.8505L77.6206 39.0163C77.6206 39.0163 74.4147 41.3772 75.8702 42.8063C74.9105 45.0666 78.7235 48.2212 82.0575 47.5726C82.4438 45.5345 79.4744 42.0523 79.4744 42.0523C79.6574 41.9975 79.8505 41.9276 80.0473 41.8505Z" fill="#1D2A30"/>
<path d="M79.9195 47.787C80.6175 48.3549 81.5122 48.5428 82.2457 48.4495C83.3486 48.3098 83.4768 47.2094 82.8155 46.3856C82.2204 45.6442 80.9292 44.8233 79.9923 45.3792C79.0699 45.9266 79.121 47.1378 79.9195 47.787Z" fill="#F8A461"/>
<path d="M84.1631 42.6769C84.3135 42.9033 84.5548 43.0057 84.7022 42.9057C84.8491 42.8051 84.8466 42.5407 84.6956 42.3137C84.5452 42.0872 84.3033 41.9849 84.1565 42.0854C84.0091 42.1854 84.0121 42.4504 84.1631 42.6769Z" fill="#1D2A30"/>
<path d="M86.7076 40.9442C86.858 41.1712 87.0993 41.273 87.2467 41.173C87.3941 41.073 87.3911 40.808 87.2407 40.5816C87.0897 40.3552 86.8484 40.2528 86.701 40.3527C86.5541 40.4527 86.5572 40.7177 86.7076 40.9442Z" fill="#1D2A30"/>
<path d="M85.9736 41.6078C85.9736 41.6078 87.3353 42.5088 88.3106 42.7328C88.153 43.3543 87.3612 43.6434 87.3612 43.6434L85.9736 41.6078Z" fill="#F5782F"/>
<path d="M86.7915 45.8269C86.9241 45.822 87.0601 45.811 87.1981 45.7922L87.2425 45.7177L87.11 45.6671C85.7814 45.8458 84.703 45.2777 84.6919 45.2718L84.557 45.2705L84.5919 45.3604C84.6349 45.3835 85.5652 45.8739 86.7915 45.8269Z" fill="#1D2A30"/>
<path d="M82.4207 41.9331C82.4761 41.9355 82.532 41.909 82.5645 41.8584C82.9514 41.2555 83.5399 41.2405 83.5459 41.2405C83.6344 41.2393 83.706 41.1664 83.7054 41.0785C83.7048 40.9899 83.6326 40.9195 83.5447 40.9207C83.5134 40.9207 82.7757 40.9394 82.2962 41.6874C82.248 41.762 82.2697 41.8614 82.3437 41.9084L82.4207 41.9331Z" fill="#1D2A30"/>
<path d="M86.7385 38.888L86.7397 38.7959C86.7156 38.7104 86.6278 38.6598 86.5429 38.6832C85.6933 38.9187 85.4731 39.621 85.4593 39.6511C85.4334 39.7354 85.4803 39.8257 85.5646 39.8528C85.6482 39.8793 85.7372 39.8329 85.7637 39.7498C85.7715 39.7203 85.9478 39.1813 86.6302 38.9928L86.7385 38.888Z" fill="#1D2A30"/>
<path d="M79.4741 42.0523C79.4741 42.0523 85.8269 39.3807 86.2162 36.3309C86.6049 33.2811 83.9213 34.5307 83.9213 34.5307C83.9213 34.5307 85.1638 34.4458 85.0423 35.3516C85.0423 35.3516 82.8966 33.8863 80.8526 35.1456C80.8526 35.1456 81.8075 35.127 82.3106 35.8364C82.3106 35.8364 80.3689 36.2159 78.1901 37.8323C76.0119 39.4488 72.099 45.2364 79.4741 42.0523Z" fill="#1D2A30"/>
<path d="M92.8684 86.0404L82.5137 84.8504C82.5137 84.8504 85.4765 84.3637 90.3454 84.3637C91.2053 84.3637 92.1229 84.3788 93.0952 84.4143L92.8684 86.0404Z" fill="#161C1E"/>
<path d="M75.0949 65.8275C75.0912 65.7852 75.0876 65.7422 75.084 65.6992C75.1021 65.692 75.1203 65.6847 75.1384 65.6774C75.1239 65.7277 75.1094 65.7779 75.0949 65.8275Z" fill="#B1C2E8"/>
<path d="M74.8727 63.2318C74.8252 62.7982 74.7758 62.3652 74.7217 61.934H74.7223C74.7223 61.934 75.2632 61.2889 75.3842 59.7707C75.392 59.7658 75.3998 59.7616 75.4082 59.7568C75.4082 59.7568 75.676 61.1378 75.5743 62.9656C75.345 63.0559 75.1104 63.1451 74.8727 63.2318Z" fill="#F4F4F4"/>
<path d="M57.8382 80.6237L56.0391 84.8504L59.9351 85.814C59.9351 85.814 61.6078 83.037 59.9748 80.9194L57.8382 80.6237Z" fill="#F9A95E"/>
<path d="M56.3195 88.1085L59.3954 88.1314L59.9351 85.8139L56.0391 84.8503L56.3195 88.1085Z" fill="#F9A95E"/>
<path d="M75.3579 58.206C75.6257 60.8565 74.7219 61.9339 74.7219 61.9339C74.7219 61.9339 72.1569 63.5468 71.0443 64.3724C70.0985 65.0861 69.1712 65.8106 68.2927 66.5364C67.8577 66.9013 67.4383 67.2705 67.0544 67.6361C66.6742 67.9974 66.3179 68.3744 66.0929 68.6653C65.9924 68.7816 65.8913 68.9707 65.7836 69.1393C65.6741 69.3164 65.5598 69.5807 65.4413 69.7958C65.206 70.2812 64.9719 70.7955 64.7505 71.3351C64.3064 72.4113 63.8853 73.5333 63.4851 74.6716C62.6518 76.9355 61.8756 79.2698 61.0771 81.565L57.5234 80.7194C57.8845 78.2207 58.3724 75.7858 58.9362 73.3183C59.2335 72.0915 59.5626 70.8629 59.9399 69.6139C60.1276 68.9905 60.3418 68.3552 60.5825 67.7035C60.7263 67.3608 60.8412 67.0513 61.0217 66.6845C61.2113 66.3135 61.3858 65.9498 61.6475 65.5643C62.1289 64.844 62.6006 64.3014 63.0766 63.7774C63.5519 63.2589 64.0297 62.7819 64.5098 62.3206C65.4665 61.4009 66.4485 60.5638 67.4431 59.7574C69.4354 58.1361 71.4348 56.6558 73.5775 55.226C73.5775 55.226 75.1155 55.8066 75.3579 58.206Z" fill="#4870C0"/>
<path d="M73.5775 55.226C73.5775 55.226 75.1155 55.8066 75.3579 58.206C75.3928 58.5474 75.4079 58.863 75.4079 59.1533C75.4079 59.3731 75.3989 59.5785 75.3838 59.7706M73.5775 55.226L68.2927 66.5364C69.1712 65.8106 70.0985 65.0861 71.0443 64.3724C72.1442 63.5564 74.6618 61.9713 74.7207 61.9345M73.5775 55.226C71.4348 56.6558 69.4354 58.1361 67.4431 59.7574L73.5775 55.226ZM75.3838 59.7706C75.2629 61.2889 74.7219 61.9339 74.7219 61.9339M75.3838 59.7706L74.8853 59.7316M75.3838 59.7706L74.8854 59.7309C74.8854 59.7311 74.8854 59.7313 74.8854 59.7315M74.7219 61.9339H74.7213C74.7207 61.9339 74.7207 61.9339 74.7207 61.9345M74.7219 61.9339C74.7217 61.9338 74.7215 61.9336 74.7213 61.9334C74.7204 61.9327 74.7195 61.9319 74.7186 61.9311L74.7207 61.9345M74.7219 61.9339V61.4339H74.7213H74.7213H74.7212H74.7208L74.719 61.4339L74.7109 61.434C74.7052 61.4341 74.6878 61.4345 74.6658 61.437C74.6408 61.4398 74.5406 61.451 74.4372 61.5221C74.4229 61.5311 74.4012 61.5449 74.3726 61.5629M74.7207 61.9345H74.2207V61.9345V61.9344V61.9339L74.2207 61.9322L74.2208 61.9241C74.221 61.9184 74.2214 61.901 74.2238 61.879C74.227 61.8505 74.2411 61.7238 74.343 61.6064C74.3496 61.5973 74.3597 61.5829 74.3726 61.5629M74.3726 61.5629C74.3763 61.5572 74.3802 61.5511 74.3843 61.5445C74.4239 61.4812 74.4832 61.3758 74.5479 61.2248C74.6769 60.9236 74.8292 60.4361 74.8853 59.7316M74.3726 61.5629C73.9188 61.8493 71.7562 63.2217 70.7464 63.9709L70.7432 63.9733C69.793 64.6902 68.8598 65.4194 67.9743 66.1509L67.9714 66.1533C67.5307 66.523 67.1031 66.8993 66.7096 67.274M74.8853 59.7316L74.8854 59.7315M74.8853 59.7316L66.71 67.2736C66.7099 67.2737 66.7098 67.2739 66.7096 67.274M74.8854 59.7315C74.8994 59.5517 74.9079 59.3593 74.9079 59.1533C74.9079 58.8803 74.8937 58.5817 74.8605 58.2568L74.8605 58.2562C74.7503 57.1663 74.3521 56.5231 74.011 56.1571C73.8602 55.9953 73.7162 55.8831 73.6051 55.8094C71.57 57.1783 69.6614 58.5968 67.7587 60.1452L67.758 60.1458C66.7696 60.9472 65.7993 61.7746 64.8563 62.681L64.8562 62.6811C64.3809 63.1378 63.9114 63.6067 63.4458 64.1146C62.9759 64.6319 62.5238 65.1529 62.0632 65.8421L62.0632 65.8421L62.0612 65.8452C61.8525 66.1525 61.7058 66.4417 61.5421 66.7644C61.5181 66.8117 61.4937 66.8597 61.4687 66.9086C61.3456 67.1592 61.258 67.3739 61.1617 67.6103C61.1257 67.6984 61.0885 67.7896 61.0478 67.8869C60.8118 68.5263 60.6022 69.1486 60.4186 69.7581L60.4185 69.7584C60.0446 70.9965 59.7181 72.2151 59.4229 73.4329C58.8955 75.7415 58.4358 78.0164 58.085 80.3393L60.3877 80.8871L60.3877 80.8871L60.7529 80.9739C60.9451 80.4187 61.1367 79.8604 61.3287 79.301C61.8798 77.6949 62.4339 76.08 63.0146 74.5023C63.4166 73.359 63.8405 72.2298 64.2881 71.1449C64.5141 70.5942 64.7525 70.0705 64.9913 69.5777L64.9971 69.5659L65.0034 69.5544C65.0482 69.4731 65.0924 69.3837 65.1418 69.2839C65.1503 69.2666 65.159 69.249 65.1679 69.2311C65.2239 69.1182 65.2895 68.9876 65.3584 68.8763L65.3583 68.8763L65.3622 68.8702C65.3933 68.8216 65.4187 68.7795 65.4467 68.7329C65.4673 68.6989 65.4892 68.6625 65.5158 68.6195C65.5662 68.5382 65.6308 68.4376 65.7049 68.3497M74.8854 59.7315L65.7049 68.3497M66.7096 67.274C66.3249 67.6396 65.9521 68.032 65.7049 68.3497M66.7096 67.274L65.7049 68.3497" fill="white" stroke="black"/>
<path d="M83.4365 54.6521L84.7747 56.7557C84.7747 56.7557 80.1097 62.4145 71.1822 64.2821L70.5859 66.1003L72.4849 66.5978C72.4849 66.5978 82.1266 64.1008 85.9739 56.8617L87.9619 54.646L85.6189 53.8589L83.4365 54.6521Z" fill="black"/>
<path d="M79.1133 53.3849L81.2872 51.4818L85.6189 53.8589L86.1195 51.259L88.4066 52.5767L89.0613 55.9391L85.8698 54.5569L83.0135 57.1057L79.1133 53.3849Z" fill="#4870C0"/>
<path d="M83.946 55.6033L85.3979 54.3079L85.3784 54.2972L81.3534 52.0884L79.8543 53.4008L83.0248 56.4254L83.946 55.6034L83.946 55.6033ZM86.1099 53.9534L86.081 54.1035L87.6323 54.7756L87.6324 54.7757L88.3891 55.1033L87.9594 52.8961L86.4778 52.0425L86.1099 53.9534Z" fill="white" stroke="black"/>
<path d="M28.873 177.75H130.492L184.269 134.269L186.628 137.191H199.873L213.367 75.0203L200.116 75.0468L200.122 75.0203L136.558 75.1468L144.147 84.5491L28.873 177.75Z" fill="#064677"/>
<path d="M99.7663 174.162H33.3105L144.146 84.5492L142.195 82.1317L141.539 81.3193L139.428 78.7037L139.18 78.3959L136.558 75.1468L200.122 75.0203L200.116 75.0468L186.627 137.191L184.269 134.269L179.039 127.789L127.633 169.351C126.425 168.199 124.815 167.466 123.032 167.383L123.034 167.365C123.034 163.217 119.674 159.854 115.529 159.854C112.306 159.854 109.566 161.891 108.503 164.747C108.4 164.742 108.298 164.731 108.194 164.731C103.51 164.731 99.7116 168.532 99.7116 173.221C99.7116 173.539 99.7327 173.853 99.7663 174.162Z" fill="#0079C2"/>
<path d="M26.8044 174.162H99.7662C99.7325 173.853 99.7115 173.539 99.7115 173.221C99.7115 168.532 103.509 164.731 108.194 164.731C108.298 164.731 108.399 164.742 108.503 164.747C109.566 161.891 112.306 159.854 115.529 159.854C119.674 159.854 123.034 163.217 123.034 167.365L123.032 167.383C126.707 167.554 129.652 170.489 129.842 174.162H130.184C132.258 174.162 133.954 175.86 133.954 177.936C133.954 180.012 132.258 181.711 130.184 181.711H26.8044C24.7302 181.711 23.0332 180.012 23.0332 177.936C23.0332 175.86 24.7302 174.162 26.8044 174.162Z" fill="#4870C0"/>
<path d="M130.184 181.711H26.8044C24.7302 181.711 23.0332 180.012 23.0332 177.936C23.0332 175.86 24.7302 174.162 26.8044 174.162H99.7662C99.7325 173.853 99.7115 173.539 99.7115 173.221C99.7115 168.532 103.509 164.731 108.194 164.731C108.298 164.731 108.399 164.742 108.503 164.747C109.566 161.891 112.306 159.854 115.529 159.854C119.674 159.854 123.034 163.217 123.034 167.365L123.032 167.383C126.707 167.554 129.652 170.489 129.842 174.162H130.184C132.258 174.162 133.954 175.86 133.954 177.936C133.954 180.012 132.258 181.711 130.184 181.711Z" fill="#93CCFF"/>
<path d="M161.15 111.494C162.492 116.012 164.005 129.005 159.32 144.831" stroke="black"/>
</g>
<defs>
<clipPath id="clip0_998_11945">
<rect width="238" height="186" fill="white"/>
</clipPath>
</defs>
</svg>
