<svg width="238" height="186" viewBox="0 0 238 186" fill="none" xmlns="http://www.w3.org/2000/svg">
<rect width="238" height="186" fill="white"/>
<path d="M234 164V135.221H231.551V121.51H227.97V73.8331H222.794V67.6819L211.742 62.5038V56.3008H210.211V73.8331H208.068V121.51H205.924V96.4412H200.107V83.5223H198.483V121.51H194.065V107.053H191.156V103.362H184.42V90.7506H180.732V81.8309H176.197V68.835H174.579V81.8309H170.044V90.7506H166.355V103.362H159.619V107.053H156.71V121.51H153.261V103.362H146.524V64.2981H144.381V59.9918H129.99V64.2981H126.928V92.5967H114.681V95.3646H110.088V97.5178H114.681V108.591H101.821V71.6805H99.0655V63.8368H93.0953V36H91.411V63.8368H87.1244V71.6805H61.9936V69.0987H60.4628V86.631H58.3195V86.9387H57.0321V104.471H54.8887V109.239H50.3587V96.3202H48.735V127.079H46.928V114.161H45.3043V134.307H44.3165V119.851H41.4078V116.16H34.6722V103.549H30.983V94.6288H26.4483V81.6329H24.8306V94.6288H20.2958V103.549H16.6073V116.16H9.87103V119.851H6.9623V134H6.44026V134.307H5V164H234Z" fill="#E9E9E8"/>
<path d="M20.8902 163.13C20.4089 163.13 19.9275 162.948 19.5595 162.584C18.8182 161.849 18.8128 160.653 19.5475 159.91C23.8182 155.6 36.9808 147.124 50.9168 138.15C61.0715 131.612 71.5715 124.852 78.5222 119.744L79.4448 119.066L80.4729 119.569C82.5809 120.602 85.5395 124.145 89.4915 129.037C90.3355 130.082 91.2968 131.274 92.0635 132.172C92.9368 130.481 94.2422 127.864 95.5195 125.302C99.5635 117.192 105.101 106.084 107.968 101.87L109.036 100.301L110.6 101.376C113.166 103.137 115.18 104.565 116.958 105.826C119.801 107.844 121.985 109.393 124.869 111.205C126.364 108.442 129.241 104.426 133.101 99.1276C136.126 94.9769 139.254 90.6823 140.11 88.7996L141.318 86.1423L152.341 98.6502C156.886 103.809 161.574 109.13 167.152 113.185C169.663 110.492 174.218 105.554 179.373 99.9662C192.269 85.9862 209.93 66.8382 213.415 63.5209C214.171 62.8022 215.368 62.8303 216.088 63.5863C216.808 64.3436 216.777 65.5382 216.022 66.2582C212.626 69.4916 195.012 88.5862 182.15 102.529C176.094 109.094 170.866 114.765 168.786 116.969L167.686 118.136L166.357 117.24C159.789 112.82 154.561 106.886 149.505 101.149L142.164 92.8169C140.73 95.0742 138.558 98.0569 136.156 101.353C132.605 106.228 128.186 112.293 127.511 114.494L126.801 116.812L124.725 115.557C120.754 113.153 118.114 111.281 114.772 108.91C113.397 107.934 111.88 106.858 110.072 105.604C107.153 110.438 102.446 119.88 98.9008 126.989C94.1395 136.542 94.1395 136.542 93.2408 136.906C91.5435 137.594 90.6862 136.532 86.5515 131.412C84.5848 128.977 81.4995 125.156 79.6729 123.581C72.6569 128.648 62.6528 135.089 52.9635 141.328C39.8115 149.797 26.2128 158.553 22.2315 162.57C21.8622 162.944 21.3755 163.13 20.8902 163.13Z" fill="#F69F32"/>
<path d="M230 31.2688C230 31.8722 229.769 32.4545 229.338 33H164.38C164.132 32.4545 164 31.8722 164 31.2688C164 28.0485 167.786 25.4386 172.458 25.4386C173.94 25.4386 175.33 25.7017 176.541 26.1648C177.177 21.5921 183.521 18 191.251 18C199.31 18 205.859 21.9008 206.016 26.7436C208.543 25.9297 211.774 25.4386 215.289 25.4386C223.415 25.4386 230 28.0485 230 31.2688Z" fill="#F4F4F4"/>
<path d="M26.036 56.2337L25.9493 56.8563L25.3622 56.6318C24.2106 56.1914 22.8812 55.9386 21.4582 55.9386C19.2107 55.9386 17.198 56.5673 15.761 57.5578C14.3218 58.5498 13.5 59.8701 13.5 61.2688C13.5 61.6923 13.5738 62.1047 13.7162 62.5H78.0853C78.3667 62.0868 78.5 61.6748 78.5 61.2688C78.5 60.6473 78.1843 60.0033 77.5023 59.3641C76.8193 58.7241 75.804 58.1247 74.5076 57.6109C71.9178 56.5845 68.3055 55.9386 64.2894 55.9386C60.817 55.9386 57.6387 56.4242 55.1691 57.2195L54.5376 57.4229L54.5161 56.7598C54.4451 54.5751 52.9264 52.5194 50.3415 50.9858C47.7663 49.458 44.2055 48.5 40.2509 48.5C36.4584 48.5 33.0263 49.382 30.4795 50.8042C27.9225 52.2321 26.3244 54.1615 26.036 56.2337Z" fill="white" stroke="#F4F4F4"/>
<path d="M143.519 143.112C130.077 142.81 116.837 147.419 103.501 145.698C100.902 136.395 95.826 127.795 88.9366 121.024C79.8873 112.128 66.0166 105.548 58.598 79.3765C56.1246 70.6525 56.9553 61.2338 58.1993 52.2511C59.4433 43.2684 62.6153 34.3911 68.3993 27.4071C78.0353 15.7738 88.362 10.0458 103.017 6.38176C119.683 2.2151 141.635 2.87378 156.683 13.5484C180.307 30.3098 181.473 51.3204 181.649 63.7298C181.713 68.3191 181.749 72.9391 180.951 77.4604C177.85 95.0485 168.086 107.796 160.683 114.548C155.883 118.927 151.241 124.228 148.622 130.174C146.405 135.21 146.586 138.232 143.347 142.68C143.731 142.2 143.135 143.592 143.519 143.112Z" fill="#93CCFF"/>
<path d="M101.126 176.853C100.974 178.934 102.653 180.681 104.74 180.605C108.54 180.467 134.033 181.538 142.753 180.894C144.676 180.751 146.144 179.142 146.184 177.217C146.47 163.119 149.224 144.526 145.684 140.217C143.776 137.894 116.202 139.889 103.184 140.05C100.214 140.086 101.169 153.133 101.253 156.67C101.293 158.341 101.602 170.301 101.126 176.853Z" fill="#0079C2"/>
<path d="M132.444 94.2938C130.651 88.3032 132.376 81.8898 134.098 75.8792C134.809 73.3992 135.54 70.8765 136.961 68.7245C138.349 66.6218 140.324 64.9872 142.027 63.1312C144.465 60.4738 146.348 57.3632 148.213 54.2752C148.532 53.7485 148.863 53.1712 148.797 52.5578C148.756 52.1645 148.553 51.8072 148.341 51.4712C144.607 45.5325 137.487 42.8325 130.864 40.5165C130.619 41.1098 130.373 41.7032 130.127 42.2952C132.579 43.2552 132.131 46.7698 132.741 49.3298C133.253 51.4738 134.464 53.2072 136.523 53.9925C133.248 54.0778 129.796 54.2125 127.016 55.9472C124.983 57.2152 123.599 58.2898 123.041 60.6205C122.172 60.0885 120.072 62.0418 119.059 62.1325C116.267 62.3818 115.017 61.4938 114.823 60.9098C112.399 60.7032 111.184 59.6325 108.003 60.4218C107.903 57.9085 105.963 55.7645 103.692 54.6818C101.421 53.6005 99.3025 53.3658 96.7958 53.1578C99.3052 52.3698 101.383 50.3191 102.203 47.8205C102.715 46.2618 102.876 44.3832 104.224 43.4498C104.997 42.9152 105.981 42.7151 106.92 42.6552C107.533 42.1618 107.397 41.1605 106.952 40.5125C106.507 39.8632 107.029 39.4592 106.6 38.7992C106.481 38.6165 104.351 38.2152 97.6838 41.9658C94.7292 43.6272 92.1998 47.5512 90.6532 50.5672C88.3745 55.0098 89.1638 60.6765 92.0652 64.7405C94.9652 68.8045 99.7172 71.3245 104.642 72.1458C105.24 72.2458 105.887 72.3432 106.319 72.7698C106.865 73.3072 106.877 74.1698 106.853 74.9378C106.628 82.1165 106.404 89.2978 106.18 96.4765C111.499 96.4098 116.666 93.2351 119.129 88.5191C122.097 92.7885 132.585 92.9498 132.444 94.2938Z" fill="#064677"/>
<path d="M128.558 36.9898C127.715 36.4005 126.738 35.8698 125.717 35.9858C124.835 36.0871 124.066 36.6698 123.538 37.3832C123.011 38.0965 122.69 38.9378 122.375 39.7672C122.277 40.0285 122.175 40.3098 122.238 40.5818C122.371 41.1765 123.131 41.3418 123.741 41.3618C124.39 41.3858 125.15 41.3271 125.509 40.7858C125.745 40.4311 125.758 39.9218 126.102 39.6725C126.537 39.3578 127.133 39.6792 127.565 39.9965C128.637 40.7818 129.709 41.5671 130.779 42.3525C133.749 40.5991 130.185 38.1298 128.558 36.9898Z" fill="#FFBA9A"/>
<path d="M112.178 36.5072C112.846 36.2379 113.635 35.9753 114.251 36.3486C114.566 36.5393 114.77 36.8619 114.963 37.1739C115.364 37.8219 115.774 38.4886 115.914 39.2366C116.042 39.9166 115.914 40.6766 115.438 41.1793C114.962 41.6819 114.099 41.8272 113.56 41.3926C113.071 40.9952 112.946 40.2526 112.422 39.9032C111.903 39.5579 111.212 39.7286 110.616 39.9126C109.534 40.2473 108.475 40.6299 107.43 41.0552C107.667 39.9499 107.2 39.0486 107.979 38.2126C108.758 37.3753 111.102 36.9419 112.178 36.5072Z" fill="#FFBA9A"/>
<path d="M128.746 86.9899C129.498 90.4646 129.374 93.8526 130.128 97.3272C130.601 99.5126 129.878 113.759 128.517 114.882C128.818 114.803 129.545 128.527 131.29 136.495C132.729 136.503 134.242 136.531 135.492 137.247C136.74 137.965 137.573 139.622 136.888 140.887C131.228 140.127 125.442 140.31 119.844 141.429C116.786 142.039 113.726 142.931 110.616 142.741C109.945 140.885 111.058 138.765 112.682 137.646C114.306 136.526 116.721 135.713 116.683 135.215C116.274 129.946 115.985 123.539 115.577 118.27C115.477 116.983 115.317 115.569 114.367 114.695C113.677 114.059 111.762 101.797 111.833 97.3526C111.865 95.3766 111.898 93.3832 112.339 91.4579C112.45 90.9752 112.593 90.4832 112.905 90.0992C113.258 89.6619 113.787 89.4126 114.303 89.1912C119.177 87.0952 123.462 86.5099 128.746 86.9899Z" fill="#1E2939"/>
<path d="M128.425 42.8911C128.266 43.1004 128.101 43.3738 128.218 43.6098C128.293 43.7578 128.458 43.8351 128.612 43.9004C129.306 44.1978 130.001 44.4937 130.697 44.7911C130.898 44.8777 131.156 44.9551 131.314 44.8044C131.404 44.7191 131.428 44.5898 131.452 44.4698C131.874 42.3204 133.498 40.8857 134.865 39.3204C131.882 36.8804 129.996 40.8004 128.425 42.8911Z" fill="white"/>
<path d="M107.71 36.0153C107.788 38.822 108.166 41.6193 108.838 44.3446C107.888 44.522 106.937 44.6993 105.986 44.8766C106.934 44.6993 105.711 39.61 105.558 39.0073C104.931 36.566 105.55 36.9553 107.71 36.0153Z" fill="white"/>
<path d="M114.392 93.0485L114.684 60.9658C114.684 60.9658 123.017 59.9658 123.225 60.5912C123.433 61.2152 126.141 92.1325 126.141 92.1325C126.141 92.1325 116.892 92.9659 114.392 93.0485Z" fill="white"/>
<path d="M118.946 60.6699C118.36 61.5446 117.834 62.4699 117.37 63.4379C117.2 63.7939 117.042 64.2486 117.242 64.5819C117.316 64.7073 117.432 64.7913 117.544 64.8699L118.812 65.7766C119.226 66.0713 119.811 65.9579 120.06 65.5153C120.363 64.9793 120.698 64.4659 121.059 63.9819C121.316 63.6366 121.303 63.1632 121.007 62.8512L119.2 60.9486C119.162 60.8286 119.123 60.7086 119.083 60.5886L118.946 60.6699Z" fill="#1E2939"/>
<path d="M113.904 61.1605C113.904 61.1605 115.404 63.0765 118.35 63.4378C121.294 63.7992 123.932 61.9658 124.266 61.3272C124.599 60.6885 122.376 60.0485 121.822 60.0485C121.266 60.0485 114.266 60.6325 113.904 61.1605Z" fill="#1E2939"/>
<path d="M120.145 85.9326C118.961 84.8272 118.238 84.4126 117.238 82.7712C117.314 82.1992 117.512 79.0499 117.588 78.4779C118.014 75.2686 117.881 71.7592 118.308 68.5486C118.478 67.2672 118.228 64.0486 118.308 63.6326C118.389 63.2166 119.473 62.9632 119.6 63.3326C120.424 68.2472 121.86 77.6899 122.684 82.6046C122.852 83.6126 121.905 84.1046 120.145 85.9326Z" fill="#1E2939"/>
<path d="M116.488 57.0485C116.488 57.0485 116.488 59.0484 116.016 59.8271C115.543 60.6044 115.294 60.6044 115.35 60.7991C115.404 60.9938 117.183 61.9098 119.21 61.7711C121.238 61.6324 123.224 60.7018 123.071 60.4658C122.919 60.2298 120.516 58.3818 120.322 56.2711C120.127 54.1604 116.488 57.0485 116.488 57.0485Z" fill="#FFBA9A"/>
<path d="M112.81 63.8566C113.292 64.5032 113.804 65.1166 114.352 65.7073C114.65 66.0273 115.006 66.5392 115.506 66.4872C115.97 66.4392 116.39 66.1232 116.784 65.9032C117.631 65.4312 118.436 64.8886 119.222 64.3192C119.824 63.8819 118.906 63.6393 118.52 63.9166C117.64 64.5553 116.535 65.5046 115.484 65.8219C115.656 65.8326 115.828 65.8432 115.999 65.8526C115.135 65.3352 114.412 64.1966 113.82 63.4046C113.566 63.0619 112.511 63.4552 112.81 63.8566Z" fill="#1E2939"/>
<path d="M119.583 64.646C120.028 65.2513 120.768 66.342 121.652 66.2686C122.124 66.23 122.494 65.986 122.887 65.7487C123.547 65.3487 124.207 64.9487 124.868 64.5487C125.502 64.1647 124.586 63.81 124.148 64.074C123.582 64.4166 123.016 64.7593 122.45 65.102C121.986 65.3833 121.815 65.5246 121.388 65.1206C121.087 64.834 120.832 64.5046 120.587 64.1713C120.303 63.7846 119.256 64.202 119.583 64.646Z" fill="#1E2939"/>
<path d="M119.588 87.1807C119.645 87.5327 119.701 87.8833 119.758 88.2366C120.124 88.138 120.489 88.0406 120.853 87.942C120.797 87.5913 120.74 87.2393 120.682 86.8873C120.64 86.6166 119.537 86.8633 119.588 87.1807C119.645 87.5327 119.701 87.8833 119.758 88.2366C119.802 88.506 120.905 88.2593 120.853 87.942C120.797 87.5913 120.74 87.2393 120.682 86.8873C120.64 86.6166 119.537 86.8633 119.588 87.1807Z" fill="#1E2939"/>
<path d="M119.938 90.2367C119.932 90.6273 119.965 90.994 120.062 91.374C120.17 91.7913 121.208 91.5047 121.158 91.0807C121.117 90.7287 121.076 90.378 121.036 90.0273C120.989 89.6273 119.889 89.8793 119.94 90.3206C119.981 90.6726 120.022 91.022 120.062 91.374C120.428 91.2753 120.793 91.178 121.158 91.0807C121.074 90.7553 121.03 90.45 121.037 90.1127C121.046 89.6247 119.946 89.8433 119.938 90.2367Z" fill="#1E2939"/>
<path d="M98.4609 167.531C98.4609 167.55 98.4609 167.568 98.4609 167.587C98.4609 168.174 99.5716 168.022 99.5716 167.511C99.5716 167.492 99.5716 167.474 99.5716 167.455C99.5716 166.87 98.4609 167.022 98.4609 167.531Z" fill="white"/>
<path d="M111.062 140.258C119.4 140.177 127.733 139.993 136.065 139.703C136.386 139.693 137.253 139.195 136.529 139.221C128.196 139.509 119.862 139.694 111.525 139.775C111.202 139.778 110.337 140.265 111.062 140.258Z" fill="white"/>
<path d="M119.939 97.4272C120.77 111.449 122.683 125.489 123.007 139.505C123.019 140.022 124.119 139.815 124.11 139.394C123.784 125.309 121.868 111.222 121.034 97.1339C121.008 96.7112 119.911 96.9525 119.939 97.4272Z" fill="white"/>
<path d="M114.848 115.984C115.481 117.034 116.645 117.474 117.832 117.358C118.373 117.306 118.737 116.665 117.978 116.738C117.085 116.825 116.31 116.291 115.864 115.552C115.673 115.236 114.608 115.587 114.848 115.984Z" fill="white"/>
<path d="M125.952 116.613C127.328 116.329 128.474 115.539 129.263 114.386C129.422 114.153 129.124 113.973 128.935 113.943C128.652 113.899 128.374 114.049 128.22 114.274C127.632 115.133 126.771 115.679 125.759 115.889C125.071 116.031 125.275 116.753 125.952 116.613Z" fill="white"/>
<path d="M116.518 135.859C118.762 135.826 120.984 135.452 123.229 135.428C123.653 135.423 124.385 134.776 123.649 134.784C121.404 134.81 119.182 135.182 116.938 135.217C116.514 135.223 115.782 135.871 116.518 135.859Z" fill="white"/>
<path d="M123.188 136.344C125.835 136.455 128.482 136.564 131.128 136.675C131.52 136.691 132.3 136.124 131.564 136.094C128.918 135.983 126.272 135.872 123.626 135.762C123.234 135.746 122.454 136.314 123.188 136.344Z" fill="white"/>
<path d="M113.683 52.6605C112.96 52.3272 112.738 48.7152 114.85 47.8819C116.96 47.0485 119.738 48.1045 120.904 47.6045C122.071 47.1045 122.238 45.5485 122.516 45.5485C122.794 45.5485 124.016 47.8818 123.683 49.9938C123.35 52.1045 120.738 53.7712 120.738 53.7712L113.683 52.6605Z" fill="#1E2939"/>
<path d="M119.73 57.4858C123.902 55.7952 121.974 46.0739 116.4 49.0685C111.421 51.7432 113.772 59.9005 119.73 57.4858Z" fill="#FFBA9A"/>
<path d="M113.627 51.2153C113.627 51.2153 115.627 49.4939 116.738 49.9939C117.85 50.4939 119.516 50.3819 120.46 50.2153C121.404 50.0486 122.071 49.3819 122.071 49.3819C122.071 49.3819 120.127 48.1046 118.85 48.1606C117.571 48.2153 114.127 49.4939 114.127 49.4939L113.627 51.2153Z" fill="#1E2939"/>
<path d="M97.121 173.686C115.252 174.134 133.39 174.353 151.522 174.675C151.905 174.682 152.697 174.117 151.962 174.103C133.829 173.781 115.692 173.563 97.561 173.115C97.1784 173.106 96.3877 173.669 97.121 173.686Z" fill="white"/>
<path d="M97.5332 167.606C115.385 167.205 133.235 167.342 151.079 168.017C151.724 168.041 151.897 167.189 151.161 167.161C133.317 166.486 115.468 166.35 97.6159 166.751C96.9732 166.766 96.7892 167.623 97.5332 167.606Z" fill="white"/>
<path d="M97.4142 157.453C118.437 156.699 139.389 157.957 160.172 161.227C160.51 161.281 161.457 160.739 160.845 160.643C139.985 157.361 118.949 156.089 97.8435 156.845C97.4462 156.859 96.6808 157.479 97.4142 157.453Z" fill="white"/>
<path d="M96.3995 150.558C116.013 150.137 135.614 150.523 155.194 151.713C155.683 151.742 156.333 151.03 155.591 150.985C135.918 149.79 116.222 149.409 96.5181 149.833C95.9235 149.845 95.6501 150.574 96.3995 150.558Z" fill="white"/>
<path d="M215.498 73.1453C215.396 73.1453 215.296 73.1373 215.195 73.1213C214.164 72.9546 213.463 71.9853 213.628 70.9546L213.66 70.7599C214.028 68.4706 214.452 65.8239 215.035 63.3119C214.376 63.4893 213.724 63.6253 213.086 63.7586L206.276 65.1839C205.256 65.3999 204.256 64.7426 204.04 63.7213C203.827 62.6999 204.482 61.6986 205.503 61.4839L212.312 60.0586C213.318 59.8479 214.268 59.6493 215.135 59.3173C215.748 59.0799 216.334 58.7693 216.875 58.3919L221.728 55L219.736 60.5773C218.624 63.6893 217.942 67.9413 217.391 71.3599L217.36 71.5559C217.211 72.4839 216.408 73.1453 215.498 73.1453Z" fill="#F69F32"/>
</svg>
