<svg width="194" height="102" viewBox="0 0 194 102" fill="none" xmlns="http://www.w3.org/2000/svg">
<g opacity="0.8">
<path fill-rule="evenodd" clip-rule="evenodd" d="M70.8528 101.699H69.4131V90.3247H66.0475V89.0605H74.1968V90.3247H70.8528V101.699Z" fill="#0079C2"/>
<path fill-rule="evenodd" clip-rule="evenodd" d="M98.5418 90.0816C96.3268 90.0816 95.8069 92.3097 95.8069 95.1383C95.8069 98.8048 96.2038 100.736 98.5756 100.736C100.951 100.736 101.366 98.8048 101.366 95.1533C101.366 92.3247 100.828 90.0816 98.5418 90.0816ZM94.318 95.3635C94.318 92.4688 94.801 88.8174 98.5787 88.8174C102.372 88.8174 102.858 92.4688 102.858 95.3635C102.858 98.8558 102.356 101.997 98.5787 101.997C94.7979 101.997 94.318 98.8558 94.318 95.3635Z" fill="#0079C2"/>
<path fill-rule="evenodd" clip-rule="evenodd" d="M126.613 89.0605L129.148 98.9278C129.271 99.4533 129.345 99.9818 129.419 100.79H129.456C129.545 100.159 129.579 99.6275 129.776 98.9098L132.351 89.0636H134.885V101.702H133.449V91.2947C133.449 90.7481 133.501 90.1716 133.501 89.6971H133.449C133.267 90.4328 133.141 90.8742 133.015 91.3817L130.299 101.702H128.591L125.875 91.2406C125.764 90.8022 125.66 90.3818 125.496 89.6971H125.463C125.463 90.3668 125.518 90.7872 125.518 91.3277V101.702H124.078V89.0605H126.613Z" fill="#0079C2"/>
<path fill-rule="evenodd" clip-rule="evenodd" d="M162.432 92.8562C162.432 91.3247 161.912 90.0816 160.115 90.0816C157.611 90.0816 157.596 93.5228 157.596 95.1924C157.596 97.7538 157.737 100.739 160.115 100.739C161.979 100.739 162.287 99.2282 162.432 97.1412H163.868C163.711 100.051 162.97 102 160.223 102C156.408 102 156.1 98.2102 156.1 95.2254C156.1 92.3817 156.639 88.8174 160.183 88.8174C162.625 88.8174 163.865 90.5891 163.865 92.8562H162.432Z" fill="#0079C2"/>
<path fill-rule="evenodd" clip-rule="evenodd" d="M186.457 95.5587L191.167 89.0605H192.969L188.828 94.3485L193.089 101.699H191.422L187.97 95.4506L186.457 97.2973V101.699H185.017V89.0605H186.457V95.5587Z" fill="#0079C2"/>
<path fill-rule="evenodd" clip-rule="evenodd" d="M56.9272 34.3794C56.8503 37.9798 56.4134 41.7813 55.8443 44.0485C56.0474 40.1358 55.5675 34.6166 54.6445 30.3045C53.7216 25.9895 51.1098 18.8037 49.0271 15.4616C47.1044 18.6355 44.7357 24.8634 43.4897 30.2625C42.2438 35.6736 42.2038 42.2077 42.2038 44.1716C41.8747 42.514 41.0471 36.6255 41.2809 30.6949C41.4778 25.8093 42.6437 20.7886 43.2898 18.4764C45.7385 10.7561 48.5103 5.83149 49.0271 5.05376C49.5501 5.83149 53.0387 11.9062 54.8476 18.2842C56.6472 24.6682 57.0103 30.773 56.9272 34.3794ZM49.0702 61.9333C50.1931 59.9004 52.1158 55.4382 51.9528 49.7659C51.7159 43.9764 49.7039 39.7334 49.101 38.7245C48.418 39.7334 46.0985 44.601 46.1354 50.2793C46.2984 56.1409 47.9873 59.9364 49.0702 61.9333ZM57.5701 18.3623C55.3644 8.92741 49.8362 1.26119 49.0702 0C47.8612 1.76566 43.4497 8.53103 41.2071 16.0531C38.7552 24.434 38.3984 31.872 39.2475 39.1959C40.0811 46.5138 43.2529 54.0359 43.2529 54.0359C44.9387 57.9816 47.4613 62.2066 49.1041 64.2845C51.5159 61.2246 57.0533 52.1141 58.7761 40.2109C59.7359 33.5956 59.779 27.8002 57.5701 18.3623Z" fill="#0079C2"/>
<path fill-rule="evenodd" clip-rule="evenodd" d="M52.8146 66.4824H36.027V77.4758C36.0424 77.4608 36.0516 77.4488 36.0701 77.4308C40.0263 73.5721 46.4343 73.5721 50.3936 77.4308C54.3497 81.2984 54.3497 87.5563 50.3936 91.4149C50.3782 91.4269 50.3597 91.4449 50.3443 91.457C50.3443 91.466 50.3443 91.466 50.3413 91.466C50.3289 91.478 50.3043 91.499 50.2859 91.514C46.342 95.3336 41.183 97.2524 36.0301 97.2524C30.8557 97.2524 25.6751 95.3216 21.722 91.475C14.7634 84.6736 13.9358 74.1577 19.2487 66.4824C19.9593 65.4405 20.7838 64.4525 21.722 63.5427C25.6751 59.684 30.8557 57.7592 36.0301 57.7592V31.3193C16.1354 31.3193 0 47.0692 0 66.4824C0 85.9017 16.1354 101.652 36.0301 101.652C46.4128 101.652 55.7525 97.3665 62.3267 90.5171V66.4854H52.8146V66.4824Z" fill="#0079C2"/>
<path fill-rule="evenodd" clip-rule="evenodd" d="M66.1352 31.4287H77.773V35.2663H72.2294V62.3128H66.1352V31.4287Z" fill="#0079C2"/>
<path fill-rule="evenodd" clip-rule="evenodd" d="M77.9102 62.3128H83.8813L84.4535 54.1061H87.3299L87.896 62.3128H93.8702L90.6924 31.4287H81.0942L77.9102 62.3128ZM84.6719 50.7069L85.7179 35.2603H86.0625L87.1053 50.7069H84.6719Z" fill="#0079C2"/>
<path fill-rule="evenodd" clip-rule="evenodd" d="M102.604 51.4996V57.3101C102.604 58.1058 103.217 58.328 103.564 58.328C104.13 58.328 104.521 57.8416 104.521 57.3101V50.1333C104.521 49.1604 104.349 48.1034 102.082 48.1034H99.5927V44.7072H102.165C103.906 44.7072 104.518 44.3048 104.518 42.4131V36.2753C104.518 35.7438 104.127 35.2663 103.561 35.2663C103.214 35.2663 102.601 35.4855 102.601 36.2753V41.311H96.4949V36.9479C96.4949 34.7889 96.7594 31.4287 101.032 31.4287H106.093C110.369 31.4287 110.625 34.7889 110.625 36.9479V41.8906C110.625 45.2417 108.317 46.1666 106.487 46.0765V46.3828C110.578 46.2897 110.625 49.4697 110.625 50.5777V56.7906C110.625 58.9556 110.369 62.3128 106.093 62.3128H101.032C96.7594 62.3128 96.4949 58.9556 96.4949 56.7906V51.4996H102.604Z" fill="#0079C2"/>
<path fill-rule="evenodd" clip-rule="evenodd" d="M114.641 31.4287H128.771V62.3128H122.67V35.2663H120.747V62.3128H114.641V31.4287Z" fill="#0079C2"/>
<path fill-rule="evenodd" clip-rule="evenodd" d="M132.788 62.3128H138.894V51.8089H142.377C146.656 51.8089 146.911 48.4608 146.911 46.2897V36.9479C146.911 34.7889 146.653 31.4287 142.377 31.4287H132.785V62.3128H132.788ZM138.894 48.4067V35.2633H139.667C140.334 35.2633 140.805 35.8339 140.805 36.8008V46.8693C140.805 47.8392 140.331 48.4067 139.667 48.4067H138.894Z" fill="#0079C2"/>
<path fill-rule="evenodd" clip-rule="evenodd" d="M150.931 56.7906C150.931 58.9556 151.183 62.3128 155.456 62.3128H160.514C164.787 62.3128 165.048 58.9556 165.048 56.7906V36.9479C165.048 34.7889 164.79 31.4287 160.514 31.4287H155.456C151.186 31.4287 150.931 34.7889 150.931 36.9479V56.7906ZM158.954 57.3101C158.954 57.8416 158.554 58.328 157.994 58.328C157.64 58.328 157.025 58.1058 157.025 57.3101V36.2753C157.025 35.4855 157.637 35.2663 157.994 35.2663C158.554 35.2663 158.954 35.7438 158.954 36.2753V57.3101Z" fill="#0079C2"/>
<path fill-rule="evenodd" clip-rule="evenodd" d="M184.935 31.4287H192.869V62.3128H186.766V42.9446H186.55L183.406 62.3128H178.521L175.383 42.9446H175.171V62.3128H169.058V31.4287H176.995L180.964 53.1331L184.935 31.4287Z" fill="#0079C2"/>
<path d="M88.6041 74.8161H88.0535V71.7022H88.5518C89.4409 71.7022 90.0961 71.9964 90.0961 73.2276C90.0961 74.4528 89.367 74.8161 88.6041 74.8161Z" fill="#0079C2"/>
<path d="M105.598 77.1703L104.783 71.6992H104.767L103.967 77.1703H105.598Z" fill="#0079C2"/>
<path d="M170.367 77.1703L169.549 71.6992H169.537L168.734 77.1703H170.367Z" fill="#0079C2"/>
<path fill-rule="evenodd" clip-rule="evenodd" d="M192.868 84.9386L66.153 84.8966V66.4983L192.868 66.4893V84.9386ZM142.566 76.9811V78.1402C142.566 80.9599 141.259 82.1941 138.416 82.1941C135.595 82.1941 134.266 80.9809 134.266 78.1222V72.7051C134.266 70.7473 135.506 69.1888 138.416 69.1888C141.29 69.1888 142.566 70.7833 142.566 72.7231V73.5729H139.499V72.4469C139.499 71.7892 138.862 71.477 138.382 71.477C137.866 71.477 137.336 71.7532 137.336 72.3958V78.5907C137.336 79.5275 137.746 79.9059 138.382 79.9059C139.038 79.9059 139.499 79.5606 139.499 78.6267V76.9811H142.566ZM71.6842 81.8968H74.5052V71.8193H76.7571V69.4651H69.2693V71.8193H71.6842V81.8968ZM84.9863 81.8968H88.0535V77.0502H89.4409C91.2498 77.0502 93.1663 76.3235 93.1663 73.2576C93.1663 70.0896 91.2129 69.4651 89.4409 69.4651H84.9863V81.8968ZM106.662 69.4651L109.483 81.8968H106.465L106.004 79.4044H103.66L103.272 81.8968H100.22L102.989 69.4651H106.662ZM122.539 74.2636H120.537V69.4651H117.469V81.8968H120.537V76.6178H122.539V81.8968H125.613V69.4651H122.539V74.2636ZM158.357 71.8193V69.4651H151.226V81.8968H154.293V71.8193H158.357ZM171.432 69.4651L174.253 81.8968H171.238L170.773 79.4044H168.432L168.038 81.8968H164.99L167.755 69.4651H171.432ZM185.746 69.1888C183.546 69.1888 181.894 70.6782 181.894 73.2576H184.715C184.715 71.9784 184.961 71.4259 185.746 71.4259C186.472 71.4259 186.776 72.0115 186.776 72.9483C186.776 73.8312 186.293 74.3146 185.85 74.3146H185.124V76.5517H185.567C186.539 76.5517 186.915 77.0172 186.915 78.1763C186.915 79.5636 186.595 79.963 185.795 79.963C185.121 79.963 184.712 79.5636 184.712 78.1763H181.891C181.891 81.3833 184.023 82.1971 185.921 82.1971C188.351 82.1971 189.982 81.035 189.982 78.5756C189.982 76.3385 189.059 75.822 187.764 75.3536H187.73C189.025 74.7981 189.539 74.0234 189.539 72.4799C189.539 70.7323 188.173 69.1888 185.746 69.1888Z" fill="#0079C2"/>
</g>
</svg>
