<svg width="76" height="233" viewBox="0 0 76 233" fill="none" xmlns="http://www.w3.org/2000/svg">
<path id="Vector" fill-rule="evenodd" clip-rule="evenodd" d="M66.2491 124.122C65.9678 137.121 64.3697 150.846 62.2878 159.031C63.0305 144.905 61.275 124.979 57.8989 109.411C54.5227 93.8317 44.9683 67.8884 37.3496 55.822C30.316 67.2813 21.6507 89.7662 17.0929 109.259C12.5352 128.795 12.3889 152.386 12.3889 159.476C11.1847 153.492 8.15749 132.232 9.01277 110.82C9.73301 93.1812 13.9982 75.0545 16.3614 66.7067C25.3194 38.8337 35.459 21.0539 37.3496 18.246C39.2627 21.0539 52.0244 42.9859 58.6416 66.0128C65.225 89.0615 66.5529 111.102 66.2491 124.122ZM37.5072 223.602C41.6148 216.263 48.6483 200.153 48.0519 179.673C47.1853 158.771 39.8254 143.452 37.6197 139.81C35.1214 143.452 26.6361 161.026 26.7711 181.527C27.3676 202.689 33.5458 216.393 37.5072 223.602ZM68.6011 66.2947C60.5322 32.2313 40.3093 4.55336 37.5072 0C33.0844 6.3747 16.9466 30.8002 8.74268 57.9577C-0.226519 88.2159 -1.53195 115.07 1.57407 141.512C4.62382 167.932 16.2264 195.09 16.2264 195.09C22.3934 209.335 31.6214 224.589 37.6309 232.091C46.4538 221.044 66.7105 188.151 73.0126 145.176C76.5237 121.293 76.6813 100.369 68.6011 66.2947Z" fill="#0079C2"/>
</svg>
